<svg width="268" height="117" viewBox="0 0 268 117" fill="none" xmlns="http://www.w3.org/2000/svg">
<path d="M20.7968 76.1411C17.6113 76.6238 14.5653 77.7798 11.8616 79.5321C9.15794 81.2844 6.85874 83.5927 5.11719 86.3033C5.11719 86.3033 12.6473 78.7168 29.2137 82.3201C26.0749 80.7576 23.2279 78.6676 20.7968 76.1411Z" fill="#950FFF"/>
<path d="M105.77 81.7715C104.745 83.312 103.545 84.7289 102.195 85.994C102.021 90.4857 101.594 94.9641 100.914 99.4075H107.276C110.582 96.4048 113.712 93.2139 116.65 89.8506C112.512 87.9248 108.81 85.1759 105.77 81.7715Z" fill="#950FFF"/>
<path d="M228.801 77.3501C231.616 85.218 231.137 85.9499 231.968 91.8614C242.904 84.5002 261.075 87.2167 266.057 99.9687C268.985 90.3132 246.732 68.8769 228.801 77.3501Z" fill="#950FFF"/>
<path d="M163.739 47.3711C152.324 53.1841 144.16 65.7953 141.219 71.8617C145.681 78.7725 150.649 85.6412 154.52 90.8067C151.831 82.2632 151.282 76.4502 151.381 72.8188C151.35 72.2044 151.445 71.5902 151.66 71.0139C151.875 70.4376 152.206 69.9113 152.632 69.4672C153.057 69.0231 153.569 68.6706 154.136 68.4313C154.702 68.192 155.312 68.0709 155.927 68.0755C158.742 68.0755 162.965 67.8081 166.005 67.8644C165.54 62.5159 165.174 56.8155 166.962 50.9743C165.864 49.6653 164.766 48.4689 163.739 47.3711Z" fill="#950FFF"/>
<path d="M176.711 94.5377C175.657 94.461 174.612 94.7824 173.784 95.4385L170.321 92.1309C170.182 91.9959 170.011 91.899 169.823 91.8497C169.636 91.8004 169.439 91.8003 169.251 91.8494C169.01 91.7657 168.747 91.7657 168.506 91.8494L162.875 94.3688C162.715 94.4438 162.574 94.5547 162.464 94.6929C162.353 94.831 162.276 94.9927 162.238 95.1655C162.2 95.3382 162.202 95.5174 162.244 95.6893C162.286 95.8611 162.368 96.0209 162.481 96.1563L168.351 102.856C167.562 103.518 165.536 103.349 165.747 104.883C165.842 105.2 166.056 105.469 166.345 105.631C166.634 105.794 166.974 105.839 167.295 105.756C168.59 105.967 170.631 104.461 171.264 103.884C173.488 102.223 174.079 97.4231 176.458 96.846C178.245 97.1838 176.373 100.365 178.302 100.646C178.451 100.674 178.603 100.674 178.752 100.646C178.908 100.685 179.07 100.691 179.229 100.663C179.387 100.635 179.537 100.574 179.67 100.483C179.803 100.393 179.916 100.275 180 100.138C180.084 100.002 180.139 99.8485 180.16 99.6892C180.568 98.3661 180.033 94.3125 176.711 94.5377ZM165.859 95.8748L168.942 94.4673L172.137 97.5357C171.518 98.6617 171.025 99.8581 170.321 100.942L165.859 95.8748Z" fill="white"/>
<path d="M224.52 93.3129L220.579 91.0327C220.072 90.7231 218.623 90.709 218.355 91.7083L216.948 96.4094C216.455 98.0421 219.312 98.4221 219.763 97.0428L220.649 94.0026L222.141 94.8752L220.593 101.913L212.021 95.9449L215.737 93.8759C217.145 93.0595 215.737 90.9623 214.076 91.8772L208.77 94.833C208.602 94.9289 208.46 95.0657 208.359 95.2307C208.257 95.3957 208.199 95.5837 208.189 95.7772C208.179 95.9707 208.218 96.1636 208.303 96.338C208.387 96.5124 208.514 96.6628 208.672 96.7753L220.621 105.094C221.184 105.516 222.747 105.46 222.944 104.404L225.083 94.5515C225.135 94.3119 225.108 94.0621 225.007 93.839C224.905 93.6159 224.735 93.4314 224.52 93.3129Z" fill="white"/>
<path d="M266.223 92.6518C262.634 85.2195 256.393 79.3999 248.728 76.3388C252.387 70.948 250.459 63.6712 246.307 58.7028C246.307 57.5064 246.307 57.1686 246.18 55.0151C255.217 46.2323 247.25 39.8422 245.547 32.3965C243.788 14.5775 221.619 22.375 217.889 20.3623C209.444 15.7457 199.704 13.4655 190.274 15.5909C182.955 17.2236 181.337 19.5178 176.115 22.0372C165.558 26.7946 161.237 33.2973 161.237 43.0231C158.562 40.0569 156.772 36.3995 156.072 32.4669C155.523 28.8355 153.384 24.8382 151.033 25.176C150.062 25.0352 149.048 25.5982 148.077 27.2028C147.247 23.7262 145.727 22.375 144.193 22.558C142.25 22.3328 140.125 24.6833 139.14 28.3992C138.267 26.6257 136.831 25.4997 135.508 25.6686C134.495 25.5419 133.481 26.1049 132.792 27.6391C131.483 26.3583 130.357 25.6686 129.245 25.7953C128.758 25.7351 128.264 25.8339 127.837 26.0768C126.43 24.4018 124.727 23.2618 123.319 23.4166C122.835 23.3691 122.348 23.4686 121.921 23.7021C121.494 23.9356 121.148 24.2922 120.926 24.7256C120.05 23.8901 118.886 23.4218 117.675 23.4166C115.043 23.121 114.227 26.8509 115.423 31.1297C111.693 31.9742 113.044 37.745 113.678 39.9829L108.386 45.3737C107.72 41.7157 106.251 38.2513 104.083 35.2308C101.915 32.2103 99.1027 29.7093 95.8499 27.9085C92.5972 26.1077 88.9849 25.0521 85.2744 24.8181C81.5638 24.5841 77.8475 25.1775 74.3943 26.5553L73.6765 26.3161C69.454 19.9401 63.1765 14.8308 55.6182 16.2946C50.7482 17.1391 49.1296 21.7839 50.1711 26.4005C30.6913 23.2758 14.0827 41.1512 20.5713 59.0546C18.9808 65.684 17.9111 65.3321 17.5874 68.7242C17.3124 71.0044 17.7604 73.3134 18.8682 75.3254C13.7104 76.2221 9.01906 78.8684 5.58387 82.8188C2.14867 86.7693 0.17943 91.7827 0.00765265 97.0151C-0.513124 108.205 25.6806 117.719 37.4332 111.752C38.8407 115.679 52.2965 116.101 64.9077 116.101H77.5753C92.8889 115.904 99.9687 117.368 101.883 100.618C119.42 101.012 137.366 101.463 155.016 100.618C156.55 114.89 175.509 114.018 199.381 114.693C208.586 114.693 195.313 114.51 249.502 114.51C250.315 114.478 251.087 114.147 251.671 113.581C252.256 113.015 252.611 112.253 252.669 111.442C262.17 110.992 270.657 101.829 266.223 92.6518ZM248.7 107.529C242.859 107.529 238.481 107.276 234.118 107.234C234.383 102.299 234.091 97.3512 233.245 92.4829C247.644 85.0794 262.479 91.8636 264.337 99.8723C263.155 105.179 257.694 108.655 252.19 109.063C251.79 108.529 251.258 108.107 250.646 107.838C250.035 107.57 249.364 107.463 248.7 107.529ZM231.148 108.388C230.937 109.795 230.402 112.005 229.192 112.132C207.404 111.892 161.885 114.947 158.915 104.095C153.552 84.3897 151.047 73.2141 153.285 70.3147C153.834 69.5828 154.791 69.259 156.494 69.2309C178.859 68.9212 198.719 67.4715 223.013 69.1042C224.8 69.6531 228.46 80.7021 230.332 91.7791C230.293 92.0106 230.333 92.2483 230.444 92.4547C231.442 97.7045 231.679 103.07 231.148 108.388ZM66.1604 113.736C36.6872 113.342 41.2476 113.807 37.011 102.561C35.3501 96.2128 29.4667 84.263 33.8441 80.0405C34.0272 79.9476 34.1718 79.7931 34.2523 79.6042C36.4198 77.6759 40.3327 76.6203 45.9346 76.4655C62.529 76.0151 85.3447 76.944 91.1718 77.507C97.6745 78.1263 100.94 78.436 100.405 85.4876C99.6168 96.1705 98.8145 109.978 94.2824 111.921C89.4124 114.482 73.6343 113.652 66.1604 113.736ZM46.2442 62.1089C50.1008 61.2081 52.4654 62.2778 54.2107 66.2048C52.1753 66.8214 50.2887 67.8507 48.6686 69.2286C47.0486 70.6065 45.7298 72.3034 44.7945 74.2135C44.2878 74.2135 43.7951 74.2135 43.387 74.2979C40.586 70.3147 40.5157 64.009 46.2442 62.1089ZM82.2763 62.869C87.6108 64.2765 87.9064 71.2436 84.4861 74.7624H84.1765C81.9808 71.1451 78.5465 66.9367 74.1128 66.627C75.2107 64.5439 76.6041 62.6578 79.8414 62.5593C80.6616 62.578 81.4776 62.6817 82.2763 62.869ZM73.6061 28.9199C79.4754 31.2564 79.9258 32.4668 78.0679 33.241C74.7603 34.8596 65.9634 35.2115 58.9258 32.3402C63.4298 32.4105 70.8052 32.3965 73.6061 28.9199ZM71.2415 27.5124C69.5384 29.2437 65.4004 30.0178 61.1638 30.0459C58.7971 30.0514 56.4371 29.7965 54.1262 29.2859C51.9868 24.9226 51.7616 19.3207 56.5331 18.4622C57.0765 18.3631 57.6275 18.3113 58.1799 18.3073C65.1752 18.3777 69.4258 25.0493 71.2415 27.5828V27.5124ZM71.3259 46.7812C81.1785 56.9997 91.6363 52.9883 92.4385 57.6471C93.3271 63.5146 93.5584 69.4629 93.1282 75.3817C91.3548 75.1846 90.6228 75.1424 87.7093 74.9735C91.1014 70.0613 89.6657 62.2356 83.3742 60.7014C82.2894 60.3232 81.1445 60.1467 79.9962 60.1806C73.0713 59.9554 68.4969 67.9078 71.1289 74.2557C66.6671 74.1431 61.7971 74.0586 56.8286 74.0586C59.9815 66.7537 54.1825 56.9152 45.0338 59.9836C38.7422 61.5318 37.0954 69.5968 40.2201 74.7061C38.7336 74.9217 37.2752 75.2993 35.8709 75.8321C34.7449 69.9909 35.0123 63.7557 37.0813 61.4333C41.6698 57.2108 41.8528 53.9172 43.2462 50.6518C55.0833 54.6632 61.9379 51.0037 71.3259 46.7812ZM9.71944 82.5318C12.6901 79.7769 16.4424 78.0114 20.4587 77.4789C21.7678 78.834 23.301 79.953 24.9909 80.7865C19.8348 80.0601 14.5786 80.6608 9.71944 82.5318ZM28.2844 111.273C29.0955 108.78 29.2242 106.116 28.6574 103.557C28.0906 100.997 26.8489 98.6366 25.0612 96.7195C24.9209 96.5723 24.7441 96.4649 24.5488 96.4081C24.3536 96.3512 24.1468 96.347 23.9493 96.3957C23.7127 96.3392 23.4643 96.3599 23.2403 96.4546C23.0163 96.5494 22.8284 96.7133 22.7042 96.9224C22.58 97.1315 22.5259 97.3749 22.5499 97.6169C22.5738 97.859 22.6746 98.087 22.8374 98.2677C24.4257 99.9545 25.5059 102.055 25.9541 104.328C26.4023 106.601 26.2001 108.955 25.3709 111.118C17.6155 110.429 3.59679 104.7 2.85081 97.8314C2.85081 84.3053 16.1095 80.8569 29.4386 83.883C29.9171 92.7081 33.6611 100.295 36.3776 109.401C33.8809 110.698 31.0969 111.342 28.2844 111.273ZM117.281 47.9353C117.405 48.1502 117.596 48.3187 117.825 48.4152C118.053 48.5118 118.307 48.5311 118.548 48.4702C118.764 48.5184 118.989 48.5034 119.197 48.4271C119.405 48.3508 119.586 48.2164 119.72 48.0399C119.853 47.8634 119.933 47.6522 119.95 47.4315C119.967 47.2109 119.92 46.99 119.815 46.7953C119.519 46.6264 114.086 35.7745 116.141 33.4521C116.215 33.3811 116.308 33.3323 116.408 33.3114H116.521C117.682 34.1746 118.691 35.226 119.505 36.4219C119.612 36.5674 119.752 36.6854 119.913 36.7661C120.075 36.8469 120.253 36.8881 120.434 36.8864H120.631C120.767 36.9314 120.911 36.9459 121.053 36.9286C124.347 36.1123 119.364 32.2416 118.59 31.5942C117.548 27.7799 117.563 26.1331 118.14 25.8093C119.547 26.3161 122.109 29.9052 123.573 32.8469C123.691 33.076 123.883 33.2587 124.118 33.3659C124.353 33.473 124.617 33.4984 124.867 33.438C125.132 33.5014 125.41 33.4716 125.656 33.3536C127.485 32.1713 124.375 29.1311 123.798 27.9206C123.494 27.2662 123.391 26.5363 123.502 25.8234C124.879 26.557 125.992 27.704 126.683 29.1029C127.331 29.9052 127.542 32.3261 129.048 31.9179H129.329C131.483 31.6646 129.878 29.2296 129.329 28.2303C129.335 28.1977 129.335 28.1643 129.329 28.1317C130.353 28.7905 131.229 29.6529 131.905 30.6652C131.469 33.2832 131.666 38.1109 131.046 40.6022C130.59 40.1512 130.05 39.7946 129.456 39.5531C128.861 39.3115 128.225 39.1898 127.584 39.1947C127.275 39.1394 126.957 39.1605 126.657 39.2562C126.358 39.3518 126.087 39.5192 125.867 39.7437C124.22 41.2356 124.938 45.1907 127.499 48.7376C129.777 52.5403 131.79 56.4954 133.524 60.5747C126.697 71.7081 123.376 79.4494 115.916 88.0774C112.455 86.3077 109.346 83.923 106.739 81.0399C109.554 73.9179 109.315 71.3703 107.203 59.5895C108.272 56.0611 108.748 52.3796 108.611 48.6954L114.649 42.5164C115.429 44.3729 116.308 46.1864 117.281 47.9494V47.9353ZM138.112 34.1136C138.242 34.3837 138.448 34.61 138.704 34.7645C138.961 34.919 139.257 34.9949 139.557 34.9829C139.856 34.971 140.145 34.8716 140.389 34.6971C140.632 34.5226 140.819 34.2806 140.927 34.001C141.434 30.0319 142.813 25.6404 144.136 24.9085C144.882 25.5841 145.867 29.1311 146.135 33.3536C146.144 33.5201 146.19 33.6824 146.27 33.8289C146.349 33.9754 146.461 34.1024 146.595 34.2007C146.73 34.299 146.885 34.3662 147.049 34.3974C147.212 34.4286 147.381 34.423 147.542 34.3811C147.694 34.4182 147.852 34.4242 148.006 34.3986C148.16 34.373 148.307 34.3164 148.439 34.2322C148.571 34.1479 148.684 34.0378 148.772 33.9086C148.859 33.7794 148.92 33.6336 148.95 33.4803C149.226 31.3997 149.977 29.4106 151.146 27.6673C152.187 28.4695 152.764 30.7075 153.355 33.058C154.763 39.3073 156.255 41.3764 161.237 47.2316C150.611 53.1009 143.573 64.1498 140.857 69.062C137.521 63.3194 133.2 52.1719 129.977 47.5131C127.88 44.6136 127.725 42.2772 127.922 41.686C128.436 41.9211 128.911 42.2345 129.329 42.615C129.982 43.1629 130.814 43.4489 131.666 43.4172C134.073 43.7691 134.326 39.8281 134.481 35.7604C134.607 33.1284 134.79 29.2577 135.719 28.0754C136.926 29.9012 137.74 31.9572 138.112 34.1136ZM216.257 22.375C221.31 25.1901 241.198 17.0687 242.718 32.6357C243.942 39.9548 252.289 46.0352 243.788 53.6217C239.056 53.7676 234.32 53.6596 229.6 53.2979C228.066 42.5446 216.778 46.6404 211.471 40.9119C209.135 37.5479 206.615 34.5781 203.843 34.7752C203.056 34.734 202.274 34.9197 201.591 35.31C197.776 37.0975 202.027 43.9521 198.776 44.5855C197.607 44.3884 196.312 43.0513 195.06 41.7705C193.483 39.8844 191.611 38.6036 190.021 38.7584C188.613 38.6317 187.375 39.4622 186.629 41.7705C184.532 49.7932 171.414 46.2745 166.276 49.1176C163.264 45.6552 163.855 40.6726 164.869 36.8723C166.276 31.4675 170.344 27.428 177.536 24.2048C182.758 21.7417 184.194 19.4897 191.245 17.8992C199.986 15.8161 208.487 18.0821 216.257 22.3047V22.375ZM151.005 84.1645C147.852 79.8013 145.023 75.7195 142.56 71.8489C144.178 68.6538 151.314 55.6907 162.87 49.2162C163.405 50.0208 164.017 50.7704 164.7 51.4541C163.223 56.4403 162.796 61.6787 163.447 66.8381C150.034 66.6411 147.528 66.8241 151.005 84.0942V84.1645ZM198.733 46.7812C205.363 47.2738 201.548 38.1532 203.237 37.2101C204.926 36.2671 207.938 40.5178 209.05 42.1223C211.331 45.4441 216.327 46.0493 220.31 47.1471C215.356 46.7812 206.911 46.8516 202.294 48.1887C197.354 49.5962 198.41 51.9608 197.847 56.6337C197.217 56.3967 196.559 56.2407 195.89 56.1692C195.89 48.3857 192.174 48.3576 185.278 47.5553C188.67 45.5989 188.599 42.9246 190.148 40.8978C192.231 41.7423 195.074 47.0908 198.733 46.7812ZM172.343 50.0044C177.466 49.4695 185.784 49.4273 190.359 50.8348C192.118 51.3696 192.315 51.8764 192.315 51.8764C192.797 53.3296 193.049 54.8493 193.061 56.3804C192.462 56.5126 191.897 56.7665 191.4 57.1263C189.57 51.1163 184.123 49.0754 178.071 50.7926C171.118 52.5942 169.443 61.743 174.299 66.43L169.401 66.5707C168.908 62.8267 169.119 50.7503 172.343 50.0325V50.0044ZM179.282 52.9742C180.197 52.702 181.142 52.5413 182.097 52.4957C183.664 52.5344 185.172 53.1042 186.374 54.1116C187.576 55.119 188.4 56.5044 188.712 58.0412C184.968 58.8717 179.901 61.94 178.099 66.1485C172.92 63.432 172.962 54.6069 179.282 53.0024V52.9742ZM191.203 63.5446C191.726 64.0359 192.337 64.4228 193.005 64.6847C192.961 65.1375 192.857 65.5825 192.695 66.0077H189.739C190.363 65.2855 190.858 64.462 191.203 63.5727V63.5446ZM201.056 57.9146C201.661 54.5084 204.659 52.9461 207.755 52.8616C210.852 52.7772 214.075 54.5647 214.723 57.3093C215.214 58.7992 215.228 60.4051 214.764 61.9036C214.3 63.4021 213.38 64.7186 212.133 65.6699C210.007 61.4755 204.687 58.5198 201.028 57.9427L201.056 57.9146ZM215.356 66.3596C216.527 65.0647 217.334 63.4818 217.692 61.7728C218.051 60.0639 217.949 58.2903 217.397 56.6337C216.186 51.2711 206.475 48.3576 201.098 52.7209C201.309 51.4119 200.845 51.4119 203.28 50.497C207.882 49.0895 216.229 49.0895 221.324 49.6666C221.833 49.8382 222.283 50.152 222.62 50.571C222.956 50.9901 223.166 51.4967 223.224 52.0312C223.97 54.7617 225.082 63.2068 224.04 67.007C221.197 66.3455 218.171 66.6411 215.356 66.3596ZM195.651 66.0218C195.876 65.0928 195.651 65.2477 195.961 65.2195C197.804 65.501 198.41 62.9956 196.383 62.8971C194.201 63.0942 191.837 61.4896 192.991 59.3783C193.198 59.0998 193.468 58.8733 193.778 58.717C194.088 58.5606 194.431 58.4786 194.778 58.4775C195.872 58.519 196.919 58.931 197.748 59.6458C197.717 61.7712 197.825 63.8964 198.072 66.0077L195.651 66.0218ZM229.431 75.7617C228.944 74.277 228.376 72.8203 227.728 71.3984C230.796 69.0057 230.543 64.2061 230.543 59.9273C234.969 60.2138 239.411 60.162 243.83 59.7725C248.939 65.6558 248.742 71.8207 246.11 75.3395C240.638 73.7737 234.817 73.921 229.431 75.7617ZM102.221 98.2818C102.657 94.6223 102.967 90.1042 103.29 85.9239C104.087 85.2299 104.8 84.4459 105.416 83.5874C108.002 86.2412 110.995 88.4649 114.283 90.1746C110.37 94.5238 106.922 97.7047 106.162 98.3803L102.221 98.2818ZM109.99 98.4507C113.565 95.0445 121.25 87.1907 126.148 78.8864C128.231 75.2832 131.666 69.4561 135.044 63.6994C139.984 74.129 145.206 80.5895 152.553 90.7657C153.102 93.0318 153.735 95.5231 154.467 98.2677C143.897 98.5492 140.547 98.8448 133.524 98.8448C126.12 98.8589 120.772 98.4789 109.962 98.4507H109.99ZM263.408 93.2429C254.583 85.6002 243.464 85.3187 232.851 89.8931C232.178 85.9139 231.281 81.976 230.163 78.0982C243.591 73.3408 257.187 80.885 263.38 93.2289L263.408 93.2429Z" fill="white"/>
<path d="M53.3346 97.9287C52.4475 97.4463 51.4431 97.222 50.4351 97.2813C47.4371 97.1546 44.0309 99.1674 45.0444 102.362C45.2109 103.266 45.7019 104.079 46.425 104.646C47.1481 105.214 48.0536 105.498 48.9713 105.445C49.469 105.512 49.9756 105.457 50.4477 105.286C50.9198 105.115 51.3434 104.832 51.6823 104.461C52.0211 104.09 52.2652 103.643 52.3936 103.157C52.522 102.672 52.531 102.162 52.4197 101.673C52.3838 101.535 52.3209 101.406 52.2347 101.293C52.1485 101.181 52.0407 101.086 51.9175 101.015C51.7943 100.945 51.6583 100.899 51.5174 100.881C51.3765 100.864 51.2334 100.874 51.0966 100.913C50.9014 100.857 50.6951 100.855 50.4988 100.906C50.3025 100.957 50.1234 101.06 49.9799 101.203C49.8365 101.347 49.7339 101.526 49.6828 101.722C49.6317 101.919 49.6339 102.125 49.6891 102.32C49.6921 102.507 49.6349 102.69 49.5259 102.842C49.4169 102.994 49.262 103.107 49.0839 103.165C48.7477 103.051 48.4487 102.848 48.2183 102.578C47.9879 102.308 47.8347 101.98 47.7749 101.63C47.226 99.3222 53.8976 97.788 53.1797 103.939C53.0163 105.101 52.4251 106.161 51.5219 106.91C50.6187 107.66 49.4683 108.046 48.2957 107.992C44.7066 107.838 42.0182 104.6 43.2287 100.321C43.2889 100.126 43.2947 99.9175 43.2454 99.7188C43.196 99.5202 43.0935 99.3387 42.9487 99.1939C42.804 99.0492 42.6225 98.9466 42.4238 98.8973C42.2252 98.848 42.0168 98.8538 41.8212 98.914C41.6796 98.8721 41.5308 98.8603 41.3844 98.8794C41.238 98.8986 41.0973 98.9482 40.9713 99.0252C40.8453 99.1021 40.7368 99.2046 40.6529 99.3261C40.5689 99.4476 40.5114 99.5853 40.484 99.7303C38.978 106.655 43.299 110.315 48.2112 110.174C49.3854 110.197 50.5554 110.026 51.6737 109.667C57.0785 107.992 57.2474 99.6318 53.3346 97.9287Z" fill="white"/>
<path d="M199.792 92.2997C199.131 92.1167 198.919 92.6938 196.879 92.7501C194.598 92.7501 191.136 91.7648 187.251 87.8379C184.225 84.8118 185.351 79.3929 189.165 79.1677C190.463 79.2298 191.701 79.7298 192.677 80.5862C193.654 81.4425 194.311 82.6047 194.542 83.8828C194.838 85.7829 194.19 87.0779 193.135 87.2608C192.562 87.1312 192.033 86.8547 191.6 86.4586C189.841 85.051 189.236 84.0799 189.757 83.8406C190.169 83.8936 190.549 84.0935 190.826 84.4036C190.953 84.5486 191.117 84.6555 191.301 84.7127C191.485 84.7698 191.681 84.7749 191.868 84.7273C192.11 84.7842 192.363 84.7626 192.592 84.6657C192.82 84.5687 193.012 84.4014 193.139 84.188C193.266 83.9746 193.322 83.7263 193.299 83.479C193.275 83.2318 193.173 82.9985 193.008 82.8131C192.597 82.3802 192.098 82.0415 191.544 81.8204C190.99 81.5993 190.394 81.501 189.799 81.5323C189.372 81.4899 188.942 81.5329 188.532 81.659C183.634 83.5872 189.771 89.9069 193.486 89.5973C194.157 89.6825 194.835 89.5005 195.372 89.0906C196.219 88.4501 196.86 87.5755 197.215 86.575C197.57 85.5744 197.625 84.4916 197.371 83.4606C197.174 79.8855 192.867 76.6764 189.025 76.8453C187.923 76.7739 186.824 77.028 185.866 77.5761C184.907 78.1241 184.131 78.9419 183.634 79.9277C179.102 87.8942 191.263 95.2695 196.301 95.0021C196.592 95.0309 196.884 95.0309 197.174 95.0021C198.325 95.0215 199.47 94.8308 200.552 94.4391C200.786 94.3043 200.965 94.0918 201.059 93.8385C201.152 93.5852 201.154 93.3071 201.063 93.0528C200.973 92.7984 200.796 92.5837 200.564 92.4461C200.332 92.3085 200.059 92.2567 199.792 92.2997Z" fill="white"/>
<path d="M68.658 84.3047C69.4321 82.9957 69.8403 81.0674 68.2498 80.3214C67.909 80.1734 67.5346 80.12 67.166 80.1666C65.7585 79.9696 64.2243 81.3208 62.6479 82.9816C61.5239 81.8518 60.0174 81.184 58.4254 81.1096C56.3564 80.9126 55.4415 82.7986 57.3135 86.3315C51.9931 89.6954 53.9073 92.5808 60.0159 91.5674C61.3249 94.5091 62.6761 95.9588 63.7739 95.6773C64.9844 95.9729 65.9837 94.3824 66.3638 90.6666C74.7947 91.5674 77.5534 86.81 68.658 84.3047ZM65.4207 88.1472C65.0829 88.1472 65.2237 88.1472 64.8859 88.1472C63.2532 88.0346 63.4784 90.4695 63.2813 91.863C62.0005 89.3154 61.8738 88.9494 60.7478 89.048C60.1989 89.048 59.3403 89.2309 57.5387 89.3295C61.5782 86.2752 60.776 87.8094 59.2418 83.8261C61.5642 85.304 62.1694 85.9514 62.8309 85.7262C63.605 85.9655 63.9428 85.2759 65.8289 83.6009C65.2378 84.5299 64.6044 85.5996 66.0119 86.0922C67.7991 86.4835 69.5137 87.1532 71.093 88.0768C69.2216 88.4384 67.3005 88.4623 65.4207 88.1472Z" fill="white"/>
<path d="M136.061 75.254C136.069 75.078 136.035 74.9026 135.963 74.7419C135.891 74.5813 135.782 74.4398 135.645 74.3289C135.508 74.218 135.347 74.1408 135.175 74.1035C135.003 74.0661 134.824 74.0697 134.654 74.1139C134.492 74.0633 134.321 74.0513 134.153 74.0789C133.986 74.1065 133.828 74.173 133.691 74.2729C133.554 74.3728 133.442 74.5034 133.365 74.6543C133.288 74.8051 133.247 74.972 133.246 75.1414C133.249 77.451 133.499 79.7537 133.992 82.01C134.023 82.1619 134.085 82.3057 134.174 82.4328C134.263 82.5599 134.376 82.6676 134.508 82.7493C134.64 82.831 134.787 82.8849 134.94 82.9079C135.093 82.9308 135.25 82.9222 135.4 82.8827C135.594 82.9333 135.799 82.9322 135.993 82.8794C136.187 82.8266 136.364 82.724 136.506 82.5818C136.648 82.4396 136.751 82.2626 136.804 82.0685C136.857 81.8744 136.858 81.6699 136.807 81.4752C136.347 79.4323 136.097 77.3477 136.061 75.254Z" fill="white"/>
<path d="M96.4355 99.8711C96.6345 99.7027 96.7706 99.472 96.8217 99.2164C96.8728 98.9609 96.8359 98.6955 96.717 98.4636C95.6192 96.5494 92.8464 92.0313 90.6366 91.7779C90.4072 91.757 90.1763 91.757 89.9469 91.7779C88.1312 91.6372 86.3719 92.918 83.951 94.6774C83.1487 95.536 80.5026 96.2679 81.4034 97.8724C81.6767 98.1471 82.0324 98.3248 82.4163 98.3781C82.8001 98.4315 83.1908 98.3577 83.5287 98.168C85.3162 96.9998 88.2579 94.4381 89.9188 94.1003C91.4705 95.3899 92.7524 96.9731 93.6909 98.7592C92.1921 99.9247 90.5567 100.903 88.8209 101.673C87.8779 101.25 87.4838 100.167 86.9489 99.5052C85.9215 98.2243 83.6413 99.1392 84.3873 100.589C84.3873 100.73 86.4282 104.811 89.8484 103.854C92.2472 102.896 94.4724 101.55 96.4355 99.8711Z" fill="white"/>
<path d="M132.045 17.6451C132.045 18.0184 132.193 18.3764 132.457 18.6403C132.721 18.9043 133.079 19.0526 133.452 19.0526C133.826 19.0526 134.184 18.9043 134.448 18.6403C134.712 18.3764 134.86 18.0184 134.86 17.6451C134.86 12.3951 134.86 5.85016 133.044 0.754987C132.963 0.491439 132.782 0.269617 132.541 0.135853C132.3 0.00208898 132.016 -0.0332693 131.749 0.0371616C131.555 -0.0134716 131.35 -0.012346 131.156 0.0404314C130.962 0.0932089 130.785 0.195801 130.643 0.338041C130.5 0.480281 130.398 0.657232 130.345 0.851343C130.292 1.04545 130.291 1.24999 130.342 1.44467C132.045 6.24426 132.045 12.564 132.045 17.6451Z" fill="white"/>
<path d="M145.446 17.7581C145.728 17.8398 146.03 17.8111 146.292 17.6777C146.553 17.5444 146.754 17.3164 146.853 17.0402C147.923 14.059 149.505 11.2869 151.526 8.84856C151.688 8.66209 151.786 8.42861 151.805 8.18244C151.825 7.93627 151.765 7.69038 151.634 7.4809C151.503 7.27142 151.309 7.10939 151.079 7.01861C150.849 6.92784 150.597 6.9131 150.358 6.97657C150.149 6.91262 149.924 6.91628 149.717 6.98703C149.51 7.05778 149.33 7.19202 149.204 7.37067C146.973 10.0179 145.237 13.0455 144.081 16.3083C144.019 16.5019 144.011 16.7082 144.056 16.9062C144.101 17.1041 144.198 17.2863 144.337 17.4341C144.477 17.5819 144.653 17.6898 144.848 17.7468C145.042 17.8037 145.249 17.8076 145.446 17.7581Z" fill="white"/>
<path d="M110.328 9.00243C111.975 10.4099 116.324 14.1398 117.886 17.1237C117.988 17.3471 118.165 17.5274 118.386 17.633C118.608 17.7385 118.859 17.7626 119.097 17.7008C119.316 17.7723 119.551 17.7774 119.773 17.7155C119.995 17.6536 120.193 17.5275 120.344 17.353C120.494 17.1785 120.59 16.9634 120.618 16.7348C120.647 16.5062 120.607 16.2742 120.504 16.0681C118.942 13.0701 115.367 9.79062 112.425 7.27119C112.288 7.15267 112.124 7.06903 111.948 7.02737C111.771 6.98572 111.587 6.98727 111.412 7.03191C111.157 6.94271 110.879 6.94667 110.627 7.04307C110.375 7.13947 110.166 7.32208 110.036 7.55843C109.906 7.79478 109.864 8.06957 109.917 8.33396C109.971 8.59834 110.116 8.8352 110.328 9.00243Z" fill="white"/>
<path d="M156.818 20.9678C156.994 21.0069 157.176 21.0056 157.352 20.9642C157.527 20.9227 157.691 20.8422 157.831 20.7285C159.53 19.1314 161.133 17.4347 162.631 15.6474C162.779 15.4572 162.865 15.2256 162.877 14.9845C162.889 14.7433 162.825 14.5045 162.696 14.3008C162.566 14.0971 162.377 13.9386 162.153 13.8471C161.93 13.7555 161.684 13.7354 161.448 13.7895C161.248 13.7347 161.036 13.7416 160.841 13.8095C160.645 13.8773 160.474 14.0028 160.35 14.1695C158.953 15.8639 157.449 17.4671 155.846 18.9691C155.646 19.131 155.506 19.3562 155.449 19.6079C155.393 19.8596 155.424 20.123 155.537 20.355C155.649 20.587 155.837 20.7739 156.07 20.8852C156.303 20.9965 156.566 21.0256 156.818 20.9678Z" fill="white"/>
<path d="M59.9809 72.9172C60.1646 72.9607 60.3561 72.9585 60.5388 72.9108C60.7214 72.8631 60.8896 72.7713 61.0285 72.6435C61.1674 72.5157 61.2729 72.3557 61.3356 72.1777C61.3984 71.9996 61.4165 71.8089 61.3884 71.6222C61.2842 71.1706 61.2814 70.7015 61.38 70.2487C61.4787 69.7958 61.6764 69.3705 61.959 69.0031C62.2416 68.6357 62.602 68.3355 63.0144 68.124C63.4268 67.9125 63.8809 67.7949 64.3441 67.7798C67.7925 68.0331 65.4701 71.2845 67.7222 71.4815H67.9614H68.2711C70.9313 70.9889 68.5385 66.4004 66.9902 65.9781C66.2176 65.581 65.3518 65.401 64.4849 65.4574C61.1773 65.2744 57.7711 68.3568 58.5874 71.9882C58.6122 72.1435 58.6688 72.2921 58.7537 72.4245C58.8386 72.5569 58.9501 72.6703 59.0809 72.7575C59.2118 72.8448 59.3593 72.904 59.5142 72.9315C59.6691 72.9589 59.828 72.9541 59.9809 72.9172Z" fill="white"/>
<path d="M49.394 57.8289C50.3119 57.3977 51.3081 57.1583 52.3216 57.1251C53.3836 57.1718 54.424 57.4403 55.3759 57.9133C57.2338 58.8564 58.3176 56.5058 56.9383 55.8725C55.5124 55.1554 53.9312 54.8024 52.3357 54.845C50.7598 54.7992 49.1959 55.1322 47.7754 55.8162C46.3679 56.5481 47.6769 58.7719 49.394 57.8289Z" fill="white"/>
<path d="M101.124 25.104C101.321 25.2025 106.346 27.919 109.203 28.2005H109.513H109.752C110.038 28.1981 110.313 28.0883 110.522 27.8928C110.731 27.6973 110.858 27.4305 110.88 27.1452C110.901 26.8599 110.814 26.5771 110.637 26.3528C110.459 26.1285 110.204 25.9792 109.921 25.9344C107.426 25.2677 105.013 24.3235 102.729 23.1194C102.611 23.0449 102.478 22.9963 102.34 22.9768C102.201 22.9574 102.061 22.9676 101.926 23.0068C101.669 22.9728 101.408 23.0265 101.185 23.1593C100.962 23.2921 100.79 23.4962 100.697 23.7387C100.605 23.9811 100.596 24.2477 100.674 24.4954C100.751 24.7432 100.91 24.9576 101.124 25.104Z" fill="white"/>
<path d="M73.7615 56.999C74.8563 56.7605 75.9876 56.7422 77.0895 56.9452C78.1914 57.1481 79.2419 57.5684 80.1798 58.1813C81.5873 59.1807 83.4311 57.1961 81.9954 56.2812C79.3689 54.6583 76.2133 54.1231 73.1985 54.7893C73.0534 54.8262 72.917 54.8914 72.7971 54.9811C72.6772 55.0708 72.5762 55.1832 72.4997 55.3119C72.4232 55.4407 72.3729 55.5832 72.3515 55.7314C72.3301 55.8796 72.3382 56.0306 72.3751 56.1757C72.4121 56.3208 72.4773 56.4571 72.567 56.5771C72.6567 56.697 72.7691 56.798 72.8978 56.8745C73.0265 56.9509 73.1691 57.0013 73.3173 57.0227C73.4655 57.044 73.6164 57.036 73.7615 56.999Z" fill="white"/>
</svg>
