<svg width="150" height="150" viewBox="0 0 150 150" fill="none" xmlns="http://www.w3.org/2000/svg">
<path d="M30.119 85.5578C29.462 79.4228 52.9063 69.5626 47.2828 82.9283C53.564 93.8836 33.698 102.356 30.119 85.5578Z" fill="#950FFF"/>
<path d="M25.4453 71.3891C25.5203 71.1701 27.5453 63.7923 27.7096 60.5066C28.1041 52.6166 35.2951 50.5053 38.0078 56.3433C39.0263 58.5363 39.5416 60.3603 43.3388 61.8933C37.1629 64.6431 31.1842 67.8159 25.4453 71.3891Z" fill="#950FFF"/>
<path d="M18.2847 83.0746C18.2847 76.2091 48.6672 59.1189 53.7064 62.5516C55.5019 64.3324 57.0496 66.3467 58.3077 68.5404C53.2684 65.4001 50.7559 63.1674 43.0437 67.5181C31.1232 74.2441 20.6232 76.5001 19.6722 87.3106C18.7043 86.1174 18.2103 84.6092 18.2847 83.0746Z" fill="#950FFF"/>
<path d="M35.9592 134.126C33.7677 133.837 36.9845 124.129 39.4647 123.463C41.8775 122.815 46.4052 127.408 45.2345 128.722C43.9955 130.111 41.51 125.581 40.3415 125.654C39.0995 125.8 37.6385 134.347 35.9592 134.126Z" fill="#950FFF"/>
<path d="M33.3308 115.137C30.0443 115.137 25.662 110.828 22.8135 107.906C18.432 104.912 19.854 100.949 24.2745 99.142C24.4586 99.0645 24.666 99.0633 24.8509 99.1387C25.0359 99.2141 25.1833 99.3599 25.2608 99.544C25.3383 99.7281 25.3394 99.9354 25.2641 100.12C25.1887 100.305 25.0429 100.453 24.8588 100.53C23.1638 101.224 20.4765 103.455 22.1588 105.131C25.0838 107.756 29.9738 113.456 33.3338 113.606C36.6938 113.46 42.8288 109.151 47.2838 105.5C47.1338 104.988 45.762 103.507 44.2163 102.575C43.3463 102.05 44.2163 100.749 45.0195 101.261C45.0195 101.261 48.6713 103.598 48.7448 105.423C48.0113 107.906 38.151 114.699 33.3308 115.137Z" fill="#950FFF"/>
<path d="M76.1284 42.175C82.6286 41.7362 87.9604 34.798 86.2804 29.0282C84.6011 23.1122 76.2019 20.7032 69.9934 22.528C62.3981 24.7922 61.4486 29.7587 62.1791 33.628C63.0551 38.0117 66.4151 42.832 76.1284 42.175ZM73.7186 23.9162C85.6961 23.551 88.9099 35.3095 78.2464 39.9107C76.7861 34.2107 74.4484 27.6407 73.1336 23.9162H73.7186Z" fill="white"/>
<path d="M75.0367 16.8308C78.8745 15.979 82.8871 16.4421 86.43 18.1455C87.3067 18.5108 88.986 17.2695 86.505 15.882C83.949 14.421 77.8875 13.8368 74.6002 15.2243C73.137 15.8085 73.8682 17.1233 75.0367 16.8308Z" fill="white"/>
<path d="M112.283 29.6125C116.218 29.9356 119.95 31.4949 122.945 34.0675C123.603 34.579 125.137 33.9925 124.115 32.68C121.558 29.3207 116.81 27.7135 112.721 27.8597C110.968 27.9325 111.406 29.5397 112.283 29.6125Z" fill="white"/>
<path d="M116.884 53.8601C126.89 53.8601 126.817 39.6183 117.979 35.2361C106.659 29.6111 97.8952 37.5003 101.839 47.0681C103.372 50.7198 111.698 53.8601 116.884 53.8601ZM121.851 42.1751C123.53 48.5283 121.267 51.1578 117.615 51.7428C115.679 46.1799 113.461 40.7193 110.968 35.3823C115.35 35.6013 120.9 38.4498 121.851 42.1751Z" fill="white"/>
<path d="M44.7251 120.761C42.6604 119.628 34.5724 120.98 32.9659 121.71C31.2866 122.441 32.7469 127.699 33.8426 127.48C34.2806 127.405 34.5724 127.261 34.4269 126.896C33.5501 124.778 33.4774 123.317 33.6964 123.098C34.9384 122.003 42.6064 121.345 43.9211 122.149C44.8706 122.733 47.5729 128.283 47.0621 129.306C46.7696 129.817 44.2121 130.401 40.7809 130.694C39.8314 130.769 39.9776 132.373 41.8766 132.081C43.9946 131.79 47.9381 131.497 48.5231 129.891C49.1801 128.137 46.0999 121.515 44.7251 120.761Z" fill="white"/>
<path d="M63.1306 129.6C60.0624 130.623 56.9221 130.623 55.7536 129.819C55.5346 129.674 55.0231 128.871 53.1976 122.662C52.9051 121.64 51.2259 121.275 51.7366 123.393C53.7091 130.915 54.1471 131.643 56.9221 132.011C59.0401 132.303 63.4951 131.573 64.0794 130.404C64.4454 129.891 64.0066 129.306 63.1306 129.6Z" fill="white"/>
<path d="M66.4154 123.244C65.9502 124.27 65.7525 125.397 65.8408 126.52C65.9291 127.643 66.3006 128.726 66.9205 129.667C67.5404 130.608 68.3885 131.376 69.3857 131.9C70.3829 132.425 71.4968 132.688 72.6232 132.665C73.8652 132.59 72.7732 130.985 71.6009 130.839C69.6284 130.62 66.2692 127.553 67.8029 123.901C69.4829 119.811 76.4939 121.126 77.8822 125.289C78.3202 126.676 79.4887 125.653 79.4152 125.143C78.9044 119.373 68.8987 117.255 66.4154 123.244Z" fill="white"/>
<path d="M143.104 94.1026C141.761 83.6941 135.8 74.9671 126.305 68.1024C129.518 63.1359 130.687 57.5851 129.229 52.6186C129.376 52.2534 129.448 51.8881 129.595 51.4501C129.883 51.5111 130.177 51.5363 130.471 51.5251C134.853 51.0871 135.656 45.5364 131.639 42.4689C131.628 42.3189 131.654 42.1686 131.714 42.0309C136.753 42.5424 136.389 34.6539 131.422 32.6094C130.472 27.3504 127.843 21.9459 122.366 17.1256C112.214 7.99663 84.0953 -2.95937 66.6405 9.01888C63.6457 8.14213 59.9213 8.36113 58.2405 9.74863C56.4878 11.2096 56.7068 13.8391 57.729 15.4486C57.2878 15.8174 56.9169 16.2628 56.634 16.7634C55.6023 16.3934 54.4846 16.3346 53.4198 16.5944C52.355 16.8541 51.39 17.4209 50.6445 18.2244C48.9652 20.1234 49.9147 23.8494 50.937 25.6734C43.6335 25.6734 41.808 34.8031 42.246 41.4496C38.9108 39.0296 35.0155 37.4967 30.9255 36.9946C16.095 35.3821 8.28075 55.0284 6.8925 67.8834C5.505 80.8104 8.1345 91.6929 20.6235 92.2764C21.2632 93.2977 21.9708 94.2749 22.7415 95.2014C19.3088 95.4204 14.3415 96.8086 13.758 98.4879C10.833 106.23 19.458 122.954 23.034 131.863C26.028 139.24 28.4385 144.863 31.725 145.374C36.6396 146.021 41.5944 146.314 46.551 146.25C56.922 146.25 62.7653 144.863 72.8438 144.497C97.2375 143.767 101.693 142.964 103.3 140.115C104.176 138.581 102.862 134.856 100.16 129.452C105.272 133.542 111.184 135.733 117.104 135.66C138.064 135.368 145.65 113.837 143.104 94.1026ZM133.537 39.0339C133.201 40.5024 132.514 40.2759 131.783 40.0569C131.867 38.4258 131.842 36.7909 131.708 35.1631C132.879 35.8936 134.017 36.9256 133.537 39.0339ZM131.199 44.9499C132.076 45.8994 132.806 46.9951 131.783 48.8206C131.652 49.1358 131.404 49.388 131.091 49.5242C130.778 49.6604 130.424 49.67 130.104 49.5511C130.571 48.0434 130.937 46.5063 131.199 44.9499ZM62.619 10.4041C65.0288 10.5541 69.192 11.6461 68.9002 12.6684C68.4622 14.4211 61.4505 11.4999 59.1863 14.0559C57.8715 11.7189 60.1357 10.2579 62.619 10.4041ZM54.585 18.5109C56.9948 18.5859 60.501 21.0676 59.7705 22.1626C59.3325 22.8204 56.046 21.1404 54.2955 21.2139C53.0542 21.2889 52.7625 23.4046 52.251 23.9139C51.0795 21.2866 51.5175 18.4381 54.585 18.5109ZM46.6973 29.6851C48.3037 27.2019 50.2762 29.0281 52.3972 27.7134C53.4195 27.0564 54.0765 24.9384 54.9533 23.1849C58.824 24.4996 60.4425 24.4381 61.2337 23.6236C62.4945 22.3269 61.3088 19.3141 58.605 17.7076C59.7008 16.3201 60.7958 14.7864 62.0378 14.7136C64.7378 14.5636 69.4875 15.6624 70.4378 13.6179C70.7134 13.0422 70.7613 12.3835 70.5717 11.774C70.3821 11.1645 69.9691 10.6492 69.4155 10.3314C68.8313 9.89263 69.4155 9.60088 70.146 9.23563C85.3372 1.12888 109.732 8.21338 121.198 18.5844C132.883 29.1744 130.693 41.9551 127.479 52.1094C127.041 53.4969 127.624 54.7389 127.844 56.0536C128.647 60.5814 124.12 74.6776 107.102 79.7904C98.8522 82.2736 80.2253 81.3241 59.9212 69.1269C57.5107 64.8181 55.2472 62.4076 53.64 61.3854C54.8167 59.7802 55.5337 57.8846 55.7138 55.9024C55.8939 53.9202 55.5304 51.9264 54.6623 50.1354C53.1285 46.9216 48.6007 44.3656 44.73 44.7309C43.6297 40.5676 44.214 33.4831 46.6973 29.6851ZM64.956 83.4399C67.2937 82.2407 69.4972 80.7961 71.529 79.1304C74.67 88.6981 73.9395 81.1756 65.0288 92.7151C62.4728 92.7901 59.4787 92.9341 56.1915 93.2266C60.1357 90.5266 63.276 88.6254 64.5915 85.4116C64.8291 84.7812 64.9526 84.1136 64.956 83.4399ZM61.6695 72.2649C64.5256 74.2239 67.5873 75.8649 70.8 77.1586C68.9113 78.6834 66.936 80.0978 64.884 81.3946C64.518 78.4734 63.057 75.0406 61.6695 72.2649ZM28.365 52.1071C30.3375 48.6016 35.3767 49.9891 36.9832 53.4219C36.8803 55.1068 37.2412 56.7877 38.0266 58.2818C38.8121 59.776 39.992 61.0263 41.4382 61.8969C36.4281 63.8326 31.6312 66.2803 27.1238 69.2011C28.0278 65.7272 28.6387 62.1835 28.95 58.6074C29.132 56.4231 28.9341 54.2238 28.365 52.1071ZM42.6803 47.7984C50.2028 44.2194 57.0683 54.9556 51.8092 60.5791C49.3666 59.9881 46.8053 60.1149 44.433 60.9444C39.6127 60.5064 36.3263 50.8659 42.6803 47.7984ZM12.3705 86.8734C2.80275 76.1371 11.421 36.9909 30.7755 38.8891C37.0567 39.5469 42.315 43.2714 42.753 45.0976C39.759 45.9736 38.079 48.8221 37.4212 50.7939C35.742 49.1874 33.624 48.0189 31.8712 48.1689C30.2909 48.2467 28.7787 48.836 27.5625 49.8481C26.25 46.4836 24.0563 44.4384 23.325 45.4614C21.8648 47.4331 27.561 49.4049 26.9768 58.5346C26.8546 60.9803 26.4627 63.405 25.8083 65.7646C20.1833 66.4224 17.9205 59.5569 15.8752 60.7254C15.6773 60.8936 15.5514 61.1313 15.5235 61.3896C15.4956 61.6479 15.5678 61.907 15.7253 62.1136C18.939 65.9844 21.7875 67.6636 25.2202 67.6636C24.8406 68.8141 24.5236 69.9843 24.2708 71.1691C22.0063 72.7718 20.0304 74.7473 18.4275 77.0116C16.506 76.1695 14.8608 74.8027 13.6807 73.0681C13.619 72.9568 13.5344 72.8599 13.4324 72.7837C13.3304 72.7075 13.2134 72.6538 13.0892 72.6262C12.9649 72.5985 12.8362 72.5975 12.7115 72.6233C12.5869 72.6491 12.4691 72.701 12.366 72.7756C11.271 73.7251 14.6303 77.7421 17.5515 78.7644C16.6245 82.6779 17.2809 86.7992 19.3778 90.2311C18.0451 90.1651 16.739 89.834 15.5358 89.2572C14.3326 88.6804 13.2566 87.8695 12.3705 86.8719V86.8734ZM19.1625 83.6604C18.7245 78.2559 22.7415 73.8001 29.6798 70.0021C50.2028 58.7521 52.7595 62.9911 54.585 64.8901C51.81 63.7944 48.45 63.7944 44.7255 65.4744C40.4895 67.4461 27.9255 74.1654 23.034 78.0361C21.2069 79.4779 19.8576 81.4376 19.1625 83.6589V83.6604ZM22.3762 90.9639C20.7697 88.4806 18.8708 83.8066 24.2025 79.6434C28.9493 75.9181 41.5117 69.1996 45.5288 67.2999C49.7648 65.3281 55.6073 65.9124 58.8945 70.9516C61.8195 75.4801 63.495 81.6151 62.9108 83.9521C61.4505 90.0144 37.9357 101.116 32.3857 99.8011C28.95 98.9251 24.5677 94.3951 22.3762 90.9624V90.9639ZM101.4 138.654C100.451 140.627 95.265 141.868 72.843 142.598C60.7973 142.986 48.8055 145.455 32.3812 143.548C28.7295 143.11 24.2745 128.868 21.7185 123.755C17.1173 114.407 13.7573 102.648 15.51 99.4344C16.2405 98.0469 21.06 97.3164 24.567 97.1701C27.6345 100.31 31.2127 102.429 34.0612 102.356C38.5163 102.21 46.1123 99.4344 52.7588 95.5636C62.619 94.7604 73.425 93.8101 76.425 96.0001C79.275 98.1181 89.9362 115.062 96.8018 127.406C99.5018 132.3 101.62 138.07 101.4 138.654ZM110.31 132.665C109.675 129.371 110.137 125.959 111.625 122.951C111.844 122.513 111.844 121.856 111.333 121.783C109.507 121.491 107.9 126.385 108.119 131.935C104.301 130.342 100.884 127.923 98.1135 124.851C97.9546 121.465 98.9313 118.123 100.889 115.356C101.4 114.626 101.254 113.969 100.813 113.895C98.988 113.603 96.9428 117.474 96.1395 121.71C95.19 120.03 94.167 118.351 93.1448 116.671C89.7855 106.3 100.57 101.434 98.9145 99.9459C97.8765 99.0129 95.409 100.676 93.4395 103.379C91.248 98.9229 95.4112 95.2711 101.327 95.4174C111.259 95.6364 119.878 100.31 123.602 102.648C130.759 107.249 136.529 113.457 137.698 120.249C132.45 130.858 121.528 136.172 110.31 132.665ZM139.087 116.744C137.626 112.07 132.075 105.644 128.131 102.794C123.165 99.2154 112.501 93.8836 103.664 93.0076C104.086 91.3001 104.403 89.5684 104.614 87.8221C104.689 86.5074 103.591 84.8971 103.007 86.7991C102.203 89.2824 101.765 92.4991 101.619 92.8614C96.5798 92.7864 92.1975 94.1761 90.81 98.5576C90.4549 99.6822 90.3824 100.877 90.5989 102.036C90.8154 103.195 91.3142 104.284 92.0513 105.204C90.9432 107.303 90.3194 109.624 90.2258 111.996C87.9615 108.418 85.6973 104.985 83.7255 102.137C82.9223 91.6929 76.86 87.1644 79.0515 86.2884C80.6372 85.6313 82.0585 84.6326 83.214 83.3634C84.675 87.8919 86.1352 93.1501 88.764 93.2964C90.3705 93.1464 96.141 91.4709 95.2643 89.5711C95.1244 89.3637 94.9152 89.2131 94.6741 89.1462C94.4331 89.0794 94.1761 89.1008 93.9495 89.2066C91.6852 90.5941 89.1292 91.5436 88.6185 91.3246C87.8873 90.7404 86.0618 85.9201 84.6015 81.3189C88.488 82.1913 92.4507 82.6804 96.4327 82.7791C108.849 83.3634 119.512 77.3041 125.282 69.5596C141.79 81.1756 144.929 101.99 139.087 116.744Z" fill="white"/>
<path d="M83.9468 115.575C81.8288 114.991 75.8401 115.43 68.5366 116.16C62.6933 116.744 55.7551 117.767 47.0641 118.132C42.3166 118.351 38.0806 118.278 32.3836 118.278C24.9338 118.278 27.1253 124.632 29.9738 131.571C32.6738 138.216 33.4058 140.046 38.8838 139.896C52.7588 139.604 57.5078 138.362 71.0926 137.558C77.8118 137.193 86.5028 136.317 91.3966 136.025C94.6831 135.806 95.4136 134.126 94.2466 131.789C87.2333 118.57 86.0648 116.16 83.9468 115.575ZM91.6156 134.273C88.8406 134.565 68.3176 135.952 57.4351 137.048C38.1533 138.873 36.7658 138.582 35.1601 137.632C33.5543 136.683 32.4601 133.615 31.4348 130.986C29.2441 125.436 26.4683 119.592 32.8958 119.666C49.6208 119.811 59.3348 118.789 67.0763 117.693C72.7013 116.964 81.3181 116.379 83.5096 116.964C85.7738 117.62 90.0826 126.896 91.3973 129.379C92.7121 131.862 94.3906 133.98 91.6156 134.273Z" fill="white"/>
<path d="M62.5455 113.092C66.0518 113.167 73.575 112.049 78.1028 112.142C79.8563 112.179 79.8555 110.39 77.5913 110.463C75.4005 110.538 61.5968 111.339 60.282 111.485C58.9673 111.632 59.04 113.019 62.5455 113.092Z" fill="white"/>
<path d="M54.5126 107.468C57.7263 107.468 73.4291 106.446 75.5471 106.373C77.6651 106.299 77.5991 105.415 77.2271 105.131C76.4373 104.531 75.9123 104.693 68.2436 104.981C64.0803 105.131 55.5356 105.858 53.7101 106.004C51.8846 106.149 52.1028 107.396 54.5126 107.468Z" fill="white"/>
<path d="M77.9557 62.9897C80.8104 63.0374 83.6204 62.278 86.0625 60.7989C88.6192 67.6644 95.3377 71.0964 104.102 70.6584C114.766 70.0742 119.44 65.5457 117.248 59.2652C116.518 57.1472 115.057 55.0284 113.451 55.3937C112.574 55.6134 112.574 56.5622 112.574 57.0737C112.574 58.3157 112.429 58.8264 111.187 59.1189C107.608 59.8494 106.439 53.3492 104.176 51.1577C102.633 49.7211 100.652 48.8463 98.5507 48.6744C98.508 48.4387 98.3804 48.2268 98.1921 48.0788C98.0037 47.9307 97.7676 47.8569 97.5285 47.8712C96.36 48.0902 94.9725 52.5459 88.983 50.3544C84.456 48.7502 84.7492 42.4667 88.473 41.0064C90.2739 40.3219 92.2492 40.2447 94.098 40.7867C94.2753 40.8389 94.4651 40.83 94.6368 40.7614C94.8085 40.6928 94.9522 40.5686 95.0448 40.4086C95.1374 40.2486 95.1736 40.0621 95.1476 39.879C95.1216 39.696 95.0348 39.527 94.9012 39.3992C93.4717 38.1932 90.1537 38.2307 88.1092 39.1067C87.1263 39.5185 86.2484 40.1458 85.5404 40.9423C84.8324 41.7388 84.3124 42.6842 84.0187 43.7087C81.6224 42.9493 79.0538 42.9232 76.6425 43.6337C73.281 44.5119 67.0732 48.8207 65.2492 45.7502C64.008 43.7057 64.5195 42.6099 64.9575 41.8794C66.1995 39.7614 63.57 39.3234 61.5982 41.0034C52.101 48.8942 65.6857 63.2814 77.9557 62.9897ZM62.3242 42.3204C62.6167 42.1014 63.0547 41.8824 62.9085 42.9047C62.6484 44.2175 62.9105 45.58 63.639 46.7027C65.4517 49.3652 68.5327 49.3322 73.4257 46.7777C77.1502 44.8787 81.9007 44.6589 83.5777 45.4629C83.4315 48.8957 85.7692 52.6929 91.6117 52.6929C93.8736 52.69 96.0561 51.8586 97.7467 50.3559C99.792 50.2809 103.372 52.1087 104.758 55.6149C105.853 58.3149 107.68 61.4574 111.404 60.8732C112.06 60.7599 112.665 60.4464 113.136 59.9756C113.607 59.5048 113.92 58.8998 114.034 58.2437C114.109 57.7322 114.472 57.5132 114.91 58.3899C119.803 69.0534 99.792 70.5872 92.7105 65.7662C90.3498 64.2255 88.5749 61.9366 87.6705 59.2667C88.6935 56.8562 87.2325 56.9297 86.3557 57.8057C82.8502 61.2384 76.9342 61.3847 71.676 59.5584C66.783 57.8784 61.8165 53.4962 60.501 49.2609C60.1544 48.0469 60.1408 46.762 60.4616 45.5409C60.7824 44.3197 61.4257 43.2074 62.3242 42.3204Z" fill="white"/>
<path d="M41.2943 93.3753C49.5443 92.9373 51.8843 86.8751 51.4463 83.4431C51.3332 82.0411 50.8268 80.6994 49.9853 79.5723C51.1538 77.5271 51.6653 75.5553 50.2778 74.0223C45.9683 69.2021 30.2655 77.0898 31.0688 82.9323C31.5803 86.2151 35.67 93.7376 41.2943 93.3753ZM48.8168 75.2628C50.2043 77.2346 47.064 78.7683 48.3788 80.5946C49.0628 81.6628 49.4263 82.9047 49.4263 84.1732C49.4263 85.4417 49.0628 86.6836 48.3788 87.7518C47.5748 86.5833 47.4788 86.6013 46.5525 85.3421C45.6525 84.1173 44.508 85.6338 45.3105 86.9486C45.7959 87.8016 46.3585 88.6082 46.9913 89.3583C46.2592 89.9745 45.4164 90.4457 44.508 90.7466C43.485 89.3583 42.9008 88.3361 42.3165 87.4601C41.7323 86.5841 40.392 87.8388 41.0745 89.0666C41.4715 89.8208 41.9104 90.5522 42.3893 91.2573C38.5913 91.6233 34.794 89.2128 32.9678 82.5663C32.0918 79.2753 46.4798 71.9006 48.8168 75.2598V75.2628Z" fill="white"/>
<path d="M54.0014 101.187C57.2879 101.625 62.1082 101.262 71.8949 100.603C72.8444 100.528 74.3054 100.384 73.7939 99.6534C73.2824 98.9229 72.1139 98.8502 67.4399 99.2882C64.5187 99.5072 55.6822 99.9092 54.2204 99.9459C52.7587 99.9827 52.9799 101.042 54.0014 101.187Z" fill="white"/>
</svg>
