<svg width="150" height="150" viewBox="0 0 150 150" fill="none" xmlns="http://www.w3.org/2000/svg">
<path d="M107.951 18.3004C101.667 20.0104 101.576 24.5254 94.7318 25.2754C90.3256 25.7577 84.1658 29.6157 84.1876 36.1857C97.4356 27.4752 92.2988 39.7587 111.188 31.1217C117.056 29.9374 118.262 37.3467 130.502 38.4657C131.777 39.4669 131.298 38.9157 132.665 42.6529C142.055 39.4444 136.764 26.7154 133.715 26.0577C132.18 25.7209 130.697 28.4322 125.984 25.3707C120.221 21.6117 113.315 16.8402 107.951 18.3004Z" fill="#950FFF"/>
<path d="M131.443 66.6256C122.63 64.1851 120.789 77.3828 129.711 77.7406C136.566 77.1638 137.683 68.3656 131.443 66.6256ZM131.735 75.1906C128.247 77.5201 123.434 72.9031 126.51 69.5566C130.281 65.4053 137.1 71.6101 131.735 75.1906Z" fill="#950FFF"/>
<path d="M138.496 78.5959C132.16 82.5274 138.452 94.6287 145.131 89.3959C145.325 89.2494 145.455 89.0329 145.493 88.7923C145.53 88.5517 145.472 88.306 145.332 88.1073C145.191 87.9086 144.978 87.7725 144.739 87.728C144.499 87.6835 144.252 87.7341 144.049 87.8689C138.814 91.6002 135.642 82.4937 139.497 80.1739C141.543 78.9424 142.975 79.0999 144.254 80.8392C148.756 82.3962 143.37 74.6254 138.496 78.5959Z" fill="#950FFF"/>
<path d="M128.842 97.0764C135.163 93.8026 128.93 84.5806 122.456 87.5514C114.505 91.3546 121.513 101.468 128.842 97.0764ZM123.149 89.2936C126.986 87.4666 132.365 92.4804 128.053 95.3814C123.208 98.5306 117.471 92.3919 123.149 89.2936Z" fill="#950FFF"/>
<path d="M14.5506 36.2253C12.1971 41.9913 14.3743 69.2628 17.6556 72.4781C22.0911 76.8333 48.5961 49.9706 50.9488 44.0733C53.3016 38.1761 50.7883 17.8766 49.3558 14.6613C47.2611 9.97532 16.9063 30.4616 14.5506 36.2253ZM20.4756 48.4293C19.1383 45.4841 19.6573 41.3996 19.9716 40.5588C20.4831 39.1781 23.4718 37.2483 26.4096 36.9198C28.3386 36.7001 28.3896 43.4748 27.8856 45.2793C27.5166 46.5963 21.3861 50.4258 20.4793 48.4308L20.4756 48.4293ZM30.4978 59.5601C30.4597 60.1251 30.3089 60.6767 30.0541 61.1825C29.7993 61.6882 29.4457 62.1377 29.0143 62.5046C26.8228 64.3796 24.8143 65.6471 23.8341 65.3186C22.9341 65.0186 21.4296 62.1251 21.9628 57.5651C22.0218 57.0299 22.1977 56.5142 22.478 56.0545C22.7584 55.5948 23.1363 55.2023 23.5851 54.9048C26.1718 53.2023 27.6703 52.4501 28.4886 52.4501C29.6946 52.4426 30.7828 55.3871 30.4978 59.5601ZM37.2943 37.7351C35.6571 35.3681 35.6938 30.6851 36.4468 29.4558C37.2433 28.1553 39.9763 25.2911 42.9351 24.9618C44.8648 24.7428 44.9158 31.5168 44.4118 33.3213C44.0391 34.6338 38.5363 39.5298 37.2943 37.7321V37.7351ZM45.0471 48.8763C43.0011 51.0978 40.9041 51.7698 40.2538 51.5943C39.6253 51.4263 38.5656 48.8981 38.4636 44.9816C38.5005 44.5077 38.6325 44.0461 38.8515 43.6242C39.0706 43.2024 39.3722 42.8289 39.7386 42.5261C40.9019 41.4458 42.1753 40.4905 43.5381 39.6761C45.2338 38.8286 46.0881 40.7261 46.5126 44.8278C46.5966 45.5699 46.5081 46.3214 46.2539 47.0237C45.9997 47.7259 45.5867 48.36 45.0471 48.8763Z" fill="#950FFF"/>
<path d="M94.842 79.7727C100.118 80.1477 103.809 72.5817 97.992 69.9297C90.582 66.4579 86.2837 79.169 94.842 79.7727ZM93.2197 72.0995C97.1077 69.2277 101.463 74.3427 97.692 76.8784C93.7245 80.1162 89.7772 75.0155 93.2197 72.0995Z" fill="#950FFF"/>
<path d="M81.7327 87.3212C82.9605 87.7307 83.0189 86.0567 83.7352 85.5092C87.5602 82.5092 93.4762 89.4257 88.8719 92.0342C88.4443 92.3217 87.9799 92.5502 87.4912 92.7137C87.2627 92.7966 87.0755 92.9653 86.9692 93.184C86.8629 93.4026 86.846 93.6541 86.922 93.885C86.9979 94.116 87.1609 94.3082 87.3762 94.4211C87.5915 94.534 87.8423 94.5586 88.0755 94.4897C94.3162 92.7137 93.0592 85.6187 87.564 83.2067C84.9337 82.0502 79.5697 84.8147 81.7327 87.3212Z" fill="#950FFF"/>
<path d="M94.5182 57.8254C99.0414 54.6837 97.0172 52.3234 92.9762 54.7504C89.9582 56.5504 91.5219 59.9104 94.5182 57.8254Z" fill="#950FFF"/>
<path d="M116.703 46.1253C112.692 48.595 113.853 51.4743 118.728 48.9093C121.949 47.2105 119.692 44.2728 116.703 46.1253Z" fill="#950FFF"/>
<path d="M137.106 57.3751C135.674 51.3398 131.136 66.5026 139.466 66.3856C140.475 66.2911 143.891 66.0278 143.354 64.1858C143.298 64.0763 143.222 63.9788 143.128 63.8992C143.035 63.8195 142.926 63.7592 142.81 63.7218C142.693 63.6844 142.569 63.6706 142.447 63.6813C142.325 63.6919 142.206 63.7268 142.097 63.7838C137.844 66.4868 134.783 61.5001 137.106 57.3751Z" fill="#950FFF"/>
<path d="M50.1416 28.0721C49.5131 26.8811 48.5126 27.7061 47.5473 28.6271C46.5821 29.5481 46.2618 30.7391 47.3358 30.8928C47.8983 30.9288 48.2711 30.4541 48.7241 30.0746C49.4403 29.4678 50.6898 29.1093 50.1416 28.0721Z" fill="white"/>
<path d="M50.0262 25.3314C50.1358 25.279 50.2333 25.2045 50.3126 25.1125C50.3919 25.0205 50.4512 24.9131 50.4869 24.797C50.5225 24.6809 50.5337 24.5587 50.5198 24.4381C50.5058 24.3175 50.467 24.201 50.4057 24.0962C49.5732 22.7004 48.3057 24.3452 47.4905 24.8267C46.5845 25.3517 45.1737 26.6102 46.0655 27.3339C46.6992 27.8529 48.5412 26.0552 50.0262 25.3314Z" fill="white"/>
<path d="M49.4478 41.5832C48.5051 42.3579 47.3433 43.2639 48.1323 44.4039C48.6806 45.2004 49.8641 43.5924 50.6021 43.0592C51.5891 42.3504 50.3981 40.8234 49.4478 41.5832Z" fill="white"/>
<path d="M22.0013 73.5903C20.5981 73.6196 20.8321 75.0903 22.2353 74.9711C29.6521 74.3868 52.7948 51.3003 55.1041 45.5073C57.6323 39.1571 54.9023 18.5208 53.4968 15.3753C53.0138 14.2788 51.5161 14.5638 51.9031 15.7256C53.2778 19.8693 55.5646 39.3146 53.3723 44.8173C51.0998 50.5128 28.2773 73.4441 22.0013 73.5903Z" fill="white"/>
<path d="M87.431 138.532C87.9275 137.684 87.7452 137.267 87.2922 137.032C87.0331 136.951 86.7538 136.966 86.5046 137.073C86.2553 137.18 86.0524 137.373 85.9325 137.616C84.632 140.173 83.9345 141.585 83.8572 141.816C83.8148 141.955 83.8053 142.102 83.8295 142.246C83.8537 142.389 83.9109 142.525 83.9967 142.643C84.0824 142.761 84.1944 142.857 84.3236 142.924C84.4529 142.991 84.5959 143.027 84.7415 143.029C85.5755 143.041 86.1815 140.695 87.431 138.532Z" fill="white"/>
<path d="M93.7295 141.821C95.411 141.682 99.9635 129.412 100.504 127.871C105.196 128.119 114.447 128.287 119.518 127.929C119.884 128.148 125.306 141.777 126.268 141.821C127.231 141.865 127.569 141.513 127.123 140.505C126.676 139.497 121.498 127.783 121.498 127.783C123.324 127.646 125.138 127.382 126.928 126.993C127.366 127.418 130.852 135.499 131.692 135.638C132.532 135.777 132.993 135.251 132.532 134.301C132.072 133.352 128.746 126.453 128.746 126.453C137.165 121.995 139.921 104.223 139.934 104.028C140.11 102.843 138.239 102.954 138.071 104.166C135.631 115.53 132.956 122.091 128.279 124.467C123.193 127.053 112.604 126.315 99.992 125.987C98.5888 125.95 95.7755 125.556 95.6803 126.662C95.5858 127.795 96.5353 127.517 98.5085 127.773L92.8738 140.51C92.8103 140.652 92.7836 140.808 92.7959 140.963C92.8082 141.119 92.8593 141.268 92.9444 141.399C93.0296 141.529 93.146 141.636 93.2832 141.71C93.4203 141.784 93.5738 141.822 93.7295 141.821Z" fill="white"/>
<path d="M64.294 88.5555C65.5143 86.7945 68.386 84.3555 66.9393 83.0168C66.8405 82.9412 66.7271 82.887 66.6063 82.8577C66.4854 82.8284 66.3598 82.8246 66.2374 82.8466C66.115 82.8687 65.9985 82.916 65.8954 82.9856C65.7924 83.0552 65.705 83.1455 65.6388 83.2508C58.9308 92.7938 48.0055 110.917 40.618 114.38C35.086 115.871 13.1418 111.684 11.443 111.53C10.543 111.45 9.86428 112.707 11.881 113.365C17.5443 115.199 35.0823 117.07 40.1973 116.346C40.689 118.487 40.825 120.694 40.6 122.879C37.435 123.398 29.6313 123.018 20.014 121.549C18.814 121.352 19.174 123.106 20.38 123.266C25.291 124.062 30.2399 124.604 35.2068 124.889C35.236 129.142 35.1993 140.761 35.1993 140.892C35.2428 142.741 37.0698 140.936 37.0698 140.417C37.0698 140.294 37.1065 129.259 37.0773 124.933C38.8769 125.054 40.6808 124.767 42.3535 124.092C48.163 121.41 55.6893 111.501 61.9743 101.067C63.574 98.4218 62.0688 97.5375 61.5355 98.4803C55.7185 108.725 47.6605 118.805 42.5605 122.12C42.6695 120.018 42.4878 117.91 42.0205 115.857C48.1375 112.678 54.4585 102.798 64.294 88.5555Z" fill="white"/>
<path d="M107.951 33.5152C109.076 33.6037 109.471 31.6447 112.445 32.142C112.686 32.1977 112.94 32.1561 113.15 32.026C113.361 31.896 113.512 31.6881 113.57 31.4475C113.286 27.867 103.801 33.1867 107.951 33.5152Z" fill="white"/>
<path d="M49.2353 37.5002C48.2603 38.29 45.9833 40.0217 47.4893 40.8475C48.4755 41.3882 49.6155 39.6782 50.8575 38.8015C51.837 38.083 50.514 36.4502 49.2353 37.5002Z" fill="white"/>
<path d="M107.572 40.1806C107.455 43.5196 109.114 47.9333 112.402 46.4716C115.318 44.6813 117.064 43.8121 119.71 43.3876C120.089 43.3157 120.439 43.1331 120.715 42.8626C120.99 42.5922 121.18 42.2461 121.259 41.8681C122.702 32.2808 108.677 29.3798 107.572 40.1806ZM111.489 36.1463C112.297 38.5546 113.355 40.8715 114.646 43.0591C113.455 43.4341 112.3 44.7691 110.999 44.8591C109.127 43.3298 108.493 38.3536 111.489 36.1501V36.1463Z" fill="white"/>
<path d="M111.409 49.1319C111.046 49.0867 110.678 49.1311 110.337 49.261C109.995 49.391 109.691 49.6026 109.45 49.8774C107.762 51.4186 105.796 51.9377 103.085 52.6524C99.2414 53.1714 99.8774 57.1471 102.757 57.9144C104.071 63.4644 113.235 59.4414 113.988 55.4656C114.616 53.2501 114.097 49.7604 111.409 49.1319ZM107.908 58.6314C106.644 58.9899 104.897 59.0994 104.608 57.8424C105.667 57.4036 104.878 55.8624 103.876 56.1399C102.641 56.4834 100.924 55.0434 103.051 54.5979C106.018 53.9184 108.54 53.0484 110.717 51.3459C110.848 51.2436 111.012 51.1945 111.178 51.2084C111.343 51.2223 111.497 51.2982 111.609 51.4209C113.927 54.0789 110.868 57.7914 107.908 58.6314Z" fill="white"/>
<path d="M42.0961 47.4077C41.6866 47.6485 41.2336 46.2745 40.8541 45.6175C40.7265 45.4088 40.5221 45.2585 40.2849 45.1987C40.0477 45.1389 39.7966 45.1744 39.5852 45.2976C39.3739 45.4209 39.2193 45.622 39.1545 45.8579C39.0897 46.0937 39.1199 46.3456 39.2386 46.5595C40.9194 49.432 42.4179 49.8595 42.8851 49.6802C44.3469 49.1027 44.3904 44.5427 45.1434 42.007C45.2934 41.5105 44.5074 40.9697 43.9891 40.9697C42.5124 40.9622 42.4981 47.1587 42.0961 47.4077Z" fill="white"/>
<path d="M23.0167 59.6186C25.0559 63.0161 26.9339 63.6739 27.3719 61.1681C28.4467 55.1096 29.4037 54.1744 28.1969 53.9546C26.3047 53.7581 26.4284 59.5309 25.8659 60.4661C25.4068 59.9035 24.9937 59.3048 24.6307 58.6759C24.5008 58.4717 24.297 58.3258 24.0619 58.2688C23.8267 58.2118 23.5787 58.2482 23.3698 58.3702C23.1609 58.4922 23.0074 58.6904 22.9416 58.9232C22.8757 59.156 22.9026 59.4052 23.0167 59.6186Z" fill="white"/>
<path d="M8.69265 79.027C9.4599 81.073 10.0959 81.5185 11.0822 82.027C12.7772 82.9045 18.6309 84.3437 21.4592 82.6045C31.9524 77.9545 56.0672 54.2372 58.6592 47.7407C61.4724 40.66 58.8639 14.3087 54.9174 10.063C52.6382 7.62997 46.4424 6.23797 42.8679 7.35247C36.4179 9.36172 7.52865 25.2917 4.56915 34.7042C2.32065 39.004 5.0319 69.2717 8.69265 79.027ZM6.3549 35.2697C7.6299 30.8605 21.5799 20.077 33.3707 13.6172C43.2354 8.21722 46.0269 7.81522 49.2572 9.28447C47.3567 10.0225 44.3169 10.9502 44.7924 12.127C44.8489 12.2378 44.9276 12.3358 45.0236 12.4149C45.1196 12.494 45.2309 12.5525 45.3505 12.5868C45.4701 12.621 45.5955 12.6303 45.7188 12.6141C45.8421 12.5978 45.9608 12.5563 46.0674 12.4922C48.3759 11.206 52.4244 10.1245 53.5577 11.3447C56.6852 14.7287 59.6589 40.1875 56.9259 47.0492C54.9857 53.0852 27.1007 79.5002 19.9682 81.2192C17.9657 81.5552 16.8992 78.8192 16.2857 76.93C15.8544 75.5995 15.8252 74.92 15.0939 74.9935C13.9614 75.103 14.6994 79.5745 16.6727 81.4967C15.018 81.3499 13.3947 80.9558 11.8569 80.3275C7.73565 78.457 4.29915 42.3595 6.3549 35.2697Z" fill="white"/>
<path d="M32.9815 49.3728C32.3455 49.7755 30.256 50.5203 30.8402 52.0113C31.381 53.3853 32.9402 51.997 34.3847 51.1053C36.1165 50.038 37.315 49.7605 36.5477 48.4525C36.058 47.575 35.152 48.0003 32.9815 49.3728Z" fill="white"/>
<path d="M146.088 75.7966C144.852 60.4809 138.984 56.9656 132.708 53.4466C133.663 50.1793 133.848 46.7347 133.248 43.3839C141.834 39.2986 143.142 19.3644 133.923 15.9954C133.402 16.0032 132.891 16.1378 132.433 16.3874C131.976 16.6369 131.586 16.994 131.298 17.4279C128.981 21.1471 119.313 10.7634 113.365 11.1796C108.115 10.5736 100.284 10.6681 92.8677 18.4359C92.2827 19.0494 90.7122 19.7514 88.8994 20.5554C77.2369 24.4554 67.4667 37.3696 80.2549 48.5941C80.4404 49.3102 80.6772 50.0121 80.9637 50.6941C79.6304 50.7949 78.308 51.0077 77.0104 51.3301C74.8767 46.3171 68.3367 48.8019 67.8319 53.8441C57.0019 58.2136 59.0922 80.2441 71.8947 79.3764C83.2872 80.0709 86.4589 58.0164 75.9799 56.3866C75.7411 56.3489 75.497 56.4051 75.2986 56.5433C75.1003 56.6816 74.9632 56.8913 74.916 57.1284C74.8688 57.3655 74.9151 57.6117 75.0454 57.8154C75.1756 58.0191 75.3796 58.1645 75.6147 58.2211C78.0147 58.5061 80.7514 61.2316 80.4147 65.3896C78.8277 65.256 77.2541 64.9946 75.7092 64.6081C75.4724 64.5509 75.2227 64.5882 75.0131 64.7122C74.8035 64.8363 74.6505 65.0371 74.5868 65.2722C74.523 65.5072 74.5534 65.7579 74.6715 65.9709C74.7897 66.1838 74.9862 66.3423 75.2194 66.4126C76.9046 66.84 78.623 67.1237 80.3562 67.2609C80.2467 68.7053 79.952 70.1298 79.4794 71.4991C77.6496 71.2719 75.8493 70.8505 74.1087 70.2421C73.88 70.1759 73.6346 70.1994 73.4226 70.3078C73.2106 70.4162 73.048 70.6014 72.9678 70.8256C72.8877 71.0498 72.8961 71.2961 72.9913 71.5144C73.0865 71.7326 73.2613 71.9063 73.4802 72.0001C75.1763 72.5879 76.9229 73.0185 78.6979 73.2864C77.0314 76.5114 73.9602 78.1359 70.0234 77.3274C59.1792 75.0991 61.3984 57.7944 68.9344 55.4274C69.1051 55.3755 69.2573 55.2755 69.3728 55.1395C69.4882 55.0034 69.562 54.837 69.5854 54.6601C69.7894 53.1331 70.7982 50.6259 72.6177 50.4369C74.3644 50.2869 74.8392 51.2334 75.2772 52.1754C75.438 52.5226 75.7036 52.8107 76.0368 52.9991C76.3699 53.1875 76.7537 53.2666 77.1342 53.2254C78.7047 53.0431 80.3419 52.3921 81.7009 52.5241C84.7009 59.9341 86.1364 62.8494 89.3157 65.0056C82.1682 73.1971 79.4907 84.9556 81.8907 90.3114C68.6907 95.7774 70.1157 102.997 64.4847 114.061C59.3622 116.201 55.8034 116.033 55.3572 121.046C55.3001 121.694 55.3845 122.347 55.6047 122.959C55.8248 123.571 56.1754 124.128 56.6322 124.591C58.1809 125.862 80.2422 134.997 87.2869 134.997C90.1804 135.004 90.6334 132.87 92.7619 128.639C93.9312 126.118 95.3779 122.976 96.6124 122.339C112.77 119.939 130.191 127.11 132.084 102.886C144.399 98.9401 146.986 90.7044 146.088 75.7966ZM79.8154 45.7629C70.6302 35.2404 80.3704 25.3531 89.6584 22.2549C91.7344 21.3264 93.3709 20.5959 94.2117 19.7191C100.978 12.6309 107.884 12.4186 113.138 13.0254C119.985 12.7696 128.37 24.3684 132.795 18.5206C132.913 18.3322 133.074 18.174 133.264 18.0587C133.455 17.9433 133.669 17.874 133.891 17.8561C140.475 22.0794 139.642 37.2429 132.841 41.4661C130.203 30.3294 123.858 36.7314 117.882 28.7911C114.38 24.1351 109.407 25.1409 104.532 28.1551C94.8934 34.1101 95.6202 24.8071 88.7412 30.3474C85.7089 32.7841 79.4427 38.1556 79.8154 45.7629ZM83.1844 51.2071C79.0849 43.1986 84.0252 36.4681 89.9509 31.7821C95.0809 27.4929 94.9684 35.9754 105.384 29.8239C110.268 26.9394 113.671 26.1631 116.58 30.1239C119.379 32.8936 121.797 35.2906 127.455 35.9851C128.368 36.0946 129.815 37.7386 130.816 41.0784C139.044 66.0406 99.2479 69.4531 92.3059 64.5789C88.1022 62.4751 86.9997 60.6631 83.1844 51.2071ZM88.0077 133.066C83.7034 134.162 58.9377 124.896 57.8269 123.149C55.3647 119.27 60.0559 117.684 64.6017 115.996C66.7644 118.09 69.1094 119.988 71.6089 121.667C71.8206 123.06 71.5693 124.485 70.8934 125.722C70.8067 125.864 70.759 126.026 70.7552 126.192C70.7514 126.358 70.7917 126.522 70.8718 126.667C70.9519 126.813 71.0691 126.935 71.2115 127.02C71.3539 127.106 71.5163 127.152 71.6824 127.154C73.3047 126.752 73.3999 124.034 73.5312 122.938C74.5062 123.559 75.5562 124.187 76.6879 124.823C76.9947 125.846 76.3737 127.432 76.1037 127.943C76.0008 128.161 75.9857 128.409 76.0614 128.638C76.1371 128.866 76.2979 129.056 76.5103 129.169C76.7226 129.282 76.9703 129.309 77.2019 129.244C77.4334 129.179 77.6311 129.027 77.7537 128.82C78.2288 127.902 78.5285 126.904 78.6372 125.876C82.2208 127.734 85.9475 129.303 89.7814 130.567C89.1109 131.838 88.4382 132.956 88.0077 133.066ZM120.504 118.809C114.307 121.067 101.304 118.641 95.7537 120.684C93.7887 121.619 92.0569 125.733 90.6027 128.859C76.7172 124.334 68.4229 117.075 66.1722 114.921C71.5287 104.691 70.0234 97.0764 82.9212 91.8961C85.1937 94.1544 90.4407 96.7479 97.3099 97.9906C102.798 105.678 121.242 105.232 130.172 103.369C129.916 106.774 128.484 116.441 120.504 118.809ZM101.241 86.2689C99.7461 86.2365 98.2603 86.0229 96.8164 85.6329C98.3802 79.2024 106.023 82.1686 106.302 79.6404C106.28 79.4949 105.885 76.1259 109.217 75.4606C111.992 74.9566 113.178 79.6044 113.214 79.7214C116.086 89.0896 114.815 98.9109 111.87 102.316C103.963 101.505 99.2352 98.9544 97.5394 94.5774C98.5849 94.5406 101.589 95.7466 101.734 93.9489C101.738 93.8251 101.716 93.7019 101.67 93.5868C101.624 93.4718 101.556 93.3673 101.468 93.2797C101.381 93.1921 101.276 93.1234 101.161 93.0776C101.046 93.0319 100.923 93.0101 100.799 93.0136C99.513 92.9826 98.2326 92.8335 96.9739 92.5681C96.5947 90.9006 96.4376 89.1903 96.5067 87.4816C97.4067 87.4666 101.936 89.3011 102.17 87.1966C102.173 87.074 102.15 86.9521 102.105 86.8383C102.059 86.7245 101.991 86.6211 101.904 86.5344C101.817 86.4477 101.714 86.3795 101.6 86.3338C101.486 86.2882 101.364 86.2661 101.241 86.2689ZM139.716 96.4261C135.96 101.234 124.758 103.266 114.066 102.491C116.946 97.8946 117.545 88.6584 115.374 80.4811C118.049 80.6784 124.026 81.1171 126.606 81.2311C126.73 81.2391 126.853 81.2222 126.97 81.1814C127.087 81.1406 127.194 81.0767 127.285 80.9935C127.377 80.9104 127.45 80.8097 127.502 80.6974C127.554 80.5851 127.582 80.4636 127.586 80.3401C127.578 78.9301 124.714 79.6021 122.828 79.1341C122.412 77.2739 122.112 75.3898 121.928 73.4926C121.897 73.2508 121.773 73.0306 121.583 72.8787C121.392 72.7267 121.15 72.655 120.907 72.6789C120.665 72.7027 120.441 72.8201 120.283 73.0062C120.126 73.1923 120.047 73.4325 120.064 73.6756C120.079 73.8256 120.386 76.8399 120.869 78.9954C118.394 78.8199 115.935 78.6369 114.818 78.5566C113.268 71.9874 105.106 71.8269 104.412 78.8709C94.3932 78.9879 92.9614 88.1221 96.0304 95.8321C90.6664 94.6479 86.2017 92.4481 84.3529 90.6946C81.1159 87.6196 83.1687 74.6986 90.9529 65.9806C102.324 71.0229 123.267 68.7871 132.021 55.2024C137.991 58.5639 143.077 61.8024 144.217 75.9481C145.013 85.7716 143.581 92.2824 139.715 96.4261H139.716Z" fill="white"/>
<path d="M17.3598 35.8321C16.795 36.5223 16.4763 37.381 16.4538 38.2725C15.8538 43.1835 15.9783 59.4976 17.3815 65.4855C17.9148 67.7655 19.7568 67.2983 19.267 65.223C18.1855 60.6263 17.0598 41.7218 18.712 37.6665C20.1948 34.0201 35.4895 22.5916 43.192 18.8716C44.9965 18.0016 44.9088 16.5181 42.9948 17.3805C32.4715 22.1378 20.626 31.9883 17.3598 35.8321Z" fill="white"/>
<path d="M24.1329 47.1521C24.6444 47.1003 25.1079 46.9833 25.4776 45.8771C26.2006 43.7283 27.6039 38.0508 26.1129 38.2698C25.3681 38.3801 25.0629 38.5331 24.8926 39.5268C24.5784 41.3538 24.2349 44.7446 23.7894 44.7813C23.2486 44.8248 22.5144 42.0558 21.5094 42.7061C21.0781 42.9836 20.6761 43.4876 20.9394 43.9331C22.6051 46.8153 23.6356 47.1521 24.1329 47.1521Z" fill="white"/>
<path d="M12.1107 57.6525C10.4517 43.3005 11.3727 37.44 12.3012 35.1968C13.7112 31.791 23.255 24.8708 33.9965 17.892C35.5752 16.869 35.1515 15.0495 32.4035 16.7085C25.541 20.9101 19.0545 25.6972 13.0167 31.0163C9.29749 34.356 8.27449 39.6833 10.4667 57.3308C10.766 59.7135 12.2495 58.8578 12.1107 57.6525Z" fill="white"/>
<path d="M101.345 50.1334C103.208 50.4034 101.074 45.1422 105.883 47.3637C105.987 47.4325 106.104 47.4787 106.227 47.499C106.351 47.5194 106.477 47.5135 106.597 47.4818C106.718 47.4501 106.831 47.3932 106.928 47.315C107.025 47.2367 107.105 47.1388 107.162 47.0277C108.031 44.7777 103.464 44.4994 102.068 45.5442C100.599 46.6504 99.2325 49.8259 101.345 50.1334Z" fill="white"/>
<path d="M86.972 41.5028C88.28 41.3273 88.2087 39.3076 91.3347 39.4028C91.4582 39.4171 91.5833 39.4053 91.702 39.3683C91.8207 39.3314 91.9304 39.27 92.024 39.1881C92.1175 39.1063 92.193 39.0058 92.2454 38.893C92.2978 38.7803 92.3261 38.6579 92.3285 38.5336C91.9925 35.0251 83.216 40.9036 86.972 41.5028Z" fill="white"/>
<path d="M98.6467 50.1473C100.086 40.5601 86.0707 37.6591 84.9667 48.4598C84.8497 51.7988 86.5087 56.2126 89.7975 54.7516C92.7127 52.9613 94.4595 52.0913 97.1047 51.6676C97.4839 51.5964 97.8331 51.4138 98.1079 51.1429C98.3826 50.8721 98.5702 50.5254 98.6467 50.1473ZM88.818 53.1586C86.1142 52.3546 85.8292 45.6384 89.7457 43.9066C90.4361 46.3941 91.3283 48.8212 92.4135 51.1636C91.1785 51.7606 89.9781 52.4266 88.818 53.1586Z" fill="white"/>
<path d="M36.1085 95.3666C35.6705 95.2061 34.6693 94.8258 34.1285 94.6653C34.6835 94.1403 35.8895 92.9403 34.8733 92.6403C33.7048 92.2893 33.3905 92.8961 32.06 94.1021C31.3663 93.9191 30.8548 93.8021 30.8038 93.7878C29.4808 93.5028 28.1038 95.0223 30.5915 95.6583C29.8318 96.3821 28.1293 98.2233 30.146 98.1866C31.3153 98.1648 31.805 96.8493 32.645 96.1916C33.62 96.4166 34.4788 96.7983 35.3053 96.9663C36.3133 97.0038 37.0805 95.6883 36.1085 95.3666Z" fill="white"/>
<path d="M42.7244 86.7293C43.2726 86.0641 40.7076 86.0543 39.7244 85.6478C40.3169 84.9968 42.1071 83.4256 40.9994 83.1188C40.701 83.0538 40.392 83.0548 40.094 83.1218C39.796 83.1888 39.5163 83.3201 39.2744 83.5066C38.5146 84.2663 38.1786 84.5221 37.4114 85.1948C36.4319 85.1288 34.7729 84.7336 33.9614 85.6036C33.4364 86.1736 34.8614 87.0068 35.4741 86.9116C34.7136 87.6128 31.9589 90.4118 34.3409 90.2513C35.9159 90.1418 36.8474 87.9128 37.9581 87.1966C39.2826 87.2626 41.4314 88.3073 42.7244 86.7293Z" fill="white"/>
<path d="M20.1279 99.3752C19.8842 99.3702 19.6482 99.4608 19.4705 99.6275C19.2927 99.7943 19.1872 100.024 19.1767 100.267C19.1661 100.511 19.2512 100.749 19.4138 100.931C19.5765 101.112 19.8037 101.223 20.0469 101.239C23.6574 101.356 32.7039 103.109 34.8377 104.396C35.0587 104.508 35.3151 104.527 35.5507 104.451C35.7863 104.374 35.9819 104.207 36.0947 103.986C36.6204 101 23.2622 99.7502 20.1279 99.3752Z" fill="white"/>
<path d="M45.0567 82.9585C45.8975 82.834 50.3067 78.7127 48.725 78.0085C47.2857 77.3575 46.0797 79.594 44.15 81.6475C43.5882 82.2497 44.2527 83.0755 45.0567 82.9585Z" fill="white"/>
<path d="M47.744 74.1895C42.3073 74.197 40.8238 75.0737 18.344 96.6745C16.0565 98.8817 15.2375 100.914 16.0273 102.674C18.2833 107.699 31.1023 107.774 34.793 107.724C42.2645 107.618 46.793 101.768 55.0205 91.3997C57.3148 87.9572 64.535 81.5852 62.708 77.7497C61.5185 75.2342 57.1775 74.2037 47.744 74.1895ZM58.142 84.508C51.0395 93.1675 42.1093 106.591 34.736 105.853C29.4605 106.028 19.0693 105.056 17.7538 101.953C17.2348 100.718 18.4993 99.1397 19.6468 98.029C42.4753 76.054 43.3738 76.048 47.744 76.0622C59.4283 76.3885 64.829 76.6082 58.142 84.508Z" fill="white"/>
<path d="M35.5276 52.95C34.5481 53.688 32.0634 54.726 32.6191 56.4578C33.0061 57.678 35.3304 55.6095 36.4194 54.543C37.2376 53.6475 36.6894 52.062 35.5276 52.95Z" fill="white"/>
<path d="M55.0243 81.6C55.514 80.9498 57.1513 79.3568 55.784 79.2173C54.1693 79.0493 53.5918 80.7375 52.784 81.3878C51.6733 81.4028 50.1898 80.7225 49.3783 82.0455C48.9035 82.827 50.6353 83.1488 51.359 83.1413C49.0423 86.0063 47.0983 88.5052 44.6945 91.2968C43.262 91.092 41.1943 90.858 39.9958 90.6683C39.7529 90.6432 39.5093 90.7082 39.3112 90.8511C39.1132 90.9939 38.9746 91.2046 38.9218 91.443C38.6803 92.2253 40.7218 92.4735 43.211 92.985C42.824 94.035 37.8763 97.9102 39.9665 98.049C42.005 98.1877 41.5813 97.4715 45.4325 93.2918C46.2562 93.4707 47.1056 93.4979 47.939 93.372C48.9838 93.1973 50 92.6633 46.865 91.6253C49.2328 88.8345 51.1985 86.2838 53.5948 83.346C54.8698 83.2148 57.3733 83.5875 57.9448 82.623C58.532 81.621 56.0113 81.8325 55.0243 81.6Z" fill="white"/>
<path d="M41.9218 34.1665C42.9598 27.151 43.9978 26.632 42.5578 26.5593C40.6648 26.464 40.7893 32.1273 40.2268 33.07C39.7677 32.5074 39.3546 31.9087 38.9916 31.2798C38.863 31.0728 38.6588 30.9241 38.4224 30.8654C38.1859 30.8067 37.9358 30.8426 37.7254 30.9654C37.515 31.0883 37.3608 31.2884 37.2957 31.5232C37.2306 31.7579 37.2597 32.0089 37.3768 32.2225C39.4153 35.6208 41.5423 36.6798 41.9218 34.1665Z" fill="white"/>
<path d="M58.2666 63.5253C59.5019 63.6048 59.6916 62.1296 58.4714 61.7253C55.9139 60.8771 49.3439 61.3668 47.5829 65.5248C46.7496 67.4906 46.8674 69.4931 48.0801 70.4936C48.4604 71.0186 57.5114 73.2408 57.5871 71.1806C57.6004 70.9331 57.5159 70.6903 57.3519 70.5044C57.188 70.3186 56.9576 70.2045 56.7104 70.1868C53.5896 69.9896 50.2356 69.4781 49.7684 68.9156C47.7366 66.4728 50.3969 63.0311 58.2666 63.5253Z" fill="white"/>
<path d="M31.4793 34.2753C30.1788 35.1446 28.198 35.8391 28.951 36.9423C29.6448 37.9578 31.4058 36.1241 33.7593 34.9256C34.8408 34.3781 33.9348 32.6463 31.4793 34.2753Z" fill="white"/>
<path d="M32.8077 37.9878C31.8207 38.6628 29.5332 39.1353 30.0522 40.8378C30.3004 41.6561 31.3602 41.2128 32.0472 40.7066C32.5879 40.3196 33.2307 39.9176 33.6619 39.6468C35.8542 38.2653 34.3857 36.9138 32.8077 37.9878Z" fill="white"/>
</svg>
