<svg width="180" height="180" viewBox="0 0 180 180" fill="none" xmlns="http://www.w3.org/2000/svg">
<path d="M167.665 70.9746C167.665 69.0396 165.559 68.0766 165.469 69.7416C165.208 75.1866 162.4 81.1536 153.364 81.1536C145.021 81.1536 141.601 74.0436 141.601 68.6886C141.601 61.2366 149.764 55.5306 158.188 58.1586C160.555 58.8606 161.257 56.6736 159.763 56.0526C148.711 51.3186 138.442 60.6156 138.973 69.7416C139.846 86.7606 167.854 88.6056 167.665 70.9746Z" fill="#950FFF"/>
<path d="M8.67842 11.5748C28.0645 18.5948 31.4034 29.7368 33.1584 40.7888C-7.0266 35.6138 5.78042 81.2888 29.9095 63.0728C34.1215 59.3018 36.6684 52.4618 36.8394 44.9108C42.5128 45.9508 47.9709 47.9375 52.9854 50.7878C52.7244 49.3685 52.5471 47.935 52.4544 46.4948C47.5323 44.0112 42.2706 42.2675 36.8394 41.3198C35.8764 25.7858 25.6075 13.1498 10.0825 8.23579C9.29046 7.97479 7.5354 7.6238 7.2744 9.28878C7.20198 9.53142 7.18159 9.78657 7.21449 10.0376C7.2474 10.2887 7.3329 10.5299 7.46539 10.7456C7.5979 10.9614 7.77444 11.1467 7.98345 11.2897C8.19248 11.4325 8.42929 11.5297 8.67842 11.5748ZM12.4494 60.3548C11.0599 58.194 10.5648 55.5778 11.0686 53.0587C11.5724 50.5396 13.0357 48.3149 15.1494 46.8548C18.8844 44.2898 27.5245 43.6058 33.3115 44.3978C33.1045 62.9468 18.3984 68.2028 12.4494 60.3368V60.3548Z" fill="#950FFF"/>
<path d="M162.66 125.722C161.517 125.2 159.762 124.408 158.097 123.796C156.432 123.184 156.081 124.759 157.395 125.461C158.886 126.206 160.444 126.809 162.048 127.261C163.452 127.738 163.803 126.244 162.66 125.722Z" fill="#950FFF"/>
<path d="M164.413 121.339C162.814 120.723 161.171 120.224 159.499 119.845C158.185 119.584 157.483 120.898 158.977 121.6C160.601 122.314 162.31 122.816 164.062 123.094C165.376 123.265 165.916 121.915 164.413 121.339Z" fill="#950FFF"/>
<path d="M92.0268 32.9767C105.149 33.1927 105.986 33.7147 106.157 29.2957C106.238 26.4877 106.157 15.3457 106.067 11.3947C105.977 8.49661 104.132 7.88461 102.557 7.79461C100.757 7.71361 94.2228 7.62361 92.1168 7.79461C90.0108 7.96561 89.0481 9.19865 88.8681 10.6927C88.6881 12.1867 88.6071 26.3976 88.6971 29.2057C88.7871 32.0136 89.6601 32.9407 92.0268 32.9767ZM91.9368 30.5197C90.1368 30.6997 90.5328 27.9817 92.0268 28.0627C93.2598 27.9817 101.927 28.0627 102.908 28.0627C103.889 28.0627 103.871 28.8546 103.871 29.3856C104.141 30.9696 103.052 30.5197 91.9368 30.5197ZM92.1168 10.1707H103.169C104.069 10.1707 104.132 10.9537 104.132 11.4847C104.132 12.9787 103.79 12.7086 91.9368 12.7086C90.2718 12.7986 90.5328 10.0807 92.1168 10.1707ZM92.0268 14.5537C93.2598 14.4637 101.927 14.5537 102.908 14.5537C104.222 14.5537 104.312 17.1906 102.737 17.0106C101.684 17.1006 92.9089 17.0106 91.8559 17.0106C90.2719 17.1906 90.5328 14.4367 92.0268 14.5537ZM102.827 21.5736C90.9828 21.5736 90.8118 22.0057 90.8118 20.5207C90.8118 19.7287 90.9829 19.1167 91.9459 19.1167C92.9089 19.1167 101.774 19.0267 102.827 19.1167C104.312 19.1167 104.312 21.6366 102.818 21.5736H102.827ZM91.8648 23.6796C92.9178 23.6796 101.864 23.6797 102.917 23.7697C104.411 23.7697 104.492 26.3077 103.007 26.1367C90.7669 26.1367 90.7218 26.2986 90.7218 25.0836C90.7128 24.3366 90.8839 23.6796 91.8559 23.6796H91.8648Z" fill="#950FFF"/>
<path d="M147.153 73.8365C144.084 77.3015 154.704 80.5055 159.618 76.8245C164.064 72.5495 150.987 68.5985 147.153 73.8365Z" fill="#950FFF"/>
<path d="M88.5185 128.35C88.3475 126.685 87.4654 124.579 85.5394 124.408C81.9394 124.093 78.1505 124.561 77.7275 124.147C77.1155 122.824 76.2335 121.447 74.0465 121.249C61.6175 120.556 62.1394 122.779 62.8144 136.603C63.1114 142.966 63.8494 143.974 72.7144 143.974C86.1424 143.794 87.2855 144.235 90.5258 136.513C91.9388 133.237 93.0818 129.322 88.5185 128.35ZM90.1028 132.85C86.9345 143.272 84.7025 142.147 72.7235 142.147C65.1995 142.147 64.9475 142.381 64.5695 136.621C64.2995 129.592 63.4625 123.121 68.1695 123.121C74.3795 123.121 74.9735 122.941 75.4595 123.823C76.9355 127.027 78.6005 125.794 83.7035 126.19C86.3315 126.361 86.7724 126.541 87.2134 128.296C84.5764 128.206 79.2305 128.377 76.5935 128.296C70.1945 128.116 68.1875 131.212 66.9455 135.928C66.7835 136.549 67.6475 138.205 68.8715 135.316C71.3465 129.142 72.9035 130.051 83.4425 130.051C86.1515 130.024 91.1558 129.403 90.1028 132.832V132.85Z" fill="#950FFF"/>
<path d="M88.8676 153.271C85.7605 157.269 83.0023 161.527 80.6236 165.997C78.6886 169.768 79.8316 173.719 84.0436 174.151C88.6066 174.682 97.7502 174.97 102.556 174.07C112.87 172.126 100.009 157.132 96.7692 153.01C94.2222 150.112 91.3512 150.202 88.8676 153.271ZM101.944 170.56C97.4442 171.694 88.6966 170.911 84.3946 170.56C83.1616 170.47 82.8465 169.264 83.7825 167.491C86.073 163.261 88.6815 159.211 91.5852 155.377C91.7193 155.178 91.8984 155.013 92.1081 154.897C92.3178 154.781 92.5518 154.715 92.7912 154.706C93.0306 154.698 93.2691 154.746 93.486 154.847C93.7038 154.948 93.8946 155.098 94.0422 155.287C95.3832 156.637 105.805 169.948 101.944 170.56Z" fill="#950FFF"/>
<path d="M160.031 117.388C160.777 117.861 161.615 118.167 162.488 118.288C163.388 118.468 163.541 117.064 162.92 116.803C162.299 116.542 161.696 116.101 160.814 115.75C159.932 115.399 159.149 116.947 160.031 117.388Z" fill="#950FFF"/>
<path d="M173.189 119.935C171.344 111.682 171.695 111.511 164.504 109.054C159.104 107.254 158.204 108.523 152.309 120.196C149.303 126.199 150.824 127.612 160.904 132.796C164.243 134.551 167.042 133.759 169.148 130.096C171.083 126.685 173.801 122.743 173.189 119.935ZM154.586 126.775C150.986 124.435 153.452 122.374 157.835 113.617C160.463 108.262 163.622 110.719 167.735 112.474C166.25 114.841 162.56 119.053 166.25 121.159C167.825 121.861 168.437 122.122 170.633 123.175C164.864 134.137 165.098 133.777 154.586 126.775ZM171.344 121.42C164.756 118.351 165.53 119.791 169.148 113.527C170.12 114.49 170.12 115.192 170.948 117.91C171.396 119.022 171.533 120.235 171.344 121.42Z" fill="#950FFF"/>
<path d="M171.174 65.9705C177.051 61.7585 171.525 51.9485 164.874 55.6205C157.827 59.4815 163.272 70.3535 171.174 65.9705ZM165.774 57.8705C166.095 57.3825 166.59 57.0356 167.157 56.9011C167.725 56.7665 168.324 56.8545 168.83 57.1469C169.335 57.4393 169.709 57.9139 169.875 58.4736C170.042 59.0333 169.988 59.6354 169.725 60.1566C169.577 60.4189 169.378 60.6495 169.14 60.8352C168.903 61.0208 168.632 61.1578 168.341 61.2384C168.05 61.3192 167.747 61.3418 167.448 61.3051C167.148 61.2685 166.86 61.1734 166.598 61.025C166.335 60.8766 166.104 60.6781 165.918 60.4407C165.733 60.2033 165.596 59.9316 165.515 59.6411C165.435 59.3507 165.412 59.0473 165.448 58.7481C165.485 58.4489 165.581 58.1599 165.729 57.8975L165.774 57.8705ZM164.991 63.0455C165.566 62.6415 166.224 62.371 166.917 62.2536C168.717 61.9926 172.092 63.3966 170.166 64.6296C169.382 65.1505 168.46 65.4208 167.519 65.4048C166.579 65.3887 165.665 65.0869 164.901 64.5395C163.974 63.8645 164.414 63.4235 164.945 63.0365L164.991 63.0455Z" fill="#950FFF"/>
<path d="M71.4069 71.6766C72.773 72.4848 74.2136 73.1599 75.7089 73.6926C74.6559 65.7906 65.7009 54.2166 57.5469 49.3926C57.7179 50.8866 58.0689 52.7316 58.4469 54.3966C64.0269 58.8246 69.1029 64.9086 71.4069 71.6766Z" fill="#950FFF"/>
<path d="M88.1653 37.4586L105.535 37.5397C109.666 37.6297 108.694 34.5606 105.535 34.5606C104.221 34.4706 90.1 34.4707 89.1283 34.4707C86.2213 34.4707 86.1043 37.4586 88.1653 37.4586Z" fill="#950FFF"/>
<path d="M15.4276 107.65C14.0236 108.433 14.2036 110.107 14.2036 111.331C14.2036 112.915 14.2036 115.021 16.0486 115.633C20.9536 117.649 37.3696 117.91 41.7526 115.021C42.7156 113.968 42.4546 112.645 42.5446 111.421C42.6346 110.197 42.7156 108.433 41.4016 107.56C43.0666 106.597 42.3646 104.311 42.5446 102.736C42.5446 101.593 42.1936 100.189 40.9606 99.6671C42.4546 99.2261 42.5446 97.5611 42.5446 96.4181C42.7156 93.7181 42.5446 91.5041 39.3856 90.8921C33.2296 89.7937 14.1136 88.4797 14.2936 94.8341C14.3746 96.5081 13.9426 99.0461 15.9586 99.6671C14.7256 100.018 14.1136 101.593 14.1586 102.646C14.2936 104.23 13.7626 106.597 15.4276 107.65ZM39.7276 92.9081C32.2522 94.3571 24.568 94.3571 17.0926 92.9081C22.8886 91.5941 34.0036 91.3511 39.7366 92.9081H39.7276ZM16.1026 94.4561C21.5476 96.3821 34.4626 96.4181 40.6906 94.4021C40.8149 95.5739 40.7541 96.7583 40.5106 97.9121C35.1106 100.018 21.6106 100.369 16.2106 97.9121C15.8351 96.7952 15.8006 95.5919 16.1116 94.4561H16.1026ZM16.1026 101.773C22.0696 103.573 34.7056 103.573 40.5826 101.683C40.8082 103.135 40.8082 104.613 40.5826 106.066C34.7956 108.262 22.1596 108.433 16.2826 106.066C15.7516 105.175 15.8956 102.007 16.1296 101.737L16.1026 101.773ZM16.1926 109.405C22.0696 111.205 34.7956 111.205 40.6726 109.315C40.8587 110.772 40.8284 112.249 40.5826 113.698C35.6686 115.804 20.9266 116.155 16.1926 113.617C15.8506 112.232 15.8598 110.785 16.2196 109.405H16.1926Z" fill="#950FFF"/>
<path d="M157.835 66.8436C158.1 65.6882 157.925 64.4753 157.344 63.4421C156.763 62.4089 155.817 61.6298 154.691 61.2573C153.565 60.8847 152.341 60.9455 151.258 61.4278C150.176 61.91 149.311 62.7789 148.835 63.8646C147.152 69.5706 155.549 72.9366 157.835 66.8436Z" fill="#950FFF"/>
<path d="M72.5519 77.3738C72.7144 79.8996 72.3874 82.433 71.5889 84.8348C59.7449 76.3208 37.6319 70.0928 30.2609 84.6548C29.0279 88.1648 32.7179 86.9408 33.7709 85.6268C42.0149 75.2678 59.0339 80.5328 70.0949 88.1648C65.7029 95.7161 57.1169 100.585 47.8919 100.765C47.3704 100.714 46.8497 100.87 46.4411 101.197C46.0324 101.525 45.7682 102 45.7049 102.52C45.2639 104.32 46.6679 104.365 47.2799 104.365C52.3989 104.314 57.4258 102.997 61.9123 100.532C66.3988 98.066 70.2055 94.529 72.9929 90.2351C87.9059 100.504 106.067 129.196 95.1864 144.289C94.5744 145.252 93.3873 147.097 95.3673 147.529C96.0414 147.694 96.7524 147.617 97.377 147.313C98.0016 147.009 98.5002 146.497 98.7864 145.864C109.586 127.234 91.5054 99.6311 74.4869 86.9948C75.5263 84.3638 76.093 81.5699 76.1609 78.7418C74.9342 78.3506 73.7295 77.894 72.5519 77.3738Z" fill="#950FFF"/>
<path d="M153.793 153.712C140.194 153.622 141.085 171.964 154.063 171.262C167.041 170.56 163.801 152.92 153.793 153.712ZM147.565 167.131C138.88 156.169 161.605 149.41 160.732 163.36C160.813 168.535 153.091 172.135 147.565 167.131Z" fill="white"/>
<path d="M168.447 7.97463C158.547 6.48063 149.934 9.02763 145.2 15.6066C127.56 13.5006 116.508 34.0296 119.667 47.8986C118.362 48.5743 117.102 49.3349 115.896 50.1756C103.701 39.6456 85.0985 47.3676 83.7845 66.0607C83.6075 69.1045 83.6948 72.1579 84.0455 75.1867C67.7285 72.5497 58.1615 60.3546 57.8105 45.4416C67.4585 53.5416 86.6105 53.3346 92.2892 41.0496C92.9102 39.6456 90.8852 39.2946 90.5342 40.5276C84.7475 52.0206 66.4055 51.2286 57.8105 43.0656C57.8126 41.8909 57.8998 40.7178 58.0715 39.5556C65.2715 47.3676 80.1845 49.7346 87.2945 40.8786C88.1945 39.5556 85.8905 39.3846 85.4945 40.1766C78.2945 47.9796 64.8755 45.1716 58.4945 37.2786C60.9515 26.2266 69.8975 17.1006 84.9005 22.4466C85.0138 22.511 85.1397 22.55 85.2696 22.561C85.3994 22.572 85.5301 22.5546 85.6526 22.5101C85.775 22.4656 85.8864 22.3951 85.979 22.3033C86.0715 22.2116 86.143 22.1008 86.1885 21.9787C86.234 21.8566 86.2526 21.7261 86.2427 21.5961C86.2329 21.4662 86.1949 21.34 86.1314 21.2261C86.068 21.1123 85.9806 21.0136 85.8753 20.9369C85.77 20.8601 85.6493 20.8071 85.5215 20.7816C47.3525 8.41562 45.3365 72.9817 84.3785 77.0227C84.5495 77.9947 84.6395 78.8677 84.8195 79.8307C42.3485 76.2307 43.2305 6.39062 85.1705 17.8926C86.3045 18.2436 86.6555 17.3616 86.4845 16.7496C74.2895 10.6026 59.9885 16.9206 54.4625 29.3496C51.8255 23.1126 52.7075 13.5546 58.2335 5.30163C58.1493 5.14626 58.0263 5.0153 57.8766 4.92142C57.7269 4.82754 57.5554 4.77392 57.3789 4.76577C57.2023 4.75762 57.0267 4.79523 56.8689 4.87491C56.7112 4.95461 56.5767 5.07369 56.4785 5.22063C53.7016 9.01296 51.9699 13.4683 51.4565 18.1405C50.9431 22.8128 51.6663 27.5378 53.5535 31.8426C53.2025 32.8956 52.8515 34.0296 52.5905 35.1726C48.2075 27.1896 48.2885 14.6436 53.0315 5.95861C53.2925 5.60761 53.3825 4.72561 52.6805 4.55461C52.4697 4.47964 52.2391 4.48193 52.0298 4.56104C51.8205 4.64015 51.646 4.79095 51.5375 4.98662C46.2905 15.0036 46.4525 29.5566 52.1495 37.7196C48.3785 58.2486 62.7695 80.0197 85.2335 81.6757C86.2909 86.0876 87.7989 90.3789 89.7335 94.4829C65.1635 104.23 45.7775 118.702 35.0675 145.288C33.4025 147.988 37.7675 148.447 38.4065 146.692C49.0535 120.736 67.0535 107.398 91.3532 97.6599C106.923 128.071 143.508 123.076 148.593 145.81C148.503 146.782 150.789 147.304 150.393 145.639C145.128 122.653 111.693 124.759 98.0132 104.752C83.7755 86.1577 77.8265 52.7946 100.56 47.5476C117.93 45.2616 126.966 63.0727 107.4 76.1497C107.265 75.1325 107.209 74.1065 107.229 73.0807C121.179 63.6847 116.526 47.8806 101.172 50.0856C78.8885 56.4936 89.1485 89.5687 100.209 103.186C116.643 124.372 150.141 121.573 153.201 146.44C153.408 148.105 155.307 147.232 155.001 146.179C150.348 117.136 110.082 122.572 97.0952 95.3739C100.776 93.9699 105.195 92.3859 108.939 91.2519C117.039 108.181 146.316 121.609 155.793 104.239C161.517 87.6607 142.194 78.2377 110.694 86.9497C109.324 84.1058 108.321 81.0999 107.706 78.0037C120.468 69.9757 122.322 58.7797 118.218 52.8666C118.951 52.3297 119.721 51.8455 120.522 51.4176C122.709 58.6987 127.803 65.4487 133.77 68.6077C136.227 69.8407 136.668 66.0697 134.67 65.0076C129.675 62.0196 125.544 56.1426 123.789 49.8246C131.34 46.4046 144.147 46.7556 149.673 50.9676C150.906 51.8676 151.257 52.2816 152.481 52.2816C153.705 52.2816 155.595 51.7146 153.453 49.4736C147.612 43.3716 132.393 42.2736 123.096 46.3146C120.99 35.4336 129.495 18.3246 143.364 19.0266C139.503 28.3326 146.253 42.3726 157.764 37.6296C168.645 30.6096 159.699 18.1536 149.259 16.2186C153.201 12.0066 160.059 10.2516 167.853 11.4846C169.77 12.0066 170.823 7.88463 168.447 7.97463ZM113.439 57.1056C115.365 61.9296 111.531 67.4287 107.382 70.7047C107.803 65.6166 109.939 60.822 113.439 57.1056ZM90.1832 66.2317C89.6615 58.5366 99.8672 46.1256 111.234 54.1446C108.795 56.6321 106.874 59.5785 105.58 62.8134C104.288 66.0482 103.649 69.5073 103.701 72.9907C99.518 74.793 95.0081 75.7122 90.4532 75.6907C90.1022 72.5505 90.0122 69.3867 90.1832 66.2317ZM90.7142 77.5537C95.2304 77.5391 99.6998 76.6434 103.872 74.9167C103.962 75.7087 104.052 76.8517 104.223 77.7247C100.049 79.1811 95.6579 79.9235 91.2362 79.9207C90.9815 79.1517 90.806 78.3585 90.7142 77.5537ZM95.4482 92.2959C93.7679 88.9429 92.4719 85.4103 91.5872 81.7657C95.9783 81.7538 100.337 81.0116 104.484 79.5697C105.133 82.4654 106.074 85.2878 107.292 87.9937C103.611 89.0467 99.1382 90.8019 95.4482 92.2959ZM152.481 102.817C144.057 116.596 119.316 104.14 112.476 90.2709C144.894 81.3787 156.504 93.1599 152.481 102.817ZM156.252 34.4706C147.657 37.8906 143.796 25.5246 147.252 19.3776C158.16 21.3486 162.669 30.3846 156.252 34.4706Z" fill="white"/>
<path d="M153.795 150.112C135.462 150.373 136.254 175.204 154.146 174.772C170.733 174.241 169.59 150.112 153.795 150.112ZM164.244 163.612C163.803 176.212 142.572 176.158 142.041 162.712C142.572 147.637 165.909 148.798 164.253 163.63L164.244 163.612Z" fill="white"/>
<path d="M27.8942 175.384C33.7802 174.979 46.5782 177.931 46.6682 169.417C46.2272 163.117 48.8642 151.075 38.9462 151.345C32.1062 151.516 20.6042 149.851 20.7842 158.185C20.9552 164.737 18.4532 176.023 27.8942 175.384ZM24.3842 158.365C24.4652 156.259 25.2842 155.467 27.4532 155.287C30.2612 155.026 34.9142 154.855 38.9462 154.936C43.4462 155.071 43.0682 156.448 43.0682 169.336C43.0682 170.83 42.9782 171.532 39.3872 171.703C36.6872 171.883 32.0162 171.973 28.0652 171.793C24.9062 171.703 24.5552 171.001 24.4652 168.985C24.2942 165.817 24.2942 161.524 24.3842 158.365Z" fill="white"/>
</svg>
