<svg width="311" height="310" viewBox="0 0 311 310" fill="none" xmlns="http://www.w3.org/2000/svg">
<g clip-path="url(#clip0_1037_2098)">
<path d="M156.016 310C241.62 310 311.016 240.604 311.016 155C311.016 69.3959 241.62 0 156.016 0C70.4115 0 1.01562 69.3959 1.01562 155C1.01562 240.604 70.4115 310 156.016 310Z" fill="url(#paint0_linear_1037_2098)"/>
<path fill-rule="evenodd" clip-rule="evenodd" d="M252.132 73.9521C254.235 68.6125 254.858 63.2827 255.772 57.7033C255.95 56.6137 255.21 55.5887 254.121 55.4092C253.031 55.2296 252.002 55.9704 251.823 57.06C250.956 62.3505 250.404 67.4215 248.408 72.4937C248.004 73.5195 248.511 74.6809 249.54 75.0803C250.566 75.4863 251.729 74.978 252.132 73.9521Z" fill="#950FFF"/>
<path fill-rule="evenodd" clip-rule="evenodd" d="M262.271 86.2047C272.641 79.0216 282.8 69.3551 290.352 59.2319C291.01 58.3475 290.826 57.0952 289.94 56.4398C289.054 55.7843 287.8 55.9651 287.141 56.8495C279.838 66.6372 270.013 75.9863 259.987 82.927C259.08 83.5568 258.856 84.8013 259.487 85.7041C260.117 86.607 261.365 86.8345 262.271 86.2047Z" fill="#950FFF"/>
<path fill-rule="evenodd" clip-rule="evenodd" d="M263.381 95.7177C271.646 98.2409 280.676 97.0362 288.811 94.7121C289.872 94.405 290.486 93.2999 290.181 92.2461C289.877 91.1857 288.767 90.5741 287.706 90.8746C280.297 92.9942 272.078 94.2001 264.549 91.9032C263.493 91.5806 262.374 92.1752 262.052 93.2254C261.73 94.2756 262.325 95.3952 263.381 95.7177Z" fill="#950FFF"/>
<path d="M57.6202 211.012L57.6202 211.012C57.3399 210.147 56.4092 209.668 55.5405 209.946C54.671 210.221 54.1916 211.151 54.4725 212.018C56.3436 217.796 59.8981 222.199 65.0931 225.331C65.8742 225.804 66.8919 225.551 67.3629 224.776L67.3633 224.776C67.8365 223.995 67.5843 222.979 66.8008 222.511C62.3003 219.798 59.2371 216.008 57.6202 211.012Z" fill="#950FFF" stroke="#950FFF"/>
<path d="M58.5175 237.301C62.3574 234.927 69.0549 235.076 76.0542 236.088C85.5352 237.459 95.5599 240.549 100.267 241.999C100.971 242.216 101.556 242.397 102.002 242.529L58.5175 237.301ZM58.5175 237.301L58.7804 237.727C58.7804 237.727 58.7805 237.727 58.7805 237.727L58.5175 237.301ZM53.8313 269.928L53.8315 269.928C54.7214 270.562 55.3541 271.382 55.5484 272.324L53.8313 269.928ZM53.8313 269.928C52.9818 269.323 51.8568 268.872 50.7596 268.564M53.8313 269.928L50.7596 268.564M50.7596 268.564C49.7731 268.288 48.7769 268.118 47.9694 268.061L50.7596 268.564ZM102.286 239.295L102.032 239.725L102.288 239.296C102.288 239.295 102.287 239.295 102.286 239.295ZM46.2927 271.535C47.051 272.59 47.8992 273.585 48.8369 274.498C49.2935 274.943 50.3238 275.813 51.3532 276.182C52.4759 276.589 53.6534 276.48 54.5077 275.53L54.5079 275.53C55.5065 274.419 55.7533 273.313 55.5485 272.324L46.2927 271.535ZM30.865 290.095C30.8651 290.095 30.8651 290.095 30.8651 290.095C30.8651 290.095 30.8651 290.095 30.8652 290.095L31.3579 290.011L30.865 290.095ZM44.9829 268.457C44.8169 268.499 44.652 268.543 44.4882 268.589C44.5668 268.741 44.6469 268.892 44.7287 269.041C44.8938 268.996 45.0601 268.952 45.2274 268.911C45.1443 268.76 45.0628 268.609 44.9829 268.457ZM94.4029 237.336C93.9781 237.216 93.5434 237.094 93.0996 236.971C93.4562 237.248 93.8155 237.521 94.1777 237.792C94.6535 237.926 95.117 238.059 95.567 238.19C95.1755 237.909 94.7876 237.624 94.4029 237.336ZM59.1002 197.114C59.0998 197.114 59.0994 197.114 59.099 197.114C59.0986 197.115 59.0982 197.115 59.0978 197.115L59.322 197.562L59.1002 197.114ZM103.559 243.312C103.56 243.311 103.561 243.311 103.561 243.311C103.563 243.311 103.565 243.311 103.567 243.31L103.491 242.816L103.559 243.312ZM46.3579 264.679C46.3579 264.679 46.3579 264.679 46.3579 264.679L45.8898 264.855L46.3579 264.679ZM51.9116 272.609L51.9121 272.609C52.0553 272.711 52.1559 272.789 52.2266 272.862C52.28 272.918 52.2985 272.953 52.3052 272.972C52.3031 272.977 52.2996 272.986 52.2937 272.998C52.2928 272.999 52.2919 273.001 52.2909 273.003C52.288 273.002 52.2852 273.001 52.2827 272.999C51.8626 272.783 51.449 272.431 51.2005 272.196C51.463 272.322 51.7038 272.46 51.9116 272.609Z" fill="#950FFF" stroke="#950FFF"/>
<path d="M142.044 77.4607C141.526 75.3167 138.476 75.3167 137.959 77.4607L137.288 80.2379C137.103 81.0041 136.505 81.6023 135.739 81.7873L132.962 82.4576C130.818 82.9752 130.818 86.0248 132.962 86.5424L135.739 87.2128C136.505 87.3977 137.103 87.9959 137.288 88.7621L137.959 91.5393C138.476 93.6833 141.526 93.6833 142.044 91.5393L142.714 88.7621C142.899 87.9959 143.497 87.3977 144.263 87.2128L147.04 86.5424C149.184 86.0248 149.184 82.9752 147.04 82.4576L144.263 81.7873C143.497 81.6023 142.899 81.0041 142.714 80.2379L142.044 77.4607Z" fill="#950FFF"/>
<circle cx="231.504" cy="225" r="6" fill="#950FFF"/>
<path d="M116.637 146.84C118.153 135.482 122.512 124.695 129.308 115.484C136.104 106.273 145.114 98.9386 155.499 94.1655C165.884 89.3924 177.305 87.3359 188.696 88.1878C200.087 89.0396 211.077 92.7722 220.642 99.0371L246.701 90.1497C247.487 89.8898 248.331 89.8612 249.133 90.0672C249.934 90.2733 250.661 90.7054 251.225 91.3124C251.79 91.9194 252.17 92.676 252.319 93.4927C252.469 94.3093 252.383 95.1519 252.07 95.9208L241.62 120.929C247.178 130.218 250.437 140.707 251.124 151.519C251.812 162.331 249.908 173.151 245.572 183.074C241.235 192.996 234.593 201.732 226.2 208.55C217.808 215.368 207.909 220.07 197.334 222.263C186.758 224.456 175.812 224.075 165.413 221.153C155.014 218.23 145.464 212.851 137.563 205.466C129.661 198.081 123.638 188.905 119.997 178.705C116.356 168.505 115.204 157.579 116.637 146.84Z" fill="#950FFF" fill-opacity="0.2"/>
<path d="M72.0975 177.16C73.614 188.518 77.9734 199.305 84.7691 208.516C91.5648 217.727 100.575 225.061 110.96 229.834C121.345 234.608 132.766 236.664 144.157 235.812C155.548 234.96 166.538 231.228 176.103 224.963L202.162 233.85C202.948 234.11 203.792 234.139 204.594 233.933C205.395 233.727 206.122 233.295 206.686 232.688C207.251 232.081 207.631 231.324 207.78 230.507C207.93 229.691 207.843 228.848 207.531 228.079L197.08 203.071C202.639 193.782 205.898 183.293 206.585 172.481C207.273 161.669 205.369 150.849 201.033 140.926C196.696 131.004 190.054 122.268 181.661 115.45C173.269 108.632 163.37 103.93 152.795 101.737C142.219 99.5443 131.273 99.9251 120.874 102.847C110.475 105.77 100.925 111.149 93.0237 118.534C85.1221 125.919 79.0989 135.095 75.4581 145.295C71.8173 155.495 70.665 166.421 72.0975 177.16Z" fill="#E1DCEB"/>
<path fill-rule="evenodd" clip-rule="evenodd" d="M126.871 188.037C126.871 179.429 133.181 173.133 140.159 173.133C147.136 173.133 153.446 179.429 153.446 188.037H162.446C162.446 175.211 152.828 164.133 140.159 164.133C127.489 164.133 117.871 175.211 117.871 188.037H126.871Z" fill="black"/>
<path d="M115.902 163.782C120.367 163.782 123.987 160.162 123.987 155.696C123.987 151.231 120.367 147.611 115.902 147.611C111.436 147.611 107.816 151.231 107.816 155.696C107.816 160.162 111.436 163.782 115.902 163.782Z" fill="black"/>
<path d="M164.413 163.781C168.879 163.781 172.498 160.162 172.498 155.696C172.498 151.231 168.879 147.611 164.413 147.611C159.948 147.611 156.328 151.231 156.328 155.696C156.328 160.162 159.948 163.781 164.413 163.781Z" fill="black"/>
</g>
<defs>
<linearGradient id="paint0_linear_1037_2098" x1="154.821" y1="-50.4718" x2="157.996" y2="493.865" gradientUnits="userSpaceOnUse">
<stop stop-color="#F2F2F2"/>
<stop offset="1" stop-color="#EFEFEF"/>
</linearGradient>
<clipPath id="clip0_1037_2098">
<rect width="310" height="310" fill="white" transform="translate(0.5)"/>
</clipPath>
</defs>
</svg>
