<svg width="311" height="310" viewBox="0 0 311 310" fill="none" xmlns="http://www.w3.org/2000/svg">
<g clip-path="url(#clip0_1037_2258)">
<path d="M154.5 307.5C239.276 307.5 308 238.776 308 154C308 69.2243 239.276 0.5 154.5 0.5C69.7243 0.5 1 69.2243 1 154C1 238.776 69.7243 307.5 154.5 307.5Z" fill="url(#paint0_linear_1037_2258)"/>
<g filter="url(#filter0_d_1037_2258)">
<rect x="89.5312" y="62.3068" width="134.449" height="167.368" rx="17.2735" fill="url(#paint1_linear_1037_2258)"/>
</g>
<rect x="101.406" y="83.8986" width="53.9796" height="10.58" rx="5.29" fill="black"/>
<rect x="101.406" y="113.911" width="107.959" height="10.58" rx="5.29" fill="#D5D5D5"/>
<rect x="101.406" y="143.924" width="107.959" height="10.58" rx="5.29" fill="#D5D5D5"/>
<rect x="101.406" y="173.936" width="107.959" height="10.58" rx="5.29" fill="#D5D5D5"/>
<rect x="101.406" y="203.949" width="107.959" height="10.58" rx="5.29" fill="#D5D5D5"/>
<g filter="url(#filter1_d_1037_2258)">
<path d="M304.527 43.8107H239.664C236.642 43.8107 234.191 46.3893 234.191 49.5702V81.6547C234.191 84.8356 236.642 87.4142 239.664 87.4142H304.527C307.549 87.4142 309.999 84.8356 309.999 81.6547V49.5702C309.999 46.3893 307.549 43.8107 304.527 43.8107Z" fill="white"/>
</g>
<path d="M250.384 72.502C253.961 72.502 256.861 69.6019 256.861 66.0244C256.861 62.447 253.961 59.5469 250.384 59.5469C246.806 59.5469 243.906 62.447 243.906 66.0244C243.906 69.6019 246.806 72.502 250.384 72.502Z" fill="#CCC6D9"/>
<rect x="265.5" y="59.5469" width="34.5469" height="12.9551" rx="6.47755" fill="#D5D5D5"/>
<path fill-rule="evenodd" clip-rule="evenodd" d="M193.291 237.208C207.196 237.208 220.118 233.002 230.856 225.793L274.794 267.736L290.729 249.248L248.33 208.774C256.161 197.754 260.765 184.282 260.765 169.733C260.765 132.468 230.556 102.259 193.291 102.259C156.026 102.259 125.816 132.468 125.816 169.733C125.816 206.999 156.026 237.208 193.291 237.208ZM250.845 169.734C250.845 201.283 225.269 226.858 193.72 226.858C162.171 226.858 136.595 201.283 136.595 169.734C136.595 138.184 162.171 112.609 193.72 112.609C225.269 112.609 250.845 138.184 250.845 169.734Z" fill="#CCC6D9"/>
<g filter="url(#filter2_b_1037_2258)">
<path d="M193.713 227.963C226.208 227.963 252.55 201.862 252.55 169.665C252.55 137.468 226.208 111.367 193.713 111.367C161.218 111.367 134.875 137.468 134.875 169.665C134.875 201.862 161.218 227.963 193.713 227.963Z" fill="white" fill-opacity="0.3"/>
</g>
<path d="M203.883 169.665L218.121 155.482C219.455 154.078 220.186 152.214 220.158 150.283C220.131 148.353 219.347 146.51 217.974 145.145C216.6 143.779 214.746 143.001 212.804 142.973C210.861 142.946 208.985 143.672 207.573 144.998L193.303 159.182L179.064 144.998C178.379 144.277 177.556 143.701 176.642 143.302C175.729 142.903 174.744 142.69 173.747 142.676C172.749 142.662 171.759 142.847 170.835 143.22C169.91 143.593 169.071 144.146 168.365 144.847C167.66 145.549 167.103 146.383 166.728 147.302C166.352 148.221 166.166 149.205 166.18 150.196C166.195 151.188 166.409 152.166 166.81 153.074C167.211 153.982 167.792 154.801 168.517 155.482L182.779 169.665L168.517 183.849C167.792 184.53 167.211 185.348 166.81 186.256C166.409 187.164 166.195 188.142 166.18 189.134C166.166 190.125 166.352 191.11 166.728 192.028C167.103 192.947 167.66 193.782 168.365 194.483C169.071 195.184 169.91 195.737 170.835 196.11C171.759 196.483 172.749 196.668 173.747 196.654C174.744 196.64 175.729 196.427 176.642 196.029C177.556 195.63 178.379 195.053 179.064 194.332L193.335 180.149L207.605 194.332C209.03 195.58 210.881 196.24 212.779 196.179C214.677 196.118 216.48 195.34 217.821 194.003C219.162 192.666 219.939 190.872 219.995 188.985C220.051 187.098 219.381 185.261 218.121 183.849L203.883 169.665Z" fill="#950FFF"/>
<path d="M274.789 267.738L290.724 249.25L293.124 251.541C295.453 253.764 296.847 256.869 297 260.174C297.153 263.479 296.053 266.713 293.94 269.163C291.828 271.614 288.877 273.081 285.737 273.242C282.596 273.404 279.524 272.245 277.195 270.022L274.795 267.731L274.789 267.738Z" fill="#E1DCEB"/>
<path fill-rule="evenodd" clip-rule="evenodd" d="M54.2394 92.12C54.2191 90.5805 54.026 89.0277 53.6397 87.4643C52.2851 81.9777 46.2418 78.4553 39.8096 77.6272C33.3799 76.799 26.6935 78.6836 24.1166 83.4561C22.6426 86.1848 22.4393 88.5366 23.0416 90.5194C23.6413 92.4916 25.0644 94.1267 26.9958 95.4008C32.381 98.9496 41.8122 99.6743 46.1147 98.1905C48.1046 97.503 50.0487 96.6749 51.942 95.7273C50.8594 101.931 46.8262 107.807 41.4436 113.103C29.7456 124.612 11.5926 133.348 1.70666 136.559C1.17551 136.732 0.880688 137.321 1.04588 137.876C1.21107 138.431 1.77524 138.741 2.30639 138.569C12.388 135.293 30.8944 126.372 42.8236 114.634C48.9864 108.572 53.3779 101.747 54.1276 94.5726C68.0594 86.798 79.5007 72.6928 89.2825 60.8225C89.6459 60.3845 89.5976 59.7182 89.1758 59.3387C88.7539 58.9617 88.1185 59.0095 87.7551 59.4501C78.3723 70.8347 67.4825 84.3772 54.2394 92.12ZM52.214 93.2481C52.2903 91.5175 52.1275 89.7603 51.6879 87.9872C50.5163 83.2385 45.1311 80.4302 39.563 79.7135C36.1499 79.2756 32.6403 79.6366 29.888 80.9213C28.1573 81.7282 26.7315 82.8988 25.8726 84.4914C24.7442 86.5804 24.5002 88.3668 24.9627 89.8824C25.4253 91.4087 26.5741 92.6349 28.071 93.6197C32.9783 96.8554 41.5656 97.5429 45.4819 96.1918C47.792 95.3955 50.0335 94.4028 52.214 93.2481Z" fill="#950FFF"/>
<circle cx="301.13" cy="192.337" r="6.47755" fill="#950FFF"/>
<path fill-rule="evenodd" clip-rule="evenodd" d="M56.4801 237.025C57.6361 236.592 58.8526 236.016 59.7906 235.182C60.9048 234.191 61.3579 232.915 61.6622 231.572C62.0528 229.846 62.2089 228.008 62.6826 226.28C62.858 225.638 63.1955 225.395 63.3403 225.287C63.7064 225.016 64.0764 224.943 64.4246 224.97C64.8371 225.002 65.4039 225.166 65.7766 225.894C65.8297 225.998 65.8988 226.157 65.9453 226.374C65.9792 226.533 66.0011 227.032 66.037 227.237C66.1267 227.744 66.2017 228.25 66.2722 228.759C66.5067 230.453 66.6416 231.892 67.3823 233.448C68.3875 235.561 69.3947 236.854 70.7606 237.427C72.0814 237.98 73.6606 237.876 75.6782 237.442C75.8702 237.393 76.0602 237.351 76.2482 237.317C77.1378 237.153 77.9882 237.768 78.1629 238.701C78.3377 239.633 77.7723 240.541 76.8907 240.746C76.7067 240.788 76.5253 240.829 76.3459 240.866C73.6194 241.576 70.463 244.111 68.6287 246.331C68.0633 247.016 67.2355 248.929 66.3911 250.15C65.7679 251.051 65.0677 251.644 64.4797 251.854C64.0857 251.995 63.7536 251.974 63.4792 251.902C63.0806 251.799 62.7497 251.572 62.4959 251.21C62.3578 251.012 62.2295 250.747 62.1684 250.409C62.1392 250.246 62.1358 249.832 62.1365 249.645C61.9644 249.022 61.7538 248.413 61.6004 247.785C61.2343 246.285 60.5161 245.336 59.6631 244.081C58.8652 242.907 58.0082 242.17 56.7519 241.581C56.5884 241.539 55.2697 241.199 54.8039 241.004C54.1236 240.718 53.7994 240.239 53.6818 239.981C53.4818 239.544 53.4613 239.161 53.5011 238.842C53.5602 238.372 53.7609 237.969 54.117 237.644C54.3376 237.442 54.6671 237.246 55.1082 237.15C55.449 237.075 56.3532 237.032 56.4801 237.025ZM64.2166 234.581C64.2777 234.724 64.3429 234.868 64.412 235.014C65.8842 238.108 67.5305 239.836 69.5315 240.674L69.5986 240.702C68.2599 241.748 67.0481 242.917 66.122 244.037C65.7407 244.499 65.2358 245.457 64.6903 246.44C64.1947 244.745 63.3842 243.547 62.365 242.047C61.5864 240.902 60.7706 240.041 59.7681 239.339C60.546 238.919 61.2881 238.426 61.9345 237.852C63.0108 236.895 63.7223 235.786 64.2166 234.581Z" fill="#950FFF"/>
</g>
<defs>
<filter id="filter0_d_1037_2258" x="57.1435" y="51.5109" width="199.225" height="232.143" filterUnits="userSpaceOnUse" color-interpolation-filters="sRGB">
<feFlood flood-opacity="0" result="BackgroundImageFix"/>
<feColorMatrix in="SourceAlpha" type="matrix" values="0 0 0 0 0 0 0 0 0 0 0 0 0 0 0 0 0 0 127 0" result="hardAlpha"/>
<feOffset dy="21.5918"/>
<feGaussianBlur stdDeviation="16.1939"/>
<feComposite in2="hardAlpha" operator="out"/>
<feColorMatrix type="matrix" values="0 0 0 0 0.570833 0 0 0 0 0.570833 0 0 0 0 0.570833 0 0 0 0.19 0"/>
<feBlend mode="normal" in2="BackgroundImageFix" result="effect1_dropShadow_1037_2258"/>
<feBlend mode="normal" in="SourceGraphic" in2="effect1_dropShadow_1037_2258" result="shape"/>
</filter>
<filter id="filter1_d_1037_2258" x="226.634" y="34.0944" width="103.878" height="71.6729" filterUnits="userSpaceOnUse" color-interpolation-filters="sRGB">
<feFlood flood-opacity="0" result="BackgroundImageFix"/>
<feColorMatrix in="SourceAlpha" type="matrix" values="0 0 0 0 0 0 0 0 0 0 0 0 0 0 0 0 0 0 127 0" result="hardAlpha"/>
<feOffset dx="6.47755" dy="4.31836"/>
<feGaussianBlur stdDeviation="7.01734"/>
<feComposite in2="hardAlpha" operator="out"/>
<feColorMatrix type="matrix" values="0 0 0 0 0.104618 0 0 0 0 0.465612 0 0 0 0 0.545833 0 0 0 0.09 0"/>
<feBlend mode="normal" in2="BackgroundImageFix" result="effect1_dropShadow_1037_2258"/>
<feBlend mode="normal" in="SourceGraphic" in2="effect1_dropShadow_1037_2258" result="shape"/>
</filter>
<filter id="filter2_b_1037_2258" x="126.238" y="102.731" width="134.949" height="133.869" filterUnits="userSpaceOnUse" color-interpolation-filters="sRGB">
<feFlood flood-opacity="0" result="BackgroundImageFix"/>
<feGaussianBlur in="BackgroundImage" stdDeviation="4.31836"/>
<feComposite in2="SourceAlpha" operator="in" result="effect1_backgroundBlur_1037_2258"/>
<feBlend mode="normal" in="SourceGraphic" in2="effect1_backgroundBlur_1037_2258" result="shape"/>
</filter>
<linearGradient id="paint0_linear_1037_2258" x1="153.317" y1="-49.4834" x2="156.461" y2="489.585" gradientUnits="userSpaceOnUse">
<stop stop-color="#F2F2F2"/>
<stop offset="1" stop-color="#EFEFEF"/>
</linearGradient>
<linearGradient id="paint1_linear_1037_2258" x1="156.756" y1="62.3068" x2="156.756" y2="229.675" gradientUnits="userSpaceOnUse">
<stop stop-color="white"/>
<stop offset="0.71875" stop-color="#FAFAFA"/>
</linearGradient>
<clipPath id="clip0_1037_2258">
<rect width="310" height="310" fill="white" transform="translate(0.5)"/>
</clipPath>
</defs>
</svg>
