<svg width="311" height="310" viewBox="0 0 311 310" fill="none" xmlns="http://www.w3.org/2000/svg">
<g clip-path="url(#clip0_1037_2229)">
<path d="M155.016 310C240.067 310 309.016 241.052 309.016 156C309.016 70.9482 240.067 2 155.016 2C69.9638 2 1.01562 70.9482 1.01562 156C1.01562 241.052 69.9638 310 155.016 310Z" fill="url(#paint0_linear_1037_2229)"/>
<path fill-rule="evenodd" clip-rule="evenodd" d="M268.36 94.4547C273.368 90.7812 274.449 83.7439 270.775 78.7366C267.102 73.7293 260.065 72.6481 255.057 76.3216C250.05 79.9952 248.969 87.0324 252.642 92.0397C254.908 95.128 258.453 96.7229 262.012 96.6299C262.267 96.6017 262.531 96.5856 262.798 96.5818C264.745 96.3941 266.669 95.6957 268.36 94.4547ZM217 97.4904C228.102 99.9624 238.196 101.506 248.341 100.128C247.371 99.246 246.473 98.2545 245.668 97.1563C239.169 88.2972 241.082 75.8467 249.941 69.3474C258.8 62.848 271.251 64.761 277.75 73.6201C281.131 78.2286 282.235 83.8089 281.27 89.0179C289.292 84.4808 296.433 78.7488 301.981 71.4195C303.423 69.5148 306.125 69.2021 308.016 70.721C309.907 72.2399 310.271 75.0153 308.83 76.9199C298.813 90.1537 284.82 97.9065 270.402 103.287C268.357 104.283 266.195 104.9 264.01 105.153C247.681 111.073 230.833 109.645 215.093 106.141C212.782 105.626 211.335 103.272 211.861 100.884C212.388 98.495 214.688 96.9758 217 97.4904Z" fill="#950FFF"/>
<path d="M236.805 97.2446C236.805 68.7658 213.718 45.6793 185.239 45.6793H136.101V148.81H185.239C213.718 148.81 236.805 125.723 236.805 97.2446Z" fill="url(#paint1_linear_1037_2229)"/>
<path d="M179.066 130.071C171.76 144.236 159.53 153.512 145.684 153.512H132.31C109.921 153.512 91.7656 129.254 91.7656 99.3408C91.7656 69.4271 109.921 45.178 132.31 45.1696H145.726C159.572 45.1696 171.819 54.4282 179.108 68.6107C183.806 78.1704 186.249 88.6804 186.249 99.3323C186.249 109.984 183.806 120.494 179.108 130.054L179.066 130.071Z" fill="black"/>
<path d="M165.539 130.071C158.25 144.211 146.045 153.478 132.225 153.512C109.853 153.512 91.7227 129.238 91.7227 99.3409C91.7227 69.4441 109.853 45.2035 132.225 45.1698C146.045 45.1698 158.25 54.4284 165.539 68.6108C170.243 78.1689 172.689 88.6796 172.689 99.3325C172.689 109.985 170.243 120.496 165.539 130.054V130.071Z" fill="#E1DCEB"/>
<path d="M133.432 109.329C131.458 105.786 128.154 103.465 124.412 103.456C118.354 103.456 113.445 109.537 113.445 117.027C113.445 124.517 118.354 130.59 124.412 130.598C128.154 130.598 131.458 128.279 133.432 124.726C134.705 122.331 135.368 119.698 135.368 117.029C135.368 114.361 134.705 111.727 133.432 109.333V109.329Z" fill="white"/>
<path d="M133.432 72.791C131.458 69.2485 128.154 66.927 124.412 66.9185C118.354 66.9185 113.445 72.9998 113.445 80.4896C113.445 87.9794 118.354 94.0523 124.412 94.0607C128.154 94.0607 131.458 91.7412 133.432 88.1882C134.705 85.7937 135.368 83.1605 135.368 80.4917C135.368 77.8229 134.705 75.1898 133.432 72.7952V72.791Z" fill="white"/>
<path d="M87.5703 117.84C87.5703 122.882 91.6582 126.97 96.7009 126.97H122.756C128.117 126.97 132.462 122.625 132.462 117.264C132.462 111.903 128.117 107.558 122.756 107.558H96.7009C91.6582 107.558 87.5703 111.645 87.5703 116.688V117.84Z" fill="black"/>
<path d="M87.5703 80.2583C87.5703 85.2839 91.6444 89.358 96.6701 89.358H123.363C128.388 89.358 132.462 85.2839 132.462 80.2583C132.462 75.2326 128.388 71.1585 123.363 71.1585H96.6701C91.6444 71.1585 87.5703 75.2326 87.5703 80.2583Z" fill="black"/>
<path fill-rule="evenodd" clip-rule="evenodd" d="M161.402 145.387H186.258V149.027H161.402V145.387Z" fill="black"/>
<path fill-rule="evenodd" clip-rule="evenodd" d="M1.85959 223.845C22.8439 211.245 46.6159 208.846 69.3761 209.6C72.6283 209.708 75.1773 212.431 75.0696 215.683C74.9618 218.936 72.238 221.485 68.9859 221.377C47.1423 220.653 26.0616 223.057 7.92584 233.948C5.13619 235.623 1.51675 234.719 -0.1584 231.93C-1.83355 229.14 -0.930066 225.521 1.85959 223.845Z" fill="#950FFF"/>
<path d="M52.3867 215.541C52.3867 187.397 75.2017 164.582 103.345 164.582H153.091V266.5H103.345C75.2017 266.5 52.3867 243.685 52.3867 215.541Z" fill="url(#paint2_linear_1037_2229)"/>
<path d="M102.082 249.132C109.396 263.297 121.626 272.573 135.472 272.573H148.888C171.277 272.573 189.432 248.315 189.432 218.402C189.432 188.488 171.277 164.239 148.888 164.231H135.472C121.626 164.231 109.379 173.489 102.082 187.672C97.2997 197.205 94.8505 207.737 94.9357 218.402C94.8505 229.066 97.2997 239.599 102.082 249.132Z" fill="black"/>
<path d="M115.613 249.132C122.91 263.272 135.106 272.539 148.935 272.573C171.308 272.573 189.438 248.299 189.438 218.402C189.438 188.505 171.308 164.264 148.935 164.239C135.106 164.239 122.91 173.498 115.613 187.672C110.831 197.205 108.382 207.737 108.467 218.402C108.382 229.066 110.831 239.599 115.613 249.132Z" fill="#E1DCEB"/>
<path d="M152.601 225.596C158.078 225.596 162.518 231.438 162.518 238.645C162.518 245.852 158.078 251.694 152.601 251.694C147.124 251.694 142.684 245.852 142.684 238.645C142.684 231.438 147.124 225.596 152.601 225.596Z" fill="black"/>
<path d="M152.601 183.839C158.078 183.839 162.518 189.681 162.518 196.888C162.518 204.095 158.078 209.937 152.601 209.937C147.124 209.937 142.684 204.095 142.684 196.888C142.684 189.681 147.124 183.839 152.601 183.839Z" fill="black"/>
<path fill-rule="evenodd" clip-rule="evenodd" d="M98.6094 263.122H119.54V266.762H98.6094V263.122Z" fill="black"/>
<path fill-rule="evenodd" clip-rule="evenodd" d="M257.52 28.0896C259.104 21.6659 259.001 15.4799 259.19 8.9643C259.227 7.69184 258.225 6.63394 256.952 6.59561C255.679 6.55728 254.617 7.56149 254.579 8.83396C254.399 15.0123 254.544 20.8917 253.041 26.9934C252.736 28.2275 253.494 29.477 254.73 29.7759C255.965 30.0826 257.216 29.3237 257.52 28.0896Z" fill="black"/>
<path fill-rule="evenodd" clip-rule="evenodd" d="M270.984 40.5382C281.733 30.7417 291.862 18.1398 298.941 5.41512C299.558 4.30363 299.156 2.90079 298.043 2.28755C296.93 1.67432 295.524 2.07295 294.907 3.18444C288.061 15.4875 278.266 27.6756 267.872 37.1424C266.932 38.001 266.867 39.4574 267.726 40.3926C268.584 41.3278 270.044 41.3967 270.984 40.5382Z" fill="black"/>
<path fill-rule="evenodd" clip-rule="evenodd" d="M273.709 51.2392C283.541 52.8566 293.674 50.0971 302.614 46.1953C303.78 45.6817 304.312 44.325 303.803 43.1675C303.292 42.0024 301.931 41.4734 300.764 41.9793C292.622 45.5361 283.414 48.173 274.46 46.7013C273.204 46.4943 272.016 47.3452 271.809 48.5946C271.602 49.8441 272.453 51.0322 273.709 51.2392Z" fill="black"/>
<path fill-rule="evenodd" clip-rule="evenodd" d="M2.8214 285.369C4.22214 284.87 5.69617 284.207 6.83287 283.246C8.1829 282.105 8.73194 280.636 9.10065 279.09C9.574 277.103 9.76314 274.987 10.3371 272.997C10.5497 272.258 10.9586 271.978 11.1341 271.854C11.5777 271.541 12.0261 271.457 12.4479 271.489C12.9478 271.525 13.6346 271.714 14.0862 272.552C14.1506 272.672 14.2343 272.855 14.2906 273.105C14.3317 273.289 14.3582 273.863 14.4017 274.099C14.5104 274.682 14.6014 275.265 14.6867 275.851C14.9709 277.802 15.1343 279.459 16.0319 281.251C17.2499 283.683 18.4704 285.172 20.1255 285.831C21.7259 286.469 23.6394 286.349 26.0843 285.849C26.3169 285.792 26.5472 285.744 26.775 285.705C27.8529 285.516 28.8834 286.224 29.0951 287.298C29.3068 288.371 28.6217 289.417 27.5535 289.653C27.3305 289.702 27.1107 289.748 26.8933 289.791C23.5895 290.609 19.7648 293.528 17.5421 296.084C16.8571 296.872 15.854 299.075 14.8308 300.481C14.0757 301.518 13.2272 302.201 12.5147 302.443C12.0374 302.605 11.6349 302.581 11.3024 302.498C10.8194 302.379 10.4185 302.118 10.111 301.701C9.94351 301.474 9.78811 301.168 9.71405 300.779C9.67863 300.591 9.67462 300.115 9.67543 299.899C9.46692 299.182 9.21173 298.481 9.02576 297.758C8.5822 296.031 7.71195 294.938 6.67829 293.493C5.71146 292.142 4.67301 291.292 3.1507 290.615C2.95266 290.566 1.35468 290.175 0.790354 289.95C-0.0339935 289.621 -0.426867 289.07 -0.569357 288.773C-0.81167 288.269 -0.836604 287.828 -0.788303 287.461C-0.716655 286.92 -0.473535 286.456 -0.042041 286.082C0.225228 285.849 0.624525 285.623 1.15906 285.512C1.57204 285.426 2.66764 285.376 2.8214 285.369ZM12.196 282.555C12.27 282.72 12.3489 282.886 12.4326 283.053C14.2166 286.616 16.2114 288.605 18.6362 289.57L18.7175 289.602C17.0954 290.806 15.627 292.152 14.5048 293.443C14.0427 293.974 13.4309 295.078 12.7699 296.21C12.1694 294.257 11.1873 292.878 9.95235 291.151C9.00886 289.833 8.02029 288.841 6.8055 288.033C7.74819 287.549 8.64739 286.982 9.43069 286.321C10.7348 285.219 11.597 283.942 12.196 282.555Z" fill="#950FFF"/>
</g>
<defs>
<linearGradient id="paint0_linear_1037_2229" x1="153.828" y1="-48.1462" x2="156.983" y2="492.679" gradientUnits="userSpaceOnUse">
<stop stop-color="#F2F2F2"/>
<stop offset="1" stop-color="#EFEFEF"/>
</linearGradient>
<linearGradient id="paint1_linear_1037_2229" x1="236.805" y1="45.5137" x2="133.5" y2="126.218" gradientUnits="userSpaceOnUse">
<stop stop-color="#E1DCEB"/>
<stop offset="1" stop-color="#B3AFBA"/>
</linearGradient>
<linearGradient id="paint2_linear_1037_2229" x1="52.3867" y1="164.419" x2="154.762" y2="245.349" gradientUnits="userSpaceOnUse">
<stop stop-color="#E1DCEB"/>
<stop offset="1" stop-color="#B3AFBA"/>
</linearGradient>
<clipPath id="clip0_1037_2229">
<rect width="310" height="310" fill="white" transform="translate(0.5)"/>
</clipPath>
</defs>
</svg>
