<svg width="217" height="263" viewBox="0 0 217 263" fill="none" xmlns="http://www.w3.org/2000/svg">
<g opacity="0.2">
<rect x="55" y="13" width="4" height="6" fill="white"/>
<rect x="58" y="19" width="4" height="6" fill="white"/>
<rect x="61" y="25" width="4" height="6" fill="white"/>
<rect x="64" y="31" width="4" height="6" fill="white"/>
<rect x="66" y="37" width="4" height="6" fill="white"/>
<rect x="69" y="43" width="4" height="6" fill="white"/>
<rect x="71" y="49" width="4" height="6" fill="white"/>
<rect x="73" y="55" width="4" height="6" fill="white"/>
<rect width="4" height="6" transform="matrix(-1 0 0 1 167 13)" fill="white"/>
<rect width="4" height="6" transform="matrix(-1 0 0 1 164 19)" fill="white"/>
<rect width="4" height="6" transform="matrix(-1 0 0 1 161 25)" fill="white"/>
<rect width="4" height="6" transform="matrix(-1 0 0 1 158 31)" fill="white"/>
<rect width="4" height="6" transform="matrix(-1 0 0 1 156 37)" fill="white"/>
<rect width="4" height="6" transform="matrix(-1 0 0 1 153 43)" fill="white"/>
<rect width="4" height="6" transform="matrix(-1 0 0 1 151 49)" fill="white"/>
<rect width="4" height="6" transform="matrix(-1 0 0 1 149 55)" fill="white"/>
<rect x="29" y="66" width="4" height="3" fill="white"/>
<rect x="32" y="69" width="7" height="3" fill="white"/>
<rect x="35" y="72" width="7" height="3" fill="white"/>
<rect x="42" y="75" width="4" height="3" fill="white"/>
<rect x="45" y="78" width="7" height="3" fill="white"/>
<rect x="48" y="81" width="4" height="4" fill="white"/>
<rect x="29" y="66" width="4" height="3" fill="white"/>
<rect x="32" y="69" width="7" height="3" fill="white"/>
<rect x="35" y="72" width="7" height="3" fill="white"/>
<rect x="42" y="75" width="4" height="3" fill="white"/>
<rect x="45" y="78" width="7" height="3" fill="white"/>
<rect x="48" y="81" width="4" height="4" fill="white"/>
<rect width="4" height="3" transform="matrix(-1 0 0 1 195 65)" fill="white"/>
<rect width="7" height="3" transform="matrix(-1 0 0 1 192 68)" fill="white"/>
<rect width="7" height="3" transform="matrix(-1 0 0 1 189 71)" fill="white"/>
<rect width="4" height="3" transform="matrix(-1 0 0 1 182 74)" fill="white"/>
<rect width="7" height="3" transform="matrix(-1 0 0 1 179 77)" fill="white"/>
<rect width="4" height="4" transform="matrix(-1 0 0 1 176 80)" fill="white"/>
<rect x="109" width="4" height="6" fill="white"/>
<rect x="111" y="6" width="4" height="6" fill="white"/>
<rect x="109" y="12" width="4" height="6" fill="white"/>
<rect x="111" y="18" width="4" height="6" fill="white"/>
<rect x="109" y="24" width="4" height="6" fill="white"/>
<rect x="111" y="30" width="4" height="6" fill="white"/>
<rect x="109" y="36" width="4" height="6" fill="white"/>
<rect x="111" y="42" width="4" height="6" fill="white"/>
<rect x="109" y="48" width="4" height="6" fill="white"/>
</g>
<g opacity="0.2">
<rect width="4" height="6" transform="matrix(1 0 0 -1 55 250)" fill="white"/>
<rect width="4" height="6" transform="matrix(1 0 0 -1 58 244)" fill="white"/>
<rect width="4" height="6" transform="matrix(1 0 0 -1 61 238)" fill="white"/>
<rect width="4" height="6" transform="matrix(1 0 0 -1 64 232)" fill="white"/>
<rect width="4" height="6" transform="matrix(1 0 0 -1 66 226)" fill="white"/>
<rect width="4" height="6" transform="matrix(1 0 0 -1 69 220)" fill="white"/>
<rect width="4" height="6" transform="matrix(1 0 0 -1 71 214)" fill="white"/>
<rect width="4" height="6" transform="matrix(1 0 0 -1 73 208)" fill="white"/>
<rect x="167" y="250" width="4" height="6" transform="rotate(-180 167 250)" fill="white"/>
<rect x="164" y="244" width="4" height="6" transform="rotate(-180 164 244)" fill="white"/>
<rect x="161" y="238" width="4" height="6" transform="rotate(-180 161 238)" fill="white"/>
<rect x="158" y="232" width="4" height="6" transform="rotate(-180 158 232)" fill="white"/>
<rect x="156" y="226" width="4" height="6" transform="rotate(-180 156 226)" fill="white"/>
<rect x="153" y="220" width="4" height="6" transform="rotate(-180 153 220)" fill="white"/>
<rect x="151" y="214" width="4" height="6" transform="rotate(-180 151 214)" fill="white"/>
<rect x="149" y="208" width="4" height="6" transform="rotate(-180 149 208)" fill="white"/>
<rect width="4" height="3" transform="matrix(1 0 0 -1 29 197)" fill="white"/>
<rect width="7" height="3" transform="matrix(1 0 0 -1 32 194)" fill="white"/>
<rect width="7" height="3" transform="matrix(1 0 0 -1 35 191)" fill="white"/>
<rect width="4" height="3" transform="matrix(1 0 0 -1 42 188)" fill="white"/>
<rect width="7" height="3" transform="matrix(1 0 0 -1 45 185)" fill="white"/>
<rect width="4" height="4" transform="matrix(1 0 0 -1 48 182)" fill="white"/>
<rect width="4" height="3" transform="matrix(1 0 0 -1 29 197)" fill="white"/>
<rect width="7" height="3" transform="matrix(1 0 0 -1 32 194)" fill="white"/>
<rect width="7" height="3" transform="matrix(1 0 0 -1 35 191)" fill="white"/>
<rect width="4" height="3" transform="matrix(1 0 0 -1 42 188)" fill="white"/>
<rect width="7" height="3" transform="matrix(1 0 0 -1 45 185)" fill="white"/>
<rect width="4" height="4" transform="matrix(1 0 0 -1 48 182)" fill="white"/>
<rect x="195" y="198" width="4" height="3" transform="rotate(-180 195 198)" fill="white"/>
<rect x="192" y="195" width="7" height="3" transform="rotate(-180 192 195)" fill="white"/>
<rect x="189" y="192" width="7" height="3" transform="rotate(-180 189 192)" fill="white"/>
<rect x="182" y="189" width="4" height="3" transform="rotate(-180 182 189)" fill="white"/>
<rect x="179" y="186" width="7" height="3" transform="rotate(-180 179 186)" fill="white"/>
<rect x="176" y="183" width="4" height="4" transform="rotate(-180 176 183)" fill="white"/>
<rect width="4" height="6" transform="matrix(1 0 0 -1 109 263)" fill="white"/>
<rect width="4" height="6" transform="matrix(1 0 0 -1 111 257)" fill="white"/>
<rect width="4" height="6" transform="matrix(1 0 0 -1 109 251)" fill="white"/>
<rect width="4" height="6" transform="matrix(1 0 0 -1 111 245)" fill="white"/>
<rect width="4" height="6" transform="matrix(1 0 0 -1 109 239)" fill="white"/>
<rect width="4" height="6" transform="matrix(1 0 0 -1 111 233)" fill="white"/>
<rect width="4" height="6" transform="matrix(1 0 0 -1 109 227)" fill="white"/>
<rect width="4" height="6" transform="matrix(1 0 0 -1 111 221)" fill="white"/>
<rect width="4" height="6" transform="matrix(1 0 0 -1 109 215)" fill="white"/>
</g>
<rect y="109" width="36" height="3" fill="white"/>
<rect x="32" y="106" width="7" height="3" fill="white"/>
<rect x="35" y="102" width="4" height="5" fill="white"/>
<rect x="39" y="99" width="6" height="4" fill="white"/>
<rect x="42" y="96" width="7" height="4" fill="white"/>
<rect x="48" y="92" width="13" height="4" fill="white"/>
<rect x="60" y="96" width="38" height="4" fill="white"/>
<rect x="65" y="99" width="10" height="4" fill="white"/>
<rect x="68" y="102" width="7" height="4" fill="white"/>
<rect x="71" y="105" width="4" height="4" fill="white"/>
<rect x="97" y="99" width="4" height="13" fill="white"/>
<rect x="93" y="109" width="4" height="3" fill="white"/>
<rect x="97" y="115" width="4" height="4" fill="white"/>
<rect x="100" y="118" width="4" height="14" fill="white"/>
<rect x="65" y="125" width="10" height="3" fill="white"/>
<rect x="55" y="112" width="3" height="7" fill="white"/>
<rect x="58" y="115" width="3" height="17" fill="white"/>
<rect x="61" y="118" width="4" height="7" fill="white"/>
<rect x="61" y="131" width="4" height="7" fill="white"/>
<rect x="65" y="131" width="36" height="4" fill="white"/>
<rect x="94" y="134" width="7" height="4" fill="white"/>
<rect x="100" y="138" width="4" height="13" fill="white"/>
<rect x="97" y="148" width="4" height="3" fill="white"/>
<rect x="58" y="138" width="4" height="10" fill="white"/>
<rect x="62" y="148" width="6" height="6" fill="white"/>
<rect x="68" y="151" width="29" height="4" fill="white"/>
<rect x="55" y="167" width="39" height="4" fill="white"/>
<rect x="58" y="154" width="4" height="13" fill="white"/>
<rect x="62" y="154" width="4" height="4" fill="white"/>
<rect x="62" y="163" width="4" height="4" fill="white"/>
<rect x="90" y="163" width="4" height="4" fill="white"/>
<rect x="93" y="155" width="4" height="12" fill="white"/>
<rect x="29" y="112" width="4" height="10" fill="white"/>
<rect x="25" y="122" width="4" height="24" fill="white"/>
<rect x="29" y="144" width="4" height="7" fill="white"/>
<rect x="32" y="151" width="4" height="7" fill="white"/>
<rect x="36" y="154" width="4" height="7" fill="white"/>
<rect x="38" y="158" width="4" height="7" fill="white"/>
<rect x="42" y="161" width="4" height="3" fill="white"/>
<rect x="45" y="164" width="10" height="3" fill="white"/>
<rect y="158" width="36" height="3" fill="white"/>
<rect x="74" y="108" width="4" height="17" fill="white"/>
<rect x="78" y="112" width="19" height="4" fill="white"/>
<rect width="36" height="3" transform="matrix(-1 0 0 1 217 109)" fill="white"/>
<rect width="7" height="3" transform="matrix(-1 0 0 1 185 106)" fill="white"/>
<rect width="4" height="5" transform="matrix(-1 0 0 1 182 102)" fill="white"/>
<rect width="6" height="4" transform="matrix(-1 0 0 1 178 99)" fill="white"/>
<rect width="7" height="4" transform="matrix(-1 0 0 1 175 96)" fill="white"/>
<rect width="13" height="4" transform="matrix(-1 0 0 1 169 92)" fill="white"/>
<rect width="38" height="4" transform="matrix(-1 0 0 1 157 96)" fill="white"/>
<rect width="10" height="4" transform="matrix(-1 0 0 1 152 99)" fill="white"/>
<rect width="7" height="4" transform="matrix(-1 0 0 1 149 102)" fill="white"/>
<rect width="4" height="4" transform="matrix(-1 0 0 1 146 105)" fill="white"/>
<rect width="4" height="13" transform="matrix(-1 0 0 1 120 99)" fill="white"/>
<rect width="4" height="3" transform="matrix(-1 0 0 1 124 109)" fill="white"/>
<rect width="4" height="4" transform="matrix(-1 0 0 1 120 115)" fill="white"/>
<rect width="4" height="14" transform="matrix(-1 0 0 1 117 118)" fill="white"/>
<rect width="10" height="3" transform="matrix(-1 0 0 1 152 125)" fill="white"/>
<rect width="3" height="7" transform="matrix(-1 0 0 1 162 112)" fill="white"/>
<rect width="3" height="17" transform="matrix(-1 0 0 1 159 115)" fill="white"/>
<rect width="4" height="7" transform="matrix(-1 0 0 1 156 118)" fill="white"/>
<rect width="4" height="7" transform="matrix(-1 0 0 1 156 131)" fill="white"/>
<rect width="36" height="4" transform="matrix(-1 0 0 1 152 131)" fill="white"/>
<rect width="7" height="4" transform="matrix(-1 0 0 1 123 134)" fill="white"/>
<rect width="4" height="13" transform="matrix(-1 0 0 1 117 138)" fill="white"/>
<rect width="4" height="3" transform="matrix(-1 0 0 1 120 148)" fill="white"/>
<rect width="4" height="10" transform="matrix(-1 0 0 1 159 138)" fill="white"/>
<rect width="6" height="6" transform="matrix(-1 0 0 1 155 148)" fill="white"/>
<rect width="29" height="4" transform="matrix(-1 0 0 1 149 151)" fill="white"/>
<rect width="39" height="4" transform="matrix(-1 0 0 1 162 167)" fill="white"/>
<rect width="4" height="13" transform="matrix(-1 0 0 1 159 154)" fill="white"/>
<rect width="4" height="4" transform="matrix(-1 0 0 1 155 154)" fill="white"/>
<rect width="4" height="4" transform="matrix(-1 0 0 1 155 163)" fill="white"/>
<rect width="4" height="4" transform="matrix(-1 0 0 1 127 163)" fill="white"/>
<rect width="4" height="12" transform="matrix(-1 0 0 1 124 155)" fill="white"/>
<rect width="4" height="10" transform="matrix(-1 0 0 1 188 112)" fill="white"/>
<rect width="4" height="24" transform="matrix(-1 0 0 1 192 122)" fill="white"/>
<rect width="4" height="7" transform="matrix(-1 0 0 1 188 144)" fill="white"/>
<rect width="4" height="7" transform="matrix(-1 0 0 1 185 151)" fill="white"/>
<rect width="4" height="7" transform="matrix(-1 0 0 1 181 154)" fill="white"/>
<rect width="4" height="7" transform="matrix(-1 0 0 1 179 158)" fill="white"/>
<rect width="4" height="3" transform="matrix(-1 0 0 1 175 161)" fill="white"/>
<rect width="10" height="3" transform="matrix(-1 0 0 1 172 164)" fill="white"/>
<rect width="36" height="3" transform="matrix(-1 0 0 1 217 158)" fill="white"/>
<rect width="4" height="17" transform="matrix(-1 0 0 1 143 108)" fill="white"/>
<rect width="19" height="4" transform="matrix(-1 0 0 1 139 112)" fill="white"/>
</svg>
