<svg width="311" height="310" viewBox="0 0 311 310" fill="none" xmlns="http://www.w3.org/2000/svg">
<path d="M161.7 245.52C159.949 245.241 154.307 246.388 153.501 244.187C150.184 238.421 148.386 237.382 152.586 231.198C155.082 226.734 144.836 219.061 141.271 221.712C135.924 227.912 135.226 227.168 128.019 225.323C125.585 225.323 125.058 219.402 124.252 217.852C123.384 213.202 109.977 215.62 109.698 219.402C110.116 227.152 109.698 227.648 103.157 231.306C100.956 233.213 96.4916 229.4 94.4611 228.687C90.5241 227.137 83.2081 237.367 85.9051 240.498C87.5481 242.389 92.1051 245.644 90.7566 248.341C89.5941 250.697 90.4621 254.541 87.6566 255.719C85.2386 256.618 79.1006 257.501 79.6431 261.02C80.2011 281.774 89.1911 263.763 95.6391 278.736C97.4526 280.674 93.6551 285.138 93.0661 286.951C91.1131 291.105 101.498 298.561 104.784 295.755C109.279 290.392 110.984 290.16 117.463 292.175C120.563 292.314 121.013 298.375 121.927 300.405C123.477 303.97 136.497 301.955 136.265 297.553C135.769 290.02 136.451 289.896 142.651 286.347C146.417 283.448 151.3 291.725 154.865 288.253C167.389 274.458 155.996 279.201 155.128 269.359C156.368 262.539 157.36 261.609 164.134 260.059C168.365 258.385 166.35 245.659 161.7 245.52ZM108.427 267.561C96.8946 248.418 126.05 230.95 137.536 250.03C149.021 269.111 119.943 286.75 108.427 267.561Z" fill="#950FFF"/>
<path d="M224.105 240.854C228.616 240.064 229.189 230.206 224.849 228.873C219.548 227.617 216.169 227.323 214.34 221.588C211.922 217.31 220.044 211.296 214.975 207.638C205.908 199.299 206.311 209.777 199.197 211.389C192.578 211.606 191.726 209.482 188.021 204.553C185.324 200.957 176.567 205.127 177.047 209.203C178.597 214.985 180.55 217.527 176.117 222.58C173.916 226.656 164.725 222.812 163.717 228.237C160.617 243.83 173.203 232.546 176.846 244.977C178.241 246.698 174.738 252.293 174.35 254.014C172.8 258.013 180.55 263.314 183.774 261.206C188.424 256.463 189.292 253.952 196.515 255.114C200.53 255.347 202.173 264.926 207.009 262.988C209.458 261.655 214.433 260.741 213.937 257.207C213.72 255.362 210.837 248.775 212.387 247.194C215.394 241.443 218.168 241.397 224.105 240.854ZM194.872 242.978C181.837 242.156 183.077 222.332 196.112 223.138C209.148 223.944 207.923 243.784 194.872 242.978Z" fill="#950FFF"/>
<path d="M277.658 265.189C277.559 264.565 277.253 263.991 276.79 263.56C276.326 263.131 275.731 262.869 275.1 262.818L271.52 262.539C269.303 261.872 267.087 257.687 267.846 255.455C272.124 250.325 269.582 248.511 264.917 245.225C259.523 243.675 261.212 251.332 253.059 247.178C249.882 246.217 252.052 239.707 247.774 239.878C236.257 239.661 242.783 242.978 238.706 248.341C229.406 254.928 230.569 240.591 222.416 253.409C221.036 255.114 224.679 257.687 225.392 258.912C226.942 273.172 214.092 260.369 217.859 276.055C218.138 278.287 221.827 277.698 223.33 277.961C226.105 278.442 228.104 282.518 227.655 284.921C223.284 290.005 226.105 292.423 230.755 295.476C232.568 296.918 235.002 293.461 236.304 292.64C250.579 290.733 237.931 303.846 253.462 300.126C255.849 299.832 255.152 295.709 255.462 294.128C264.343 282.751 264.452 300.979 272.791 287.478C274.341 285.448 270.962 282.983 269.954 281.542C268.652 267.685 280.944 279.666 277.658 265.189ZM245.325 277.589C235.699 274.303 240.334 259.919 250.068 262.864C259.693 266.181 255.059 280.55 245.402 277.636L245.325 277.589Z" fill="#950FFF"/>
<path d="M180.301 134.586C180.436 134.354 180.519 134.097 180.549 133.83C180.577 133.563 180.55 133.293 180.468 133.038C180.386 132.782 180.251 132.547 180.073 132.346C179.895 132.146 179.678 131.985 179.433 131.874C175.031 130.324 178.224 137.113 165.746 135.811C165.362 135.818 164.988 135.934 164.666 136.145C164.345 136.356 164.091 136.654 163.933 137.004C162.243 140.802 160.662 142.724 155.764 144.072C155.252 144.214 154.816 144.552 154.551 145.014C154.287 145.476 154.216 146.023 154.354 146.537C157.655 151.28 166.397 142.522 167.048 139.825C171.931 139.825 177.433 140.182 180.301 134.586Z" fill="white"/>
<path d="M173.867 142.708C171.686 144.996 168.74 146.402 165.59 146.661C163.094 146.49 163.606 150.35 166.086 150.582C169.79 150.923 175.277 148.815 176.765 145.793C177.354 144.599 177.835 143.344 176.641 142.135C175.866 141.36 174.58 141.871 173.867 142.708Z" fill="white"/>
<path d="M153.067 122.667C140.977 126.805 147.518 120.171 141.953 120.264C141.689 120.305 141.437 120.402 141.212 120.546C140.988 120.691 140.797 120.882 140.65 121.105C140.504 121.329 140.407 121.581 140.364 121.844C140.322 122.108 140.335 122.378 140.403 122.636C141.736 129.874 148.851 128.309 154.245 126.511C162.801 123.659 167.125 120.311 162.506 113.506C162.354 113.285 162.159 113.098 161.931 112.957C161.702 112.816 161.448 112.724 161.181 112.688C160.916 112.651 160.646 112.671 160.387 112.745C160.13 112.819 159.891 112.947 159.685 113.119C155.919 117.087 166.428 118.373 153.067 122.667Z" fill="white"/>
<path d="M199.056 42.377C208.201 44.2215 221.267 25.637 226.32 20.026C231.358 12.2759 221.298 4.52592 213.796 9.17592C204.217 14.1204 189.818 35.2005 199.056 42.377Z" fill="white"/>
<path d="M157.422 136.229C158.301 134.617 159.543 133.23 161.049 132.178C162.556 131.127 164.286 130.439 166.102 130.169C169.915 129.487 172.767 130.262 173.232 128.758C174.116 125.875 167.327 125.472 162.026 127.503C158.182 128.96 154.617 132.401 154.059 134.028C153.811 134.474 153.741 134.996 153.863 135.491C153.985 135.985 154.29 136.415 154.716 136.694C155.143 136.973 155.659 137.08 156.161 136.994C156.663 136.908 157.114 136.635 157.422 136.229Z" fill="white"/>
<path d="M217.083 73.7334C226.182 76.8334 241.015 94.7049 248.207 79.5304C249.943 67.0064 231.855 61.2869 221.485 60.9304C209.008 59.9384 204.807 69.8739 217.083 73.7334Z" fill="white"/>
<path d="M158.601 81.282C179.883 82.739 168.63 27.8225 154.54 26.7995C134.499 22.2425 150.495 78.0735 158.601 81.282Z" fill="white"/>
<path d="M202.467 55.5829C206.853 64.4489 227.592 48.1739 252.997 59.5354C276.65 70.1219 281.889 43.8184 255.461 36.9829C240.178 32.1004 219.951 35.9599 206.295 46.3604C200.56 50.7159 202.002 54.5134 202.467 55.5829Z" fill="white"/>
<path d="M114.099 138.105C115.685 138.781 117.39 139.129 119.114 139.129C120.837 139.129 122.543 138.781 124.128 138.105C128.359 136.633 141.178 132.153 137.675 121.055C131.831 102.533 92.7715 125.969 114.099 138.105ZM112.177 126.496C114.533 121.381 132.42 112.825 134.079 123.21C126.696 124.862 119.769 128.122 113.789 132.758C112.704 131.223 110.891 128.65 112.177 126.496Z" fill="white"/>
<path d="M112.659 101.571C127.895 100.254 111.434 63.8134 112.767 52.2039C113.031 39.9434 106.753 32.1779 98.6777 41.8964C92.0592 51.3669 93.5007 97.9909 112.659 101.571Z" fill="white"/>
<path d="M170.645 214.876C179.371 203.003 161.484 186.232 149.41 190.076C147.804 189.063 146.061 188.285 144.233 187.767C144.604 186.099 145.321 184.527 146.338 183.156C147.356 181.782 148.65 180.64 150.138 179.8C150.374 179.682 150.584 179.518 150.756 179.318C150.928 179.118 151.058 178.885 151.139 178.634C151.22 178.383 151.25 178.118 151.227 177.855C151.204 177.593 151.129 177.337 151.006 177.103C146.635 173.228 140.699 183.473 140.156 187.426C139.636 187.46 139.118 187.527 138.606 187.627C138.157 185.008 138.839 181.675 140.699 177.676C140.811 177.438 140.875 177.179 140.886 176.915C140.898 176.652 140.857 176.388 140.766 176.14C140.675 175.892 140.536 175.665 140.357 175.471C140.178 175.277 139.962 175.12 139.722 175.01C134.359 174.483 134.096 187.302 134.871 189.363C129.616 193.254 130.593 201.949 137.041 204.026C124.997 207.669 134.53 225.122 135.925 215.465C134.375 211.125 134.561 209.405 138.513 207.715C138.979 208.903 139.599 210.023 140.358 211.048C138.451 211.621 135.94 217.852 139.877 218.379C140.16 218.379 140.439 218.319 140.697 218.203C140.955 218.088 141.186 217.919 141.375 217.708C141.563 217.499 141.705 217.251 141.792 216.981C141.878 216.713 141.907 216.428 141.877 216.147C141.784 215.279 141.877 214.69 143.179 214.086C145.461 216.155 148.049 217.86 150.851 219.139C150.758 221.448 148.247 226.889 151.998 227.509C155.191 227.152 153.734 222.611 154.695 220.472C156.966 221.078 159.345 221.154 161.649 220.692C163.952 220.229 166.119 219.241 167.979 217.806C170.753 219.356 168.986 221.402 167.746 223.417C167.608 223.64 167.515 223.89 167.474 224.15C167.43 224.409 167.44 224.676 167.5 224.931C167.56 225.187 167.672 225.429 167.825 225.643C167.979 225.857 168.174 226.038 168.397 226.176C168.621 226.314 168.87 226.407 169.131 226.449C169.389 226.492 169.656 226.483 169.912 226.422C170.168 226.362 170.409 226.25 170.623 226.097C170.837 225.943 171.018 225.748 171.156 225.525C173.621 222.425 175.047 217.372 170.645 214.876ZM138.327 200.151C131.445 196.741 138.327 188.48 144.527 192.138C141.542 193.951 139.333 196.807 138.327 200.151ZM142.295 206.351C140.001 197.966 148.34 192.246 156.493 194.184C153.257 194.733 150.229 196.146 147.73 198.274C145.23 200.403 143.353 203.166 142.295 206.274V206.351ZM159.64 216.969C155.207 217.325 150.34 215.186 145.69 210.877C145.844 207.829 147.022 204.919 149.033 202.622C151.044 200.323 153.77 198.77 156.772 198.214C159.965 200.988 163.747 209.746 159.64 216.891V216.969ZM168.692 209.219C168.475 210.451 168.007 211.625 167.316 212.668C166.626 213.711 165.727 214.599 164.677 215.279C165.417 212.372 165.542 209.34 165.046 206.381C164.55 203.422 163.442 200.598 161.794 198.09C166.94 198.508 169.451 205.452 168.692 209.25V209.219Z" fill="white"/>
<path d="M291.374 144.692C277.564 112.654 250.454 95.4179 211.611 82.6924C208.914 76.0739 202.807 69.9979 195.817 71.8424C199.351 60.9924 189.818 28.2099 175.434 40.1759C172.086 46.3759 179.666 60.7289 179.666 69.0989C179.666 78.1819 186.176 87.1099 193.492 78.3989C203.334 68.0449 214.091 89.5589 207.55 101.401C206.493 104.07 206.225 106.985 206.775 109.802C212.634 153.202 147.364 176.545 112.225 150.396C99.4377 137.826 91.7032 129.828 92.0752 110.096C99.7322 107.477 97.8257 99.8044 94.5397 90.2409C92.0649 83.1446 90.8581 75.668 90.9747 68.1534C90.9747 51.8474 77.3967 60.5119 77.2262 74.1674C-24.0508 86.7999 12.1262 220.983 91.6877 193.517C100.833 193.982 105.188 190.014 106.18 185.891C111.311 187.255 127.431 188.418 121.386 179.815C136.25 183.442 122.502 162.874 112.086 159.324C112.858 158.45 113.369 157.376 113.558 156.224C149.441 180.249 217.191 155.046 210.836 109.29C210.247 101.447 215.626 94.9529 213.13 87.5904C237.434 95.3404 257.29 106.934 270.945 120.993C247.308 113.63 208.077 130.293 212.231 157.836C198.281 164.687 194.329 189.89 213.564 187.999C225.902 225.618 316.252 203.344 291.374 144.692ZM76.7922 78.0424C76.2497 89.7604 76.8852 105.756 88.0142 109.988C87.7595 120.354 90.5918 130.561 96.1517 139.314C87.9987 136.214 82.7597 130.324 77.6912 123.705C67.7092 106.841 42.9092 97.3554 25.0997 111.429C31.6562 97.6499 45.9007 81.7004 76.7922 78.0424ZM102.228 184.853C101.608 187.24 98.3837 189.828 91.3777 189.301C86.8827 189.751 75.7072 179.521 73.7387 182.559C72.1887 186.93 82.1087 189.549 85.7667 191.735C78.8227 194.711 69.6932 191.146 63.6947 185.907C63.2583 185.651 62.7419 185.569 62.2476 185.676C61.7533 185.783 61.3174 186.073 61.0266 186.487C60.7357 186.9 60.6113 187.409 60.6776 187.91C60.7441 188.412 60.9966 188.869 61.3852 189.193C62.5477 190.014 64.2062 191.146 66.0352 192.293C54.676 191.132 44.0497 186.143 35.9032 178.141C18.9772 165.369 4.50018 105.617 48.5512 108.763C66.4537 109.957 72.1267 125.55 83.2557 136.121C89.2852 143.871 111.946 145.08 108.722 156.813C102.057 160.58 79.6442 145.173 80.6362 160.425C81.5352 174.313 103.731 176.839 102.228 184.853ZM123.649 176.25C116.255 168.996 108.009 162.951 96.1362 161.851C92.8657 161.541 91.4862 164.129 93.0362 166.501C100.941 179.257 109.621 178.451 118.317 182.249C114.215 182.838 110.036 182.574 106.041 181.474C102.631 172.608 85.3947 169.926 84.6507 159.944C84.2787 155.062 90.5562 158.394 94.9427 159.216C107.141 161.494 119.665 164.749 123.649 176.25ZM119.634 178.327C111.605 175.227 104.351 175.708 97.5467 166.098C106.198 167.214 114.097 171.588 119.634 178.327ZM286.43 182.9C281.78 190.417 273.425 195.765 264.048 198.865C263.671 194.088 263.938 189.281 264.838 184.574C264.895 184.315 264.9 184.048 264.852 183.788C264.806 183.528 264.706 183.278 264.562 183.056C264.418 182.835 264.231 182.643 264.012 182.494C263.793 182.345 263.547 182.24 263.288 182.187C258.235 182.853 260.359 194.37 260.08 200.027C253.608 201.7 246.905 202.292 240.24 201.779C240.068 195.63 240.64 189.484 241.945 183.473C242.013 183.219 242.03 182.954 241.994 182.692C241.959 182.432 241.873 182.181 241.74 181.953C241.608 181.725 241.432 181.527 241.222 181.367C241.013 181.207 240.773 181.091 240.519 181.024C235.156 181.179 236.783 198.167 236.225 201.174C221.268 200.477 207.411 181.303 226.119 170.515C226.606 170.298 226.986 169.897 227.178 169.401C227.368 168.905 227.356 168.352 227.142 167.865C221.175 162.967 212.185 179.49 213.192 183.659C197.801 184.899 204.729 164.858 215.44 160.208C225.488 153.853 237.206 150.647 249.09 151.001C249.354 151.009 249.617 150.965 249.864 150.871C250.11 150.777 250.336 150.635 250.529 150.454C250.719 150.272 250.873 150.055 250.98 149.813C251.088 149.572 251.145 149.312 251.152 149.048C247.416 141.747 217.718 153.357 216.044 155.248C213.549 128.898 259.878 114.467 277.688 128.495C289.685 143.158 296.226 168.004 286.43 182.9Z" fill="white"/>
<path d="M132.252 91.5584C148.418 98.3319 144.326 68.8509 142.017 54.4824C137.956 35.8824 136.824 26.1639 123.928 29.2329C109.358 38.1919 121.402 84.3664 132.252 91.5584Z" fill="white"/>
<path d="M110.938 117.8C112.07 115.646 119.014 110.376 124.423 109.368C124.937 109.26 125.388 108.953 125.678 108.516C125.968 108.077 126.074 107.543 125.973 107.028C122.672 101.417 108.024 113.677 107.373 115.94C107.168 116.408 107.148 116.937 107.317 117.419C107.486 117.901 107.833 118.301 108.286 118.537C108.739 118.774 109.265 118.829 109.758 118.692C110.25 118.555 110.672 118.236 110.938 117.8Z" fill="white"/>
<path d="M176.659 87.5284C171.2 87.6765 165.828 88.9259 160.865 91.2019C160.612 91.3052 160.383 91.4578 160.191 91.651C159.998 91.8441 159.847 92.0737 159.744 92.3265C159.64 92.5791 159.591 92.8497 159.594 93.1225C159.597 93.3952 159.656 93.6644 159.764 93.9144C159.972 94.3855 160.356 94.7566 160.834 94.9477C161.313 95.1389 161.846 95.1352 162.322 94.9374C166.814 92.8553 171.679 91.7007 176.628 91.5429C177.131 91.5028 177.6 91.2759 177.943 90.907C178.287 90.5379 178.479 90.0539 178.484 89.5498C178.487 89.0459 178.302 88.5587 177.964 88.1846C177.627 87.8104 177.162 87.5763 176.659 87.5284Z" fill="white"/>
<path d="M193.476 100.982C191.926 86.2883 162.182 93.7748 163.546 106.686C164.972 123.612 196.84 116.901 193.476 100.982ZM168.583 108.996C161.701 99.4323 189.601 91.3568 189.601 102.129C182.297 103.381 175.217 105.694 168.583 108.996Z" fill="white"/>
</svg>
