<svg width="307" height="240" viewBox="0 0 307 240" fill="none" xmlns="http://www.w3.org/2000/svg">
<g clip-path="url(#clip0_985_3034)">
<path d="M143.5 240C209.774 240 263.5 186.274 263.5 120C263.5 53.7258 209.774 0 143.5 0C77.2258 0 23.5 53.7258 23.5 120C23.5 186.274 77.2258 240 143.5 240Z" fill="url(#paint0_linear_985_3034)"/>
<g filter="url(#filter0_d_985_3034)">
<path d="M281.65 17.424H221.569C218.77 17.424 216.5 19.8125 216.5 22.7588V52.478C216.5 55.4243 218.77 57.8128 221.569 57.8128H281.65C284.449 57.8128 286.719 55.4243 286.719 52.478V22.7588C286.719 19.8125 284.449 17.424 281.65 17.424Z" fill="white"/>
</g>
<path d="M231.5 44C234.814 44 237.5 41.3137 237.5 38C237.5 34.6863 234.814 32 231.5 32C228.186 32 225.5 34.6863 225.5 38C225.5 41.3137 228.186 44 231.5 44Z" fill="#CCC6D9"/>
<rect x="245.5" y="32" width="32" height="12" rx="6" fill="#D5D5D5"/>
<path fill-rule="evenodd" clip-rule="evenodd" d="M49.8144 62.1717C49.7956 60.7456 49.6167 59.3073 49.2589 57.8592C48.0042 52.7771 42.4064 49.5144 36.4484 48.7473C30.4927 47.9802 24.2993 49.7258 21.9123 54.1465C20.547 56.674 20.3587 58.8525 20.9166 60.6891C21.4721 62.5159 22.7903 64.0304 24.5793 65.2106C29.5675 68.4978 38.3034 69.169 42.2887 67.7946C44.1319 67.1578 45.9327 66.3908 47.6864 65.513C46.6836 71.259 42.9477 76.7024 37.9619 81.6075C27.1264 92.2683 10.3117 100.36 1.15456 103.335C0.662573 103.495 0.389484 104.04 0.542495 104.554C0.695506 105.068 1.21809 105.356 1.71008 105.196C11.0485 102.162 28.1905 93.8984 39.2402 83.0262C44.9487 77.4105 49.0164 71.0893 49.7109 64.4435C62.6156 57.242 73.2134 44.1767 82.274 33.1815C82.6106 32.7758 82.5659 32.1587 82.1751 31.8071C81.7844 31.4579 81.1958 31.5022 80.8592 31.9103C72.1681 42.4556 62.0812 54.9997 49.8144 62.1717ZM47.9383 63.2166C48.009 61.6136 47.8582 59.9859 47.451 58.3435C46.3658 53.9449 41.3776 51.3437 36.22 50.6798C33.0585 50.2742 29.8077 50.6086 27.2583 51.7985C25.6552 52.546 24.3345 53.6302 23.5389 55.1055C22.4937 57.0404 22.2677 58.6951 22.6961 60.099C23.1245 61.5128 24.1887 62.6486 25.5752 63.5608C30.1208 66.5579 38.075 67.1948 41.7025 65.9433C43.8423 65.2057 45.9186 64.2861 47.9383 63.2166Z" fill="#950FFF"/>
<circle cx="278.5" cy="155" r="6" fill="#950FFF"/>
<path fill-rule="evenodd" clip-rule="evenodd" d="M41.7281 196.765C43.5526 196.091 45.4726 195.194 46.9531 193.897C48.7116 192.355 49.4267 190.37 49.9069 188.28C50.5235 185.595 50.7699 182.735 51.5175 180.046C51.7943 179.047 52.327 178.67 52.5556 178.502C53.1334 178.079 53.7174 177.966 54.2668 178.008C54.918 178.057 55.8124 178.313 56.4007 179.445C56.4846 179.607 56.5936 179.854 56.667 180.193C56.7204 180.441 56.755 181.216 56.8117 181.536C56.9532 182.324 57.0717 183.112 57.1829 183.903C57.553 186.539 57.7659 188.778 58.935 191.2C60.5215 194.487 62.1111 196.499 64.267 197.39C66.3515 198.251 68.8439 198.089 72.0284 197.414C72.3314 197.338 72.6313 197.272 72.928 197.219C74.3321 196.964 75.6742 197.921 75.95 199.372C76.2258 200.822 75.3335 202.235 73.942 202.554C73.6516 202.62 73.3653 202.683 73.0822 202.741C68.7789 203.846 63.7972 207.791 60.9021 211.245C60.0098 212.31 58.7033 215.287 57.3706 217.187C56.387 218.588 55.2818 219.512 54.3539 219.838C53.7321 220.058 53.2078 220.024 52.7747 219.913C52.1456 219.752 51.6234 219.398 51.2229 218.836C51.0048 218.528 50.8024 218.116 50.7059 217.589C50.6598 217.336 50.6546 216.692 50.6556 216.4C50.384 215.431 50.0516 214.485 49.8094 213.507C49.2317 211.173 48.0981 209.696 46.7518 207.744C45.4925 205.918 44.1399 204.77 42.157 203.854C41.8991 203.789 39.8177 203.26 39.0827 202.956C38.0089 202.511 37.4972 201.766 37.3116 201.365C36.996 200.684 36.9635 200.089 37.0264 199.593C37.1198 198.861 37.4364 198.234 37.9984 197.728C38.3466 197.414 38.8667 197.108 39.5629 196.959C40.1008 196.843 41.5278 196.775 41.7281 196.765ZM53.9386 192.962C54.0351 193.185 54.1379 193.409 54.2469 193.636C56.5705 198.45 59.1688 201.139 62.3271 202.443L62.433 202.485C60.3202 204.113 58.4076 205.932 56.9459 207.676C56.344 208.394 55.5471 209.885 54.6863 211.415C53.904 208.777 52.6248 206.912 51.0163 204.578C49.7874 202.798 48.4998 201.457 46.9175 200.365C48.1453 199.711 49.3166 198.945 50.3368 198.051C52.0355 196.562 53.1585 194.837 53.9386 192.962Z" fill="#950FFF"/>
<path d="M188.5 84L124.214 159L98.5 129" stroke="black" stroke-width="6" stroke-linecap="round" stroke-linejoin="round"/>
</g>
<defs>
<filter id="filter0_d_985_3034" x="209.5" y="8.42395" width="96.2188" height="66.3889" filterUnits="userSpaceOnUse" color-interpolation-filters="sRGB">
<feFlood flood-opacity="0" result="BackgroundImageFix"/>
<feColorMatrix in="SourceAlpha" type="matrix" values="0 0 0 0 0 0 0 0 0 0 0 0 0 0 0 0 0 0 127 0" result="hardAlpha"/>
<feOffset dx="6" dy="4"/>
<feGaussianBlur stdDeviation="6.5"/>
<feComposite in2="hardAlpha" operator="out"/>
<feColorMatrix type="matrix" values="0 0 0 0 0.104618 0 0 0 0 0.465612 0 0 0 0 0.545833 0 0 0 0.09 0"/>
<feBlend mode="normal" in2="BackgroundImageFix" result="effect1_dropShadow_985_3034"/>
<feBlend mode="normal" in="SourceGraphic" in2="effect1_dropShadow_985_3034" result="shape"/>
</filter>
<linearGradient id="paint0_linear_985_3034" x1="142.575" y1="-39.0749" x2="145.033" y2="382.347" gradientUnits="userSpaceOnUse">
<stop stop-color="#F2F2F2"/>
<stop offset="1" stop-color="#EFEFEF"/>
</linearGradient>
<clipPath id="clip0_985_3034">
<rect width="306" height="240" fill="white" transform="translate(0.5)"/>
</clipPath>
</defs>
</svg>
