<svg width="36" height="36" viewBox="0 0 36 36" xmlns="http://www.w3.org/2000/svg">
<path d="M28.2656 15.7676C29.0273 15.791 29.7422 15.9492 30.4102 16.2422C31.0781 16.5352 31.6582 16.9395 32.1504 17.4551C32.6426 17.9707 33.0293 18.5566 33.3105 19.2129C33.5918 19.8691 33.7383 20.5898 33.75 21.375V24.75H31.5V21.375C31.5 21 31.4414 20.6426 31.3242 20.3027C31.207 19.9629 31.0371 19.6465 30.8145 19.3535C30.5918 19.0605 30.3281 18.8145 30.0234 18.6152C29.7188 18.416 29.3848 18.2578 29.0215 18.1406C29.0918 18.4805 29.1445 18.8262 29.1797 19.1777C29.2148 19.5293 29.2383 19.8867 29.25 20.25V24.75C29.25 24.832 29.2441 24.9082 29.2324 24.9785C29.2207 25.0488 29.209 25.125 29.1973 25.207L29.3027 25.1016C30.0059 25.8047 30.5449 26.6133 30.9199 27.5273C31.2949 28.4414 31.4824 29.3965 31.4824 30.3926C31.4824 31.3887 31.2949 32.3379 30.9199 33.2402C30.5449 34.1426 30.0059 34.9512 29.3027 35.666L27.7207 34.084C28.2129 33.5918 28.5879 33.0352 28.8457 32.4141C29.1035 31.793 29.2324 31.125 29.2324 30.4102C29.2324 29.6133 29.0508 28.8398 28.6875 28.0898C28.3242 29.2617 27.7969 30.334 27.1055 31.3066C26.4141 32.2793 25.5938 33.1113 24.6445 33.8027C23.6953 34.4941 22.6641 35.0332 21.5508 35.4199C20.4375 35.8066 19.2539 36 18 36C16.7695 36 15.5918 35.8066 14.4668 35.4199C13.3418 35.0332 12.3047 34.4941 11.3555 33.8027C10.4062 33.1113 9.5918 32.2793 8.91211 31.3066C8.23242 30.334 7.69922 29.2617 7.3125 28.0898C6.94922 28.8398 6.76758 29.6133 6.76758 30.4102C6.76758 31.1133 6.89648 31.7754 7.1543 32.3965C7.41211 33.0176 7.78711 33.5801 8.2793 34.084L6.69727 35.666C5.99414 34.9629 5.45508 34.1602 5.08008 33.2578C4.70508 32.3555 4.51172 31.4004 4.5 30.3926C4.5 29.3965 4.6875 28.4414 5.0625 27.5273C5.4375 26.6133 5.98242 25.8047 6.69727 25.1016L6.80273 25.207C6.79102 25.125 6.7793 25.0488 6.76758 24.9785C6.75586 24.9082 6.75 24.832 6.75 24.75V20.25C6.75 19.8984 6.76758 19.5469 6.80273 19.1953C6.83789 18.8438 6.89648 18.4922 6.97852 18.1406C6.61523 18.2461 6.28125 18.3984 5.97656 18.5977C5.67188 18.7969 5.41406 19.043 5.20312 19.3359C4.99219 19.6289 4.82227 19.9453 4.69336 20.2852C4.56445 20.625 4.5 20.9883 4.5 21.375V24.75H2.25V21.375C2.25 20.6133 2.39062 19.8984 2.67188 19.2305C2.95312 18.5625 3.3457 17.9707 3.84961 17.4551C4.35352 16.9395 4.93359 16.541 5.58984 16.2598C6.24609 15.9785 6.96094 15.8145 7.73438 15.7676C8.09766 14.9473 8.56641 14.1562 9.14062 13.3945C8.47266 13.2773 7.85742 13.0547 7.29492 12.7266C6.73242 12.3984 6.24023 11.9824 5.81836 11.4785C5.39648 10.9746 5.07422 10.4238 4.85156 9.82617C4.62891 9.22852 4.51172 8.57812 4.5 7.875V4.5H6.75V7.875C6.75 8.34375 6.83789 8.7832 7.01367 9.19336C7.18945 9.60352 7.42969 9.96094 7.73438 10.2656C8.03906 10.5703 8.39648 10.8105 8.80664 10.9863C9.2168 11.1621 9.65625 11.25 10.125 11.25H11.25V11.3027C11.8008 10.8926 12.3633 10.5469 12.9375 10.2656C12.7617 9.89062 12.627 9.50391 12.5332 9.10547C12.4395 8.70703 12.3867 8.29688 12.375 7.875C12.375 7.05469 12.5566 6.26367 12.9199 5.50195L10.459 3.04102L12.041 1.45898L14.2734 3.69141C14.8008 3.23438 15.375 2.88281 15.9961 2.63672C16.6172 2.39062 17.2852 2.26172 18 2.25C18.7031 2.25 19.3652 2.37305 19.9863 2.61914C20.6074 2.86523 21.1875 3.22266 21.7266 3.69141L23.959 1.45898L25.541 3.04102L23.0801 5.50195C23.4434 6.26367 23.625 7.05469 23.625 7.875C23.625 8.28516 23.5781 8.68945 23.4844 9.08789C23.3906 9.48633 23.25 9.87891 23.0625 10.2656C23.3672 10.418 23.6543 10.5762 23.9238 10.7402C24.1934 10.9043 24.4688 11.0918 24.75 11.3027V11.25H25.875C26.3438 11.25 26.7832 11.1621 27.1934 10.9863C27.6035 10.8105 27.9609 10.5703 28.2656 10.2656C28.5703 9.96094 28.8105 9.60352 28.9863 9.19336C29.1621 8.7832 29.25 8.34375 29.25 7.875V4.5H31.5V7.875C31.5 8.55469 31.3828 9.19922 31.1484 9.80859C30.9141 10.418 30.5918 10.9746 30.1816 11.4785C29.7715 11.9824 29.2852 12.3926 28.7227 12.709C28.1602 13.0254 27.5391 13.2539 26.8594 13.3945C27.4336 14.1562 27.9023 14.9473 28.2656 15.7676ZM18 4.5C17.5312 4.5 17.0918 4.58789 16.6816 4.76367C16.2715 4.93945 15.9141 5.17969 15.6094 5.48438C15.3047 5.78906 15.0645 6.14648 14.8887 6.55664C14.7129 6.9668 14.625 7.40625 14.625 7.875C14.625 8.46094 14.7656 8.98828 15.0469 9.45703C15.5391 9.32812 16.0254 9.22852 16.5059 9.1582C16.9863 9.08789 17.4844 9.04688 18 9.03516C18.5039 9.03516 18.9961 9.07031 19.4766 9.14062C19.957 9.21094 20.4492 9.31641 20.9531 9.45703C21.2344 8.98828 21.375 8.46094 21.375 7.875C21.375 7.40625 21.2871 6.9668 21.1113 6.55664C20.9355 6.14648 20.6953 5.78906 20.3906 5.48438C20.0859 5.17969 19.7285 4.93945 19.3184 4.76367C18.9082 4.58789 18.4688 4.5 18 4.5ZM27 20.25C27 19.0312 26.7598 17.877 26.2793 16.7871C25.7988 15.6973 25.1543 14.7422 24.3457 13.9219C23.5371 13.1016 22.582 12.4512 21.4805 11.9707C20.3789 11.4902 19.2188 11.25 18 11.25C16.7695 11.25 15.6094 11.4902 14.5195 11.9707C13.4297 12.4512 12.4805 13.1016 11.6719 13.9219C10.8633 14.7422 10.2129 15.6973 9.7207 16.7871C9.22852 17.877 8.98828 19.0312 9 20.25V24.75C9 25.9922 9.23438 27.1582 9.70312 28.248C10.1719 29.3379 10.8164 30.2871 11.6367 31.0957C12.457 31.9043 13.4121 32.5488 14.502 33.0293C15.5918 33.5098 16.7578 33.75 18 33.75C19.2422 33.75 20.4082 33.5156 21.498 33.0469C22.5879 32.5781 23.5371 31.9336 24.3457 31.1133C25.1543 30.293 25.7988 29.3379 26.2793 28.248C26.7598 27.1582 27 25.9922 27 24.75V20.25Z" fill="currentColor"/>
</svg>
