<svg width="16" height="16" viewBox="0 0 16 16" xmlns="http://www.w3.org/2000/svg">
<path id="Vector" d="M12.9333 13.3333H6.4C6.29391 13.3333 6.19217 13.2912 6.11716 13.2162C6.04214 13.1412 6 13.0394 6 12.9333V6.4C6 6.29391 6.04214 6.19217 6.11716 6.11716C6.19217 6.04214 6.29391 6 6.4 6H12.9333C13.0394 6 13.1412 6.04214 13.2162 6.11716C13.2912 6.19217 13.3333 6.29391 13.3333 6.4V12.9333C13.3333 13.0394 13.2912 13.1412 13.2162 13.2162C13.1412 13.2912 13.0394 13.3333 12.9333 13.3333Z" stroke="currentColor" stroke-linecap="round" stroke-linejoin="round" fill="none"/>
<path id="Vector_2" d="M10.0013 6.00033V3.06699C10.0013 2.96091 9.95916 2.85916 9.88415 2.78415C9.80913 2.70913 9.70739 2.66699 9.6013 2.66699H3.06797C2.96188 2.66699 2.86014 2.70913 2.78513 2.78415C2.71011 2.85916 2.66797 2.96091 2.66797 3.06699V9.60033C2.66797 9.70641 2.71011 9.80815 2.78513 9.88317C2.86014 9.95818 2.96188 10.0003 3.06797 10.0003H6.0013" stroke="currentColor" stroke-linecap="round" stroke-linejoin="round" fill="none"/>
</svg>
