<svg width="24" height="25" viewBox="0 0 24 25" xmlns="http://www.w3.org/2000/svg">
<path d="M15 4.5V2.5M15 4.5V6.5M15 4.5H10.5M3 10.5V6.5C3 5.96957 3.21071 5.46086 3.58579 5.08579C3.96086 4.71071 4.46957 4.5 5 4.5H7M7 2.5V6.5M21 10.5V6.5C21 5.96957 20.7893 5.46086 20.4142 5.08579C20.0391 4.71071 19.5304 4.5 19 4.5H18.5M3 10.5V19.5C3 20.0304 3.21071 20.5391 3.58579 20.9142C3.96086 21.2893 4.46957 21.5 5 21.5H19C19.5304 21.5 20.0391 21.2893 20.4142 20.9142C20.7893 20.5391 21 20.0304 21 19.5V10.5H3Z" stroke="currentColor" stroke-width="1.5" stroke-linecap="round" stroke-linejoin="round" fill="none"/>
</svg>
