<svg width="16" height="16" viewBox="0 0 16 16" xmlns="http://www.w3.org/2000/svg">
<path d="M9.57716 3.76801L10.5638 2.78134C10.6876 2.65747 10.8347 2.55921 10.9965 2.49217C11.1583 2.42513 11.3317 2.39062 11.5068 2.39062C11.682 2.39062 11.8554 2.42513 12.0172 2.49217C12.179 2.55921 12.326 2.65747 12.4498 2.78134L13.3925 3.72401C13.6425 3.97404 13.7829 4.31312 13.7829 4.66667C13.7829 5.02023 13.6425 5.3593 13.3925 5.60934L12.4058 6.59601M9.57716 3.76801L3.16649 10.178C2.94515 10.3994 2.80874 10.6915 2.78116 11.0033L2.61983 12.83C2.61116 12.9271 2.6239 13.0249 2.65714 13.1166C2.69039 13.2082 2.74333 13.2915 2.81223 13.3604C2.88114 13.4294 2.96433 13.4824 3.05595 13.5158C3.14757 13.5491 3.24538 13.5619 3.34249 13.5533L5.16916 13.392C5.48144 13.3647 5.77413 13.2283 5.99583 13.0067L12.4058 6.59601M9.57716 3.76801L12.4058 6.59601" stroke="currentColor" stroke-linecap="round" stroke-linejoin="round" fill="none"/>
</svg>
