<svg width="16" height="16" viewBox="0 0 16 16" xmlns="http://www.w3.org/2000/svg">
<path d="M10.6654 14.6847V12.7714C10.6904 12.4535 10.6474 12.1339 10.5394 11.8339C10.4313 11.5339 10.2607 11.2603 10.0387 11.0314C12.132 10.798 14.332 10.0047 14.332 6.36469C14.3319 5.43391 13.9738 4.53882 13.332 3.86469C13.6359 3.05036 13.6144 2.15026 13.272 1.35136C13.272 1.35136 12.4854 1.11802 10.6654 2.33802C9.13737 1.92391 7.52669 1.92391 5.9987 2.33802C4.1787 1.11802 3.39203 1.35136 3.39203 1.35136C3.04962 2.15026 3.02813 3.05036 3.33203 3.86469C2.68545 4.54382 2.32705 5.447 2.33203 6.38469C2.33203 9.99802 4.53203 10.7914 6.62536 11.0514C6.40603 11.278 6.23687 11.5483 6.1289 11.8446C6.02093 12.141 5.97657 12.4567 5.9987 12.7714V14.6847M5.9987 13.3514C3.9987 14 2.33203 13.3514 1.33203 11.3514" stroke="currentColor" stroke-linecap="round" stroke-linejoin="round" fill="none"/>
</svg>
