<svg width="20" height="20" viewBox="0 0 20 20" xmlns="http://www.w3.org/2000/svg">
<path d="M18.3344 7.385C18.3373 8.66729 17.8433 9.90083 16.9561 10.8267C14.9219 12.9358 12.9486 15.135 10.8394 17.1667C10.3553 17.625 9.58776 17.6083 9.12526 17.1292L3.04609 10.8275C1.20859 8.9225 1.20859 5.8475 3.04609 3.94333C3.48038 3.4875 4.00271 3.1246 4.58142 2.87664C5.16013 2.62869 5.78317 2.50083 6.41276 2.50083C7.04235 2.50083 7.66539 2.62869 8.2441 2.87664C8.82281 3.1246 9.34514 3.4875 9.77943 3.94333L10.0011 4.17167L10.2219 3.94333C10.6571 3.48858 11.1796 3.12635 11.7581 2.87834C12.3366 2.63033 12.9592 2.50164 13.5886 2.5C14.8553 2.5 16.0661 3.02 16.9553 3.94333C17.8428 4.86904 18.3371 6.10259 18.3344 7.385V7.385Z" stroke="currentColor" stroke-linejoin="round" fill="none"/>
</svg>
