<svg width="16" height="16" viewBox="0 0 16 16" xmlns="http://www.w3.org/2000/svg">
<path fill-rule="evenodd" clip-rule="evenodd" d="M14.0006 2.50035C14.0006 2.36774 13.948 2.24056 13.8542 2.14679C13.7604 2.05302 13.6332 2.00035 13.5006 2.00035H7.50063C7.36802 2.00035 7.24085 2.05302 7.14708 2.14679C7.05331 2.24056 7.00063 2.36774 7.00063 2.50035C7.00063 2.63295 7.05331 2.76013 7.14708 2.8539C7.24085 2.94767 7.36802 3.00035 7.50063 3.00035H12.2936L2.14663 13.1463C2.10014 13.1928 2.06327 13.248 2.03811 13.3088C2.01295 13.3695 2 13.4346 2 13.5003C2 13.5661 2.01295 13.6312 2.03811 13.6919C2.06327 13.7527 2.10014 13.8079 2.14663 13.8543C2.19312 13.9008 2.24831 13.9377 2.30905 13.9629C2.36979 13.988 2.43489 14.001 2.50063 14.001C2.56638 14.001 2.63148 13.988 2.69221 13.9629C2.75295 13.9377 2.80814 13.9008 2.85463 13.8543L13.0006 3.70735V8.50035C13.0006 8.63295 13.0533 8.76013 13.1471 8.8539C13.2408 8.94767 13.368 9.00035 13.5006 9.00035C13.6332 9.00035 13.7604 8.94767 13.8542 8.8539C13.948 8.76013 14.0006 8.63295 14.0006 8.50035V2.50035Z" fill="currentColor"/>
</svg>
