<svg width="17" height="17" viewBox="0 0 17 17" xmlns="http://www.w3.org/2000/svg">
<path id="Vector" d="M8.49968 5.83301V8.49968M8.49968 11.173L8.50635 11.1657M8.21701 1.44901C8.29201 1.37411 8.39368 1.33203 8.49968 1.33203C8.60568 1.33203 8.70735 1.37411 8.78235 1.44901L15.5503 8.21701C15.6253 8.29201 15.6673 8.39368 15.6673 8.49968C15.6673 8.60568 15.6253 8.70735 15.5503 8.78235L8.78235 15.5503C8.70735 15.6253 8.60568 15.6673 8.49968 15.6673C8.39368 15.6673 8.29201 15.6253 8.21701 15.5503L1.44901 8.78235C1.37411 8.70735 1.33203 8.60568 1.33203 8.49968C1.33203 8.39368 1.37411 8.29201 1.44901 8.21701L8.21701 1.44901Z" stroke="currentColor" stroke-width="1.5" stroke-linecap="round" stroke-linejoin="round" fill="none"/>
</svg>
