<svg width="20" height="20" viewBox="0 0 20 20" xmlns="http://www.w3.org/2000/svg">
<path d="M16.6654 10.0003V4.79116C16.6654 4.72538 16.6525 4.66024 16.6273 4.59946C16.6022 4.53869 16.5652 4.48348 16.5187 4.43699L13.8954 1.81366C13.8017 1.71986 13.6746 1.66711 13.542 1.66699H3.83203C3.69942 1.66699 3.57225 1.71967 3.47848 1.81344C3.38471 1.90721 3.33203 2.03438 3.33203 2.16699V17.8337C3.33203 17.9663 3.38471 18.0934 3.47848 18.1872C3.57225 18.281 3.69942 18.3337 3.83203 18.3337H9.16536M6.66536 8.33366H13.332M6.66536 5.00033H9.9987M6.66536 11.667H9.16536" stroke="currentColor" stroke-linecap="round" stroke-linejoin="round" fill="none"/>
<path d="M13.3347 1.66699V4.50033C13.3347 4.63293 13.3874 4.76011 13.4811 4.85388C13.5749 4.94765 13.7021 5.00033 13.8347 5.00033H16.668M13.5897 14.2612L14.3472 12.6553C14.3676 12.6094 14.4009 12.5704 14.4431 12.5431C14.4852 12.5157 14.5344 12.5011 14.5847 12.5011C14.6349 12.5011 14.6841 12.5157 14.7263 12.5431C14.7684 12.5704 14.8017 12.6094 14.8222 12.6553L15.5805 14.2612L17.2738 14.5203C17.4913 14.5537 17.578 14.8337 17.4213 14.9937L16.1955 16.2437L16.4847 18.0087C16.5213 18.2353 16.2938 18.4087 16.0997 18.3012L14.5847 17.4678L13.0697 18.3012C12.8747 18.4087 12.648 18.2353 12.6847 18.0087L12.9738 16.2437L11.7488 14.9937C11.5905 14.8337 11.678 14.5537 11.8955 14.5203L13.5897 14.2612Z" stroke="currentColor" stroke-linecap="round" stroke-linejoin="round" fill="none"/>
</svg>
