<svg width="20" height="20" viewBox="0 0 20 20" xmlns="http://www.w3.org/2000/svg">
<path d="M9.5152 12.6417L14.3735 17.5C14.7902 17.9033 15.3487 18.1268 15.9286 18.1221C16.5085 18.1173 17.0633 17.8849 17.4734 17.4748C17.8834 17.0648 18.1159 16.51 18.1206 15.9301C18.1253 15.3502 17.9019 14.7917 17.4985 14.375L12.601 9.4775M9.5152 12.6417L11.5952 10.1167C11.8594 9.79667 12.2119 9.595 12.6019 9.47833C13.0602 9.34167 13.571 9.32167 14.0544 9.36167C14.7059 9.41761 15.3607 9.30222 15.9539 9.02693C16.547 8.75164 17.0579 8.32603 17.4357 7.79234C17.8136 7.25864 18.0453 6.63542 18.108 5.9845C18.1706 5.33358 18.0619 4.67761 17.7927 4.08167L15.0627 6.8125C14.606 6.70688 14.188 6.47514 13.8566 6.14365C13.5251 5.81216 13.2933 5.39425 13.1877 4.9375L15.9177 2.2075C15.3218 1.9383 14.6658 1.82962 14.0149 1.89224C13.364 1.95485 12.7407 2.18659 12.207 2.56446C11.6733 2.94232 11.2477 3.45318 10.9724 4.04633C10.6972 4.63948 10.5818 5.29431 10.6377 5.94583C10.7135 6.8425 10.5785 7.8325 9.88437 8.40417L9.79937 8.475M9.5152 12.6417L5.63603 17.3525C5.44803 17.5817 5.21412 17.7689 4.94936 17.9023C4.68461 18.0356 4.39487 18.112 4.09881 18.1265C3.80274 18.1411 3.50691 18.0935 3.23034 17.9869C2.95377 17.8802 2.70261 17.7168 2.493 17.5072C2.2834 17.2976 2.12001 17.0464 2.01334 16.7699C1.90667 16.4933 1.85909 16.1975 1.87366 15.9014C1.88823 15.6053 1.96463 15.3156 2.09795 15.0508C2.23126 14.7861 2.41853 14.5522 2.6477 14.3642L8.3452 9.6725L4.9227 6.25H3.74853L1.87353 3.125L3.12353 1.875L6.24853 3.75V4.92417L9.79853 8.47417L8.34437 9.67167M15.311 15.3125L13.1235 13.125M4.05437 15.9375H4.06103V15.9442H4.05437V15.9375Z" stroke="currentColor" stroke-linecap="round" stroke-linejoin="round" fill="none"/>
</svg>
