<svg width="20" height="20" viewBox="0 0 20 20" xmlns="http://www.w3.org/2000/svg">
<path d="M17.3339 11.852H3.0456C2.93659 11.8519 2.83054 11.8874 2.74358 11.9532C2.65663 12.0189 2.59355 12.1112 2.56393 12.2162L1.43393 16.2137C1.36388 16.4615 1.35222 16.7222 1.39985 16.9752C1.44748 17.2283 1.55311 17.4669 1.70845 17.6723C1.86379 17.8777 2.06462 18.0443 2.29518 18.1591C2.52573 18.2738 2.77974 18.3336 3.03726 18.3337H16.9639C17.2215 18.3336 17.4755 18.2738 17.706 18.1591C17.9366 18.0443 18.1374 17.8777 18.2927 17.6723C18.4481 17.4669 18.5537 17.2283 18.6013 16.9752C18.649 16.7222 18.6373 16.4615 18.5673 16.2137L17.3339 11.852ZM17.3339 11.852V6.76033M2.66726 11.852V3.33366C2.66726 2.89163 2.84286 2.46771 3.15542 2.15515C3.46798 1.84259 3.8919 1.66699 4.33393 1.66699H10.0006M9.16726 15.8337H10.8339M14.7148 4.02366L12.3573 6.38116M17.0714 4.02366C16.9177 4.18284 16.7338 4.30981 16.5304 4.39716C16.3271 4.48451 16.1084 4.53049 15.8871 4.53241C15.6658 4.53433 15.4463 4.49216 15.2415 4.40836C15.0367 4.32456 14.8506 4.2008 14.6941 4.04432C14.5376 3.88783 14.4139 3.70174 14.3301 3.49692C14.2463 3.29209 14.2041 3.07262 14.206 2.85132C14.2079 2.63002 14.2539 2.41132 14.3413 2.20798C14.4286 2.00464 14.5556 1.82074 14.7148 1.66699M12.3573 8.73782C12.6609 8.42349 12.8289 8.00248 12.8251 7.56549C12.8213 7.12849 12.646 6.71047 12.337 6.40146C12.0279 6.09245 11.6099 5.91717 11.1729 5.91337C10.7359 5.90957 10.3149 6.07756 10.0006 6.38116" stroke="currentColor" stroke-linecap="round" stroke-linejoin="round" fill="none"/>
</svg>
