<svg width="20" height="20" viewBox="0 0 20 20" xmlns="http://www.w3.org/2000/svg">
<path d="M15.832 13.4372C15.412 14.2622 14.7137 14.9797 13.8245 15.5213L14.2287 16.8547C14.2513 16.9294 14.2562 17.0083 14.2428 17.0852C14.2295 17.1621 14.1983 17.2348 14.1518 17.2975C14.1053 17.3602 14.0448 17.4111 13.9751 17.4462C13.9054 17.4813 13.8284 17.4996 13.7504 17.4997H12.2804C12.1722 17.4997 12.0669 17.4646 11.9804 17.3997L10.8179 16.5272H8.78703L7.62453 17.3997C7.53798 17.4646 7.43272 17.4997 7.32453 17.4997H5.85453C5.77648 17.4996 5.69953 17.4813 5.62982 17.4462C5.56011 17.4111 5.49959 17.3602 5.4531 17.2975C5.40661 17.2348 5.37544 17.1621 5.36208 17.0852C5.34873 17.0083 5.35356 16.9294 5.3762 16.8547L5.78036 15.5213C4.2887 14.6122 3.33203 13.2072 3.33203 11.6313C3.33203 8.88968 6.2287 6.66634 9.80287 6.66634C10.527 6.66634 11.432 6.91467 12.082 7.08301L15.832 5.83301L15.762 8.85634L17.4987 9.58301V12.4997L15.8937 13.333" stroke="currentColor" stroke-linecap="round" stroke-linejoin="round" fill="none"/>
<path d="M12.9167 10.8333C12.8062 10.8333 12.7002 10.7894 12.622 10.7113C12.5439 10.6332 12.5 10.5272 12.5 10.4167C12.5 10.3062 12.5439 10.2002 12.622 10.122C12.7002 10.0439 12.8062 10 12.9167 10C13.0272 10 13.1332 10.0439 13.2113 10.122C13.2894 10.2002 13.3333 10.3062 13.3333 10.4167C13.3333 10.5272 13.2894 10.6332 13.2113 10.7113C13.1332 10.7894 13.0272 10.8333 12.9167 10.8333Z" fill="currentColor" stroke="currentColor" stroke-linecap="round" stroke-linejoin="round"/>
<path d="M1.66797 8.33301C1.66797 8.33301 1.66797 10.333 3.33464 10.833" stroke="currentColor" stroke-linecap="round" stroke-linejoin="round" fill="none"/>
<path d="M10.6667 6.46083C10.775 6.15083 10.8333 5.8175 10.8333 5.47083C10.8333 3.83 9.5275 2.5 7.91667 2.5C6.30583 2.5 5 3.83 5 5.47083C5 6.255 5.29833 6.96917 5.78667 7.5" stroke="currentColor" stroke-linejoin="round" fill="none"/>
</svg>
