<svg width="20" height="20" viewBox="0 0 20 20" xmlns="http://www.w3.org/2000/svg">
<path d="M17.5 3V17C17.5 17.1326 17.4473 17.2598 17.3536 17.3536C17.2598 17.4473 17.1326 17.5 17 17.5H3C2.86739 17.5 2.74021 17.4473 2.64645 17.3536C2.55268 17.2598 2.5 17.1326 2.5 17V3C2.5 2.86739 2.55268 2.74021 2.64645 2.64645C2.74021 2.55268 2.86739 2.5 3 2.5H17C17.1326 2.5 17.2598 2.55268 17.3536 2.64645C17.4473 2.74021 17.5 2.86739 17.5 3Z" stroke="currentColor" stroke-linecap="round" stroke-linejoin="round" fill="none"/>
<path d="M5.83203 7.49967V5.83301H14.1654V7.49967M9.9987 5.83301V14.1663M9.9987 14.1663H8.33203M9.9987 14.1663H11.6654" stroke="currentColor" stroke-linecap="round" stroke-linejoin="round" fill="none"/>
</svg>
