<svg width="16" height="17" viewBox="0 0 16 17" xmlns="http://www.w3.org/2000/svg">
<path d="M2.66797 5.16667H13.3346M6.66797 7.83333V11.8333M9.33464 7.83333V11.8333M3.33464 5.16667L4.0013 13.1667C4.0013 13.5203 4.14178 13.8594 4.39183 14.1095C4.64187 14.3595 4.98101 14.5 5.33464 14.5H10.668C11.0216 14.5 11.3607 14.3595 11.6108 14.1095C11.8608 13.8594 12.0013 13.5203 12.0013 13.1667L12.668 5.16667M6.0013 5.16667V3.16667C6.0013 2.98986 6.07154 2.82029 6.19656 2.69526C6.32159 2.57024 6.49116 2.5 6.66797 2.5H9.33464C9.51145 2.5 9.68102 2.57024 9.80604 2.69526C9.93106 2.82029 10.0013 2.98986 10.0013 3.16667V5.16667" stroke="currentColor" stroke-linecap="round" stroke-linejoin="round" fill="none"/>
</svg>
