<svg width="16" height="16" viewBox="0 0 16 16" xmlns="http://www.w3.org/2000/svg">
<path d="M14.1125 5.33301C13.5933 4.14398 12.7385 3.13223 11.6529 2.42175C10.5673 1.71126 9.29797 1.33289 8.00052 1.33301C4.54385 1.33301 1.70052 3.96434 1.36719 7.33301" stroke="currentColor" stroke-width="1.5" stroke-linecap="round" stroke-linejoin="round" fill="none"/>
<path d="M11.3345 5.33333H14.2679C14.3204 5.33333 14.3724 5.32299 14.4209 5.30289C14.4695 5.28278 14.5136 5.25332 14.5507 5.21618C14.5879 5.17903 14.6173 5.13494 14.6374 5.08641C14.6575 5.03788 14.6679 4.98586 14.6679 4.93333V2M1.92188 10.6667C2.95121 13.0213 5.30054 14.6667 8.03387 14.6667C11.4912 14.6667 14.3339 12.0353 14.6679 8.66667" stroke="currentColor" stroke-width="1.5" stroke-linecap="round" stroke-linejoin="round" fill="none"/>
<path d="M4.70052 10.667H1.76719C1.6611 10.667 1.55936 10.7091 1.48434 10.7841C1.40933 10.8592 1.36719 10.9609 1.36719 11.067V14.0003" stroke="currentColor" stroke-width="1.5" stroke-linecap="round" stroke-linejoin="round" fill="none"/>
</svg>
