<svg width="28" height="28" viewBox="0 0 28 28" xmlns="http://www.w3.org/2000/svg">
<path fill-rule="evenodd" clip-rule="evenodd" d="M28 14C28 21.7315 21.7315 28 14 28C6.2685 28 0 21.7315 0 14C0 6.2685 6.2685 0 14 0C21.7315 0 28 6.2685 28 14ZM14.5017 10.3355C13.1402 10.9013 10.4183 12.0738 6.33733 13.8518C5.67467 14.1155 5.327 14.3733 5.2955 14.6253C5.24183 15.0523 5.77617 15.2203 6.50183 15.4478C6.601 15.4793 6.70367 15.5108 6.80867 15.5458C7.52383 15.778 8.48517 16.0498 8.9845 16.0603C9.43833 16.0697 9.94467 15.883 10.5035 15.5003C14.3162 12.9255 16.2843 11.6247 16.408 11.5967C16.4955 11.5768 16.6168 11.5512 16.6985 11.6247C16.7802 11.697 16.772 11.8347 16.7638 11.872C16.7102 12.0972 14.6172 14.0443 13.5322 15.0523C13.1938 15.3662 12.9547 15.589 12.9057 15.6403C12.796 15.7535 12.684 15.862 12.5767 15.9658C11.9117 16.6052 11.4147 17.0858 12.6047 17.8698C13.1763 18.2467 13.6337 18.5582 14.0898 18.8685C14.588 19.208 15.085 19.5463 15.729 19.9687C15.8923 20.076 16.0487 20.1868 16.2015 20.2953C16.7813 20.7095 17.3028 21.0805 17.9468 21.0222C18.3202 20.9872 18.7075 20.636 18.9035 19.5872C19.3667 17.1068 20.279 11.7355 20.4902 9.52117C20.503 9.33732 20.4952 9.1526 20.4668 8.9705C20.4499 8.82342 20.3782 8.68809 20.2662 8.59133C20.0993 8.45483 19.8403 8.42567 19.7237 8.428C19.1975 8.43733 18.3902 8.7185 14.5017 10.3355Z" fill="currentColor"/>
</svg>
