<svg width="16" height="17" viewBox="0 0 16 17" xmlns="http://www.w3.org/2000/svg">
<path d="M8 10.5C8.53043 10.5 9.03914 10.2893 9.41421 9.91421C9.78929 9.53914 10 9.03043 10 8.5C10 7.96957 9.78929 7.46086 9.41421 7.08579C9.03914 6.71071 8.53043 6.5 8 6.5C7.46957 6.5 6.96086 6.71071 6.58579 7.08579C6.21071 7.46086 6 7.96957 6 8.5C6 9.03043 6.21071 9.53914 6.58579 9.91421C6.96086 10.2893 7.46957 10.5 8 10.5Z" stroke="currentColor" stroke-linecap="round" stroke-linejoin="round" fill="none"/>
<path d="M13.08 7.42967L12.3487 5.66301L13.332 4.49967L11.9987 3.16634L10.842 4.15501L9.03736 3.41301L8.62203 1.83301H7.31936L6.89803 3.43367L5.1347 4.17701L3.9987 3.16634L2.66536 4.49967L3.63403 5.69234L2.91403 7.46367L1.33203 7.83301V9.16634L2.9327 9.60301L3.67603 11.3663L2.66536 12.4997L3.9987 13.833L5.1927 12.8597L6.93003 13.5743L7.33203 15.1663H8.66536L9.06803 13.575L10.8354 12.843C11.13 13.0537 11.9987 13.833 11.9987 13.833L13.332 12.4997L12.3427 11.333L13.0747 9.56501L14.6654 9.15167V7.83301L13.08 7.42967Z" stroke="currentColor" stroke-linecap="round" stroke-linejoin="round" fill="none"/>
</svg>
