<svg width="28" height="28" viewBox="0 0 28 28" xmlns="http://www.w3.org/2000/svg">
<path d="M14 0C6.26875 0 0 6.26875 0 14C0 21.7313 6.26875 28 14 28C21.7313 28 28 21.7313 28 14C28 6.26875 21.7313 0 14 0ZM20.7281 10.5531C20.7375 10.7 20.7375 10.8531 20.7375 11.0031C20.7375 15.5906 17.2438 20.875 10.8594 20.875C8.89062 20.875 7.06562 20.3031 5.52812 19.3188C5.80937 19.35 6.07813 19.3625 6.36563 19.3625C7.99063 19.3625 9.48438 18.8125 10.675 17.8813C9.15 17.85 7.86875 16.85 7.43125 15.475C7.96562 15.5531 8.44687 15.5531 8.99687 15.4125C8.21164 15.253 7.50586 14.8265 6.99943 14.2056C6.49299 13.5846 6.21715 12.8075 6.21875 12.0063V11.9625C6.67813 12.2219 7.21875 12.3812 7.78438 12.4031C7.30888 12.0862 6.91893 11.6569 6.6491 11.1532C6.37926 10.6495 6.23789 10.087 6.2375 9.51562C6.2375 8.86875 6.40625 8.27812 6.70938 7.76562C7.58095 8.83855 8.66853 9.71607 9.90145 10.3411C11.1344 10.9662 12.485 11.3249 13.8656 11.3938C13.375 9.03438 15.1375 7.125 17.2563 7.125C18.2563 7.125 19.1562 7.54375 19.7906 8.21875C20.575 8.07188 21.325 7.77812 21.9937 7.38437C21.7344 8.1875 21.1906 8.86562 20.4688 9.29375C21.1688 9.21875 21.8438 9.025 22.4688 8.75313C21.9969 9.44688 21.4062 10.0625 20.7281 10.5531Z" fill="currentColor"/>
</svg>
