<svg width="28" height="28" viewBox="0 0 28 28" xmlns="http://www.w3.org/2000/svg">
<circle cx="14" cy="14" r="14" fill="currentColor"/>
<path fill-rule="evenodd" clip-rule="evenodd" d="M11.1115 11.5118C10.8485 10.9876 10.7456 10.3779 10.8126 9.72607C9.07657 9.74086 8.8988 9.03411 8.86934 8.33653L8.93176 7.31906C8.97267 6.65276 9.56127 6.13199 10.2226 6.13199C11.6172 6.18707 11.749 6.22031 12.1356 6.65157L13.0911 5.29688L13.8823 5.76685C13.3589 6.89178 13.5421 7.17391 13.544 7.17622C15.958 7.23166 17.3654 9.22108 16.5543 11.3708C21.4133 13.2387 23.1304 18.12 21.0913 22.7023H20.0397C20.9506 21.1576 21.1947 19.2294 20.8996 17.4846C18.4469 21.1426 15.1136 15.0697 8.57066 20.5545L9.29876 18.2499L7.76526 19.892C7.94909 20.9298 8.36794 21.8863 8.9656 22.7023H7.85478C7.47791 22.0824 7.19074 21.4113 7.00201 20.7093L6.0862 21.69C5.82476 16.7749 6.96241 13.3794 11.1115 11.5118V11.5118ZM13.0097 20.7927C13.0097 20.176 12.344 19.7885 11.8144 20.0968C11.2847 20.4051 11.2847 21.1801 11.8144 21.4884C12.344 21.7967 13.0097 21.4093 13.0097 20.7927ZM17.2659 20.7927C17.2659 20.176 16.6002 19.7885 16.0705 20.0968C15.5408 20.4051 15.5409 21.1801 16.0705 21.4884C16.6002 21.7967 17.2659 21.4093 17.2659 20.7927ZM11.5115 7.66132C11.3046 8.03874 11.1326 8.41717 11.0083 8.80573L10.1012 8.74906C9.91857 8.73777 9.77881 8.57851 9.78945 8.39409L9.85187 7.37669C9.86278 7.19906 10.0087 7.06162 10.1841 7.06162C10.1907 7.06162 11.2114 7.12519 11.2114 7.12519C11.4888 7.16959 11.5603 7.34633 11.5115 7.66132ZM13.9746 11.5183L16.5817 14.758C16.813 15.0443 16.3896 15.3932 16.1582 15.1068L15.8986 14.7837L14.8181 15.6717L14.1313 14.8262L15.2163 13.9345L14.8378 13.4635L14.3169 13.8951L13.9676 13.449L14.4831 13.0219L13.5513 11.8671C13.3287 11.5918 13.7521 11.243 13.9746 11.5183V11.5183Z" fill="black"/>
</svg>
