<svg width="16" height="16" viewBox="0 0 16 16" xmlns="http://www.w3.org/2000/svg">
<path d="M5.33464 13.333H10.668V11.333C10.668 10.5997 10.4069 9.9719 9.88464 9.44967C9.36241 8.92745 8.73464 8.66634 8.0013 8.66634C7.26797 8.66634 6.64019 8.92745 6.11797 9.44967C5.59575 9.9719 5.33464 10.5997 5.33464 11.333V13.333ZM2.66797 14.6663V13.333H4.0013V11.333C4.0013 10.6552 4.15975 10.019 4.47664 9.42434C4.79308 8.83012 5.23464 8.35523 5.8013 7.99967C5.23464 7.64412 4.79308 7.16901 4.47664 6.57434C4.15975 5.98012 4.0013 5.34412 4.0013 4.66634V2.66634H2.66797V1.33301H13.3346V2.66634H12.0013V4.66634C12.0013 5.34412 11.8431 5.98012 11.5266 6.57434C11.2097 7.16901 10.768 7.64412 10.2013 7.99967C10.768 8.35523 11.2097 8.83012 11.5266 9.42434C11.8431 10.019 12.0013 10.6552 12.0013 11.333V13.333H13.3346V14.6663H2.66797Z" fill="currentColor"/>
</svg>
