<svg width="16" height="16" viewBox="0 0 16 16" xmlns="http://www.w3.org/2000/svg">
<path d="M2.23525 5.96695C2.66958 4.11534 4.11534 2.66958 5.96696 2.23525C7.30417 1.92158 8.69583 1.92158 10.033 2.23525C11.8847 2.66958 13.3304 4.11534 13.7647 5.96696C14.0784 7.30417 14.0784 8.69583 13.7647 10.033C13.3304 11.8847 11.8847 13.3304 10.033 13.7648C8.69583 14.0784 7.30417 14.0784 5.96696 13.7647C4.11534 13.3304 2.66958 11.8847 2.23525 10.033C1.92158 8.69583 1.92158 7.30417 2.23525 5.96695Z" stroke="currentColor" fill="none"/>
<path d="M9.17734 6.82129L6.82031 9.17831M9.17734 9.17831L6.82031 6.82129" stroke="currentColor" stroke-linecap="round" fill="none"/>
</svg>
