<svg width="16" height="16" viewBox="0 0 16 16" xmlns="http://www.w3.org/2000/svg">
<path d="M15.5 6.99939H13.755L10.7863 2.91126C10.6963 2.78775 10.5792 2.68649 10.444 2.61526C10.3088 2.54404 10.1591 2.50475 10.0064 2.5004C9.85361 2.49606 9.7019 2.52678 9.56288 2.5902C9.42385 2.65362 9.30122 2.74806 9.20438 2.86626L8.40125 3.79751L8.38875 3.81189C8.34221 3.87035 8.28309 3.91756 8.21579 3.95001C8.14848 3.98246 8.07472 3.99932 8 3.99932C7.92528 3.99932 7.85152 3.98246 7.78421 3.95001C7.71691 3.91756 7.65779 3.87035 7.61125 3.81189L7.59875 3.79751L6.79563 2.86626C6.69879 2.74806 6.57614 2.65362 6.43712 2.5902C6.2981 2.52678 6.14639 2.49606 5.99364 2.5004C5.84089 2.50475 5.69118 2.54404 5.55598 2.61526C5.42079 2.68649 5.30371 2.78775 5.21375 2.91126L2.245 6.99939H0.5C0.367392 6.99939 0.240215 7.05207 0.146447 7.14584C0.0526784 7.2396 0 7.36678 0 7.49939C0 7.632 0.0526784 7.75917 0.146447 7.85294C0.240215 7.94671 0.367392 7.99939 0.5 7.99939H15.5C15.6326 7.99939 15.7598 7.94671 15.8536 7.85294C15.9473 7.75917 16 7.632 16 7.49939C16 7.36678 15.9473 7.2396 15.8536 7.14584C15.7598 7.05207 15.6326 6.99939 15.5 6.99939ZM6.02125 3.49939L6.03312 3.51376L6.83625 4.44439C6.9769 4.61734 7.15434 4.75677 7.35564 4.85253C7.55695 4.94829 7.77707 4.99798 8 4.99798C8.22293 4.99798 8.44305 4.94829 8.64436 4.85253C8.84566 4.75677 9.0231 4.61734 9.16375 4.44439L9.96688 3.51376C9.97062 3.50876 9.97312 3.50439 9.9775 3.49939L12.5188 6.99939H3.48062L6.02125 3.49939ZM11.25 8.99939C10.6966 8.9995 10.1627 9.20353 9.75028 9.57249C9.33785 9.94144 9.07586 10.4494 9.01437 10.9994H6.98562C6.924 10.4499 6.66222 9.94243 6.25026 9.57369C5.8383 9.20495 5.30499 9.00079 4.7521 9.00019C4.19921 8.99959 3.66546 9.20258 3.25269 9.57042C2.83993 9.93826 2.57705 10.4452 2.51422 10.9945C2.45139 11.5438 2.59302 12.097 2.91207 12.5486C3.23112 13.0001 3.70525 13.3184 4.244 13.4426C4.78274 13.5669 5.34837 13.4884 5.83296 13.2222C6.31754 12.956 6.68715 12.5207 6.87125 11.9994H9.12875C9.26625 12.3883 9.50802 12.7319 9.82763 12.9927C10.1472 13.2535 10.5324 13.4214 10.941 13.4781C11.3496 13.5347 11.7659 13.478 12.1444 13.314C12.5229 13.1501 12.8491 12.8852 13.0872 12.5484C13.3254 12.2116 13.4663 11.8158 13.4947 11.4043C13.5231 10.9928 13.4378 10.5813 13.2482 10.215C13.0586 9.84869 12.7719 9.54154 12.4195 9.32715C12.0671 9.11276 11.6625 8.99938 11.25 8.99939ZM4.75 12.4994C4.50277 12.4994 4.2611 12.4261 4.05554 12.2887C3.84998 12.1514 3.68976 11.9562 3.59515 11.7277C3.50054 11.4993 3.47579 11.248 3.52402 11.0055C3.57225 10.7631 3.6913 10.5403 3.86612 10.3655C4.04093 10.1907 4.26366 10.0716 4.50614 10.0234C4.74861 9.97518 4.99995 9.99993 5.22835 10.0945C5.45676 10.1891 5.65199 10.3494 5.78934 10.5549C5.92669 10.7605 6 11.0022 6 11.2494C6 11.4135 5.96767 11.5761 5.90485 11.7277C5.84203 11.8794 5.74996 12.0172 5.63388 12.1333C5.51781 12.2493 5.38001 12.3414 5.22835 12.4042C5.0767 12.4671 4.91415 12.4994 4.75 12.4994ZM11.25 12.4994C11.0028 12.4994 10.7611 12.4261 10.5555 12.2887C10.35 12.1514 10.1898 11.9562 10.0952 11.7277C10.0005 11.4993 9.97579 11.248 10.024 11.0055C10.0722 10.7631 10.1913 10.5403 10.3661 10.3655C10.5409 10.1907 10.7637 10.0716 11.0061 10.0234C11.2486 9.97518 11.4999 9.99993 11.7284 10.0945C11.9568 10.1891 12.152 10.3494 12.2893 10.5549C12.4267 10.7605 12.5 11.0022 12.5 11.2494C12.5 11.5809 12.3683 11.8989 12.1339 12.1333C11.8995 12.3677 11.5815 12.4994 11.25 12.4994Z" fill="currentColor"/>
</svg>
