<svg width="16" height="16" viewBox="0 0 16 16" xmlns="http://www.w3.org/2000/svg">
<path d="M3.33325 13.3332V12.6665C3.33325 11.4288 3.82492 10.2418 4.70009 9.36667C5.57526 8.4915 6.76224 7.99984 7.99992 7.99984V7.99984C9.2376 7.99984 10.4246 8.4915 11.2997 9.36667C12.1749 10.2418 12.6666 11.4288 12.6666 12.6665V13.3332M7.99992 7.99984C8.70716 7.99984 9.38544 7.71889 9.88554 7.21879C10.3856 6.71869 10.6666 6.04041 10.6666 5.33317C10.6666 4.62593 10.3856 3.94765 9.88554 3.44755C9.38544 2.94746 8.70716 2.6665 7.99992 2.6665C7.29267 2.6665 6.6144 2.94746 6.1143 3.44755C5.6142 3.94765 5.33325 4.62593 5.33325 5.33317C5.33325 6.04041 5.6142 6.71869 6.1143 7.21879C6.6144 7.71889 7.29267 7.99984 7.99992 7.99984V7.99984Z" stroke="currentColor" stroke-linecap="round" stroke-linejoin="round" fill="none"/>
</svg>
