<svg width="24" height="24" viewBox="0 0 24 24" xmlns="http://www.w3.org/2000/svg">
<path d="M3.338 17C4.21552 18.5207 5.47811 19.7835 6.9987 20.6612C8.5193 21.539 10.2443 22.0007 12 22C13.7557 22.0007 15.4807 21.539 17.0013 20.6612C18.5219 19.7835 19.7845 18.5207 20.662 17M3.338 7C4.21552 5.47928 5.47811 4.21651 6.9987 3.33877C8.5193 2.46103 10.2443 1.99929 12 2C13.7557 1.99929 15.4807 2.46103 17.0013 3.33877C18.5219 4.21651 19.7845 5.47928 20.662 7M13 21.95C13 21.95 14.408 20.097 15.295 17M13 2.05C13 2.05 14.408 3.902 15.295 7M11 21.95C11 21.95 9.592 20.098 8.705 17M11 2.05C11 2.05 9.592 3.902 8.705 7M9 10L10.5 15L12 10L13.5 15L15 10M1 10L2.5 15L4 10L5.5 15L7 10M17 10L18.5 15L20 10L21.5 15L23 10" stroke="currentColor" stroke-linecap="round" stroke-linejoin="round" fill="none"/>
</svg>
