<svg width="24" height="20" viewBox="0 0 24 20" fill="none" xmlns="http://www.w3.org/2000/svg">
<path d="M0 10C0 7.80143 0 6.70215 0.23723 5.79642C0.956491 3.05033 3.21962 0.906197 6.11812 0.224756C7.07412 0 8.23441 0 10.555 0H13.4449C15.7655 0 16.9257 0 17.8817 0.224756C20.7803 0.906197 23.0434 3.05033 23.7626 5.79642C23.9999 6.70215 23.9999 7.80143 23.9999 10C23.9999 12.1986 23.9999 13.2978 23.7626 14.2036C23.0434 16.9497 20.7803 19.0938 17.8817 19.7752C16.9257 20 15.7655 20 13.4449 20H10.555C8.23441 20 7.07412 20 6.11812 19.7752C3.21962 19.0938 0.956491 16.9497 0.23723 14.2036C0 13.2978 0 12.1986 0 10Z" fill="white"/>
<mask id="mask0_4200_40211" style="mask-type:alpha" maskUnits="userSpaceOnUse" x="1" y="1" width="22" height="18">
<path d="M1.19922 7.77213C1.19922 4.12961 4.32421 1.17676 8.17909 1.17676H15.8192C19.6741 1.17676 22.7991 4.1296 22.7991 7.77212V12.2284C22.7991 15.871 19.6741 18.8238 15.8192 18.8238H8.17909C4.32421 18.8238 1.19922 15.871 1.19922 12.2285V7.77213Z" fill="#D9D9D9"/>
</mask>
<g mask="url(#mask0_4200_40211)">
<path d="M1.19922 7.77213C1.19922 4.12961 4.32421 1.17676 8.17909 1.17676H15.8192C19.6741 1.17676 22.7991 4.1296 22.7991 7.77212V12.2284C22.7991 15.871 19.6741 18.8238 15.8192 18.8238H8.17909C4.32421 18.8238 1.19922 15.871 1.19922 12.2285V7.77213Z" fill="black"/>
<path d="M10.8478 5.32462C11.3528 4.49987 12.6471 4.49987 13.1522 5.32462L14.1155 6.89775C14.3043 7.20597 14.6303 7.42326 15.0082 7.4927L16.9368 7.84709C17.9479 8.03289 18.3478 9.16209 17.6489 9.85761L16.3157 11.1842C16.0545 11.4442 15.9299 11.7958 15.9747 12.1469L16.2033 13.9391C16.3231 14.8786 15.276 15.5765 14.339 15.1816L12.5516 14.4284C12.2015 14.2808 11.7985 14.2808 11.4483 14.4284L9.66095 15.1816C8.7239 15.5765 7.67682 14.8786 7.79665 13.9391L8.02521 12.1469C8.07 11.7958 7.94547 11.4442 7.68426 11.1842L6.35106 9.85761C5.6521 9.16209 6.05205 8.03289 7.06316 7.84709L8.99175 7.4927C9.36963 7.42326 9.69564 7.20597 9.88439 6.89775L10.8478 5.32462Z" fill="white"/>
</g>
</svg>
