<svg width="0" height="0" class="hidden">
  <symbol xmlns="http://www.w3.org/2000/svg" viewBox="0 0 30 34" id="bg_rank">
    <path d="M12 1.73205C13.8564 0.660254 16.1436 0.660254 18 1.73205L26.7224 6.76795C28.5788 7.83975 29.7224 9.82051 29.7224 11.9641V22.0359C29.7224 24.1795 28.5788 26.1603 26.7224 27.232L18 32.2679C16.1436 33.3397 13.8564 33.3397 12 32.2679L3.27757 27.2321C1.42116 26.1603 0.277568 24.1795 0.277568 22.0359V11.9641C0.277568 9.82051 1.42116 7.83975 3.27757 6.76795L12 1.73205Z" fill="currentColor"></path>
  </symbol>
  <symbol xmlns="http://www.w3.org/2000/svg" viewBox="0 0 24 24" id="ic_arr_down">
    <path d="M19 8.5L12 15.5L5 8.5" stroke="currentColor" stroke-linecap="round" stroke-linejoin="round" fill="none"></path>
  </symbol>
  <symbol xmlns="http://www.w3.org/2000/svg" viewBox="0 0 36 36" id="ic_bug">
    <path d="M28.2656 15.7676C29.0273 15.791 29.7422 15.9492 30.4102 16.2422C31.0781 16.5352 31.6582 16.9395 32.1504 17.4551C32.6426 17.9707 33.0293 18.5566 33.3105 19.2129C33.5918 19.8691 33.7383 20.5898 33.75 21.375V24.75H31.5V21.375C31.5 21 31.4414 20.6426 31.3242 20.3027C31.207 19.9629 31.0371 19.6465 30.8145 19.3535C30.5918 19.0605 30.3281 18.8145 30.0234 18.6152C29.7188 18.416 29.3848 18.2578 29.0215 18.1406C29.0918 18.4805 29.1445 18.8262 29.1797 19.1777C29.2148 19.5293 29.2383 19.8867 29.25 20.25V24.75C29.25 24.832 29.2441 24.9082 29.2324 24.9785C29.2207 25.0488 29.209 25.125 29.1973 25.207L29.3027 25.1016C30.0059 25.8047 30.5449 26.6133 30.9199 27.5273C31.2949 28.4414 31.4824 29.3965 31.4824 30.3926C31.4824 31.3887 31.2949 32.3379 30.9199 33.2402C30.5449 34.1426 30.0059 34.9512 29.3027 35.666L27.7207 34.084C28.2129 33.5918 28.5879 33.0352 28.8457 32.4141C29.1035 31.793 29.2324 31.125 29.2324 30.4102C29.2324 29.6133 29.0508 28.8398 28.6875 28.0898C28.3242 29.2617 27.7969 30.334 27.1055 31.3066C26.4141 32.2793 25.5938 33.1113 24.6445 33.8027C23.6953 34.4941 22.6641 35.0332 21.5508 35.4199C20.4375 35.8066 19.2539 36 18 36C16.7695 36 15.5918 35.8066 14.4668 35.4199C13.3418 35.0332 12.3047 34.4941 11.3555 33.8027C10.4062 33.1113 9.5918 32.2793 8.91211 31.3066C8.23242 30.334 7.69922 29.2617 7.3125 28.0898C6.94922 28.8398 6.76758 29.6133 6.76758 30.4102C6.76758 31.1133 6.89648 31.7754 7.1543 32.3965C7.41211 33.0176 7.78711 33.5801 8.2793 34.084L6.69727 35.666C5.99414 34.9629 5.45508 34.1602 5.08008 33.2578C4.70508 32.3555 4.51172 31.4004 4.5 30.3926C4.5 29.3965 4.6875 28.4414 5.0625 27.5273C5.4375 26.6133 5.98242 25.8047 6.69727 25.1016L6.80273 25.207C6.79102 25.125 6.7793 25.0488 6.76758 24.9785C6.75586 24.9082 6.75 24.832 6.75 24.75V20.25C6.75 19.8984 6.76758 19.5469 6.80273 19.1953C6.83789 18.8438 6.89648 18.4922 6.97852 18.1406C6.61523 18.2461 6.28125 18.3984 5.97656 18.5977C5.67188 18.7969 5.41406 19.043 5.20312 19.3359C4.99219 19.6289 4.82227 19.9453 4.69336 20.2852C4.56445 20.625 4.5 20.9883 4.5 21.375V24.75H2.25V21.375C2.25 20.6133 2.39062 19.8984 2.67188 19.2305C2.95312 18.5625 3.3457 17.9707 3.84961 17.4551C4.35352 16.9395 4.93359 16.541 5.58984 16.2598C6.24609 15.9785 6.96094 15.8145 7.73438 15.7676C8.09766 14.9473 8.56641 14.1562 9.14062 13.3945C8.47266 13.2773 7.85742 13.0547 7.29492 12.7266C6.73242 12.3984 6.24023 11.9824 5.81836 11.4785C5.39648 10.9746 5.07422 10.4238 4.85156 9.82617C4.62891 9.22852 4.51172 8.57812 4.5 7.875V4.5H6.75V7.875C6.75 8.34375 6.83789 8.7832 7.01367 9.19336C7.18945 9.60352 7.42969 9.96094 7.73438 10.2656C8.03906 10.5703 8.39648 10.8105 8.80664 10.9863C9.2168 11.1621 9.65625 11.25 10.125 11.25H11.25V11.3027C11.8008 10.8926 12.3633 10.5469 12.9375 10.2656C12.7617 9.89062 12.627 9.50391 12.5332 9.10547C12.4395 8.70703 12.3867 8.29688 12.375 7.875C12.375 7.05469 12.5566 6.26367 12.9199 5.50195L10.459 3.04102L12.041 1.45898L14.2734 3.69141C14.8008 3.23438 15.375 2.88281 15.9961 2.63672C16.6172 2.39062 17.2852 2.26172 18 2.25C18.7031 2.25 19.3652 2.37305 19.9863 2.61914C20.6074 2.86523 21.1875 3.22266 21.7266 3.69141L23.959 1.45898L25.541 3.04102L23.0801 5.50195C23.4434 6.26367 23.625 7.05469 23.625 7.875C23.625 8.28516 23.5781 8.68945 23.4844 9.08789C23.3906 9.48633 23.25 9.87891 23.0625 10.2656C23.3672 10.418 23.6543 10.5762 23.9238 10.7402C24.1934 10.9043 24.4688 11.0918 24.75 11.3027V11.25H25.875C26.3438 11.25 26.7832 11.1621 27.1934 10.9863C27.6035 10.8105 27.9609 10.5703 28.2656 10.2656C28.5703 9.96094 28.8105 9.60352 28.9863 9.19336C29.1621 8.7832 29.25 8.34375 29.25 7.875V4.5H31.5V7.875C31.5 8.55469 31.3828 9.19922 31.1484 9.80859C30.9141 10.418 30.5918 10.9746 30.1816 11.4785C29.7715 11.9824 29.2852 12.3926 28.7227 12.709C28.1602 13.0254 27.5391 13.2539 26.8594 13.3945C27.4336 14.1562 27.9023 14.9473 28.2656 15.7676ZM18 4.5C17.5312 4.5 17.0918 4.58789 16.6816 4.76367C16.2715 4.93945 15.9141 5.17969 15.6094 5.48438C15.3047 5.78906 15.0645 6.14648 14.8887 6.55664C14.7129 6.9668 14.625 7.40625 14.625 7.875C14.625 8.46094 14.7656 8.98828 15.0469 9.45703C15.5391 9.32812 16.0254 9.22852 16.5059 9.1582C16.9863 9.08789 17.4844 9.04688 18 9.03516C18.5039 9.03516 18.9961 9.07031 19.4766 9.14062C19.957 9.21094 20.4492 9.31641 20.9531 9.45703C21.2344 8.98828 21.375 8.46094 21.375 7.875C21.375 7.40625 21.2871 6.9668 21.1113 6.55664C20.9355 6.14648 20.6953 5.78906 20.3906 5.48438C20.0859 5.17969 19.7285 4.93945 19.3184 4.76367C18.9082 4.58789 18.4688 4.5 18 4.5ZM27 20.25C27 19.0312 26.7598 17.877 26.2793 16.7871C25.7988 15.6973 25.1543 14.7422 24.3457 13.9219C23.5371 13.1016 22.582 12.4512 21.4805 11.9707C20.3789 11.4902 19.2188 11.25 18 11.25C16.7695 11.25 15.6094 11.4902 14.5195 11.9707C13.4297 12.4512 12.4805 13.1016 11.6719 13.9219C10.8633 14.7422 10.2129 15.6973 9.7207 16.7871C9.22852 17.877 8.98828 19.0312 9 20.25V24.75C9 25.9922 9.23438 27.1582 9.70312 28.248C10.1719 29.3379 10.8164 30.2871 11.6367 31.0957C12.457 31.9043 13.4121 32.5488 14.502 33.0293C15.5918 33.5098 16.7578 33.75 18 33.75C19.2422 33.75 20.4082 33.5156 21.498 33.0469C22.5879 32.5781 23.5371 31.9336 24.3457 31.1133C25.1543 30.293 25.7988 29.3379 26.2793 28.248C26.7598 27.1582 27 25.9922 27 24.75V20.25Z" fill="currentColor"></path>
  </symbol>
  <symbol xmlns="http://www.w3.org/2000/svg" viewBox="0 0 24 25" id="ic_calendar">
    <path d="M15 4.5V2.5M15 4.5V6.5M15 4.5H10.5M3 10.5V6.5C3 5.96957 3.21071 5.46086 3.58579 5.08579C3.96086 4.71071 4.46957 4.5 5 4.5H7M7 2.5V6.5M21 10.5V6.5C21 5.96957 20.7893 5.46086 20.4142 5.08579C20.0391 4.71071 19.5304 4.5 19 4.5H18.5M3 10.5V19.5C3 20.0304 3.21071 20.5391 3.58579 20.9142C3.96086 21.2893 4.46957 21.5 5 21.5H19C19.5304 21.5 20.0391 21.2893 20.4142 20.9142C20.7893 20.5391 21 20.0304 21 19.5V10.5H3Z" stroke="currentColor" stroke-width="1.5" stroke-linecap="round" stroke-linejoin="round" fill="none"></path>
  </symbol>
  <symbol xmlns="http://www.w3.org/2000/svg" viewBox="0 0 16 16" id="ic_check">
    <path d="M12 4.6665L6.28571 11.3332L4 8.6665" stroke="currentColor" stroke-linecap="round" stroke-linejoin="round" fill="none"></path>
  </symbol>
  <symbol xmlns="http://www.w3.org/2000/svg" viewBox="0 0 36 37" id="ic_close">
    <path d="M10.1367 26.3639L18.0007 18.5M25.8646 10.636L18.0007 18.5M18.0007 18.5L10.1367 10.636M18.0007 18.5L25.8646 26.3639" stroke="currentColor" stroke-width="1.5" stroke-linecap="round" stroke-linejoin="round" fill="none"></path>
  </symbol>
  <symbol xmlns="http://www.w3.org/2000/svg" viewBox="0 0 36 36" id="ic_feedback">
    <path d="M18 33C26.2845 33 33 26.2845 33 18C33 9.7155 26.2845 3 18 3C9.7155 3 3 9.7155 3 18C3 26.2845 9.7155 33 18 33Z" stroke="currentColor" stroke-width="1.5" stroke-linecap="round" stroke-linejoin="round" fill="none"></path>
    <path d="M13.5 13.5C13.5 8.25 21.75 8.25 21.75 13.5C21.75 17.25 18 16.5 18 21M18 27.015L18.015 26.9985" stroke="currentColor" stroke-width="1.5" stroke-linecap="round" stroke-linejoin="round" fill="none"></path>
  </symbol>
  <symbol xmlns="http://www.w3.org/2000/svg" viewBox="0 0 16 16" id="ic_github">
    <path d="M10.6654 14.6847V12.7714C10.6904 12.4535 10.6474 12.1339 10.5394 11.8339C10.4313 11.5339 10.2607 11.2603 10.0387 11.0314C12.132 10.798 14.332 10.0047 14.332 6.36469C14.3319 5.43391 13.9738 4.53882 13.332 3.86469C13.6359 3.05036 13.6144 2.15026 13.272 1.35136C13.272 1.35136 12.4854 1.11802 10.6654 2.33802C9.13737 1.92391 7.52669 1.92391 5.9987 2.33802C4.1787 1.11802 3.39203 1.35136 3.39203 1.35136C3.04962 2.15026 3.02813 3.05036 3.33203 3.86469C2.68545 4.54382 2.32705 5.447 2.33203 6.38469C2.33203 9.99802 4.53203 10.7914 6.62536 11.0514C6.40603 11.278 6.23687 11.5483 6.1289 11.8446C6.02093 12.141 5.97657 12.4567 5.9987 12.7714V14.6847M5.9987 13.3514C3.9987 14 2.33203 13.3514 1.33203 11.3514" stroke="currentColor" stroke-linecap="round" stroke-linejoin="round" fill="none"></path>
  </symbol>
  <symbol xmlns="http://www.w3.org/2000/svg" viewBox="0 0 16 16" id="ic_link_arrow">
    <path fill-rule="evenodd" clip-rule="evenodd" d="M14.0006 2.50035C14.0006 2.36774 13.948 2.24056 13.8542 2.14679C13.7604 2.05302 13.6332 2.00035 13.5006 2.00035H7.50063C7.36802 2.00035 7.24085 2.05302 7.14708 2.14679C7.05331 2.24056 7.00063 2.36774 7.00063 2.50035C7.00063 2.63295 7.05331 2.76013 7.14708 2.8539C7.24085 2.94767 7.36802 3.00035 7.50063 3.00035H12.2936L2.14663 13.1463C2.10014 13.1928 2.06327 13.248 2.03811 13.3088C2.01295 13.3695 2 13.4346 2 13.5003C2 13.5661 2.01295 13.6312 2.03811 13.6919C2.06327 13.7527 2.10014 13.8079 2.14663 13.8543C2.19312 13.9008 2.24831 13.9377 2.30905 13.9629C2.36979 13.988 2.43489 14.001 2.50063 14.001C2.56638 14.001 2.63148 13.988 2.69221 13.9629C2.75295 13.9377 2.80814 13.9008 2.85463 13.8543L13.0006 3.70735V8.50035C13.0006 8.63295 13.0533 8.76013 13.1471 8.8539C13.2408 8.94767 13.368 9.00035 13.5006 9.00035C13.6332 9.00035 13.7604 8.94767 13.8542 8.8539C13.948 8.76013 14.0006 8.63295 14.0006 8.50035V2.50035Z" fill="currentColor"></path>
  </symbol>
  <symbol xmlns="http://www.w3.org/2000/svg" viewBox="0 0 24 24" id="ic_lock">
    <path d="M16 12H17.4C17.7314 12 18 12.2686 18 12.6V19.4C18 19.7314 17.7314 20 17.4 20H6.6C6.26863 20 6 19.7314 6 19.4V12.6C6 12.2686 6.26863 12 6.6 12H8M16 12V8C16 6.66667 15.2 4 12 4C8.8 4 8 6.66667 8 8V12M16 12H8" stroke="currentColor" stroke-width="1.5" stroke-linecap="round" stroke-linejoin="round" fill="none"></path>
  </symbol>
  <symbol xmlns="http://www.w3.org/2000/svg" viewBox="0 0 24 25" id="ic_notice">
    <path d="M12 12V17M12 8.01L12.01 7.999M12 22.5C17.523 22.5 22 18.023 22 12.5C22 6.977 17.523 2.5 12 2.5C6.477 2.5 2 6.977 2 12.5C2 18.023 6.477 22.5 12 22.5Z" stroke="currentColor" stroke-width="1.5" stroke-linecap="round" stroke-linejoin="round" fill="none"></path>
  </symbol>
  <symbol xmlns="http://www.w3.org/2000/svg" viewBox="0 0 30 30" id="ic_notification">
    <path fill-rule="evenodd" clip-rule="evenodd" d="M24.5804 7.76158C24.5804 4.35574 22.2519 2.99042 18.8994 2.99042H11.0265C7.77703 2.99042 5.3418 4.26265 5.3418 7.53444V25.7639C5.3418 26.6626 6.30869 27.2285 7.09189 26.7892L14.9934 22.3568L22.8266 26.7817C23.611 27.2236 24.5804 26.6576 24.5804 25.7577V7.76158Z" stroke="currentColor" stroke-width="1.5" stroke-linecap="round" stroke-linejoin="round" fill="none"></path>
    <path d="M10.3828 11.3204H19.4436" stroke="currentColor" stroke-width="1.5" stroke-linecap="round" stroke-linejoin="round" fill="none"></path>
  </symbol>
  <symbol xmlns="http://www.w3.org/2000/svg" viewBox="0 0 18 18" id="ic_notification_error">
    <path d="M9 14.25V14.2575M9 11.25V3.75" stroke="currentColor" stroke-width="2" stroke-linecap="round" stroke-linejoin="round" fill="none"></path>
  </symbol>
  <symbol xmlns="http://www.w3.org/2000/svg" viewBox="0 0 18 18" id="ic_notification_progress">
    <path d="M12 6.00017L13.7731 4.22707M4.22723 13.773L6.0002 12M13.2424 9H15.75M2.25 9H4.75736M9 4.75756L9 2.25M9 15.75L9 13.2426M6.00018 6.00018L4.22707 4.22707M13.773 13.773L12 12" stroke="currentColor" stroke-width="1.5" stroke-linecap="round" stroke-linejoin="round" fill="none"></path>
  </symbol>
  <symbol xmlns="http://www.w3.org/2000/svg" viewBox="0 0 24 24" id="ic_notification_success">
    <path d="M18 7L9.42857 17L6 13" stroke="currentColor" stroke-width="1.5" stroke-linecap="round" stroke-linejoin="round" fill="none"></path>
  </symbol>
  <symbol xmlns="http://www.w3.org/2000/svg" viewBox="0 0 25 24" id="ic_plus">
    <path d="M6.5 12H12.5M12.5 12H18.5M12.5 12V6M12.5 12V18" stroke="currentColor" stroke-width="1.5" stroke-linejoin="round" fill="none"></path>
  </symbol>
  <symbol xmlns="http://www.w3.org/2000/svg" viewBox="0 0 20 20" id="ic_proposal_CommunityPoolSpend">
    <path d="M15.832 13.4372C15.412 14.2622 14.7137 14.9797 13.8245 15.5213L14.2287 16.8547C14.2513 16.9294 14.2562 17.0083 14.2428 17.0852C14.2295 17.1621 14.1983 17.2348 14.1518 17.2975C14.1053 17.3602 14.0448 17.4111 13.9751 17.4462C13.9054 17.4813 13.8284 17.4996 13.7504 17.4997H12.2804C12.1722 17.4997 12.0669 17.4646 11.9804 17.3997L10.8179 16.5272H8.78703L7.62453 17.3997C7.53798 17.4646 7.43272 17.4997 7.32453 17.4997H5.85453C5.77648 17.4996 5.69953 17.4813 5.62982 17.4462C5.56011 17.4111 5.49959 17.3602 5.4531 17.2975C5.40661 17.2348 5.37544 17.1621 5.36208 17.0852C5.34873 17.0083 5.35356 16.9294 5.3762 16.8547L5.78036 15.5213C4.2887 14.6122 3.33203 13.2072 3.33203 11.6313C3.33203 8.88968 6.2287 6.66634 9.80287 6.66634C10.527 6.66634 11.432 6.91467 12.082 7.08301L15.832 5.83301L15.762 8.85634L17.4987 9.58301V12.4997L15.8937 13.333" stroke="currentColor" stroke-linecap="round" stroke-linejoin="round" fill="none"></path>
    <path d="M12.9167 10.8333C12.8062 10.8333 12.7002 10.7894 12.622 10.7113C12.5439 10.6332 12.5 10.5272 12.5 10.4167C12.5 10.3062 12.5439 10.2002 12.622 10.122C12.7002 10.0439 12.8062 10 12.9167 10C13.0272 10 13.1332 10.0439 13.2113 10.122C13.2894 10.2002 13.3333 10.3062 13.3333 10.4167C13.3333 10.5272 13.2894 10.6332 13.2113 10.7113C13.1332 10.7894 13.0272 10.8333 12.9167 10.8333Z" fill="currentColor" stroke="currentColor" stroke-linecap="round" stroke-linejoin="round"></path>
    <path d="M1.66797 8.33301C1.66797 8.33301 1.66797 10.333 3.33464 10.833" stroke="currentColor" stroke-linecap="round" stroke-linejoin="round" fill="none"></path>
    <path d="M10.6667 6.46083C10.775 6.15083 10.8333 5.8175 10.8333 5.47083C10.8333 3.83 9.5275 2.5 7.91667 2.5C6.30583 2.5 5 3.83 5 5.47083C5 6.255 5.29833 6.96917 5.78667 7.5" stroke="currentColor" stroke-linejoin="round" fill="none"></path>
  </symbol>
  <symbol xmlns="http://www.w3.org/2000/svg" viewBox="0 0 20 20" id="ic_proposal_ParameterChange">
    <path d="M17.3339 11.852H3.0456C2.93659 11.8519 2.83054 11.8874 2.74358 11.9532C2.65663 12.0189 2.59355 12.1112 2.56393 12.2162L1.43393 16.2137C1.36388 16.4615 1.35222 16.7222 1.39985 16.9752C1.44748 17.2283 1.55311 17.4669 1.70845 17.6723C1.86379 17.8777 2.06462 18.0443 2.29518 18.1591C2.52573 18.2738 2.77974 18.3336 3.03726 18.3337H16.9639C17.2215 18.3336 17.4755 18.2738 17.706 18.1591C17.9366 18.0443 18.1374 17.8777 18.2927 17.6723C18.4481 17.4669 18.5537 17.2283 18.6013 16.9752C18.649 16.7222 18.6373 16.4615 18.5673 16.2137L17.3339 11.852ZM17.3339 11.852V6.76033M2.66726 11.852V3.33366C2.66726 2.89163 2.84286 2.46771 3.15542 2.15515C3.46798 1.84259 3.8919 1.66699 4.33393 1.66699H10.0006M9.16726 15.8337H10.8339M14.7148 4.02366L12.3573 6.38116M17.0714 4.02366C16.9177 4.18284 16.7338 4.30981 16.5304 4.39716C16.3271 4.48451 16.1084 4.53049 15.8871 4.53241C15.6658 4.53433 15.4463 4.49216 15.2415 4.40836C15.0367 4.32456 14.8506 4.2008 14.6941 4.04432C14.5376 3.88783 14.4139 3.70174 14.3301 3.49692C14.2463 3.29209 14.2041 3.07262 14.206 2.85132C14.2079 2.63002 14.2539 2.41132 14.3413 2.20798C14.4286 2.00464 14.5556 1.82074 14.7148 1.66699M12.3573 8.73782C12.6609 8.42349 12.8289 8.00248 12.8251 7.56549C12.8213 7.12849 12.646 6.71047 12.337 6.40146C12.0279 6.09245 11.6099 5.91717 11.1729 5.91337C10.7359 5.90957 10.3149 6.07756 10.0006 6.38116" stroke="currentColor" stroke-linecap="round" stroke-linejoin="round" fill="none"></path>
  </symbol>
  <symbol xmlns="http://www.w3.org/2000/svg" viewBox="0 0 20 20" id="ic_proposal_SoftwareUpgrade">
    <path d="M9.5152 12.6417L14.3735 17.5C14.7902 17.9033 15.3487 18.1268 15.9286 18.1221C16.5085 18.1173 17.0633 17.8849 17.4734 17.4748C17.8834 17.0648 18.1159 16.51 18.1206 15.9301C18.1253 15.3502 17.9019 14.7917 17.4985 14.375L12.601 9.4775M9.5152 12.6417L11.5952 10.1167C11.8594 9.79667 12.2119 9.595 12.6019 9.47833C13.0602 9.34167 13.571 9.32167 14.0544 9.36167C14.7059 9.41761 15.3607 9.30222 15.9539 9.02693C16.547 8.75164 17.0579 8.32603 17.4357 7.79234C17.8136 7.25864 18.0453 6.63542 18.108 5.9845C18.1706 5.33358 18.0619 4.67761 17.7927 4.08167L15.0627 6.8125C14.606 6.70688 14.188 6.47514 13.8566 6.14365C13.5251 5.81216 13.2933 5.39425 13.1877 4.9375L15.9177 2.2075C15.3218 1.9383 14.6658 1.82962 14.0149 1.89224C13.364 1.95485 12.7407 2.18659 12.207 2.56446C11.6733 2.94232 11.2477 3.45318 10.9724 4.04633C10.6972 4.63948 10.5818 5.29431 10.6377 5.94583C10.7135 6.8425 10.5785 7.8325 9.88437 8.40417L9.79937 8.475M9.5152 12.6417L5.63603 17.3525C5.44803 17.5817 5.21412 17.7689 4.94936 17.9023C4.68461 18.0356 4.39487 18.112 4.09881 18.1265C3.80274 18.1411 3.50691 18.0935 3.23034 17.9869C2.95377 17.8802 2.70261 17.7168 2.493 17.5072C2.2834 17.2976 2.12001 17.0464 2.01334 16.7699C1.90667 16.4933 1.85909 16.1975 1.87366 15.9014C1.88823 15.6053 1.96463 15.3156 2.09795 15.0508C2.23126 14.7861 2.41853 14.5522 2.6477 14.3642L8.3452 9.6725L4.9227 6.25H3.74853L1.87353 3.125L3.12353 1.875L6.24853 3.75V4.92417L9.79853 8.47417L8.34437 9.67167M15.311 15.3125L13.1235 13.125M4.05437 15.9375H4.06103V15.9442H4.05437V15.9375Z" stroke="currentColor" stroke-linecap="round" stroke-linejoin="round" fill="none"></path>
  </symbol>
  <symbol xmlns="http://www.w3.org/2000/svg" viewBox="0 0 20 20" id="ic_proposal_Text">
    <path d="M17.5 3V17C17.5 17.1326 17.4473 17.2598 17.3536 17.3536C17.2598 17.4473 17.1326 17.5 17 17.5H3C2.86739 17.5 2.74021 17.4473 2.64645 17.3536C2.55268 17.2598 2.5 17.1326 2.5 17V3C2.5 2.86739 2.55268 2.74021 2.64645 2.64645C2.74021 2.55268 2.86739 2.5 3 2.5H17C17.1326 2.5 17.2598 2.55268 17.3536 2.64645C17.4473 2.74021 17.5 2.86739 17.5 3Z" stroke="currentColor" stroke-linecap="round" stroke-linejoin="round" fill="none"></path>
    <path d="M5.83203 7.49967V5.83301H14.1654V7.49967M9.9987 5.83301V14.1663M9.9987 14.1663H8.33203M9.9987 14.1663H11.6654" stroke="currentColor" stroke-linecap="round" stroke-linejoin="round" fill="none"></path>
  </symbol>
  <symbol xmlns="http://www.w3.org/2000/svg" viewBox="0 0 20 20" id="ic_proposal_UpdateSmartContract">
    <path d="M16.6654 10.0003V4.79116C16.6654 4.72538 16.6525 4.66024 16.6273 4.59946C16.6022 4.53869 16.5652 4.48348 16.5187 4.43699L13.8954 1.81366C13.8017 1.71986 13.6746 1.66711 13.542 1.66699H3.83203C3.69942 1.66699 3.57225 1.71967 3.47848 1.81344C3.38471 1.90721 3.33203 2.03438 3.33203 2.16699V17.8337C3.33203 17.9663 3.38471 18.0934 3.47848 18.1872C3.57225 18.281 3.69942 18.3337 3.83203 18.3337H9.16536M6.66536 8.33366H13.332M6.66536 5.00033H9.9987M6.66536 11.667H9.16536" stroke="currentColor" stroke-linecap="round" stroke-linejoin="round" fill="none"></path>
    <path d="M13.3347 1.66699V4.50033C13.3347 4.63293 13.3874 4.76011 13.4811 4.85388C13.5749 4.94765 13.7021 5.00033 13.8347 5.00033H16.668M13.5897 14.2612L14.3472 12.6553C14.3676 12.6094 14.4009 12.5704 14.4431 12.5431C14.4852 12.5157 14.5344 12.5011 14.5847 12.5011C14.6349 12.5011 14.6841 12.5157 14.7263 12.5431C14.7684 12.5704 14.8017 12.6094 14.8222 12.6553L15.5805 14.2612L17.2738 14.5203C17.4913 14.5537 17.578 14.8337 17.4213 14.9937L16.1955 16.2437L16.4847 18.0087C16.5213 18.2353 16.2938 18.4087 16.0997 18.3012L14.5847 17.4678L13.0697 18.3012C12.8747 18.4087 12.648 18.2353 12.6847 18.0087L12.9738 16.2437L11.7488 14.9937C11.5905 14.8337 11.678 14.5537 11.8955 14.5203L13.5897 14.2612Z" stroke="currentColor" stroke-linecap="round" stroke-linejoin="round" fill="none"></path>
  </symbol>
  <symbol xmlns="http://www.w3.org/2000/svg" viewBox="0 0 16 17" id="ic_remove">
    <path d="M2.66797 5.16667H13.3346M6.66797 7.83333V11.8333M9.33464 7.83333V11.8333M3.33464 5.16667L4.0013 13.1667C4.0013 13.5203 4.14178 13.8594 4.39183 14.1095C4.64187 14.3595 4.98101 14.5 5.33464 14.5H10.668C11.0216 14.5 11.3607 14.3595 11.6108 14.1095C11.8608 13.8594 12.0013 13.5203 12.0013 13.1667L12.668 5.16667M6.0013 5.16667V3.16667C6.0013 2.98986 6.07154 2.82029 6.19656 2.69526C6.32159 2.57024 6.49116 2.5 6.66797 2.5H9.33464C9.51145 2.5 9.68102 2.57024 9.80604 2.69526C9.93106 2.82029 10.0013 2.98986 10.0013 3.16667V5.16667" stroke="currentColor" stroke-linecap="round" stroke-linejoin="round" fill="none"></path>
  </symbol>
  <symbol xmlns="http://www.w3.org/2000/svg" viewBox="0 0 28 28" id="ic_social_cyb">
    <circle cx="14" cy="14" r="14" fill="currentColor"></circle>
    <circle cx="14" cy="14" r="7" fill="black"></circle>
  </symbol>
  <symbol xmlns="http://www.w3.org/2000/svg" viewBox="0 0 28 28" id="ic_social_github">
    <path fill-rule="evenodd" clip-rule="evenodd" d="M14 0C6.265 0 0 6.265 0 14C0 20.195 4.0075 25.4275 9.5725 27.2825C10.2725 27.405 10.535 26.985 10.535 26.6175C10.535 26.285 10.5175 25.1825 10.5175 24.01C7 24.6575 6.09 23.1525 5.81 22.365C5.6525 21.9625 4.97 20.72 4.375 20.3875C3.885 20.125 3.185 19.4775 4.3575 19.46C5.46 19.4425 6.2475 20.475 6.51 20.895C7.77 23.0125 9.7825 22.4175 10.5875 22.05C10.71 21.14 11.0775 20.5275 11.48 20.1775C8.365 19.8275 5.11 18.62 5.11 13.265C5.11 11.7425 5.6525 10.4825 6.545 9.5025C6.405 9.1525 5.915 7.7175 6.685 5.7925C6.685 5.7925 7.8575 5.425 10.535 7.2275C11.655 6.9125 12.845 6.755 14.035 6.755C15.225 6.755 16.415 6.9125 17.535 7.2275C20.2125 5.4075 21.385 5.7925 21.385 5.7925C22.155 7.7175 21.665 9.1525 21.525 9.5025C22.4175 10.4825 22.96 11.725 22.96 13.265C22.96 18.6375 19.6875 19.8275 16.5725 20.1775C17.08 20.615 17.5175 21.455 17.5175 22.7675C17.5175 24.64 17.5 26.145 17.5 26.6175C17.5 26.985 17.7625 27.4225 18.4625 27.2825C21.2417 26.3442 23.6567 24.558 25.3676 22.1753C27.0785 19.7926 27.9992 16.9333 28 14C28 6.265 21.735 0 14 0Z" fill="currentColor"></path>
  </symbol>
  <symbol xmlns="http://www.w3.org/2000/svg" viewBox="0 0 28 28" id="ic_social_keybase">
    <circle cx="14" cy="14" r="14" fill="currentColor"></circle>
    <path fill-rule="evenodd" clip-rule="evenodd" d="M11.1115 11.5118C10.8485 10.9876 10.7456 10.3779 10.8126 9.72607C9.07657 9.74086 8.8988 9.03411 8.86934 8.33653L8.93176 7.31906C8.97267 6.65276 9.56127 6.13199 10.2226 6.13199C11.6172 6.18707 11.749 6.22031 12.1356 6.65157L13.0911 5.29688L13.8823 5.76685C13.3589 6.89178 13.5421 7.17391 13.544 7.17622C15.958 7.23166 17.3654 9.22108 16.5543 11.3708C21.4133 13.2387 23.1304 18.12 21.0913 22.7023H20.0397C20.9506 21.1576 21.1947 19.2294 20.8996 17.4846C18.4469 21.1426 15.1136 15.0697 8.57066 20.5545L9.29876 18.2499L7.76526 19.892C7.94909 20.9298 8.36794 21.8863 8.9656 22.7023H7.85478C7.47791 22.0824 7.19074 21.4113 7.00201 20.7093L6.0862 21.69C5.82476 16.7749 6.96241 13.3794 11.1115 11.5118V11.5118ZM13.0097 20.7927C13.0097 20.176 12.344 19.7885 11.8144 20.0968C11.2847 20.4051 11.2847 21.1801 11.8144 21.4884C12.344 21.7967 13.0097 21.4093 13.0097 20.7927ZM17.2659 20.7927C17.2659 20.176 16.6002 19.7885 16.0705 20.0968C15.5408 20.4051 15.5409 21.1801 16.0705 21.4884C16.6002 21.7967 17.2659 21.4093 17.2659 20.7927ZM11.5115 7.66132C11.3046 8.03874 11.1326 8.41717 11.0083 8.80573L10.1012 8.74906C9.91857 8.73777 9.77881 8.57851 9.78945 8.39409L9.85187 7.37669C9.86278 7.19906 10.0087 7.06162 10.1841 7.06162C10.1907 7.06162 11.2114 7.12519 11.2114 7.12519C11.4888 7.16959 11.5603 7.34633 11.5115 7.66132ZM13.9746 11.5183L16.5817 14.758C16.813 15.0443 16.3896 15.3932 16.1582 15.1068L15.8986 14.7837L14.8181 15.6717L14.1313 14.8262L15.2163 13.9345L14.8378 13.4635L14.3169 13.8951L13.9676 13.449L14.4831 13.0219L13.5513 11.8671C13.3287 11.5918 13.7521 11.243 13.9746 11.5183V11.5183Z" fill="black"></path>
  </symbol>
  <symbol xmlns="http://www.w3.org/2000/svg" viewBox="0 0 28 28" id="ic_social_telegram">
    <path fill-rule="evenodd" clip-rule="evenodd" d="M28 14C28 21.7315 21.7315 28 14 28C6.2685 28 0 21.7315 0 14C0 6.2685 6.2685 0 14 0C21.7315 0 28 6.2685 28 14ZM14.5017 10.3355C13.1402 10.9013 10.4183 12.0738 6.33733 13.8518C5.67467 14.1155 5.327 14.3733 5.2955 14.6253C5.24183 15.0523 5.77617 15.2203 6.50183 15.4478C6.601 15.4793 6.70367 15.5108 6.80867 15.5458C7.52383 15.778 8.48517 16.0498 8.9845 16.0603C9.43833 16.0697 9.94467 15.883 10.5035 15.5003C14.3162 12.9255 16.2843 11.6247 16.408 11.5967C16.4955 11.5768 16.6168 11.5512 16.6985 11.6247C16.7802 11.697 16.772 11.8347 16.7638 11.872C16.7102 12.0972 14.6172 14.0443 13.5322 15.0523C13.1938 15.3662 12.9547 15.589 12.9057 15.6403C12.796 15.7535 12.684 15.862 12.5767 15.9658C11.9117 16.6052 11.4147 17.0858 12.6047 17.8698C13.1763 18.2467 13.6337 18.5582 14.0898 18.8685C14.588 19.208 15.085 19.5463 15.729 19.9687C15.8923 20.076 16.0487 20.1868 16.2015 20.2953C16.7813 20.7095 17.3028 21.0805 17.9468 21.0222C18.3202 20.9872 18.7075 20.636 18.9035 19.5872C19.3667 17.1068 20.279 11.7355 20.4902 9.52117C20.503 9.33732 20.4952 9.1526 20.4668 8.9705C20.4499 8.82342 20.3782 8.68809 20.2662 8.59133C20.0993 8.45483 19.8403 8.42567 19.7237 8.428C19.1975 8.43733 18.3902 8.7185 14.5017 10.3355Z" fill="currentColor"></path>
  </symbol>
  <symbol xmlns="http://www.w3.org/2000/svg" viewBox="0 0 28 28" id="ic_social_twitter">
    <path d="M14 0C6.26875 0 0 6.26875 0 14C0 21.7313 6.26875 28 14 28C21.7313 28 28 21.7313 28 14C28 6.26875 21.7313 0 14 0ZM20.7281 10.5531C20.7375 10.7 20.7375 10.8531 20.7375 11.0031C20.7375 15.5906 17.2438 20.875 10.8594 20.875C8.89062 20.875 7.06562 20.3031 5.52812 19.3188C5.80937 19.35 6.07813 19.3625 6.36563 19.3625C7.99063 19.3625 9.48438 18.8125 10.675 17.8813C9.15 17.85 7.86875 16.85 7.43125 15.475C7.96562 15.5531 8.44687 15.5531 8.99687 15.4125C8.21164 15.253 7.50586 14.8265 6.99943 14.2056C6.49299 13.5846 6.21715 12.8075 6.21875 12.0063V11.9625C6.67813 12.2219 7.21875 12.3812 7.78438 12.4031C7.30888 12.0862 6.91893 11.6569 6.6491 11.1532C6.37926 10.6495 6.23789 10.087 6.2375 9.51562C6.2375 8.86875 6.40625 8.27812 6.70938 7.76562C7.58095 8.83855 8.66853 9.71607 9.90145 10.3411C11.1344 10.9662 12.485 11.3249 13.8656 11.3938C13.375 9.03438 15.1375 7.125 17.2563 7.125C18.2563 7.125 19.1562 7.54375 19.7906 8.21875C20.575 8.07188 21.325 7.77812 21.9937 7.38437C21.7344 8.1875 21.1906 8.86562 20.4688 9.29375C21.1688 9.21875 21.8438 9.025 22.4688 8.75313C21.9969 9.44688 21.4062 10.0625 20.7281 10.5531Z" fill="currentColor"></path>
  </symbol>
  <symbol xmlns="http://www.w3.org/2000/svg" viewBox="0 0 16 16" id="ic_telegram">
    <path d="M13.9987 3.3335L1.33203 8.3335L5.9987 9.00016M13.9987 3.3335L12.332 13.3335L5.9987 9.00016M13.9987 3.3335L5.9987 9.00016M5.9987 9.00016V12.6668L8.1647 10.4822" stroke="currentColor" stroke-linecap="round" stroke-linejoin="round" fill="none"></path>
  </symbol>
  <symbol xmlns="http://www.w3.org/2000/svg" viewBox="0 0 16 16" id="ic_user">
    <path d="M3.33325 13.3332V12.6665C3.33325 11.4288 3.82492 10.2418 4.70009 9.36667C5.57526 8.4915 6.76224 7.99984 7.99992 7.99984V7.99984C9.2376 7.99984 10.4246 8.4915 11.2997 9.36667C12.1749 10.2418 12.6666 11.4288 12.6666 12.6665V13.3332M7.99992 7.99984C8.70716 7.99984 9.38544 7.71889 9.88554 7.21879C10.3856 6.71869 10.6666 6.04041 10.6666 5.33317C10.6666 4.62593 10.3856 3.94765 9.88554 3.44755C9.38544 2.94746 8.70716 2.6665 7.99992 2.6665C7.29267 2.6665 6.6144 2.94746 6.1143 3.44755C5.6142 3.94765 5.33325 4.62593 5.33325 5.33317C5.33325 6.04041 5.6142 6.71869 6.1143 7.21879C6.6144 7.71889 7.29267 7.99984 7.99992 7.99984V7.99984Z" stroke="currentColor" stroke-linecap="round" stroke-linejoin="round" fill="none"></path>
  </symbol>
  <symbol xmlns="http://www.w3.org/2000/svg" viewBox="0 0 18 18" id="ic_wallet">
    <path d="M14.25 15H3.75C2.92157 15 2.25 14.3285 2.25 13.5V6.75C2.25 5.92157 2.92157 5.25 3.75 5.25H14.25C15.0784 5.25 15.75 5.92157 15.75 6.75V13.5C15.75 14.3285 15.0784 15 14.25 15Z" stroke="currentColor" fill="none"></path>
    <path d="M12.375 10.5C12.1679 10.5 12 10.3321 12 10.125C12 9.91792 12.1679 9.75 12.375 9.75C12.5821 9.75 12.75 9.91792 12.75 10.125C12.75 10.3321 12.5821 10.5 12.375 10.5Z" fill="currentColor" stroke="currentColor" stroke-linecap="round" stroke-linejoin="round"></path>
    <path d="M13.5 5.25V4.20242C13.5 3.21687 12.5658 2.49913 11.6135 2.75306L3.3635 4.95307C2.70688 5.12817 2.25 5.72285 2.25 6.40242V6.75" stroke="currentColor" fill="none"></path>
  </symbol>
  <symbol xmlns="http://www.w3.org/2000/svg" viewBox="0 0 24 24" id="ic_website">
    <path d="M3.338 17C4.21552 18.5207 5.47811 19.7835 6.9987 20.6612C8.5193 21.539 10.2443 22.0007 12 22C13.7557 22.0007 15.4807 21.539 17.0013 20.6612C18.5219 19.7835 19.7845 18.5207 20.662 17M3.338 7C4.21552 5.47928 5.47811 4.21651 6.9987 3.33877C8.5193 2.46103 10.2443 1.99929 12 2C13.7557 1.99929 15.4807 2.46103 17.0013 3.33877C18.5219 4.21651 19.7845 5.47928 20.662 7M13 21.95C13 21.95 14.408 20.097 15.295 17M13 2.05C13 2.05 14.408 3.902 15.295 7M11 21.95C11 21.95 9.592 20.098 8.705 17M11 2.05C11 2.05 9.592 3.902 8.705 7M9 10L10.5 15L12 10L13.5 15L15 10M1 10L2.5 15L4 10L5.5 15L7 10M17 10L18.5 15L20 10L21.5 15L23 10" stroke="currentColor" stroke-linecap="round" stroke-linejoin="round" fill="none"></path>
  </symbol>
</svg>