<svg width="0" height="0" class="hidden">
  <symbol xmlns="http://www.w3.org/2000/svg" viewBox="0 0 24 24" id="ic_arr_down">
    <path d="M19 8.5L12 15.5L5 8.5" stroke="currentColor" stroke-linecap="round" stroke-linejoin="round" fill="none"></path>
  </symbol>
  <symbol xmlns="http://www.w3.org/2000/svg" viewBox="0 0 36 37" id="ic_close">
    <path d="M10.1367 26.3639L18.0007 18.5M25.8646 10.636L18.0007 18.5M18.0007 18.5L10.1367 10.636M18.0007 18.5L25.8646 26.3639" stroke="currentColor" stroke-width="1.5" stroke-linecap="round" stroke-linejoin="round" fill="none"></path>
  </symbol>
  <symbol xmlns="http://www.w3.org/2000/svg" viewBox="0 0 36 36" id="ic_feedback">
    <path d="M18 33C26.2845 33 33 26.2845 33 18C33 9.7155 26.2845 3 18 3C9.7155 3 3 9.7155 3 18C3 26.2845 9.7155 33 18 33Z" stroke="currentColor" stroke-width="1.5" stroke-linecap="round" stroke-linejoin="round" fill="none"></path>
    <path d="M13.5 13.5C13.5 8.25 21.75 8.25 21.75 13.5C21.75 17.25 18 16.5 18 21M18 27.015L18.015 26.9985" stroke="currentColor" stroke-width="1.5" stroke-linecap="round" stroke-linejoin="round" fill="none"></path>
  </symbol>
  <symbol xmlns="http://www.w3.org/2000/svg" viewBox="0 0 16 16" id="ic_github">
    <path d="M10.6654 14.6847V12.7714C10.6904 12.4535 10.6474 12.1339 10.5394 11.8339C10.4313 11.5339 10.2607 11.2603 10.0387 11.0314C12.132 10.798 14.332 10.0047 14.332 6.36469C14.3319 5.43391 13.9738 4.53882 13.332 3.86469C13.6359 3.05036 13.6144 2.15026 13.272 1.35136C13.272 1.35136 12.4854 1.11802 10.6654 2.33802C9.13737 1.92391 7.52669 1.92391 5.9987 2.33802C4.1787 1.11802 3.39203 1.35136 3.39203 1.35136C3.04962 2.15026 3.02813 3.05036 3.33203 3.86469C2.68545 4.54382 2.32705 5.447 2.33203 6.38469C2.33203 9.99802 4.53203 10.7914 6.62536 11.0514C6.40603 11.278 6.23687 11.5483 6.1289 11.8446C6.02093 12.141 5.97657 12.4567 5.9987 12.7714V14.6847M5.9987 13.3514C3.9987 14 2.33203 13.3514 1.33203 11.3514" stroke="currentColor" stroke-linecap="round" stroke-linejoin="round" fill="none"></path>
  </symbol>
  <symbol xmlns="http://www.w3.org/2000/svg" viewBox="0 0 16 16" id="ic_link_arrow">
    <path fill-rule="evenodd" clip-rule="evenodd" d="M14.0006 2.50035C14.0006 2.36774 13.948 2.24056 13.8542 2.14679C13.7604 2.05302 13.6332 2.00035 13.5006 2.00035H7.50063C7.36802 2.00035 7.24085 2.05302 7.14708 2.14679C7.05331 2.24056 7.00063 2.36774 7.00063 2.50035C7.00063 2.63295 7.05331 2.76013 7.14708 2.8539C7.24085 2.94767 7.36802 3.00035 7.50063 3.00035H12.2936L2.14663 13.1463C2.10014 13.1928 2.06327 13.248 2.03811 13.3088C2.01295 13.3695 2 13.4346 2 13.5003C2 13.5661 2.01295 13.6312 2.03811 13.6919C2.06327 13.7527 2.10014 13.8079 2.14663 13.8543C2.19312 13.9008 2.24831 13.9377 2.30905 13.9629C2.36979 13.988 2.43489 14.001 2.50063 14.001C2.56638 14.001 2.63148 13.988 2.69221 13.9629C2.75295 13.9377 2.80814 13.9008 2.85463 13.8543L13.0006 3.70735V8.50035C13.0006 8.63295 13.0533 8.76013 13.1471 8.8539C13.2408 8.94767 13.368 9.00035 13.5006 9.00035C13.6332 9.00035 13.7604 8.94767 13.8542 8.8539C13.948 8.76013 14.0006 8.63295 14.0006 8.50035V2.50035Z" fill="currentColor"></path>
  </symbol>
  <symbol xmlns="http://www.w3.org/2000/svg" viewBox="0 0 30 30" id="ic_notification">
    <path fill-rule="evenodd" clip-rule="evenodd" d="M24.5804 7.76158C24.5804 4.35574 22.2519 2.99042 18.8994 2.99042H11.0265C7.77703 2.99042 5.3418 4.26265 5.3418 7.53444V25.7639C5.3418 26.6626 6.30869 27.2285 7.09189 26.7892L14.9934 22.3568L22.8266 26.7817C23.611 27.2236 24.5804 26.6576 24.5804 25.7577V7.76158Z" stroke="currentColor" stroke-width="1.5" stroke-linecap="round" stroke-linejoin="round" fill="none"></path>
    <path d="M10.3828 11.3204H19.4436" stroke="currentColor" stroke-width="1.5" stroke-linecap="round" stroke-linejoin="round" fill="none"></path>
  </symbol>
  <symbol xmlns="http://www.w3.org/2000/svg" viewBox="0 0 16 16" id="ic_telegram">
    <path d="M13.9987 3.3335L1.33203 8.3335L5.9987 9.00016M13.9987 3.3335L12.332 13.3335L5.9987 9.00016M13.9987 3.3335L5.9987 9.00016M5.9987 9.00016V12.6668L8.1647 10.4822" stroke="currentColor" stroke-linecap="round" stroke-linejoin="round" fill="none"></path>
  </symbol>
  <symbol xmlns="http://www.w3.org/2000/svg" viewBox="0 0 18 18" id="ic_wallet">
    <path d="M14.25 15H3.75C2.92157 15 2.25 14.3285 2.25 13.5V6.75C2.25 5.92157 2.92157 5.25 3.75 5.25H14.25C15.0784 5.25 15.75 5.92157 15.75 6.75V13.5C15.75 14.3285 15.0784 15 14.25 15Z" stroke="currentColor" fill="none"></path>
    <path d="M12.375 10.5C12.1679 10.5 12 10.3321 12 10.125C12 9.91792 12.1679 9.75 12.375 9.75C12.5821 9.75 12.75 9.91792 12.75 10.125C12.75 10.3321 12.5821 10.5 12.375 10.5Z" fill="currentColor" stroke="currentColor" stroke-linecap="round" stroke-linejoin="round"></path>
    <path d="M13.5 5.25V4.20242C13.5 3.21687 12.5658 2.49913 11.6135 2.75306L3.3635 4.95307C2.70688 5.12817 2.25 5.72285 2.25 6.40242V6.75" stroke="currentColor" fill="none"></path>
  </symbol>
</svg>