<svg width="46" height="46" viewBox="0 0 46 46" fill="none" xmlns="http://www.w3.org/2000/svg">
<g clip-path="url(#clip0_3377_29539)" filter="url(#filter0_d_3377_29539)">
<path d="M11.7815 4.12446C11.6083 3.8358 11.2963 3.65918 10.9597 3.65918H1.69492C0.95001 3.65918 0.489902 4.47182 0.873154 5.11057L11.2232 22.3606C11.3963 22.6492 11.7083 22.8258 12.0449 22.8258H21.3097C22.0546 22.8258 22.5147 22.0132 22.1315 21.3745L11.7815 4.12446Z" fill="#800CDB"/>
<path fill-rule="evenodd" clip-rule="evenodd" d="M10.9569 2.70117H1.69213C0.202322 2.70117 -0.717896 4.32645 0.0486088 5.60396L10.3986 22.854C10.745 23.4313 11.3689 23.7845 12.0421 23.7845H21.3069C22.7968 23.7845 23.717 22.1592 22.9505 20.8817L12.6005 3.63172C12.2541 3.05441 11.6302 2.70117 10.9569 2.70117ZM10.9569 3.65951C11.2936 3.65951 11.6055 3.83613 11.7787 4.12478L22.1287 21.3748C22.512 22.0135 22.0518 22.8262 21.3069 22.8262H12.0421C11.7055 22.8262 11.3936 22.6496 11.2204 22.3609L0.870371 5.1109C0.487122 4.47214 0.947227 3.65951 1.69213 3.65951H10.9569Z" fill="#6303AF"/>
<path d="M21.7615 4.12446C21.9347 3.8358 22.2466 3.65918 22.5833 3.65918H31.8481C32.593 3.65918 33.0531 4.47182 32.6698 5.11057L22.3198 22.3606C22.1466 22.6492 21.8347 22.8258 21.4981 22.8258H12.2333C11.4883 22.8258 11.0282 22.0132 11.4115 21.3745L21.7615 4.12446Z" fill="#9B2EF0"/>
<path fill-rule="evenodd" clip-rule="evenodd" d="M22.586 2.70117H31.8508C33.3406 2.70117 34.2609 4.32645 33.4944 5.60396L23.1444 22.854C22.798 23.4313 22.1741 23.7845 21.5008 23.7845H12.236C10.7462 23.7845 9.826 22.1592 10.5925 20.8817L20.9425 3.63172C21.2889 3.05441 21.9128 2.70117 22.586 2.70117ZM22.586 3.65951C22.2494 3.65951 21.9375 3.83613 21.7643 4.12478L11.4143 21.3748C11.031 22.0135 11.4911 22.8262 12.236 22.8262H21.5008C21.8375 22.8262 22.1494 22.6496 22.3226 22.3609L32.6726 5.1109C33.0558 4.47214 32.5957 3.65951 31.8508 3.65951H22.586Z" fill="#6303AF"/>
<path fill-rule="evenodd" clip-rule="evenodd" d="M22.7628 4.20354C22.9917 4.33642 23.0695 4.62967 22.9366 4.85852L18.6241 12.2856C18.4912 12.5145 18.198 12.5923 17.9691 12.4594C17.7403 12.3265 17.6625 12.0332 17.7953 11.8044L22.1078 4.37731C22.2407 4.14846 22.534 4.07066 22.7628 4.20354Z" fill="#B860FE"/>
<path fill-rule="evenodd" clip-rule="evenodd" d="M1.67468 4.20354C1.44583 4.33642 1.36802 4.62967 1.50091 4.85852L5.81341 12.2856C5.94629 12.5145 6.23954 12.5923 6.46839 12.4594C6.69725 12.3265 6.77505 12.0332 6.64216 11.8044L2.32966 4.37731C2.19678 4.14846 1.90353 4.07066 1.67468 4.20354Z" fill="#9A1CFD"/>
<path d="M10.7799 5.23112C10.7799 5.57019 10.5118 5.84505 10.181 5.84505C9.85019 5.84505 9.58203 5.57019 9.58203 5.23112C9.58203 4.89205 9.85019 4.61719 10.181 4.61719C10.5118 4.61719 10.7799 4.89205 10.7799 5.23112Z" fill="#6303AF"/>
<path d="M8.67759 5.38086C8.67759 5.80262 8.34402 6.14453 7.93255 6.14453C7.52107 6.14453 7.1875 5.80262 7.1875 5.38086C7.1875 4.9591 7.52107 4.61719 7.93255 4.61719C8.34402 4.61719 8.67759 4.9591 8.67759 5.38086Z" fill="#6303AF"/>
<path d="M10.5409 7.56738C10.5409 7.98915 10.2073 8.33105 9.79583 8.33105C9.38435 8.33105 9.05078 7.98915 9.05078 7.56738C9.05078 7.14562 9.38435 6.80371 9.79583 6.80371C10.2073 6.80371 10.5409 7.14562 10.5409 7.56738Z" fill="#6303AF"/>
<path d="M12.245 6.52637C12.245 6.73725 12.0783 6.9082 11.8725 6.9082C11.6668 6.9082 11.5 6.73725 11.5 6.52637C11.5 6.31549 11.6668 6.14453 11.8725 6.14453C12.0783 6.14453 12.245 6.31549 12.245 6.52637Z" fill="#6303AF"/>
<path d="M8.30364 7.18555C8.30364 7.39643 8.13686 7.56738 7.93112 7.56738C7.72538 7.56738 7.55859 7.39643 7.55859 7.18555C7.55859 6.97466 7.72538 6.80371 7.93112 6.80371C8.13686 6.80371 8.30364 6.97466 8.30364 7.18555Z" fill="#6303AF"/>
<path d="M6.22942 4.84961C6.22942 5.06049 6.06264 5.23145 5.8569 5.23145C5.65116 5.23145 5.48438 5.06049 5.48438 4.84961C5.48438 4.63873 5.65116 4.46777 5.8569 4.46777C6.06264 4.46777 6.22942 4.63873 6.22942 4.84961Z" fill="#6303AF"/>
<path d="M11.874 9.19238C11.874 9.40326 11.7072 9.57422 11.5014 9.57422C11.2957 9.57422 11.1289 9.40326 11.1289 9.19238C11.1289 8.9815 11.2957 8.81055 11.5014 8.81055C11.7072 8.81055 11.874 8.9815 11.874 9.19238Z" fill="#6303AF"/>
<path d="M9.95598 9.57422C9.95598 9.7851 9.7892 9.95605 9.58346 9.95605C9.37772 9.95605 9.21094 9.7851 9.21094 9.57422C9.21094 9.36334 9.37772 9.19238 9.58346 9.19238C9.7892 9.19238 9.95598 9.36334 9.95598 9.57422Z" fill="#6303AF"/>
<path d="M13.6696 8.1888C13.6696 8.532 13.3981 8.81022 13.0633 8.81022C12.7285 8.81022 12.457 8.532 12.457 8.1888C12.457 7.8456 12.7285 7.56738 13.0633 7.56738C13.3981 7.56738 13.6696 7.8456 13.6696 8.1888Z" fill="#6303AF"/>
<path d="M14.4599 9.95605C14.4599 10.1669 14.2931 10.3379 14.0874 10.3379C13.8816 10.3379 13.7148 10.1669 13.7148 9.95605C13.7148 9.74517 13.8816 9.57422 14.0874 9.57422C14.2931 9.57422 14.4599 9.74517 14.4599 9.95605Z" fill="#6303AF"/>
<path d="M29.707 29.0547C29.707 36.1999 23.9147 41.9922 16.7695 41.9922C9.62435 41.9922 3.83203 36.1999 3.83203 29.0547C3.83203 21.9095 9.62435 16.1172 16.7695 16.1172C23.9147 16.1172 29.707 21.9095 29.707 29.0547Z" fill="#FFBB0D"/>
<path fill-rule="evenodd" clip-rule="evenodd" d="M30.6667 29.055C30.6667 36.7295 24.4453 42.9508 16.7708 42.9508C9.09638 42.9508 2.875 36.7295 2.875 29.055C2.875 21.3806 9.09638 15.1592 16.7708 15.1592C24.4453 15.1592 30.6667 21.3806 30.6667 29.055ZM16.7708 41.9925C23.916 41.9925 29.7083 36.2002 29.7083 29.055C29.7083 21.9098 23.916 16.1175 16.7708 16.1175C9.62565 16.1175 3.83333 21.9098 3.83333 29.055C3.83333 36.2002 9.62565 41.9925 16.7708 41.9925Z" fill="#E89B05"/>
<path fill-rule="evenodd" clip-rule="evenodd" d="M4.79167 29.5342C4.52703 29.5342 4.3125 29.3196 4.3125 29.055C4.3125 22.1745 9.89029 16.5967 16.7708 16.5967C17.0355 16.5967 17.25 16.8112 17.25 17.0758C17.25 17.3405 17.0355 17.555 16.7708 17.555C10.4196 17.555 5.27083 22.7037 5.27083 29.055C5.27083 29.3196 5.0563 29.5342 4.79167 29.5342Z" fill="#E8AA0A"/>
<path fill-rule="evenodd" clip-rule="evenodd" d="M28.7513 28.5762C29.0159 28.5762 29.2305 28.7907 29.2305 29.0553C29.2305 35.9359 23.6527 41.5137 16.7721 41.5137C16.5075 41.5137 16.293 41.2991 16.293 41.0345C16.293 40.7699 16.5075 40.5553 16.7721 40.5553C23.1234 40.5553 28.2721 35.4066 28.2721 29.0553C28.2721 28.7907 28.4867 28.5762 28.7513 28.5762Z" fill="#E8AA0A"/>
<path d="M26.3542 29.055C26.3542 34.3477 22.0636 38.6383 16.7708 38.6383C11.4781 38.6383 7.1875 34.3477 7.1875 29.055C7.1875 23.7623 11.4781 19.4717 16.7708 19.4717C22.0636 19.4717 26.3542 23.7623 26.3542 29.055Z" fill="#FFDD28"/>
<path fill-rule="evenodd" clip-rule="evenodd" d="M27.3138 29.0553C27.3138 34.8773 22.5941 39.597 16.7721 39.597C10.9501 39.597 6.23047 34.8773 6.23047 29.0553C6.23047 23.2333 10.9501 18.5137 16.7721 18.5137C22.5941 18.5137 27.3138 23.2333 27.3138 29.0553ZM16.7721 38.6387C22.0649 38.6387 26.3555 34.3481 26.3555 29.0553C26.3555 23.7626 22.0649 19.472 16.7721 19.472C11.4794 19.472 7.1888 23.7626 7.1888 29.0553C7.1888 34.3481 11.4794 38.6387 16.7721 38.6387Z" fill="#E89B05"/>
<path fill-rule="evenodd" clip-rule="evenodd" d="M16.7708 37.2008C21.2697 37.2008 24.9167 33.5538 24.9167 29.055C24.9167 28.7904 25.1312 28.5758 25.3958 28.5758C25.6605 28.5758 25.875 28.7904 25.875 29.055C25.875 34.0831 21.7989 38.1592 16.7708 38.1592C16.5062 38.1592 16.2917 37.9446 16.2917 37.68C16.2917 37.4154 16.5062 37.2008 16.7708 37.2008Z" fill="#ECC704"/>
<path fill-rule="evenodd" clip-rule="evenodd" d="M16.7721 20.9095C12.2733 20.9095 8.6263 24.5565 8.6263 29.0553C8.6263 29.32 8.41177 29.5345 8.14714 29.5345C7.8825 29.5345 7.66797 29.32 7.66797 29.0553C7.66797 24.0272 11.744 19.9512 16.7721 19.9512C17.0368 19.9512 17.2513 20.1657 17.2513 20.4303C17.2513 20.695 17.0368 20.9095 16.7721 20.9095Z" fill="#FFEF9C"/>
</g>
<defs>
<filter id="filter0_d_3377_29539" x="0" y="0" width="48" height="48" filterUnits="userSpaceOnUse" color-interpolation-filters="sRGB">
<feFlood flood-opacity="0" result="BackgroundImageFix"/>
<feColorMatrix in="SourceAlpha" type="matrix" values="0 0 0 0 0 0 0 0 0 0 0 0 0 0 0 0 0 0 127 0" result="hardAlpha"/>
<feOffset dx="2" dy="2"/>
<feColorMatrix type="matrix" values="0 0 0 0 0.637788 0 0 0 0 0.545996 0 0 0 0 0.47948 0 0 0 0.2 0"/>
<feBlend mode="normal" in2="BackgroundImageFix" result="effect1_dropShadow_3377_29539"/>
<feBlend mode="normal" in="SourceGraphic" in2="effect1_dropShadow_3377_29539" result="shape"/>
</filter>
<clipPath id="clip0_3377_29539">
<rect width="46" height="46" fill="white"/>
</clipPath>
</defs>
</svg>
