<svg width="65" height="58" viewBox="0 0 65 58" fill="none" xmlns="http://www.w3.org/2000/svg">
<path d="M0 29C0 22.58 0 19.37 0.65428 16.7265C2.61165 8.81809 8.71306 2.64313 16.5273 0.662167C19.1393 0 22.3111 0 28.6546 0H36.3454C42.6889 0 45.8607 0 48.4727 0.662167C56.2869 2.64313 62.3884 8.81809 64.3457 16.7265C65 19.37 65 22.58 65 29V29C65 35.42 65 38.6299 64.3457 41.2735C62.3884 49.1819 56.2869 55.3569 48.4727 57.3378C45.8607 58 42.6889 58 36.3454 58H28.6546C22.3111 58 19.1393 58 16.5273 57.3378C8.71306 55.3569 2.61165 49.1819 0.65428 41.2735C0 38.6299 0 35.42 0 29V29Z" fill="#950FFF"/>
<path d="M5.97266 30.6108C6.89435 33.2174 9.14106 35.5083 11.8297 37.2549C15.3787 39.5603 19.8088 40.9943 23.3367 40.9943H32.5117H41.6866C45.2145 40.9943 49.6446 39.5603 53.1936 37.2549C55.8822 35.5083 58.129 33.2174 59.0507 30.6108L42.8646 30.6424C37.9077 30.6424 33.7371 34.0478 32.5117 38.6731C31.2862 34.0478 27.1156 30.6424 22.1587 30.6424L5.97266 30.6108Z" fill="white"/>
<path d="M5.97266 43.8574C6.89435 46.464 9.14106 48.7549 11.8297 50.5014C15.3787 52.8069 19.8088 54.2409 23.3367 54.2409H32.5117H41.6866C45.2145 54.2409 49.6446 52.8069 53.1936 50.5014C55.8822 48.7549 58.129 46.464 59.0507 43.8574L42.8646 43.889C37.9077 43.889 33.7371 47.2943 32.5117 51.9197C31.2862 47.2943 27.1156 43.889 22.1587 43.889L5.97266 43.8574Z" fill="white"/>
<path d="M5.97266 14.4993C6.89435 11.8927 9.14106 9.60183 11.8297 7.85524C15.3787 5.54983 19.8088 4.11577 23.3367 4.11577H32.5117H41.6866C45.2145 4.11577 49.6446 5.54983 53.1936 7.85524C55.8822 9.60183 58.129 11.8927 59.0507 14.4993L42.8646 14.4677C37.9077 14.4677 33.7371 11.0624 32.5117 6.437C31.2862 11.0624 27.1156 14.4677 22.1587 14.4677L5.97266 14.4993Z" fill="white"/>
<path d="M5.97266 27.7461C6.89435 25.1395 9.14106 22.8487 11.8297 21.1021C15.3787 18.7967 19.8088 17.3626 23.3367 17.3626H32.5117H41.6866C45.2145 17.3626 49.6446 18.7967 53.1936 21.1021C55.8822 22.8487 58.129 25.1395 59.0507 27.7461L42.8646 27.7145C37.9077 27.7145 33.7371 24.3092 32.5117 19.6838C31.2862 24.3092 27.1156 27.7145 22.1587 27.7145L5.97266 27.7461Z" fill="white"/>
</svg>
