<svg width="700" height="274" viewBox="0 0 700 274" fill="none" xmlns="http://www.w3.org/2000/svg">
<rect width="700" height="274" rx="109" fill="#950FFF"/>
<path d="M310.319 124.885H344.116C364.698 124.885 380.838 122.177 380.838 104.304C380.838 92.3879 373.689 85.7801 360.906 84.5886C366.648 83.5053 375.205 79.8223 375.205 66.9317C375.205 52.1996 364.698 48.5165 343.358 48.5165H310.319V124.885ZM332.266 108.095C330.507 108.095 329.08 106.669 329.08 104.909V92.8212H345.199C354.948 92.8212 360.906 92.3879 360.906 100.404C360.906 108.42 355.273 108.095 345.199 108.095H332.266ZM329.08 77.4391V67.5179C329.08 65.7583 330.507 64.3319 332.266 64.3319H345.308C351.807 64.3319 356.14 64.2236 356.14 70.9397C356.14 77.8724 351.374 77.4391 345.308 77.4391H329.08Z" fill="white"/>
<path d="M465.862 86.6467C465.862 109.287 482.198 126.402 507.113 126.402C531.919 126.402 548.146 109.287 548.146 86.6467C548.146 64.1152 531.919 47 507.113 47C482.198 47 465.862 64.1152 465.862 86.6467ZM486.227 86.6467C486.227 72.8895 493.897 65.9355 507.113 65.9355C520.22 65.9355 527.89 72.7812 527.89 86.6467C527.89 100.512 520.328 107.466 507.113 107.466C493.897 107.466 486.227 100.512 486.227 86.6467Z" fill="white"/>
<path fill-rule="evenodd" clip-rule="evenodd" d="M559.36 49.124H624.319V66.1161H595.452L622.968 99.4016C625.513 95.6934 627.66 91.0294 629.189 85.1998L645.625 89.5125C643.108 99.1057 639.103 106.828 634.077 112.84L640.141 120.175L627.044 131.001L620.996 123.685C618.476 125.08 615.85 126.222 613.147 127.121C599.01 131.821 583.766 129.557 572.381 123.996C566.655 121.2 561.462 117.358 557.793 112.624C554.099 107.858 551.646 101.725 552.684 94.9545C553.725 88.168 558.007 82.4673 564.253 78.028C567.872 75.456 572.316 73.1746 577.601 71.1904L559.36 49.124ZM589.21 85.2342C582.063 87.32 577.218 89.6603 574.097 91.8783C570.365 94.5307 569.624 96.5918 569.48 97.5297C569.334 98.484 569.536 100.038 571.223 102.215C572.935 104.423 575.847 106.779 579.838 108.728C587.887 112.659 598.519 114.078 607.786 110.997C608.481 110.765 609.174 110.507 609.864 110.219L589.21 85.2342Z" fill="white"/>
<path d="M389.96 124.832H408.722V98.9428H435.954C437.713 98.9428 439.14 100.369 439.14 102.129V124.832H458.746V101.651C458.746 94.6098 455.063 88.002 444.556 88.002H439.724C449.755 87.3309 457.88 80.961 457.88 68.7203C457.88 51.93 440.981 48.4637 423.649 48.4637H389.96V124.832ZM408.722 81.8276V65.6872H423.649C431.99 65.6872 438.273 65.9039 438.273 73.8116C438.273 81.5026 432.423 81.8276 423.649 81.8276H408.722Z" fill="white"/>
<path d="M406 222H426.644L433.778 198.736H462.745L469.878 222H490.739L466.42 145H430.427L406 222ZM439.182 181.37L448.261 151.99L457.34 181.37H439.182Z" fill="black"/>
<path d="M495.642 222H515.314V200.921H525.69C549.577 200.921 560.169 192.838 560.169 173.07C560.169 153.082 549.577 145 525.69 145H495.642V222ZM515.314 183.555V162.366H526.879C536.39 162.366 540.606 164.987 540.606 173.07C540.606 180.933 536.39 183.555 526.879 183.555H515.314Z" fill="black"/>
<path d="M568.473 222H588.145V200.921H598.521C622.408 200.921 633 192.838 633 173.07C633 153.082 622.408 145 598.521 145H568.473V222ZM588.145 183.555V162.366H599.71C609.221 162.366 613.437 164.987 613.437 173.07C613.437 180.933 609.221 183.555 599.71 183.555H588.145Z" fill="black"/>
<path fill-rule="evenodd" clip-rule="evenodd" d="M311.915 145.766H376.874V162.758H348.008L375.523 196.044C378.069 192.336 380.215 187.672 381.745 181.842L398.18 186.155C395.663 195.748 391.659 203.471 386.633 209.483L392.696 216.817L379.599 227.644L373.551 220.328C371.031 221.723 368.405 222.864 365.703 223.763C351.566 228.464 336.321 226.199 324.936 220.638C319.21 217.842 314.017 214 310.348 209.266C306.654 204.5 304.201 198.367 305.239 191.597C306.28 184.81 310.563 179.11 316.809 174.67C320.427 172.098 324.871 169.817 330.156 167.833L311.915 145.766ZM341.765 181.876C334.618 183.962 329.773 186.303 326.653 188.521C322.921 191.173 322.179 193.234 322.035 194.172C321.889 195.126 322.092 196.68 323.778 198.857C325.49 201.065 328.403 203.421 332.393 205.37C340.442 209.301 351.074 210.72 360.341 207.639C361.036 207.408 361.73 207.149 362.42 206.862L341.765 181.876Z" fill="white"/>
<rect x="21.9197" y="21.5796" width="262" height="231" rx="88" fill="white"/>
<path d="M150.195 38H114C83.5489 38 57.3364 56.1477 45.5878 82.2177L50.551 84.4973C57.8163 87.8342 66.1837 87.8342 73.449 84.4973L135.099 56.1811C142.745 52.6696 148.222 45.9156 150.195 38Z" fill="black"/>
<path d="M42.7141 184.374C40.3036 177.019 39 169.162 39 161V113C39 104.838 40.3036 96.9814 42.7141 89.6257C51.4759 94.3696 57 103.537 57 113.568V160.432C57 170.463 51.4759 179.63 42.7141 184.374Z" fill="black"/>
<path d="M149.925 236H114C83.8716 236 57.8925 218.235 45.9662 192.609L50.551 190.503C57.8163 187.166 66.1837 187.166 73.449 190.503L135.099 218.819C142.421 222.182 147.754 228.518 149.925 236Z" fill="black"/>
<path d="M261.382 191.85C249.618 217.884 223.425 236 193 236H159.075C161.246 228.518 166.579 222.182 173.901 218.819L235.551 190.503C242.816 187.166 251.184 187.166 258.449 190.503L261.382 191.85Z" fill="black"/>
<path d="M264.139 89.1828C266.643 96.6657 268 104.674 268 113V161C268 169.326 266.643 177.334 264.139 184.817C254.884 180.218 249 170.785 249 160.432V113.568C249 103.215 254.884 93.7822 264.139 89.1828Z" fill="black"/>
<path d="M158.805 38H193C223.747 38 250.173 56.5024 261.751 82.9807L258.449 84.4973C251.184 87.8342 242.816 87.8342 235.551 84.4973L173.901 56.1811C166.255 52.6696 160.778 45.9156 158.805 38Z" fill="black"/>
<path d="M164.449 60.5027C157.184 57.1658 148.816 57.1658 141.551 60.5027L79.9006 88.8189C70.2082 93.2706 64 102.934 64 113.568V160.432C64 171.066 70.2082 180.729 79.9006 185.181L141.551 213.497C148.816 216.834 157.184 216.834 164.449 213.497L226.099 185.181C235.792 180.729 242 171.066 242 160.432V113.568C242 102.934 235.792 93.2707 226.099 88.8189L164.449 60.5027Z" fill="black"/>
<path d="M153 69C153 106.555 122.555 137 85 137C122.555 137 153 167.445 153 205C153 167.445 183.445 137 221 137C183.445 137 153 106.555 153 69Z" fill="white"/>
</svg>
