<svg width="150" height="150" viewBox="0 0 150 150" fill="none" xmlns="http://www.w3.org/2000/svg">
<path d="M110.596 92.4272C114.631 93.1772 111.766 85.9997 111.031 84.3872C109.276 80.6372 105.031 85.9997 102.923 88.1372C102.731 88.2962 102.585 88.5039 102.499 88.7387C102.414 88.9727 102.392 89.2254 102.436 89.4714C102.481 89.7167 102.589 89.9462 102.751 90.1359C102.913 90.3257 103.123 90.4697 103.358 90.5522C105.736 91.3029 108.152 91.9284 110.596 92.4272Z" fill="#950FFF"/>
<path d="M67.5548 93.9643C66.0173 100.024 83.8525 104.262 86.0425 99.2143C87.0625 96.7318 83.41 93.7318 77.86 92.3443C73.6898 91.2568 68.1398 91.6243 67.5548 93.9643Z" fill="#950FFF"/>
<path d="M137.993 65.9744C137.243 73.0619 133.71 80.052 127.178 83.0745C125.715 83.7495 123.728 84.5745 123.428 85.047C122.985 86.067 125.25 85.3395 125.91 85.1895C142.088 80.157 140.385 59.2319 138.038 59.7644C137.19 59.9594 138.435 62.2469 137.993 65.9744Z" fill="#950FFF"/>
<path d="M78.3698 25.2719C74.9347 25.4894 70.6222 24.7619 71.0647 20.4494C71.8147 15.7694 77.4923 12.7019 81.4373 10.8794C85.0223 9.19936 92.4023 6.85936 94.4498 11.3894C95.9498 14.7494 92.9873 18.3269 90.4298 20.5244C88.9673 21.7619 87.2873 22.6394 87.7223 23.2994C87.8723 23.5919 88.5248 23.3744 88.8173 23.2244C94.5173 20.7419 100.292 10.5869 92.5673 7.95436C85.7723 5.61436 70.8172 12.7019 69.6247 20.2994C68.4922 31.3769 90.3698 24.5219 78.3698 25.2719Z" fill="#950FFF"/>
<path d="M52.8674 46.1742C60.4649 45.7317 67.4099 42.8067 73.8674 38.8617C74.1599 41.7117 72.9149 44.5617 72.1124 47.3367C72.0374 47.4867 71.9699 47.7792 72.4799 47.9217C73.2299 48.0492 75.7125 43.3017 75.18 37.9842C81.7575 33.8217 87.57 28.2342 95.28 26.1492C102.99 24.0642 112.815 26.2242 115.958 34.1142C114.57 34.1142 112.305 34.0392 111.458 34.4067C110.61 34.7742 111.383 35.4642 113.138 35.4267C114.234 35.4154 115.331 35.4655 116.423 35.5767C117.923 41.2767 116.573 48.0717 111.825 51.6492C111.308 52.0167 111.968 52.6767 113.063 51.9417C118.178 48.6567 119.348 41.5692 118.035 35.7942C128.925 37.9092 132.233 44.3292 133.89 45.6567C136.928 48.1917 132.165 36.4992 117.743 34.3317C114.6 25.1967 103.763 22.3842 95.0175 24.7617C87.4575 26.8167 81.5175 31.9917 75.0675 36.3792C72.9449 25.9317 58.5674 21.3267 48.9749 23.9592C48.3974 24.1017 48.6899 24.9792 50.1449 24.8367C59.7224 23.8092 71.9999 27.1692 73.7474 37.2567C53.2349 50.8617 29.2724 44.4342 39.2474 30.2442C39.5399 29.8767 38.8799 29.2917 37.9274 30.2442C32.3024 35.8242 35.6999 47.2917 52.8674 46.1742Z" fill="#950FFF"/>
<path d="M18.1593 66.8742C13.4568 55.0542 38.7618 45.2667 38.7618 60.0042C38.1018 66.5817 31.3818 70.7442 25.1718 70.6017C22.2468 70.5267 22.3968 71.1867 22.7568 71.4042C29.7018 73.8117 39.9318 67.6017 40.2993 60.0792C40.7343 53.9367 35.4243 50.4192 29.7018 51.2367C22.9968 52.1967 14.4993 58.7367 16.7643 65.9967C17.3493 67.8042 18.3768 67.5117 18.1593 66.8742Z" fill="#950FFF"/>
<path d="M98.9962 39.0796C93.1012 42.2521 92.7862 49.7896 93.8062 50.5546C94.3162 50.9971 94.7512 50.2621 94.7512 49.0546C94.7512 43.4971 99.5062 40.4371 99.7237 39.5596C99.8587 39.0121 99.4162 38.7946 98.9962 39.0796Z" fill="#950FFF"/>
<path d="M62.9951 78.8745C64.7501 76.827 62.3351 73.2494 61.3151 71.8544C59.5601 69.5219 56.4926 73.0994 55.0301 74.5619C53.5676 76.0245 55.5401 79.752 57.0026 82.062C58.2776 84.027 61.1276 80.952 62.9951 78.8745Z" fill="#950FFF"/>
<path d="M74.3485 77.1569C73.471 79.6394 72.0985 83.3669 75.0086 84.4619C76.7636 85.1219 83.1161 86.6519 85.0211 87.0194C87.2711 87.4544 88.3361 86.7344 88.7711 85.5194C89.6261 83.0519 91.9811 78.8744 88.1861 77.2694C84.8404 76.1384 81.3874 75.3539 77.8811 74.9293C75.8111 74.8168 74.8585 75.5444 74.3485 77.1569Z" fill="#950FFF"/>
<path d="M84.8734 67.7294C96.9334 70.5044 100.661 61.6619 87.1234 59.2544C75.7459 57.2069 73.0383 65.0219 84.8734 67.7294Z" fill="#950FFF"/>
<path d="M22.1714 81.1246C32.6714 87.4096 50.4839 78.3721 37.2989 81.4171C23.8889 84.2746 14.7989 77.1571 23.8589 65.487C24.3689 64.827 25.5389 63.657 25.4639 63.147C25.3139 61.977 23.2739 64.0995 22.8314 64.5345C18.6689 68.8995 15.8939 77.2996 22.1714 81.1246Z" fill="white"/>
<path d="M128.28 49.4596C122.97 51.5371 128.865 61.2271 129.96 64.9546C130.98 67.8046 133.245 68.4571 135.877 67.8046C136.897 67.5121 136.972 66.4846 136.387 66.6346C131.175 67.3096 131.64 65.1946 128.79 57.8596C128.28 55.6696 126.232 52.0921 128.932 50.8471C131.49 49.9696 137.85 47.0971 140.04 48.5971C142.012 50.2771 145.155 60.0721 144.795 62.7046C144.502 64.0921 143.107 64.3846 141.87 64.8946C140.632 65.4046 140.992 66.1996 141.502 66.1321C146.97 65.4496 146.835 61.6321 145.372 57.4396C141.795 44.6371 140.16 44.8096 128.28 49.4596Z" fill="white"/>
<path d="M9.24073 110.187C9.99073 110.839 18.2408 115.369 22.3208 117.634C23.4158 118.219 23.3407 118.804 23.4157 119.682C23.4157 121.617 23.8807 121.744 31.1632 126.117C33.8632 127.617 35.4007 128.674 37.0057 127.572C38.7607 126.409 39.9307 127.137 41.5057 128.014C61.4932 138.844 57.0982 138.282 78.481 130.714C83.236 129.109 91.5685 126.214 88.981 126.042C87.5935 125.944 81.1585 128.382 78.016 129.402C57.0157 136.692 61.9358 137.569 40.8908 125.967C40.2226 125.55 39.4508 125.329 38.6632 125.329C37.8756 125.329 37.1039 125.55 36.4358 125.967C35.2508 126.717 34.0957 125.967 31.8307 124.797C29.5719 123.568 27.3766 122.227 25.2532 120.777C24.2332 120.094 25.4107 117.732 23.1382 116.464C22.4782 116.104 15.2482 111.867 11.3707 110.112C9.60823 109.309 8.28823 109.309 9.24073 110.187Z" fill="white"/>
<path d="M44.0255 136.625C48.4805 138.875 52.643 141.74 57.758 142.542C62.873 143.345 67.628 140.637 72.3005 139.107C81.6533 136.04 90.7883 132.312 99.9232 128.607C106.501 125.9 110.738 124.662 110.738 121.52C113.513 120.642 114.908 114.5 115.711 111.65C118.921 100.55 121.118 89.2171 123.526 77.8996C124.403 72.1995 126.818 66.357 125.941 60.507C124.846 56.2695 119.506 55.542 115.853 54.957C98.6857 52.3995 81.5107 50.1345 64.193 48.747C56.0105 48.087 52.793 48.087 50.693 56.9295C47.2191 69.8215 44.4648 82.8969 42.443 96.0947C30.3155 98.7272 9.48802 103.182 5.9855 105.305C3.4205 106.91 3.3755 110.367 4.298 112.805C5.6105 116.375 40.0505 134.615 44.0255 136.625ZM52.868 54.5745C54.668 48.9045 58.118 49.812 64.043 50.1195C75.5332 50.712 86.9933 52.452 98.4608 53.9145C120.533 57.447 126.428 55.3395 124.478 66.4095C123.286 72.9045 115.373 115.355 110.813 120.125C110.956 118.37 109.133 117.567 107.161 116.982C88.0132 110.772 58.1255 100.76 43.8005 95.9821C45.743 84.0271 48.743 68.1645 52.868 54.5745ZM6.09802 106.895C8.54302 104.645 31.6355 99.9496 40.598 97.7596C42.713 97.2496 43.373 97.2496 44.393 97.5422C63.143 103.385 87.8032 112.227 106.643 118.295C108.323 118.805 106.201 119.682 105.398 119.9C102.548 120.71 103.793 121.587 105.031 121.4C106.418 121.182 108.391 120.522 109.051 119.427C109.493 119.937 109.328 120.597 109.343 121.4C109.381 123.305 107.663 123.65 106.201 124.475C92.7533 130.475 78.7282 135.14 64.9505 140.225C57.2555 143.112 51.9905 139.19 44.783 135.477C31.703 128.825 18.3304 122.157 6.53299 113.405C4.78549 112.1 4.72552 108.02 6.09802 106.895Z" fill="white"/>
<path d="M80.7837 47.8545C82.7412 48.2444 89.9562 30.8294 83.9187 18.1844C83.7762 17.8169 82.8237 17.9669 83.2662 19.1369C85.8237 25.9319 85.0887 33.6044 82.9737 40.6919C81.2187 46.5344 79.9062 47.7044 80.7837 47.8545Z" fill="white"/>
<path d="M42.6396 54.3571C40.3896 54.5746 40.8096 55.9621 41.8296 55.8571C43.8058 55.8001 45.7837 55.8502 47.7546 56.0071C49.3371 56.2621 49.5621 53.6821 42.6396 54.3571Z" fill="white"/>
<path d="M33.7433 33.1621C34.3283 33.3871 34.6958 32.5096 33.5933 32.0671C29.6483 30.5671 34.4708 26.1496 36.4433 24.1771C39.2258 21.9871 43.0958 17.3071 44.8508 21.8371C46.2774 24.4431 47.4986 27.1563 48.5033 29.9521C50.5733 35.7646 43.6808 34.4071 40.6133 33.8971C39.8633 33.7471 39.2933 33.7471 39.2258 34.2571C39.1583 34.7671 40.1033 35.0671 42.0008 35.4271C53.1383 37.8196 51.5558 31.0846 46.1633 21.1096C43.0958 15.2596 38.7083 20.4496 35.4983 23.0821C32.4758 25.5646 27.2183 31.1146 33.7433 33.1621Z" fill="white"/>
<path d="M63.6068 46.977C63.8168 46.4595 63.0968 44.562 62.6543 43.617C58.4918 35.7195 58.4918 20.0145 64.9943 13.0695C67.6268 10.2945 71.6468 8.17196 76.0271 10.002C77.1971 10.512 77.7071 9.63446 77.1221 9.34196C73.3268 6.78449 68.0618 8.24696 64.7768 11.097C51.2093 24.4395 62.4593 49.8045 63.6068 46.977Z" fill="white"/>
<path d="M92.0348 42.1246C92.5673 43.1371 93.1298 42.7771 92.9873 41.3746C92.6948 38.5996 91.3223 33.4996 91.8173 32.6071C92.6573 31.1071 93.4223 31.1446 100.952 31.1446C108.482 31.1446 107.455 31.5871 108.917 38.5246C110.38 45.4621 110.38 46.3321 107.012 46.5646C104.327 46.7521 96.6248 46.6696 98.6873 47.9521C99.5648 48.5371 103.435 48.2446 108.107 48.0271C113.027 47.8396 111.107 42.7771 109.645 34.7971C108.7 29.4646 106.81 29.1871 93.8948 29.9746C90.8198 30.1246 89.9423 31.8796 90.3848 34.4746C90.8648 38.2096 91.6073 41.3746 92.0348 42.1246Z" fill="white"/>
<path d="M62.8072 94.7669C56.9047 93.3269 55.4797 92.7569 57.0322 87.0194C57.5422 85.2644 56.0797 85.7744 55.7197 87.1694C54.4447 91.6244 54.0622 94.1594 61.7197 95.8619C63.3922 96.2294 64.9222 95.2769 62.8072 94.7669Z" fill="white"/>
<path d="M26.5562 107.375C36.3062 113.007 53.0087 120.875 63.2387 125.795C69.1862 128.607 70.4462 128.667 80.924 125.352C82.019 124.985 83.0465 123.53 81.2165 124.04C71.6687 126.875 69.8237 127.227 63.8237 124.475C53.5937 119.652 36.9362 111.725 27.3587 106.137C26.1212 105.387 26.4813 104.675 27.5763 104.307C29.9163 103.557 32.1812 102.92 34.5962 102.335C38.4662 101.382 36.4188 100.73 34.8888 100.947C32.2563 101.382 27.9438 102.702 27.4338 102.845C25.0938 103.46 24.2162 106.017 26.5562 107.375Z" fill="white"/>
<path d="M29.9915 118.88C33.209 120.56 34.814 121.362 37.589 122.682C39.7115 123.702 41.534 123.432 38.9765 121.932C33.9065 119.165 28.184 116.367 26.924 115.287C24.8915 113.592 30.9965 112.287 30.0665 111.627C29.1365 110.967 25.7165 112.527 24.9515 113.877C23.624 116.285 28.2365 118.002 29.9915 118.88Z" fill="white"/>
<path d="M69.8167 78.4696C68.7967 78.2521 68.1367 78.0346 66.7492 77.8096C65.3617 77.5846 65.4292 78.9796 66.4567 79.2721C67.4675 79.5241 68.4916 79.7191 69.5242 79.8571C70.7692 80.0746 70.8367 78.7621 69.8167 78.4696Z" fill="white"/>
<path d="M106.068 95.0596C105.318 95.4946 104.455 99.1471 103.51 100.827C100.728 105.8 91.3751 100.902 90.6476 101.412C89.5526 102.162 91.5251 103.025 92.7626 103.385C100.143 105.365 103.87 106.167 105.993 98.4196C106.36 96.9571 107.245 94.3246 106.068 95.0596Z" fill="white"/>
<path d="M73.3288 60.3494C69.4963 59.8844 64.5538 58.9169 62.5813 61.9544C61.4188 63.7844 60.0988 67.4369 60.6088 68.0219C61.1188 68.6069 61.7112 68.0219 62.3637 66.1919C63.1662 63.9419 63.7513 62.5394 64.9213 61.9544C66.6763 60.9344 69.1588 61.5869 72.1588 61.6619C74.4988 61.7369 75.444 60.6419 73.3288 60.3494Z" fill="white"/>
<path d="M78.3667 87.9722C77.9714 88.7072 77.6759 89.4917 77.4892 90.3047C77.2717 91.1822 78.3667 91.4747 78.8767 90.5297C80.7517 87.0572 78.9217 86.8622 78.3667 87.9722Z" fill="white"/>
<path d="M83.9951 70.1369C83.6096 70.9201 83.3569 71.7613 83.2451 72.6269C83.2054 72.7883 83.2301 72.9589 83.3126 73.1028C83.3959 73.2467 83.5316 73.353 83.6914 73.3995C83.8511 73.4459 84.0221 73.4289 84.1699 73.352C84.3169 73.2752 84.4294 73.1444 84.4826 72.9869C84.8569 72.2496 85.1291 71.465 85.2926 70.6544C85.5551 69.7769 84.4376 69.1244 83.9951 70.1369Z" fill="white"/>
<path d="M110.815 78.6872C110.612 79.4372 110.305 80.5172 110.665 80.8847C111.415 81.6347 111.985 79.6397 112.127 79.1297C113.222 75.1847 114.325 72.2596 113.222 70.0696C112.352 68.3146 111.25 67.6546 106.472 66.1921C104.575 65.6071 100.855 64.6921 100.337 65.1721C99.4749 65.9896 102.587 66.6721 103.255 66.8521C113.185 69.5821 113.357 69.3496 110.815 78.6872Z" fill="white"/>
<path d="M93.4957 85.6248C94.7332 85.9173 96.9981 86.4273 98.2431 86.7948C99.4881 87.1623 100.433 85.9923 98.6107 85.4073C96.9307 84.8898 95.3932 84.5973 93.8632 84.2373C92.3332 83.8773 92.2432 85.3398 93.4957 85.6248Z" fill="white"/>
<path d="M34.3043 104.12C33.3518 104.555 34.6718 105.215 35.6918 105.8C32.9843 106.895 33.2769 107.187 33.5694 107.405C34.2369 108.072 36.6968 107.022 37.5893 106.655C38.4668 107.09 52.6418 113.667 57.3218 116.082C55.0718 117.027 54.1793 117.395 54.3968 117.762C55.0043 118.85 57.5168 117.605 59.0018 117.012C63.0968 119.21 67.5518 121.617 68.6468 121.835C69.4493 121.985 70.4768 121.55 68.8643 120.597C66.6743 119.277 62.6543 117.305 60.8318 116.285C64.4843 114.897 64.6268 114.785 68.1368 113.435C70.5443 114.53 72.8843 115.625 75.2246 116.795C72.2993 117.89 73.6718 119.105 74.8568 118.55C75.5359 118.192 76.2461 117.899 76.9796 117.672C78.4796 118.625 79.4621 119.172 80.0471 118.992C81.4571 118.49 79.9871 117.777 78.7346 116.945C81.5096 115.775 80.7071 114.897 79.9721 114.972C78.9371 115.199 77.9306 115.541 76.9721 115.992C74.6318 114.822 72.3668 113.742 70.0268 112.632C70.4693 112.415 70.7768 112.34 71.7818 111.882C73.6118 111.23 72.5318 110.06 70.9793 110.645C69.4268 111.23 69.2993 111.305 68.2718 111.74C64.1843 109.842 60.1644 108.162 56.0694 106.182C58.3194 105.087 57.8243 104.21 56.5118 104.502C55.7143 104.718 54.9325 104.989 54.1718 105.312C52.0268 104.298 49.8315 103.395 47.5943 102.605C46.5743 102.312 46.6418 103.265 47.7443 103.85C48.8468 104.435 52.3418 106.04 52.3418 106.04C51.6447 106.328 50.9828 106.695 50.3693 107.135C49.7168 107.72 50.6619 108.447 51.7569 107.937C52.8519 107.427 53.3693 107.187 54.1718 106.917L66.3743 112.467C63.8918 113.42 61.2594 114.44 59.2119 115.25C52.7094 111.74 46.4244 108.89 39.7119 105.822C40.3719 105.597 40.7319 105.455 41.6844 105.162C42.6369 104.87 42.8543 103.407 41.3168 103.775C40.1008 104.058 38.9055 104.424 37.7394 104.87C36.4944 104.78 35.2418 103.677 34.3043 104.12Z" fill="white"/>
<path d="M111.18 111.574C113.715 103.084 114.247 100.324 121.477 66.8518C122.017 64.3543 122.647 61.0768 119.437 60.0568C101.31 56.1118 81.9373 54.3718 63.3896 52.8193C54.6821 52.0693 55.3346 51.7918 51.4796 67.2193C49.4996 75.1845 47.7296 83.802 46.3571 91.917C46.1396 93.1545 46.3571 94.4745 47.8196 95.0595C66.5696 101.854 85.7473 107.629 104.745 113.547C109.792 115.152 110.595 113.374 111.18 111.574ZM105.255 112.227C92.9923 108.222 73.0046 103.227 48.6971 93.9645C46.9271 93.327 47.2571 93.432 50.8946 75.5445C52.1321 69.4843 53.8121 63.2668 55.5671 57.4243C56.6621 53.8468 58.0496 53.6743 61.4846 54.0643C79.2448 55.8193 98.0998 57.4993 115.635 60.6418C118.117 61.1518 121.185 61.2268 120.457 64.5118C117.24 80.367 114.39 95.937 109.792 111.499C109.275 113.329 106.492 112.624 105.255 112.227Z" fill="white"/>
<path d="M84.7951 114.935C85.9651 115.445 89.2576 116.69 90.4276 117.275C92.5426 118.295 91.5901 118.58 91.0801 118.88C89.9026 119.585 88.7476 120.124 88.5226 120.634C88.0876 121.512 90.2026 121.002 90.8626 120.71C94.4476 118.88 94.6651 117.492 91.0126 115.887C89.7676 115.37 86.5126 114.005 85.3126 113.637C82.0201 112.625 80.2426 113.42 84.7951 114.935Z" fill="white"/>
</svg>
