<svg width="126" height="117" viewBox="0 0 126 117" fill="none" xmlns="http://www.w3.org/2000/svg">
<path d="M0.949219 61.7308C3.10457 67.7536 8.35841 73.0468 14.6458 77.0825C22.9448 82.4094 33.3045 85.7229 41.5542 85.7229H84.4648C92.7145 85.7229 103.074 82.4094 111.373 77.0825C117.661 73.0468 122.914 67.7536 125.07 61.7308L87.2194 61.8038C75.628 61.8038 65.8752 69.6721 63.0095 80.3595C60.1439 69.6721 50.391 61.8038 38.7996 61.8038L0.949219 61.7308Z" fill="black"/>
<path d="M0.949219 92.3414C3.10457 98.3642 8.35841 103.657 14.6458 107.693C22.9448 113.02 33.3045 116.334 41.5542 116.334H84.4648C92.7145 116.334 103.074 113.02 111.373 107.693C117.661 103.657 122.914 98.3642 125.07 92.3414L87.2194 92.4144C75.628 92.4144 65.8752 100.283 63.0095 110.97C60.1439 100.283 50.391 92.4144 38.7996 92.4144L0.949219 92.3414Z" fill="black"/>
<path d="M0.949219 24.5014C3.10457 18.4786 8.35841 13.1854 14.6458 9.14972C22.9448 3.82282 33.3045 0.509277 41.5542 0.509277H84.4648C92.7145 0.509277 103.074 3.82282 111.373 9.14972C117.661 13.1854 122.914 18.4786 125.07 24.5014L87.2194 24.4284C75.628 24.4284 65.8752 16.5601 63.0095 5.87274C60.1439 16.5601 50.391 24.4284 38.7996 24.4284L0.949219 24.5014Z" fill="black"/>
<path d="M0.949219 55.112C3.10457 49.0892 8.35841 43.796 14.6458 39.7603C22.9448 34.4334 33.3045 31.1198 41.5542 31.1198H84.4648C92.7145 31.1198 103.074 34.4334 111.373 39.7603C117.661 43.796 122.914 49.0892 125.07 55.112L87.2194 55.039C75.628 55.039 65.8752 47.1707 63.0095 36.4833C60.1439 47.1707 50.391 55.039 38.7996 55.039L0.949219 55.112Z" fill="black"/>
</svg>
