<svg width="300" height="227" viewBox="0 0 300 227" fill="none" xmlns="http://www.w3.org/2000/svg">
<path d="M145.598 227C208.979 227 260.36 176.184 260.36 113.5C260.36 50.8157 208.979 0 145.598 0C82.2166 0 30.8359 50.8157 30.8359 113.5C30.8359 176.184 82.2166 227 145.598 227Z" fill="url(#paint0_linear_7146_83868)"/>
<path fill-rule="evenodd" clip-rule="evenodd" d="M244.613 185.851C245.658 185.483 246.759 184.993 247.608 184.284C248.616 183.442 249.025 182.357 249.301 181.215C249.654 179.748 249.795 178.185 250.224 176.716C250.383 176.17 250.688 175.964 250.819 175.872C251.15 175.641 251.485 175.579 251.8 175.602C252.173 175.629 252.686 175.769 253.023 176.387C253.071 176.476 253.134 176.611 253.176 176.796C253.206 176.931 253.226 177.355 253.259 177.53C253.34 177.96 253.408 178.391 253.471 178.823C253.684 180.264 253.806 181.487 254.476 182.81C255.385 184.607 256.296 185.706 257.532 186.193C258.727 186.663 260.156 186.575 261.981 186.206C262.155 186.164 262.327 186.128 262.497 186.099C263.301 185.96 264.071 186.483 264.229 187.276C264.387 188.068 263.875 188.84 263.078 189.014C262.911 189.051 262.747 189.085 262.585 189.117C260.118 189.721 257.263 191.876 255.603 193.763C255.092 194.345 254.343 195.972 253.579 197.01C253.015 197.776 252.382 198.28 251.85 198.459C251.493 198.579 251.193 198.56 250.945 198.5C250.584 198.412 250.285 198.219 250.055 197.911C249.93 197.743 249.814 197.518 249.759 197.23C249.732 197.092 249.729 196.74 249.73 196.58C249.574 196.051 249.384 195.534 249.245 194.999C248.914 193.724 248.264 192.917 247.492 191.85C246.77 190.852 245.995 190.225 244.858 189.725C244.711 189.689 243.517 189.4 243.096 189.234C242.481 188.991 242.187 188.584 242.081 188.365C241.9 187.993 241.881 187.667 241.917 187.396C241.971 186.996 242.153 186.654 242.475 186.378C242.674 186.206 242.972 186.039 243.371 185.957C243.68 185.894 244.498 185.857 244.613 185.851ZM251.612 183.773C251.667 183.895 251.726 184.018 251.788 184.141C253.12 186.772 254.61 188.241 256.42 188.954L256.481 188.977C255.27 189.866 254.173 190.86 253.335 191.813C252.99 192.205 252.534 193.02 252.04 193.856C251.592 192.415 250.859 191.396 249.937 190.121C249.232 189.148 248.494 188.415 247.587 187.818C248.291 187.461 248.962 187.043 249.547 186.554C250.521 185.74 251.165 184.797 251.612 183.773Z" fill="#950FFF"/>
<ellipse cx="15.4352" cy="91.3823" rx="5.43521" ry="5.37545" fill="#950FFF"/>
<path d="M62.4305 43.2131C62.5949 43.7829 63.1961 44.1108 63.7715 43.9443L62.4305 43.2131ZM62.4305 43.2131L61.9507 43.3538C60.5738 38.6586 57.8702 34.9973 53.7175 32.3469L53.7173 32.3468M62.4305 43.2131L61.9501 43.3517C62.1923 44.1914 63.0742 44.6667 63.9105 44.4246L63.9111 44.4244C64.7432 44.1823 65.2349 43.3089 64.9865 42.4689C63.3914 37.0306 60.2378 32.7673 55.4237 29.6933L53.7173 32.3468M53.7173 32.3468C52.984 31.8783 52.7661 30.9023 53.2419 30.1681M53.7173 32.3468L53.2419 30.1681M53.2419 30.1681C53.7123 29.4354 54.6915 29.2256 55.4236 29.6932L53.2419 30.1681Z" fill="#950FFF" stroke="#950FFF"/>
<path d="M113.252 45.0128L113.251 45.013C111.991 45.6491 110.916 45.607 110.057 45.1815C109.238 44.7767 108.64 44.0031 108.276 43.0431L108.276 43.0429C107.929 42.1271 107.791 41.0008 107.777 39.9364C107.764 38.9878 107.849 38.0553 107.992 37.3148C107.169 36.4924 106.274 35.7421 105.319 35.0694C97.7498 29.7337 86.5283 31.6407 77.7962 39.7942C76.3411 41.1536 75.229 43.2979 74.3844 45.9603C73.5424 48.6144 72.9815 51.7333 72.5962 54.9912L72.5961 54.9912C71.5515 63.8145 71.9331 73.5367 72.1134 78.131C72.1405 78.8202 72.163 79.394 72.1755 79.832L72.1755 79.8331C72.1868 80.2627 72.1723 80.6108 72.1481 80.8701C72.136 80.9994 72.1212 81.1099 72.1051 81.1993C72.092 81.2723 72.0715 81.3707 72.0357 81.4536C71.7419 82.1452 71.1957 82.336 70.8557 82.4002L70.8504 82.4011C70.3703 82.4864 69.9698 82.3949 69.647 82.2284L69.6444 82.2271C69.2039 81.9966 68.8541 81.5916 68.6969 81.0093L68.696 81.0057C68.6126 80.6872 68.5974 80.2842 68.6063 79.9064L68.6065 79.9012C68.6091 79.8248 68.6148 79.7496 68.6201 79.6837C68.6213 79.6687 68.6225 79.6543 68.6237 79.6405C68.6278 79.5898 68.6315 79.5458 68.6341 79.5022C68.6375 79.4477 68.6383 79.4067 68.637 79.375C68.6357 79.3426 68.6325 79.3329 68.6338 79.3376C68.3435 78.3299 68.0013 77.3429 67.6531 76.3386C67.6022 76.1919 67.5512 76.0448 67.5002 75.8972L67.4999 75.8962C66.1835 72.0575 64.4789 68.4538 62.5773 64.8405L63.0197 64.6077L62.5772 64.8405C62.0665 63.8699 61.5576 62.8956 61.048 61.9199C55.4936 51.2861 49.8543 40.4897 40.8304 32.5206L40.8303 32.5205C40.1791 31.945 40.1133 30.9472 40.6972 30.2945C41.2759 29.6428 42.2734 29.588 42.927 30.1607L42.9285 30.162C52.3584 38.4875 58.2509 49.7541 63.9493 60.6497C64.4264 61.562 64.9022 62.4717 65.3785 63.3769L65.3786 63.3769C66.5878 65.6754 67.7256 67.9814 68.742 70.3502C68.6939 64.9737 68.861 58.318 69.7624 52.3175C70.2329 49.1841 70.9178 46.217 71.8709 43.6704C72.8221 41.1287 74.0527 38.9724 75.6342 37.4949L75.6343 37.4948C85.4296 28.3482 98.3194 26.2724 107.146 32.4967L107.146 32.4968C107.91 33.036 108.645 33.6196 109.342 34.2453C114.078 26.3642 123.714 23.2738 132.245 27.1474C133.042 27.5081 133.391 28.4438 133.029 29.2357L133.029 29.2357L133.028 29.2387C132.662 30.0276 131.727 30.375 130.932 30.0155L130.932 30.0152C123.63 26.6997 115.37 29.569 111.629 36.6202C112.401 37.552 113.098 38.5498 113.699 39.6079C113.994 40.1271 114.54 41.2699 114.627 42.2944C114.727 43.4155 114.336 44.4646 113.252 45.0128ZM111.235 41.9292L111.236 41.9297C111.294 42.0831 111.339 42.1896 111.387 42.2678C111.408 42.3013 111.424 42.3226 111.437 42.3361C111.359 42.0081 111.21 41.6674 111.078 41.406C111.122 41.5923 111.174 41.768 111.235 41.9292Z" fill="#950FFF" stroke="#950FFF"/>
<rect x="92.6328" y="58.8867" width="197.556" height="70.4335" rx="24" fill="#B972FF"/>
<rect x="174.184" y="83.1338" width="66.6179" height="9.23718" rx="4.61859" fill="white"/>
<rect x="109.863" y="96.9893" width="131.274" height="9.23718" rx="4.61859" fill="white"/>
<ellipse cx="264.923" cy="94.6803" rx="11.4858" ry="11.5465" fill="#950FFF"/>
<rect x="10" y="117.773" width="197.556" height="70.4335" rx="24" fill="#CCCCCC"/>
<rect x="59.3906" y="142.021" width="66.6179" height="9.23718" rx="4.61859" fill="white"/>
<rect x="59.3906" y="155.877" width="131.274" height="9.23719" rx="4.61859" fill="white"/>
<ellipse cx="38.7163" cy="153.568" rx="11.4858" ry="11.5465" fill="#ABABAB"/>
<defs>
<linearGradient id="paint0_linear_7146_83868" x1="144.713" y1="-36.9584" x2="147.013" y2="361.637" gradientUnits="userSpaceOnUse">
<stop stop-color="#F2F2F2"/>
<stop offset="1" stop-color="#EFEFEF"/>
</linearGradient>
</defs>
</svg>
