<svg width="126" height="117" viewBox="0 0 126 117" fill="none" xmlns="http://www.w3.org/2000/svg">
<path d="M0.949219 61.7307C3.10457 67.7535 8.35841 73.0468 14.6458 77.0824C22.9448 82.4093 33.3045 85.7229 41.5542 85.7229H63.0095H84.4648C92.7145 85.7229 103.074 82.4093 111.373 77.0824C117.661 73.0468 122.914 67.7535 125.07 61.7307L87.2194 61.8037C75.628 61.8037 65.8752 69.6721 63.0095 80.3594C60.1439 69.6721 50.391 61.8037 38.7996 61.8037L0.949219 61.7307Z" fill="#393939"/>
<path d="M0.949219 92.3413C3.10457 98.3641 8.35841 103.657 14.6458 107.693C22.9448 113.02 33.3045 116.333 41.5542 116.333H63.0095H84.4648C92.7145 116.333 103.074 113.02 111.373 107.693C117.661 103.657 122.914 98.3641 125.07 92.3413L87.2194 92.4143C75.628 92.4143 65.8752 100.283 63.0095 110.97C60.1439 100.283 50.391 92.4143 38.7996 92.4143L0.949219 92.3413Z" fill="#393939"/>
<path d="M0.949219 24.5015C3.10457 18.4786 8.35841 13.1854 14.6458 9.14975C22.9448 3.82285 33.3045 0.5093 41.5542 0.5093H63.0095H84.4648C92.7145 0.5093 103.074 3.82285 111.373 9.14975C117.661 13.1854 122.914 18.4786 125.07 24.5015L87.2194 24.4284C75.628 24.4284 65.8752 16.5601 63.0095 5.87276C60.1439 16.5601 50.391 24.4284 38.7996 24.4284L0.949219 24.5015Z" fill="#393939"/>
<path d="M0.949219 55.1118C3.10457 49.089 8.35841 43.7958 14.6458 39.7601C22.9448 34.4332 33.3045 31.1197 41.5542 31.1197H63.0095H84.4648C92.7145 31.1197 103.074 34.4332 111.373 39.7601C117.661 43.7958 122.914 49.089 125.07 55.1118L87.2194 55.0388C75.628 55.0388 65.8752 47.1705 63.0095 36.4831C60.1439 47.1705 50.391 55.0388 38.7996 55.0388L0.949219 55.1118Z" fill="#393939"/>
</svg>
