<svg width="300" height="300" viewBox="0 0 300 300" fill="none" xmlns="http://www.w3.org/2000/svg">
<path d="M123.301 59.5603C104.881 72.7303 125.206 101.56 143.911 86.1853C161.896 71.2603 140.266 47.7253 123.301 59.5603Z" fill="#950FFF"/>
<path d="M197.282 154.901C195.415 154.269 193.378 154.371 191.582 155.186C193.187 153.581 196.997 148.165 192.752 149.05C190.562 149.485 190.712 152.561 190.127 154.466C189.392 152.561 189.092 149.08 187.487 149.05C184.127 148.975 185.987 153.431 188.522 155.186C184.862 153.581 180.872 155.081 183.107 157.391C183.827 158.126 186.767 157.526 188.657 157.091C185.447 159.146 184.157 164.261 187.637 163.226C188.657 162.941 189.677 159.731 190.262 157.976C190.847 159.731 191.882 162.941 192.902 163.226C195.977 164.111 195.242 160.016 191.882 157.091C194.807 158.261 200.657 157.661 197.282 154.901Z" fill="#950FFF"/>
<path d="M172.501 137.35C171.294 136.705 169.915 136.449 168.556 136.615C170.056 135.895 173.671 132.97 170.311 132.67C169.291 132.535 168.271 133.84 167.311 135.895C167.161 134.575 167.461 131.95 166.291 131.65C164.101 131.065 164.536 134.14 165.991 136.03C161.491 132.685 158.311 137.935 165.856 137.35C163.366 138.085 161.611 141.595 164.101 141.295C164.971 141.295 166.141 139.795 166.876 138.295C167.026 139.6 167.161 141.955 167.896 142.39C169.771 143.455 169.951 140.635 168.196 137.995C170.671 139.54 174.286 140.02 172.501 137.35Z" fill="#950FFF"/>
<path d="M133.681 169.526C132.076 168.641 130.321 170.831 128.566 171.716C129.586 169.661 131.191 165.281 127.546 165.866C125.941 166.151 126.811 169.811 126.811 171.716C125.491 170.216 124.036 167.216 122.431 167.771C118.471 169.526 123.301 172.001 125.431 172.886C122.791 173.171 117.271 174.716 121.036 176.831C122.806 177.821 124.546 175.661 126.151 174.641C124.261 177.716 124.261 182.831 127.471 180.191C128.341 179.471 128.056 176.681 128.056 174.926C129.226 176.426 130.531 179.141 132.301 178.736C135.796 177.926 131.716 174.641 129.301 173.621C131.491 173.321 136.756 171.281 133.681 169.526Z" fill="#950FFF"/>
<path d="M141.588 133.66C144.063 133.225 141.723 131.185 138.948 131.185C140.268 130.6 143.193 128.11 140.853 127.96C140.268 127.96 139.098 128.545 138.213 130.3C138.513 128.8 138.363 125.62 136.458 126.94C135.738 127.525 136.608 129.28 137.193 130.6C135.438 129.28 134.193 128.845 133.683 129.1C131.778 129.835 133.683 131.59 136.458 131.59C134.118 132.175 132.513 134.59 134.568 134.8C135.288 134.95 136.458 133.3 137.343 132.475C136.908 135.25 137.628 137.29 139.098 135.835C139.533 135.385 138.798 133.345 138.513 132.175C139.503 132.82 140.853 133.84 141.588 133.66Z" fill="#950FFF"/>
<path d="M187.637 59.125C183.392 58.54 179.162 67.03 178.712 69.505C177.637 74.4369 178.421 79.5922 180.917 83.98C181.967 85.72 184.277 83.545 183.392 81.94C180.392 76.675 180.182 68.335 185.447 63.22C185.147 66.445 187.352 69.07 189.392 68.485C190.127 68.2 190.127 67.465 189.677 66.88C187.247 63.625 189.272 59.125 187.637 59.125Z" fill="#950FFF"/>
<path d="M208.395 51.6701C211.62 51.9701 215.895 48.6701 216.885 45.3851C219.075 37.7801 208.53 36.2801 206.79 43.6301C206.484 45.464 206.339 47.321 206.355 49.1801C203.715 55.0301 200.205 58.4051 200.355 62.2001C200.703 63.6011 201.447 64.8719 202.5 65.8601C208.785 72.8801 207.765 89.2451 194.46 88.2251C194.073 88.1954 193.691 88.3162 193.392 88.5622C193.092 88.8082 192.9 89.1605 192.855 89.5451C193.005 91.3001 194.61 91.3001 195.855 91.3001C209.445 91.1501 212.82 73.4501 204.765 64.1051C201.555 60.2801 203.445 61.5551 208.395 51.6701ZM212.055 41.4401C216.735 41.7851 212.79 48.3101 209.28 48.4601C209.13 46.2551 209.43 41.2451 212.055 41.4401Z" fill="#950FFF"/>
<path d="M157.954 130.48C157.084 129.745 155.614 130.915 154.444 131.365C155.329 130.195 156.649 126.865 154.444 127.555C153.139 127.99 153.574 130.045 153.424 131.215C152.689 130.195 151.924 128.14 151.084 128.215C148.309 128.5 151.084 130.705 152.404 131.575C150.799 131.425 147.904 132.595 149.179 133.615C150.064 134.215 151.519 133.18 152.689 132.745C151.669 134.065 150.499 136.84 152.689 136.54C153.424 136.405 153.574 134.215 153.724 133.045C154.309 134.065 155.329 135.955 156.064 135.955C157.804 135.82 156.934 133.765 154.744 132.46C156.199 132.67 159.709 131.95 157.954 130.48Z" fill="#950FFF"/>
<path d="M182.087 181.51C179.597 175.51 174.032 175.96 166.292 180.34C163.952 173.47 154.592 152.41 142.607 147.01C141.587 146.425 140.267 147.145 139.382 147.88C138.212 148.9 131.567 156.655 131.492 160.315C131.532 160.831 131.719 161.325 132.029 161.74C132.34 162.154 132.762 162.471 133.247 162.655C140.177 165.895 143.912 169.225 151.247 187.795C141.302 192.775 128.747 198.91 118.352 204.025C111.032 191.305 103.877 168.355 124.637 164.11C124.964 164.071 125.278 163.96 125.556 163.783C125.834 163.606 126.068 163.369 126.242 163.09C129.017 159.28 129.752 155.71 125.222 155.59C123.902 155.59 125.912 153.34 130.187 148.57C131.087 147.565 131.942 146.08 129.017 146.08C108.107 145.645 95.5367 163.915 94.0817 175.33C92.9117 184.675 94.9517 195.055 103.877 211.435C96.1217 215.245 91.1567 217.435 95.8367 226.645C99.0467 233.515 105.482 249.46 111.917 257.35C122.297 270.07 145.397 282.85 171.572 267.73C200.357 251.26 203.717 220.99 182.087 181.51Z" fill="#950FFF"/>
<path d="M194.653 86.77C193.333 82.525 191.878 78.58 190.153 76.375C185.758 71.005 181.948 74.53 184.738 75.655C187.528 76.78 189.568 80.035 191.908 87.355C194.248 94.675 199.648 115.27 201.403 122.59C203.743 131.59 203.158 135.445 195.268 138.37C191.758 139.69 171.148 145.87 163.243 147.595C160.318 148.165 161.743 150.955 165.883 149.92C203.383 140.56 208.663 139.42 204.628 122.92C202.693 115.135 199.498 103.135 194.653 86.77Z" fill="white"/>
<path d="M65.1133 142.03C67.9933 133.36 69.6135 135.13 84.8385 134.53C88.9335 134.38 89.6685 131.83 86.3385 131.905C69.8385 132.265 65.8633 130.165 62.2183 141.115C60.5983 145.795 48.9133 203.545 47.8783 210.565C46.8433 217.585 50.6685 220.945 57.6735 220.945H81.6735C84.8835 220.945 84.4485 218.02 78.7485 218.02H57.5085C52.2435 218.02 49.7533 216.265 50.4883 211C51.9433 204.025 63.4933 146.56 65.1133 142.03Z" fill="white"/>
<path d="M27.391 260.905C44.341 261.64 87.9162 262.405 92.0112 262.225C100.201 262.075 99.511 259.225 94.786 259.15C88.066 259 32.791 258.265 24.286 257.98C21.001 257.83 21.241 260.605 27.391 260.905Z" fill="white"/>
<path d="M169.216 117.16C165.406 118.045 147.871 122.71 144.361 123.88C140.851 125.05 141.721 127.39 146.836 126.085C168.361 120.385 175.756 116.95 178.336 122.71C179.071 125.05 178.186 128.125 174.676 130.21C173.521 130.795 174.091 132.835 176.731 131.71C184.861 127.975 182.266 114.505 169.216 117.16Z" fill="white"/>
<path d="M163.65 75.655C160.875 76.675 160.44 79.75 162.78 79.015C165.12 78.28 168.78 77.41 172.725 76.525C175.605 75.955 176.25 71.455 163.65 75.655Z" fill="white"/>
<path d="M133.095 116.155C135.585 116.305 137.595 112.795 139.245 110.89C142.785 113.89 147.015 114.175 148.155 109.57C150.255 110.77 153.555 110.275 153.855 108.07C155.97 108.67 158.355 108.19 158.97 106.165C164.1 107.665 166.575 101.92 162.93 103.39C160.14 104.545 157.2 101.425 156.195 105.43C153.93 104.935 151.23 104.86 151.23 107.185C149.73 106.9 147.57 105.865 146.55 106.6C145.38 107.62 146.115 109.675 144.645 109.96C143.175 110.245 140.7 107.335 138.945 107.62C137.19 107.905 135 112.75 133.68 113.035C132.36 113.32 132 111.16 130.5 112.06C128.715 112.93 130.605 116.005 133.095 116.155Z" fill="white"/>
<path d="M215.566 242.921C214.681 244.961 216.436 245.921 218.926 242.771C221.926 242.771 233.926 242.621 236.476 242.621C239.026 242.621 236.326 239.771 232.231 239.846C228.136 239.921 224.476 239.996 220.831 239.996C221.295 239.289 221.796 238.608 222.331 237.956C224.835 238.085 227.346 237.984 229.831 237.656C232.756 237.221 232.606 235.466 228.661 235.166C227.254 235.049 225.843 235.004 224.431 235.031C225.931 232.241 223.846 231.221 220.921 235.031C215.356 235.166 214.186 236.786 214.636 237.371C215.086 237.956 218.146 237.956 218.866 237.956C218.413 238.668 217.912 239.351 217.366 239.996C213.646 239.591 210.076 242.306 215.566 242.921Z" fill="white"/>
<path d="M242.611 220.841C249.781 220.841 253.576 217.481 252.406 210.461C251.236 203.441 239.686 145.69 238.081 141.01C234.091 129.655 230.671 132.01 211.321 132.01C207.811 132.01 210.736 134.65 214.681 134.65C231.916 134.65 232.771 133.915 235.441 141.955C237.061 146.635 248.611 203.95 249.631 210.955C250.501 216.22 248.026 217.976 242.611 217.976H218.491C213.076 217.976 212.056 220.975 216.151 220.9C220.246 220.825 235.156 220.841 242.611 220.841Z" fill="white"/>
<path d="M210.586 247.301C207.376 247.301 206.641 250.091 214.981 250.091C223.321 250.091 255.331 250.526 260.311 247.301C262.351 245.996 260.596 242.921 257.671 240.581C251.821 235.901 251.416 238.646 253.171 240.146C254.926 241.646 258.871 244.526 256.681 245.261C251.086 247.451 223.021 247.451 210.586 247.301Z" fill="white"/>
<path d="M203.716 259.3C199.921 259.435 202.216 261.775 205.906 262.075C210.586 262.36 269.221 261.64 274.486 261.055C279.751 260.47 279.751 258.055 276.541 257.98L203.716 259.3Z" fill="white"/>
<path d="M175.648 87.9402C176.518 88.3752 180.463 87.2052 181.348 87.6402C182.233 88.0752 183.838 91.6152 184.858 91.3002C185.878 90.9852 185.293 86.9052 185.878 86.0352C186.463 85.1652 189.538 84.4302 189.088 83.0352C188.803 82.3002 186.178 81.8652 185.728 81.2802C184.423 76.8852 184.123 77.7702 182.368 79.3752C182.701 80.2794 183.091 81.1611 183.538 82.0152C184.558 83.6202 182.218 85.8102 181.048 84.0552C180.454 83.0878 179.919 82.0861 179.443 81.0552C178.123 81.0552 176.233 80.7702 175.648 81.3552C174.913 82.2252 177.838 83.8452 177.838 84.5652C177.838 85.2852 174.763 87.4902 175.648 87.9402Z" fill="white"/>
<path d="M7.5 264.566C7.5 274.361 11.31 276.086 19.35 276.401C21.825 276.506 107.22 276.311 111.6 276.401C115.26 276.476 113.505 273.626 109.71 273.626C105.915 273.626 25.92 273.776 19.71 273.626C12.54 273.326 10.71 272.306 10.71 264.626C10.71 254.891 12.21 256.841 36.87 238.451C42.975 233.951 46.965 231.281 53.685 231.131C58.08 230.996 80.595 231.281 83.085 231.131C85.575 230.981 84.585 228.206 80.445 228.206C50.445 228.206 48.795 227.276 41.445 231.581C41.73 216.581 55.035 154.661 58.11 141.655C61.185 128.65 66.885 127.915 74.775 127.915C77.775 127.915 81.51 127.765 85.74 127.765C89.97 127.765 87.06 124.99 84.57 124.99C67.935 124.99 58.14 124.465 55.335 140.92C54.315 146.62 37.05 219.581 38.835 233.336C10.275 254.546 7.5 252.731 7.5 264.566Z" fill="white"/>
<path d="M120 121.12C122.34 120.97 126.585 119.515 125.55 117.025C125.265 116.305 123.66 115.72 122.34 115.855C123.945 114.25 122.775 110.59 120 111.625C119.46 111.778 118.984 112.103 118.645 112.552C118.306 113 118.123 113.546 118.123 114.108C118.123 114.67 118.306 115.216 118.645 115.664C118.984 116.112 119.46 116.437 120 116.59C117.6 117.61 116.715 121.27 120 121.12Z" fill="white"/>
<path d="M70.6639 236.485C74.4589 236.485 73.4389 233.41 62.9089 233.86C59.3989 233.995 59.9089 236.485 61.6039 236.485H70.6639Z" fill="white"/>
<path d="M94.6513 144.16C95.3713 146.785 97.5763 144.295 96.8413 141.37C85.8763 97.5099 81.0013 101.74 110.881 93.1599C113.881 92.2899 111.466 90.1599 108.241 90.9699C103.315 92.1213 98.4772 93.6252 93.7663 95.4699C81.9163 100.405 83.2363 102.985 94.6513 144.16Z" fill="white"/>
<path d="M196.412 185.021C191.147 173.171 187.787 168.206 173.747 175.226C169.952 165.431 159.857 145.225 145.817 137.5C142.172 135.445 137.927 140.125 136.457 141.595C132.662 145.255 135.737 147.01 139.832 147.01C136.172 150.371 127.247 155.186 133.397 158.111C142.022 162.206 145.082 164.846 153.272 185.111C142.172 190.511 128.717 196.946 117.167 202.511C110.882 192.011 98.5966 161.861 123.017 157.616C125.642 157.181 127.247 154.256 128.567 152.351C131.492 147.97 132.227 146.215 131.342 145.195C130.457 144.175 128.567 144.16 125.057 145.195C127.112 142.405 137.192 134.515 128.057 134.08C121.472 133.69 115.457 136.615 128.927 130.72C131.567 129.55 130.667 127.72 127.187 128.815C120.557 130.885 117.827 132.61 116.687 135.25C96.5116 141.25 86.6866 156.251 85.1866 168.881C83.6866 180.431 87.0916 194.606 96.8866 212.381C86.6416 217.496 82.8766 220.121 87.9616 231.236C99.6616 256.391 110.192 283.871 144.407 283.871C184.697 283.871 222.932 243.026 207.857 210.176C205.502 205.046 200.357 193.946 196.412 185.021ZM134.417 155.486C136.022 152.846 143.777 148.9 143.417 146.275C143.282 144.52 140.057 144.67 137.867 144.085C138.152 143.35 142.367 139.06 144.152 139.84C157.172 145.66 167.552 167.471 171.062 176.396C167.402 178.151 162.062 180.776 156.062 183.701C147.872 163.961 143.342 159.281 134.417 155.486ZM88.3516 169.376C91.1416 148.9 111.467 137.065 126.527 136.765C129.527 136.765 127.832 138.07 127.247 138.67C120.377 145.75 119.132 149.17 128.867 147.445C127.339 150.233 125.304 152.711 122.867 154.751C95.0866 160.451 106.787 190.571 114.677 203.741C109.127 206.516 103.997 208.856 100.052 210.896C90.2566 193.661 86.7466 181.211 88.3516 169.376ZM176.522 272.021C145.817 289.421 121.112 278.891 109.847 265.151C102.542 256.151 96.1066 240.581 90.9916 229.901C87.7666 223.331 88.3516 220.691 93.3316 217.631C96.9916 215.426 124.187 202.421 146.117 191.741C186.452 172.241 185.807 169.031 193.772 186.191C197.732 194.381 203.717 206.801 205.907 211.916C212.057 226.391 206.792 254.756 176.522 272.021Z" fill="white"/>
<path d="M261.764 233.411C263.519 219.671 246.419 146.86 245.264 141.01C242.924 128.14 235.604 125.65 227.864 125.065C222.656 124.703 217.429 124.703 212.219 125.065C208.709 125.515 206.504 128.065 210.164 128.065C228.164 128.065 238.364 124.42 242.339 141.67C245.339 154.526 259.154 216.971 258.704 231.446C255.173 229.068 250.951 227.934 246.704 228.221C242.324 228.221 219.209 228.221 216.704 228.371C214.199 228.521 212.204 231.146 215.969 231.146C253.124 231.146 251.744 229.721 263.489 238.646C288.419 257.216 289.664 255.146 289.664 264.821C289.664 272.576 287.759 273.596 280.589 273.821C274.454 273.971 194.909 273.821 190.589 273.821C186.269 273.821 183.284 276.896 187.589 276.896C187.589 276.896 278.249 276.896 280.589 276.746C288.644 276.461 292.259 274.556 292.439 264.911C292.694 253.031 290.999 255.326 261.764 233.411Z" fill="white"/>
<path d="M215.414 41.4401C220.529 35.5901 229.739 23.6051 231.359 20.4401C233.249 16.6451 231.059 15.4751 229.739 17.4401C228.419 19.4051 214.499 38.8001 211.619 41.7251C210.734 42.4601 211.904 45.5351 215.414 41.4401Z" fill="white"/>
<path d="M58.094 239.696C56.7722 239.678 55.4507 239.729 54.134 239.846C50.774 239.996 49.319 241.901 51.359 242.336C53.1031 242.576 54.864 242.672 56.624 242.621C56.039 244.376 55.889 245.261 56.624 245.261C57.359 245.261 58.814 244.826 59.849 242.621L80.174 242.771C81.194 244.961 81.344 245.546 82.364 245.546C83.384 245.546 83.969 244.826 83.384 242.771C86.594 242.771 86.894 242.336 87.329 241.751C88.064 241.016 86.744 239.846 82.214 239.846C81.929 239.126 81.479 238.091 80.894 236.636C79.874 234.146 76.514 233.276 77.534 236.201C78.269 237.956 79.034 239.846 79.034 239.846C73.904 239.846 63.089 239.696 61.334 239.696C61.739 237.371 60.134 236.921 58.094 239.696Z" fill="white"/>
<path d="M142.169 50.8001C122.429 42.8951 101.804 63.5201 110.294 83.2601C112.166 87.5883 115.27 91.2695 119.221 93.8438C123.172 96.4182 127.794 97.7715 132.509 97.7351C161.894 97.6601 166.499 60.4451 142.169 50.8001ZM153.134 82.6601C145.814 98.4401 118.769 98.5901 113.069 82.0751C107.069 64.9601 119.939 52.3901 134.264 52.0751C148.589 51.7601 159.269 69.3701 153.134 82.6601Z" fill="white"/>
<path d="M47.4131 236.92C45.9131 236.335 39.8081 241.75 38.4131 244.42C37.0181 247.09 38.8482 249.1 42.5082 249.25C56.9832 250.27 83.2931 250.135 89.1431 249.835C94.9931 249.535 93.5381 247.345 91.4831 247.345C86.6531 247.495 55.3482 247.465 43.9631 246.475C42.6431 246.355 40.6032 246.325 42.2082 244.42C46.2432 239.26 48.7331 237.37 47.4131 236.92Z" fill="white"/>
<path d="M133.98 76.3748C144.795 73.8998 140.265 57.8198 129.3 61.0298C120 63.8048 123 78.8648 133.98 76.3748Z" fill="white"/>
<path d="M114.376 109.135C106.051 112.645 110.146 126.235 118.336 125.515C125.206 124.93 155.836 116.89 162.781 113.665C172.141 109.57 173.161 106.36 172.576 102.85C171.841 99.0401 168.916 95.5301 157.951 97.5851C150.346 98.9051 120.226 106.795 114.376 109.135ZM169.366 106.36C166.576 113.08 124.471 122.29 119.056 123.025C112.051 123.895 110.296 114.025 115.111 111.76C120.676 108.985 154.006 100.51 162.931 99.3401C167.611 98.7551 171.121 101.965 169.366 106.36Z" fill="white"/>
<path d="M173.459 242.921C171.839 241.016 166.064 235.421 162.044 231.521C161.552 231.002 161.199 230.366 161.021 229.673C160.842 228.98 160.844 228.252 161.024 227.561C161.601 225.647 161.781 223.635 161.555 221.649C161.327 219.663 160.697 217.745 159.704 216.011C150.929 202.706 128.999 215.876 137.339 229.901C141.014 235.901 145.739 233.996 146.249 238.541C147.239 247.181 145.814 263.096 155.609 259.436C159.704 257.936 171.704 251.936 173.459 250.526C174.06 250.091 174.549 249.518 174.887 248.858C175.224 248.196 175.4 247.464 175.4 246.723C175.4 245.981 175.224 245.249 174.887 244.589C174.549 243.927 174.06 243.356 173.459 242.921Z" fill="white"/>
<path d="M134.264 78.7151C128.264 80.4701 124.259 84.8801 125.054 88.2251C125.849 91.5701 138.659 92.6051 144.944 87.4901C152.999 80.9201 146.249 75.3551 134.264 78.7151Z" fill="white"/>
<path d="M243.93 244.09C245.43 243.94 244.95 240.145 242.175 235.75C240.12 232.39 238.05 233.725 238.815 235.465C242.175 243.16 242.61 244.24 243.93 244.09Z" fill="white"/>
</svg>
