<svg width="25" height="24" viewBox="0 0 25 24" fill="none" xmlns="http://www.w3.org/2000/svg">
<g id="Frame 10">
<g clip-path="url(#clip0_6101_102087)">
<rect x="0.5" width="24" height="24" rx="12" fill="#353535"/>
<g id="Mask group">
<mask id="mask0_6101_102087" style="mask-type:alpha" maskUnits="userSpaceOnUse" x="5" y="14" width="15" height="13">
<path id="Union" fill-rule="evenodd" clip-rule="evenodd" d="M12.1435 18.0469C12.37 18.1769 12.6487 18.1763 12.8746 18.0452L18.4272 14.8221C18.9139 14.5396 19.5239 14.8899 19.5253 15.4527L19.5402 21.8729C19.5408 22.1341 19.402 22.3758 19.1762 22.5069L12.5284 26.3656L12.5284 26.3656C12.5284 26.3656 12.5284 26.3656 12.5284 26.3656C12.5284 26.3656 12.5284 26.3656 12.5284 26.3656L5.86279 22.5379C5.63629 22.4078 5.49639 22.1668 5.49578 21.9056L5.48082 15.4854C5.47951 14.9226 6.08791 14.5695 6.57595 14.8497L12.1435 18.0469Z" fill="#BECDD7"/>
</mask>
<g mask="url(#mask0_6101_102087)">
<rect id="Rectangle 5" width="8.10859" height="8.10859" transform="matrix(0.867188 0.497981 0.00232995 0.999997 5.47754 14.2188)" fill="#E2853E"/>
<rect id="Rectangle 7" width="8.10859" height="8.10859" transform="matrix(-0.864858 0.502016 0.00232998 0.999997 19.5225 14.1865)" fill="#F89F5B"/>
</g>
</g>
<path id="Rectangle 6" d="M12.491 10.1477L19.5226 14.1856L12.5099 18.2563L5.4782 14.2183L12.491 10.1477Z" fill="#EE8E45"/>
<g id="Group 4">
<g id="Union_2">
<path d="M15.686 8.30816L12.5004 10.1573L19.5318 14.195L22.7174 12.3459C23.0666 12.1432 23.0658 11.8159 22.7157 11.6149L16.9522 8.30521C16.6021 8.10415 16.0352 8.10547 15.686 8.30816Z" fill="#FBB27B"/>
<path d="M2.29167 11.6625C1.94248 11.8652 1.94324 12.1925 2.29337 12.3936L5.48752 14.2278L12.5001 10.1573L9.306 8.32305C8.95587 8.12199 8.38895 8.12331 8.03975 8.326L2.29167 11.6625Z" fill="#FBB27B"/>
<path d="M19.5317 14.1951L12.5192 18.2656L5.48791 14.2279L2.30234 16.077C1.95315 16.2797 1.95391 16.607 2.30405 16.8081L8.0675 20.1177C8.41763 20.3188 8.98455 20.3175 9.33375 20.1148L12.5192 18.2658L15.7132 20.0999C16.0633 20.301 16.6302 20.2997 16.9794 20.097L22.7275 16.7604C23.0767 16.5577 23.0759 16.2304 22.7258 16.0294L19.5317 14.1951Z" fill="#FBB27B"/>
</g>
</g>
<g id="Group 6">
<ellipse id="Ellipse 17" cx="7.25907" cy="8.61756" rx="1.28642" ry="3.07655" fill="white"/>
<ellipse id="Ellipse 18" cx="17.7415" cy="8.61756" rx="1.28642" ry="3.07655" fill="white"/>
</g>
<g id="Mask group_2">
<mask id="mask1_6101_102087" style="mask-type:alpha" maskUnits="userSpaceOnUse" x="5" y="-1" width="15" height="20">
<path id="Rectangle 15" d="M19.522 -0.461017L19.522 14.1869L12.5092 18.2575L5.47756 14.2196L5.47756 -0.461017L19.522 -0.461017Z" fill="url(#paint0_linear_6101_102087)"/>
</mask>
<g mask="url(#mask1_6101_102087)">
<path id="Union_3" fill-rule="evenodd" clip-rule="evenodd" d="M15.5575 12.8538C16.9883 11.8763 17.9274 10.2321 17.9274 8.36851C17.9274 5.37066 15.4972 2.94043 12.4993 2.94043C9.50148 2.94043 7.07125 5.37066 7.07125 8.36851C7.07125 10.1785 7.95717 11.7816 9.31904 12.7678C8.5355 13.2059 7.89705 13.8834 7.50904 14.7186C7.34055 15.0812 7.23008 15.5133 7.00915 16.3774L6.53841 18.2187C6.04947 20.131 5.80501 21.0872 5.88803 21.8623C6.0623 23.4891 7.1407 24.8779 8.67369 25.4497C9.404 25.7221 10.3909 25.7221 12.3648 25.7221C14.3387 25.7221 15.3257 25.7221 16.056 25.4497C17.589 24.8779 18.6674 23.4891 18.8416 21.8623C18.9246 21.0872 18.6802 20.131 18.1912 18.2187L17.7205 16.3774L17.7205 16.3774C17.4996 15.5133 17.3891 15.0812 17.2206 14.7186C16.8571 13.9362 16.2739 13.2922 15.5575 12.8538Z" fill="white"/>
</g>
</g>
<g id="Mask group_3">
<mask id="mask2_6101_102087" style="mask-type:alpha" maskUnits="userSpaceOnUse" x="7" y="5" width="11" height="7">
<ellipse id="Ellipse 1" cx="12.5003" cy="8.61756" rx="5.40364" ry="3.07655" fill="black"/>
</mask>
<g mask="url(#mask2_6101_102087)">
<ellipse id="Ellipse 17_2" cx="12.5003" cy="8.61756" rx="5.40364" ry="3.07655" fill="black"/>
</g>
</g>
</g>
</g>
<defs>
<linearGradient id="paint0_linear_6101_102087" x1="12.4903" y1="10.149" x2="12.5092" y2="18.2575" gradientUnits="userSpaceOnUse">
<stop stop-color="#EE8E45"/>
<stop offset="1" stop-color="#D37329"/>
</linearGradient>
<clipPath id="clip0_6101_102087">
<rect x="0.5" width="24" height="24" rx="12" fill="white"/>
</clipPath>
</defs>
</svg>
