<svg width="295" height="274" viewBox="0 0 295 274" fill="none" xmlns="http://www.w3.org/2000/svg">
<path d="M172.518 204.162C170.813 199.62 162.335 202.612 154.833 196.412C151.733 193.823 148.633 183.547 148.633 183.547C148.633 183.547 156.383 189.065 160.862 185.004C165.342 180.943 163.311 169.178 154.662 172.216C145.486 175.471 143.099 171.984 132.621 168.403C122.143 164.823 115.897 171.395 115.897 171.395C99.7924 169.488 89.9344 172.774 82.3859 176.944C75.7209 169.194 63.3209 174.743 57.1519 180.555C50.0064 187.282 51.3859 192.769 52.2074 194.505C43.1709 201.511 42.9074 208.626 43.5429 213.911C44.067 219.469 46.301 224.728 49.9373 228.963C53.5736 233.199 58.4335 236.205 63.8479 237.564C63.8479 237.564 63.5999 249.189 66.8239 250.243C70.0479 251.297 71.3034 247.283 77.6739 244.043C84.5559 242.245 91.8564 235.115 88.0124 230.093C96.5839 235.41 109.511 232.17 110.58 218.375C114.796 226.559 134.156 225.567 144.68 221.026C145.951 230.775 142.851 239.998 138.635 243.95C132.435 249.716 127.336 249.251 124.158 251.979C120.981 254.707 128.529 263.062 145.858 252.305C161.219 242.757 162.335 226.373 151.655 213.121C162.257 216.05 174.285 208.858 172.518 204.162ZM83.7809 205.882C83.6724 206.13 81.6729 194.598 91.9184 189.251C98.9709 185.562 107.124 188.073 108.038 193.699C109.232 201.077 88.9889 192.273 83.7809 205.882Z" fill="#950FFF"/>
<path d="M59.5393 159.056C54.6723 155.739 62.8408 128.738 71.7998 129.172C82.3398 129.684 98.3978 152.856 92.7713 161.226C89.6868 165.814 67.6768 164.59 59.5393 159.056Z" fill="#950FFF"/>
<path d="M31.9027 140.1C29.7482 138.55 33.3597 126.15 37.3122 126.29C41.9622 126.522 49.0612 137.233 46.6122 141.108C45.2017 143.2 35.4987 142.689 31.9027 140.1Z" fill="#950FFF"/>
<path d="M101.388 132.846C99.606 131.606 102.582 121.593 105.837 121.748C109.665 121.949 115.493 130.536 113.447 133.652C112.331 135.357 104.333 134.892 101.388 132.846Z" fill="#950FFF"/>
<path d="M205.657 29.3215C205.657 29.3215 220.491 19.3085 224.939 21.7575C230.163 24.6405 227.311 26.5625 230.163 29.1355C233.898 32.5145 249.445 27.229 252.452 30.6855C256.451 35.3355 249.352 40.125 251.444 44.744C253.537 49.363 264.294 50.1225 264.294 52.6955C264.294 56.121 259.644 55.656 259.287 58.8955C259.101 60.306 261.814 66.5525 259.706 67.622C257.598 68.6915 249.538 58.849 243.973 59.779C239.897 60.461 236.812 65.576 232.86 65.4675C226.768 65.297 215.5 54.137 211.749 56.5395C207.998 58.942 206.804 65.452 202.883 65.297C198.961 65.142 194.327 54.726 191.397 55.4545C188.468 56.183 183.151 65.607 180.051 64.956C176.716 64.0046 173.259 63.5451 169.79 63.592C166.008 63.7315 156.972 69.017 151.035 67.8235C147.935 67.2035 145.517 63.7315 142.867 64.429C138.496 65.5605 134.76 72.4115 132.962 71.1405C131.49 70.102 134.14 65.6225 132.962 63.2975C132.28 62.011 128.312 61.2825 127.863 58.9885C127.258 56.4 138.775 52.587 139.023 48.65C139.271 44.713 136.853 45.55 138.139 41.5045C139.426 37.459 151.376 40.0475 155.592 40.9155C160.94 47.7045 170.457 56.4155 192.157 49.394C203.983 45.55 205.657 29.3215 205.657 29.3215Z" fill="#950FFF"/>
<path d="M194.9 124.445C191.599 125.545 188.623 126.088 185.693 124.042C185.48 123.887 185.236 123.776 184.977 123.716C184.72 123.655 184.453 123.645 184.192 123.688C183.931 123.73 183.68 123.824 183.455 123.963C183.231 124.102 183.035 124.285 182.88 124.499C182.725 124.714 182.615 124.957 182.555 125.215C182.493 125.472 182.483 125.739 182.527 126.001C182.569 126.262 182.662 126.512 182.801 126.737C182.941 126.962 183.124 127.158 183.337 127.312C187.724 130.412 192.343 129.622 196.357 128.211C196.857 128.018 197.26 127.635 197.477 127.145C197.692 126.655 197.706 126.099 197.512 125.6C197.318 125.1 196.936 124.698 196.446 124.481C195.956 124.265 195.4 124.252 194.9 124.445Z" fill="white"/>
<path d="M194.573 105.876C191.81 104.596 188.717 104.206 185.723 104.76C182.623 105.349 180.313 106.992 181.305 108.604C181.575 109.062 182.01 109.398 182.522 109.542C183.033 109.687 183.581 109.628 184.049 109.379C186.498 107.829 190.466 108.232 193.566 109.643C194.006 109.633 194.429 109.481 194.775 109.209C195.12 108.938 195.368 108.562 195.483 108.137C195.596 107.713 195.568 107.263 195.406 106.855C195.241 106.447 194.95 106.104 194.573 105.876Z" fill="white"/>
<path d="M151.439 80.4096C154.864 79.2007 156.879 77.821 161.467 78.286C164.428 78.596 164.459 74.5041 161.669 74.1166C157.82 73.802 153.963 74.6497 150.602 76.55C148.261 77.821 149.827 80.9987 151.439 80.4096Z" fill="white"/>
<path d="M158.35 82.4555C137.782 85.044 143.176 112.836 161.559 111.285C180.531 109.689 176.842 80.146 158.35 82.4555ZM169.417 101.443C168.698 103.225 167.427 104.73 165.79 105.736C161.14 101.738 153.979 96.576 149.639 93.538C154.165 80.2235 175.199 86.9195 169.479 101.443H169.417Z" fill="white"/>
<path d="M184.483 100.885C184.682 101.091 184.921 101.254 185.186 101.361C185.449 101.467 185.734 101.517 186.019 101.506C186.305 101.494 186.585 101.423 186.841 101.295C187.095 101.167 187.321 100.987 187.501 100.765C187.683 100.544 187.813 100.287 187.887 100.011C187.96 99.7346 187.974 99.4461 187.928 99.1643C187.881 98.8825 187.776 98.6138 187.618 98.376C187.459 98.1382 187.252 97.9367 187.01 97.785C180.887 93.941 186.653 87.1985 192.543 89.6785C194.961 90.7015 196.604 86.842 194.093 85.974C192.333 85.338 190.445 85.1274 188.586 85.359C186.728 85.5907 184.95 86.2581 183.398 87.307C179.213 90.5 178.175 96.576 184.483 100.885Z" fill="white"/>
<path d="M218.6 76.9065C196.9 76.8135 199.783 108.48 219.468 106.357C238.424 104.45 236.456 76.984 218.6 76.9065ZM223.994 100.777C219.499 96.7775 212.105 91.4765 207.548 88.268C215.035 70.815 239.664 87.7255 223.994 100.777Z" fill="white"/>
<path d="M199.039 113.316C196.792 115.161 191.925 117.114 190.375 113.487C190.207 113.095 189.92 112.767 189.556 112.547C189.192 112.327 188.769 112.228 188.344 112.262C184.5 112.51 187.445 118.23 180.889 113.595C178.75 112.045 176.812 114.758 178.44 116.804C180.377 119.253 186.469 121.701 188.794 118.013C192.359 122.663 199.644 118.632 201.845 115.842C202.145 115.466 202.291 114.988 202.252 114.508C202.213 114.027 201.992 113.58 201.632 113.257C201.274 112.934 200.806 112.76 200.324 112.771C199.842 112.782 199.382 112.977 199.039 113.316Z" fill="white"/>
<path d="M209.113 72.4735C212.51 71.6506 216.069 71.7684 219.405 72.8145C220.955 73.2175 222.195 70.226 220.304 69.0015C217.405 67.1105 210.632 67.4515 208.043 68.583C207.787 68.6532 207.549 68.7732 207.339 68.9358C207.13 69.0984 206.955 69.3007 206.825 69.531C206.693 69.7612 206.609 70.015 206.577 70.2779C206.543 70.5408 206.563 70.8076 206.633 71.063C206.702 71.3184 206.823 71.5576 206.986 71.7667C207.149 71.976 207.35 72.1509 207.581 72.2819C207.811 72.4129 208.065 72.4972 208.328 72.5301C208.59 72.5629 208.857 72.5437 209.113 72.4735Z" fill="white"/>
<path d="M37.0317 136.457C34.8617 136.643 34.8927 139.557 37.6052 139.325C39.8372 139.03 39.7287 136.039 37.0317 136.457Z" fill="white"/>
<path d="M75.6902 153.275C78.2787 152.67 78.4027 152.097 78.2632 145.99C78.1237 139.403 77.5037 129.204 70.6062 130.49C63.4452 130.692 69.4747 154.763 75.6902 153.275Z" fill="white"/>
<path d="M62.5604 221.336C59.8169 221.615 58.9799 222.328 59.1349 223.738C59.2589 224.777 60.0494 225.676 62.2349 225.521C64.0174 225.397 67.1794 227.164 68.2954 230.651C69.4114 234.139 72.7439 232.325 72.2634 229.457C71.7209 225.613 67.7839 220.809 62.5604 221.336Z" fill="white"/>
<path d="M76.603 155.445C71.24 156.484 71.7824 163.908 76.9129 163.552C82.6634 163.149 82.4 154.314 76.603 155.445Z" fill="white"/>
<path d="M38.3808 132.784C38.356 131.565 38.0873 130.363 37.5903 129.25C37.1563 128.63 35.2343 128.645 34.4903 129.25C33.2038 130.257 34.2733 135.605 36.2573 135.589C37.5748 135.45 38.6443 135.124 38.3808 132.784Z" fill="white"/>
<path d="M291.263 200.72C287.19 200.24 283.09 200.003 278.987 200.007C290.69 184.879 294.751 175.037 294.751 162.807C294.751 138.271 271.144 111.006 253.164 99.4745C260.775 95.9405 266.82 87.927 266.06 79.0765C271.826 76.3795 268.99 67.126 269.889 61.918C271.795 58.3995 277.329 57.733 276.197 50.975C275.267 40.8535 256.977 46.7125 261.023 35.63C261.86 32.437 263.022 28.0505 259.566 24.501C255.985 19.9285 241.384 23.571 236.548 21.184C234.378 5.11051 224.412 8.13301 212.802 15.3095C190.575 -8.69995 149.051 -0.577987 121.29 17.65C107.821 26.578 87.5622 49.146 100.908 99.583C83.5942 99.2885 62.1577 98.808 43.9452 98.6685C-0.648257 98.25 -5.46874 103.489 4.74576 140.379C7.84576 157.351 12.4957 178.71 15.1927 190.723C17.8742 201.573 17.9672 213.012 26.7712 217.631C18.2152 232.495 27.8407 236.231 39.1712 229.767C42.9669 235.113 48.0828 239.385 54.0202 242.167C53.0282 264.999 65.4592 259.078 75.7202 246.957C79.2852 244.554 83.3772 245.407 87.2677 241.857C104.426 253.358 119.461 245.686 138.697 240.819C133.706 249.778 108.255 251.064 106.147 258.985C103.884 267.649 109.433 273.152 116.361 273.601C132.466 274.64 158.692 259.419 161.311 235.735C173.215 232.867 202.386 226.342 209.067 222.839C212.399 221.289 212.43 216.84 212.43 214.422C212.585 209.416 210.384 208.222 197.659 203.665C222.056 205.37 273.02 203.96 290.659 204.037C293.201 204.053 293.898 200.689 291.263 200.72ZM256.946 92.6855C249.398 98.4515 245.879 96.204 245.724 103.008C245.275 123.995 213.283 133.729 187.692 135.109C183.461 135.326 179.834 134.954 176.067 134.814C164.21 134.38 156.119 130.722 151.779 127.064C147.019 123.246 143.161 118.425 140.479 112.944C135.921 102.455 134.919 90.7619 137.627 79.65C142.432 73.698 142.029 71.9 144.06 71.59C145.61 71.311 149.702 74.4575 153.36 73.7755C158.909 72.768 164.675 66.8315 169.263 65.204C173.913 65.979 177.772 72.954 183.213 71.8535C188.777 71.3575 190.405 62.7085 194.435 61.0035C197.225 61.98 198.899 66.94 203.409 66.382C213.019 64.6305 208.4 53.6565 219.343 64.739C224.784 70.474 229.046 72.675 233.479 72.3805C238.796 72.0395 241.493 67.1725 245.027 67.2655C249.382 67.374 256.016 79.092 262.077 79.6655C262.397 82.0928 262.095 84.562 261.198 86.8398C260.3 89.1179 258.837 91.1296 256.946 92.6855ZM214.476 19.0915C218.863 16.131 226.38 12.7675 228.845 13.589C232.255 14.736 231.046 21.339 233.495 23.8655C236.812 28.407 252.482 24.191 256.745 27.3685C260.573 31.3365 253.428 39.04 257.923 43.566C260.914 47.751 271.268 46.914 272.291 51.6725C272.136 58.3685 263.813 56.121 265.797 67.684C266.913 88.485 252.141 61.8095 244.67 63.22C239.633 63.84 238.036 68.676 232.611 68.5985C224.861 68.025 213.159 47.1 206.385 59.8255C205.393 61.3755 204.835 62.2125 203.208 62.321C199.937 62.104 198.449 56.276 194.125 56.958C188.576 57.175 187.088 66.475 182.624 67.808C178.485 67.808 174.331 60.8795 169.604 61.112C163.001 61.4375 155.514 73.512 147.904 68.211C147.34 67.7829 146.693 67.4763 146.005 67.3109C145.317 67.1455 144.602 67.1248 143.905 67.25C138.774 67.715 134.31 81.9285 129.118 79.247C125.01 77.4955 131.055 70.071 125.77 64.987C121.12 60.5695 115.4 57.9035 124.731 54.4315C145.61 46.6815 109.634 34.2815 149.376 35.2735C157.39 60.895 206.23 59.779 207.517 30.6235C212.337 28.7325 215.701 24.1755 214.476 19.0915ZM123.522 20.936C144.525 6.87751 169.712 1.09601 190.637 6.55201C202.712 9.65201 217.499 18.487 207.005 26.4075C206.311 23.9241 205.089 21.6194 203.425 19.6495C201.704 17.681 199.038 19.789 200.805 21.711C204.944 26.175 204.665 36.126 200.247 40.311C199.151 37.6162 197.645 35.1066 195.783 32.871C195.437 32.4599 194.943 32.2029 194.408 32.1563C193.873 32.1098 193.342 32.2777 192.931 32.623C192.52 32.9683 192.263 33.4628 192.216 33.9977C192.17 34.5326 192.337 35.0639 192.683 35.475C194.357 37.459 196.775 41.272 196.915 43.7365C192.826 46.8697 187.938 48.7921 182.81 49.2855C182.262 45.6222 181.12 42.0727 179.431 38.7765C179.189 38.2997 178.766 37.9387 178.257 37.773C177.749 37.6073 177.195 37.6504 176.718 37.893C176.241 38.1356 175.881 38.5576 175.715 39.0664C175.549 39.5751 175.593 40.1287 175.835 40.6055C177.274 43.4087 178.263 46.4219 178.764 49.5335C165.682 49.6575 152.244 42.109 151.918 26.8105C151.903 26.2747 151.675 25.767 151.286 25.3983C150.897 25.0294 150.377 24.8295 149.841 24.842C146.741 25.1675 148.152 29.1355 148.291 31.135C132.125 30.2205 121.197 33.925 126.901 44.992C128.994 49.0685 126.39 49.0685 123.088 50.7115C108.255 56.9115 115.726 62.662 123.987 69.4045C124.437 72.644 122.437 77.1545 124.592 80.518C117.028 83.4165 106.116 84.455 101.869 84.7495C97.3737 55.7955 104.829 33.4445 123.522 20.936ZM22.5862 204.533C17.6107 183.918 13.7512 165.241 8.71373 139.666C7.16376 130.521 1.47526 114.199 5.76876 108.34C17.5642 98.157 66.4047 104.171 86.7097 103.303C100.598 104.45 112.362 101.35 121.151 108.232C129.521 114.85 129.924 146.362 134.899 157.382C129.645 155.677 120.562 159.413 117.555 161.769C114.387 161.44 111.197 161.4 108.022 161.645C102.644 147.695 81.6722 117.392 68.4817 121.081C56.9342 124.321 46.9212 157.258 46.0842 169.426C37.7452 175.626 37.0787 186.786 40.0857 190.63C28.0577 199.93 33.0177 210.501 28.9567 214.221C26.6007 213.151 23.7642 209.431 22.5862 204.533ZM145.114 166.326C155.592 173.518 164.923 164.481 167.821 171.673C170.115 177.362 160.195 184.073 156.847 185.623C147.547 176.478 139.797 165.38 124.003 162.745C131.272 158.7 139.875 162.73 145.114 166.326ZM52.1137 180.942L53.6637 181.81C49.8676 183.233 46.3366 185.282 43.2167 187.871C37.2492 173.084 62.9017 162.792 74.5112 169.271C85.0667 173.626 78.4947 182.229 67.6912 181.423C60.4217 180.942 57.6472 179.578 54.2682 177.532C53.8183 177.3 53.2971 177.246 52.8087 177.379C52.3203 177.514 51.9004 177.827 51.6326 178.258C51.3649 178.687 51.2688 179.202 51.3638 179.699C51.4587 180.197 51.7375 180.642 52.1447 180.942H52.1137ZM50.7187 166.434C52.5167 156.204 61.5687 127.25 70.1402 125.452C78.7117 123.654 98.6912 149.121 103.202 162.079C95.514 162.677 88.0774 165.089 81.5017 169.116C76.7277 163.784 62.0957 160.529 50.7497 166.45L50.7187 166.434ZM87.7172 234.913C83.2377 242.663 78.6032 239.749 73.0852 243.826C66.4512 250.026 57.1822 262.054 57.8332 243.826C60.9332 245.934 66.0017 243.531 61.7082 240.726C52.6562 238.525 41.5582 230.449 39.6052 221.242C39.4901 220.72 39.1731 220.263 38.7231 219.973C38.2731 219.683 37.7266 219.582 37.2027 219.692C34.1802 220.653 36.3657 224.342 37.0942 226.28C34.4282 227.473 30.4757 230.511 28.1662 229.039C24.4152 226.636 34.4747 215.368 34.7847 208.982C35.6527 196.706 49.5097 185.732 59.8172 184.337C69.4737 187.685 86.5857 183.577 83.5167 172.712C97.9162 162.776 129.226 162.854 142.541 176.416C138.697 173.688 130.559 173.409 125.491 175.486C119.694 177.842 116.02 181.392 118.128 183.794C118.321 183.982 118.551 184.126 118.803 184.219C119.055 184.312 119.324 184.352 119.592 184.337C119.86 184.321 120.122 184.249 120.361 184.126C120.6 184.004 120.811 183.833 120.98 183.624C135.395 169.534 152.817 188.088 163.357 196.132C167.372 198.535 179.787 195.714 181.213 200.24C182.903 209.757 168.069 215.74 159.963 215.492C155.313 215.213 149.33 209.896 147.439 207.866C145.548 205.835 142.665 208.749 144.494 210.625C145.697 211.876 146.981 213.046 148.338 214.128C144.571 225.102 125.909 228.171 113.912 226.342C114.284 218.592 111.494 213.446 106.395 208.625C121.43 195.776 105.046 176.959 88.8332 189.235C82.1062 194.334 77.1152 203.092 80.7112 209.385C80.9877 209.828 81.4258 210.148 81.9331 210.275C82.4402 210.402 82.9768 210.326 83.4295 210.064C83.8822 209.802 84.2155 209.376 84.359 208.872C84.5025 208.37 84.445 207.832 84.1987 207.37C82.0752 203.665 85.2837 196.876 91.2202 192.536C94.1652 188.94 108.627 186.584 108.394 197.481C107.883 201.712 103.636 206.362 99.6367 209.075C96.8002 211.787 101.388 214.205 103.341 211.369C119.198 224.327 103.171 244.043 88.4457 230.155C84.5397 227.644 83.5167 232.836 87.7482 234.913H87.7172ZM130.544 238.804C113.494 243.144 104.907 247.871 90.0267 238.726C90.3987 238.22 90.7707 237.662 91.1427 237.052C97.7147 241.392 110.828 236.851 112.843 230.248C122.034 232.108 136.093 229.69 142.587 226.125C142.909 229.428 142.502 232.762 141.394 235.89C137.379 236.944 133.799 237.92 130.575 238.804H130.544ZM139.053 261.961C132.466 265.789 125.258 269.556 118.671 269.711C112.827 269.85 109.076 266.518 109.975 261.31C110.58 257.791 115.54 256.66 118.981 255.203C132.311 249.747 149.02 248.615 146.276 223.536C148.522 221.597 150.339 219.212 151.608 216.53C162.35 226.76 158.134 250.63 139.084 261.961H139.053ZM208.307 213.818C208.307 215.058 208.416 218.468 207.346 219.119C201.487 222.374 173.401 228.698 161.451 231.519C161.224 227.356 160.285 223.261 158.676 219.413C168.999 220.281 182.81 214.004 185.321 203.712C199.55 208.548 208.385 211.012 208.338 213.818H208.307ZM185.057 199.403C181.058 188.553 166.147 197.62 160.025 188.553C168.72 184.073 173.572 175.393 171.216 169.953C168.968 164.714 165.14 164.574 156.863 165.566C149.655 166.419 146.183 161.04 139.627 158.839C134.806 146.641 134.248 130.939 131.164 119.082C128.374 107.937 122.856 99.8 105.093 99.614C104.085 95.925 103.248 92.3135 102.582 88.764C107.79 88.3765 120.484 87.09 128.467 83.2615C129.993 83.7476 131.643 83.6707 133.117 83.0445C128.901 112.2 144.246 137 174.672 138.333C168.751 144.192 169.325 150.345 161.125 143.634C160.753 143.248 160.249 143.014 159.715 142.977C159.18 142.94 158.65 143.102 158.227 143.432C156.878 144.765 157.839 146.873 161.606 149.214C166.256 152.097 169.666 152.453 173.711 146.78C177.307 141.774 179.074 138.891 180.888 138.813C185.538 138.581 184.856 150.438 194.14 152.05C198.899 152.887 202.479 150.097 205.331 146.92C207.098 144.951 204.742 142.115 202.603 144.006C198.527 147.617 192.28 151.756 187.444 138.813C212.244 137.945 250.111 128.521 249.444 102.047C260.139 107.751 277.204 122.507 284.738 138.379C269.238 138.689 245.988 146.424 227.822 163.582C224.722 158.312 223.606 154.639 221.141 155.197C219.064 155.662 219.328 158.824 224.04 166.589C211.33 179.981 206.649 194.489 205.905 199.837C198.651 199.589 190.901 199.387 185.119 199.403H185.057ZM210.477 200.023C212.622 189.83 217.424 180.388 224.396 172.65C240.315 154.53 263.766 141.417 286.613 142.425C297.2 167.628 287.419 182.942 273.702 199.976C229.155 200.333 250.793 201.48 210.539 200.023H210.477Z" fill="white"/>
<path d="M67.2561 204.115C66.9151 200.209 63.8461 197.915 59.5061 198.225C56.1736 198.458 54.4686 201.155 55.9411 202.457C57.4136 203.759 58.6071 201.325 60.8856 202.348C61.3422 202.55 61.7373 202.867 62.0306 203.27C62.324 203.675 62.5052 204.149 62.5556 204.645C62.606 205.141 62.524 205.642 62.3177 206.096C62.1115 206.55 61.7885 206.942 61.3816 207.231C56.8091 205.541 55.9876 210.548 58.2816 214.066C61.2111 219.367 68.6356 216.112 64.8691 210.052C66.4191 207.99 69.0541 206.828 70.4181 210.393C71.3016 212.718 69.9376 215.244 71.9681 216.004C75.9826 217.6 76.8041 203.278 67.2561 204.115Z" fill="white"/>
<path d="M45.7732 206.285C43.0297 206.285 42.1152 206.859 42.1152 208.285C42.1152 209.339 42.7972 210.315 45.0602 210.408C46.4467 210.712 47.7087 211.428 48.68 212.462C49.6512 213.497 50.2861 214.802 50.5007 216.205C51.1827 219.662 54.7167 218.36 54.5772 215.477C54.3912 211.586 51.0277 206.347 45.7732 206.285Z" fill="white"/>
<path d="M24.0899 168.403C20.6024 150.624 12.9609 123.22 16.1539 116.974C18.7889 111.859 34.3819 113.874 42.7984 113.161C60.0189 113.161 78.3709 112.742 102.194 113.021C110.471 113.207 117.276 112.185 119.849 120.462C120.655 123.035 123.507 123.561 123.073 119.702C121.864 108.852 111.835 109.177 102.256 108.976C85.2064 108.79 61.4449 108.976 52.4549 109.146C6.45099 109.1 6.21849 103.69 16.1229 150.717C17.7969 155.15 20.6024 176.556 23.2684 187.809C24.6789 193.776 25.5624 195.822 27.0504 195.419C28.5384 195.016 28.3679 193.094 27.3604 187.933C26.3529 182.771 24.5239 172.65 24.0899 168.403Z" fill="white"/>
<path d="M26.4756 129.39C22.5076 137.295 22.7091 141.79 24.9256 143.913C27.7156 146.61 35.4501 144.642 41.1696 144.409C53.2441 143.913 53.4301 137.434 45.8196 128.382C38.2091 119.33 32.2881 117.827 26.4756 129.39ZM46.2691 138.271C45.9901 140.317 37.7906 140.844 34.0551 141.092C27.7311 141.526 25.5766 140.829 29.9941 131.374C33.7606 123.283 37.2326 123.624 42.6576 130.971C44.4091 133.373 46.5016 136.473 46.2691 138.271Z" fill="white"/>
<path d="M108.255 130.97C109.402 130.97 109.914 130.164 109.542 128.428C109.247 125.437 108.193 123.081 106.132 125.018C105.062 126.026 106.349 131.125 108.255 130.97Z" fill="white"/>
<path d="M106.488 118.586C99.3731 119.95 96.1801 134.877 98.9081 137.496C102.008 140.426 106.999 138.953 111.727 138.736C120.779 138.302 121.662 133.699 117.353 127.003C112.874 120.028 109.665 117.982 106.488 118.586ZM116.501 133.59C115.695 135.047 113.912 135.14 112.223 135.28C103.45 135.931 97.4821 139.263 102.923 126.429C108.162 114.029 117.617 131.622 116.501 133.59Z" fill="white"/>
<path d="M108.828 131.653C106.937 131.839 106.968 134.613 109.339 134.35C111.292 134.071 111.199 131.265 108.828 131.653Z" fill="white"/>
</svg>
